<?xml version="1.0" encoding="utf-8"?>
<!-- Generator: Adobe Illustrator 22.0.1, SVG Export Plug-In . SVG Version: 6.00 Build 0)  -->
<svg version="1.1" id="Capa_1" xmlns="http://www.w3.org/2000/svg" xmlns:xlink="http://www.w3.org/1999/xlink" x="0px" y="0px"
	 viewBox="0 0 398 324.6" enable-background="new 0 0 398 324.6" xml:space="preserve">
<g>
	<linearGradient id="SVGID_1_" gradientUnits="userSpaceOnUse" x1="20.286" y1="159.2085" x2="363.286" y2="159.2085">
		<stop  offset="0" style="stop-color:#FF55D0"/>
		<stop  offset="1" style="stop-color:#15FF83"/>
	</linearGradient>
	<path fill="none" stroke="url(#SVGID_1_)" stroke-width="6" stroke-miterlimit="10" d="M360.3,269.1c-106.7-14.6-220-12.1-337,0
		v-220c118.5,5.9,232.4,7.4,337,0V269.1z"/>
	<linearGradient id="SVGID_2_" gradientUnits="userSpaceOnUse" x1="104.5226" y1="161.7677" x2="235.1001" y2="161.7677">
		<stop  offset="0" style="stop-color:#FF009C"/>
		<stop  offset="1" style="stop-color:#15FF83"/>
	</linearGradient>
	<circle fill="url(#SVGID_2_)" cx="169.8" cy="161.8" r="65.3"/>
	<g>
		<path fill="#FFFFFF" d="M173.3,200.7v-9.6c-4.4-0.1-8.9-1.8-11.5-4.2l1.8-6.3c2.7,2.3,6.6,4.1,10.8,4.1c5.3,0,9-3.9,9-9.3
			c0-5.2-2.9-8.4-8.5-11.3c-7.7-3.8-12.4-8.1-12.4-16.4c0-7.9,4.4-13.8,11.4-15.3v-9.6h4.7v9.2c4.5,0.2,7.6,1.7,9.8,3.3l-1.9,6.3
			c-1.6-1.1-4.7-3.2-9.5-3.2c-5.8,0-8,4.4-8,8.1c0,4.9,2.8,7.4,9.3,10.8c7.8,4,11.7,8.9,11.7,17.3c0,7.5-4.1,14.5-11.9,16.1v9.9
			H173.3z"/>
	</g>
	<linearGradient id="SVGID_3_" gradientUnits="userSpaceOnUse" x1="215.4597" y1="94.229" x2="272.7651" y2="94.229">
		<stop  offset="0" style="stop-color:#FF009C"/>
		<stop  offset="1" style="stop-color:#15FF83"/>
	</linearGradient>
	<circle fill="url(#SVGID_3_)" cx="244.1" cy="94.2" r="28.7"/>
	<g>
		<path fill="#FFFFFF" d="M245.6,111.3v-4.2c-1.9,0-3.9-0.8-5.1-1.8l0.8-2.8c1.2,1,2.9,1.8,4.8,1.8c2.3,0,3.9-1.7,3.9-4.1
			c0-2.3-1.3-3.7-3.7-4.9c-3.4-1.7-5.4-3.6-5.4-7.2c0-3.5,1.9-6.1,5-6.7v-4.2h2v4c2,0.1,3.3,0.7,4.3,1.5l-0.8,2.7
			c-0.7-0.5-2-1.4-4.2-1.4c-2.5,0-3.5,1.9-3.5,3.6c0,2.2,1.2,3.2,4.1,4.7c3.4,1.7,5.1,3.9,5.1,7.6c0,3.3-1.8,6.4-5.2,7.1v4.3H245.6z
			"/>
	</g>
	<linearGradient id="SVGID_4_" gradientUnits="userSpaceOnUse" x1="77.7651" y1="161.7677" x2="117.0076" y2="161.7677">
		<stop  offset="0" style="stop-color:#FF55D0"/>
		<stop  offset="1" style="stop-color:#15FF83"/>
	</linearGradient>
	<line fill="none" stroke="url(#SVGID_4_)" stroke-width="3" stroke-miterlimit="10" x1="77.8" y1="161.8" x2="117" y2="161.8"/>
	<linearGradient id="SVGID_5_" gradientUnits="userSpaceOnUse" x1="55.684" y1="162.4436" x2="377.684" y2="162.4436">
		<stop  offset="0" style="stop-color:#FF55D0"/>
		<stop  offset="1" style="stop-color:#15FF83"/>
	</linearGradient>
	<path fill="none" stroke="url(#SVGID_5_)" stroke-width="6" stroke-miterlimit="10" d="M58.7,49.1V38.8c89.7,8.5,192.7,7.3,303,0.8
		c7.1-0.4,13,5.2,13,12.3v220.2c0,7.3-6.3,13-13.6,12.3c-111.4-11.5-215-14.2-302.4,1.4v-10.9"/>
</g>
</svg>
