<svg class="icon-buying-home" xmlns="http://www.w3.org/2000/svg" xmlns:xlink="http://www.w3.org/1999/xlink" viewBox="0 0 397.97 324.6"><defs><style>.cls-1,.cls-3,.cls-4,.cls-6,.cls-7,.cls-8{fill:none;stroke-miterlimit:10;}.cls-1,.cls-3,.cls-4,.cls-8{stroke-width:2.5px;}.cls-1{stroke:url(#Degradado_sin_nombre_18);}.cls-2{fill:#efefef;}.cls-3{stroke:url(#Degradado_sin_nombre_12);}.cls-4{stroke:url(#Degradado_sin_nombre_12-2);}.cls-5{fill:url(#Degradado_sin_nombre_15);}.cls-6,.cls-7{stroke-width:2px;}.cls-6{stroke:url(#Degradado_sin_nombre_12-3);}.cls-7{stroke:url(#Degradado_sin_nombre_12-4);}.cls-8{stroke:url(#Degradado_sin_nombre_12-5);}.cls-9{opacity:0.14;fill:url(#Degradado_sin_nombre_12-6);}</style><linearGradient id="Degradado_sin_nombre_18" y1="131.75" x2="388.5" y2="131.75" gradientUnits="userSpaceOnUse"><stop offset="0" stop-color="#f7931e"/><stop offset="0.3" stop-color="#f7911e"/><stop offset="0.47" stop-color="#f6881f"/><stop offset="0.61" stop-color="#f57a1f"/><stop offset="0.74" stop-color="#f36620"/><stop offset="0.85" stop-color="#f14c22"/><stop offset="0.95" stop-color="#ee2d23"/><stop offset="1" stop-color="#ed1c24"/></linearGradient><linearGradient id="Degradado_sin_nombre_12" x1="15.25" y1="39.25" x2="379.25" y2="39.25" gradientUnits="userSpaceOnUse"><stop offset="0" stop-color="#f15a24"/><stop offset="1" stop-color="#ed1c24"/></linearGradient><linearGradient id="Degradado_sin_nombre_12-2" x1="185" y1="146.25" x2="343.5" y2="146.25" xlink:href="#Degradado_sin_nombre_12"/><linearGradient id="Degradado_sin_nombre_15" x1="256.01" y1="146.18" x2="271.54" y2="146.18" gradientUnits="userSpaceOnUse"><stop offset="0" stop-color="#f15a24"/><stop offset="1" stop-color="#f7931e"/></linearGradient><linearGradient id="Degradado_sin_nombre_12-3" x1="46.25" y1="131.25" x2="161.25" y2="131.25" xlink:href="#Degradado_sin_nombre_12"/><linearGradient id="Degradado_sin_nombre_12-4" x1="72.25" y1="146.25" x2="135.25" y2="146.25" xlink:href="#Degradado_sin_nombre_12"/><linearGradient id="Degradado_sin_nombre_12-5" x1="338.98" y1="261.92" x2="376.48" y2="261.92" gradientTransform="translate(-3.98 6.83)" xlink:href="#Degradado_sin_nombre_12"/><linearGradient id="Degradado_sin_nombre_12-6" y1="20.25" x2="374.25" y2="20.25" xlink:href="#Degradado_sin_nombre_12"/></defs><title>danger</title><g id="Capa_2" data-name="Capa 2"><g id="Capa_1-2" data-name="Capa 1"><path class="cls-1" d="M319.25,262.25H4.75a3.5,3.5,0,0,1-3.5-3.5V4.75a3.5,3.5,0,0,1,3.5-3.5h379a3.5,3.5,0,0,1,3.5,3.5v254a3.5,3.5,0,0,1-3.5,3.5"/><rect class="cls-2" x="15.25" y="56.25" width="359" height="188"/><line class="cls-3" x1="15.25" y1="39.25" x2="379.25" y2="39.25"/><circle class="cls-4" cx="264.25" cy="146.25" r="78"/><path class="cls-5" d="M256,183.09c0-4.74,3.29-8.16,7.76-8.16,4.74,0,7.77,3.42,7.77,8.16s-3,8.16-7.77,8.16S256,187.7,256,183.09Zm3.29-18.82-1.84-63.17h12.63l-1.84,63.17Z"/><line class="cls-6" x1="46.25" y1="131.25" x2="161.25" y2="131.25"/><line class="cls-7" x1="72.25" y1="146.25" x2="135.25" y2="146.25"/><rect class="cls-8" x="336.25" y="206.25" width="35" height="125" rx="17.5" ry="17.5" transform="translate(-89.99 247.34) rotate(-34.46)"/><rect class="cls-9" x="15.25" y="10.25" width="359" height="20"/></g></g></svg>
