<?xml version="1.0" encoding="utf-8"?>
<!-- Generator: Adobe Illustrator 22.0.1, SVG Export Plug-In . SVG Version: 6.00 Build 0)  -->
<svg version="1.1" id="Capa_1" xmlns="http://www.w3.org/2000/svg" xmlns:xlink="http://www.w3.org/1999/xlink" x="0px" y="0px"
	 viewBox="0 0 398 324.6" enable-background="new 0 0 398 324.6" xml:space="preserve">
<g>
	<g>
		
			<linearGradient id="SVGID_1_" gradientUnits="userSpaceOnUse" x1="111.1145" y1="235.8047" x2="286.8554" y2="235.8047" gradientTransform="matrix(1 0 0 -1 0 326)">
			<stop  offset="0" style="stop-color:#EDB524"/>
			<stop  offset="1" style="stop-color:#BF3000"/>
		</linearGradient>
		<circle fill="none" stroke="url(#SVGID_1_)" stroke-width="5" stroke-miterlimit="10" cx="199" cy="90.2" r="85.4"/>
		
			<linearGradient id="SVGID_2_" gradientUnits="userSpaceOnUse" x1="331.0585" y1="30.6633" x2="343.3908" y2="30.6633" gradientTransform="matrix(1 0 0 -1 0 326)">
			<stop  offset="0" style="stop-color:#EDB524"/>
			<stop  offset="1" style="stop-color:#BF3000"/>
		</linearGradient>
		<path fill="none" stroke="url(#SVGID_2_)" stroke-width="6" stroke-miterlimit="10" d="M333.9,274.6c4.3,13.6,6.5,27.8,6.5,42.4"
			/>
		
			<linearGradient id="SVGID_3_" gradientUnits="userSpaceOnUse" x1="55.0792" y1="80.9773" x2="272.0025" y2="80.9773" gradientTransform="matrix(1 0 0 -1 0 326)">
			<stop  offset="0" style="stop-color:#EDB524"/>
			<stop  offset="1" style="stop-color:#BF3000"/>
		</linearGradient>
		<path fill="none" stroke="url(#SVGID_3_)" stroke-width="5" stroke-miterlimit="10" d="M57.6,317c0-78.1,63.3-141.4,141.4-141.4
			c25.4,0,50.1,6.8,71.7,19.6"/>
		<g>
			<linearGradient id="SVGID_4_" gradientUnits="userSpaceOnUse" x1="298.1125" y1="234.3381" x2="316.7597" y2="234.3381">
				<stop  offset="0" style="stop-color:#EDB524"/>
				<stop  offset="1" style="stop-color:#BF3000"/>
			</linearGradient>
			<path fill="url(#SVGID_4_)" d="M305.7,260.1v-6.3c-2.9-0.1-5.9-1.2-7.6-2.8l1.2-4.2c1.8,1.5,4.4,2.7,7.2,2.7
				c3.5,0,5.9-2.6,5.9-6.2c0-3.5-1.9-5.6-5.6-7.5c-5.1-2.5-8.2-5.4-8.2-10.9c0-5.2,2.9-9.2,7.5-10.1v-6.3h3.1v6.1
				c3,0.1,5,1.1,6.5,2.2l-1.2,4.1c-1-0.8-3.1-2.1-6.3-2.1c-3.8,0-5.3,2.9-5.3,5.4c0,3.3,1.8,4.9,6.2,7.2c5.1,2.6,7.7,5.9,7.7,11.5
				c0,5-2.7,9.6-7.9,10.7v6.5H305.7z"/>
		</g>
	</g>
	<linearGradient id="SVGID_5_" gradientUnits="userSpaceOnUse" x1="259.7391" y1="233.3381" x2="350.486" y2="233.3381">
		<stop  offset="0" style="stop-color:#EDB524"/>
		<stop  offset="1" style="stop-color:#BF3000"/>
	</linearGradient>
	<circle fill="none" stroke="url(#SVGID_5_)" stroke-width="6" stroke-miterlimit="10" cx="305.1" cy="233.3" r="42.4"/>
</g>
</svg>
