<svg height="512" viewBox="0 0 64 64" width="512" xmlns="http://www.w3.org/2000/svg" xmlns:xlink="http://www.w3.org/1999/xlink"><linearGradient id="gradient_ice" gradientUnits="userSpaceOnUse" x1="1.952" x2="71.615" y1="71.133" y2="-2.102"><stop offset="0" stop-color="#fff200"/><stop offset="1" stop-color="#cd118c"/></linearGradient><linearGradient id="gradient_ice-2" x1="-10.535" x2="59.127" xlink:href="#gradient_ice" y1="59.255" y2="-13.98"/><linearGradient id="gradient_ice-3" x1="-1.085" x2="68.577" xlink:href="#gradient_ice" y1="68.244" y2="-4.991"/><linearGradient id="gradient_ice-4" x1="3.678" x2="73.34" xlink:href="#gradient_ice" y1="72.774" y2="-.46"/><path d="m55.685 51.727-4.695-32.869a1 1 0 0 0 -.99-.858h-8v-6a10 10 0 0 0 -20 0v6h-8a1 1 0 0 0 -.99.858l-4.695 32.869a9 9 0 0 0 8.909 10.273h29.552a9 9 0 0 0 8.909-10.273zm-31.685-39.727a8 8 0 0 1 16 0v6h-16zm-9.133 8h34.266l1.129 7.907-36.537.093zm37.2 37.586a7 7 0 0 1 -5.291 2.414h-29.552a7 7 0 0 1 -6.93-7.99l3.145-22.01 37.109-.09 3.158 22.1a7 7 0 0 1 -1.642 5.576z" fill="url(#gradient_ice)"/><path d="m23 27a3 3 0 1 0 -3-3 3 3 0 0 0 3 3zm0-4a1 1 0 1 1 -1 1 1 1 0 0 1 1-1z" fill="url(#gradient_ice-2)"/><path d="m41 27a3 3 0 1 0 -3-3 3 3 0 0 0 3 3zm0-4a1 1 0 1 1 -1 1 1 1 0 0 1 1-1z" fill="url(#gradient_ice-3)"/><g fill="url(#gradient_ice-4)"><path d="m34 41h2a3 3 0 0 0 -3-3v-1h-2v1a3 3 0 0 0 0 6v2a1 1 0 0 1 -1-1h-2a3 3 0 0 0 3 3v1h2v-1a3 3 0 0 0 0-6v-2a1 1 0 0 1 1 1zm0 4a1 1 0 0 1 -1 1v-2a1 1 0 0 1 1 1zm-3-3a1 1 0 0 1 0-2z"/><path d="m32 34a9 9 0 1 0 9 9 9.011 9.011 0 0 0 -9-9zm0 16a7 7 0 1 1 7-7 7.008 7.008 0 0 1 -7 7z"/></g></svg>