<svg height="496pt" viewBox="0 0 496 495" width="496pt" xmlns="http://www.w3.org/2000/svg" xmlns:xlink="http://www.w3.org/1999/xlink"><linearGradient id="a" gradientUnits="userSpaceOnUse" x1="248" x2="248" y1="496.478" y2=".4988"><stop offset="0" stop-color="#9f2fff"/><stop offset="1" stop-color="#0bb1d3"/></linearGradient><path d="m192 400.476562h96v-64h-96zm16-48h64v32h-64zm-16-48h96v16h-96zm96-32v16h-96v-16zm48 32h96v16h-96zm0 32h96v16h-96zm0 32h96v16h-96zm-244.257812-274.125-6.621094-14.5625 85.589844-38.902343 6.625 14.558593zm-79.773438 20.71875 36.03125 16.375v97.5625l3.878906 2.328126c1.273438.757812 24.464844 14.261718 76.121094 21.148437v211.992187h144.808594c3.71875 18.234376 19.871094 32 39.191406 32s35.480469-13.765624 39.191406-32h144.808594v-224h-32v-48h-65.472656c-2.414063-6.773437-7.75-12.109374-14.527344-14.527343v-55.976563l-18.625-3.878906 6.648438-3.023438c7.273437-3.304687 11.976562-10.601562 11.976562-18.59375 0-7.992187-4.703125-15.285156-11.96875-18.589843l-161.4375-73.382813c-11.769531-5.339844-25.425781-5.339844-37.1875 0l-161.429688 73.382813c-7.273437 3.304687-11.976562 10.597656-11.976562 18.589843 0 7.992188 4.703125 15.289063 11.96875 18.59375zm52.03125 23.648438 109.40625 49.734375c5.882812 2.671875 12.128906 4.023437 18.59375 4.023437s12.710938-1.351562 18.59375-4.023437l109.40625-49.734375v80.839844c-12.007812 5.542968-52.175781 20.917968-128 20.917968-75.855469 0-116.03125-15.390624-128-20.917968zm112 277.757812v-160.246093c5.167969.152343 10.472656.246093 16 .246093 53.265625 0 89.640625-7.246093 112-13.972656v173.972656zm304-160v192h-144v8c0 13.234376-10.769531 24-24 24s-24-10.765624-24-24v-8h-144v-194.167968c5.089844.480468 10.441406.882812 16 1.21875v176.949218h304v-176zm-116.808594-35.773437c3.710938 2.359375 8.089844 3.773437 12.808594 3.773437s9.097656-1.414062 12.808594-3.773437l11.191406 44.757813v7.015624h-48v-7.015624zm12.808594-28.226563c4.414062 0 8 3.59375 8 8 0 4.410157-3.585938 8-8 8s-8-3.589843-8-8c0-4.40625 3.585938-8 8-8zm-8-57.496093v42.96875c-8.792969 3.136719-15.167969 11.199219-15.832031 20.898437l-15.921875 63.695313-.246094 25.933593h80v-24l-13.792969-56h45.792969v208h-128v-179.496093c7.640625-3.054688 11.617188-5.34375 12.121094-5.644531l3.878906-2.328126v-97.5625l4.71875-2.144531zm-349.40625-42.527344 161.4375-73.375c3.785156-1.726563 7.808594-2.601563 11.96875-2.601563s8.183594.875 11.96875 2.59375l161.445312 73.382813c1.570313.710937 2.585938 2.296875 2.585938 4.023437 0 1.730469-1.015625 3.3125-2.59375 4.027344l-26.542969 12.0625-153.230469-31.929687-3.265624 15.664062 131.839843 27.464844-110.238281 50.113281c-7.5625 3.445313-16.375 3.4375-23.9375 0l-161.445312-73.375c-1.570313-.714844-2.585938-2.296875-2.585938-4.027344 0-1.726562 1.015625-3.3125 2.59375-4.023437zm0 0" fill="url(#a)"/></svg>