<svg height="512pt" viewBox="-43 0 512 512" width="512pt" xmlns="http://www.w3.org/2000/svg" xmlns:xlink="http://www.w3.org/1999/xlink"><linearGradient id="a"><stop offset="0" stop-color="#662d91"/><stop offset=".437" stop-color="#3873b3"/><stop offset="1" stop-color="#00c9dd"/></linearGradient><linearGradient id="b" gradientTransform="matrix(.995687 0 0 -.995687 -42.667156 502.813994)" gradientUnits="userSpaceOnUse" x1="44.8005" x2="459.0291" xlink:href="#a" y1="452.6654" y2="38.4283"/><linearGradient id="c" gradientTransform="matrix(.995687 0 0 -.995687 -42.667156 502.813994)" gradientUnits="userSpaceOnUse" x1="192.1062" x2="606.3347" xlink:href="#a" y1="599.9625" y2="185.734"/><linearGradient id="d" gradientTransform="matrix(.995687 0 0 -.995687 -42.667156 502.813994)" gradientUnits="userSpaceOnUse" x1="110.7026" x2="524.9312" xlink:href="#a" y1="518.559" y2="104.3304"/><linearGradient id="e" gradientTransform="matrix(.995687 0 0 -.995687 -42.667156 502.813994)" gradientUnits="userSpaceOnUse" x1="134.271" x2="548.4995" xlink:href="#a" y1="542.1273" y2="127.8988"/><linearGradient id="f" gradientTransform="matrix(.995687 0 0 -.995687 -42.667156 502.813994)" gradientUnits="userSpaceOnUse" x1="78.564" x2="492.7925" xlink:href="#a" y1="486.4203" y2="72.1918"/><linearGradient id="g" gradientTransform="matrix(.995687 0 0 -.995687 -42.667156 502.813994)" gradientUnits="userSpaceOnUse" x1="50.7105" x2="464.939" xlink:href="#a" y1="458.5668" y2="44.3383"/><linearGradient id="h" gradientTransform="matrix(.995687 0 0 -.995687 -42.667156 502.813994)" gradientUnits="userSpaceOnUse" x1="108.5601" x2="522.7886" xlink:href="#a" y1="516.4164" y2="102.1879"/><linearGradient id="i" gradientTransform="matrix(.995687 0 0 -.995687 -42.667156 502.813994)" gradientUnits="userSpaceOnUse" x1="125.7007" x2="539.9292" xlink:href="#a" y1="533.5569" y2="119.3285"/><path d="m17.066406 418.003906c-.003906-4.890625.597656-9.761718 1.78125-14.507812l45.792969-183.148438c1.617187-6.480468 5.71875-12.0625 11.414063-15.546875.25-.15625.488281-.324219.726562-.496093l76.800781-58.964844v107.128906l-31.632812 31.632812 12.066406 12.0625 110.640625-110.625c8.453125-8.449218 22.15625-8.445312 30.605469.003907 4.058593 4.058593 6.335937 9.5625 6.335937 15.296875v1.332031c.011719 5.089844-1.78125 10.015625-5.058594 13.910156l-69.539062 76.859375c-1.71875 1.90625-2.492188 4.484375-2.097656 7.023438l.648437 4.265625c8.53125 55.550781-22.953125 103.789062-80.214843 122.878906l5.394531 16.214844c24.957031-7.921875 47.261719-22.535157 64.484375-42.257813h61.441406l-32.128906 45.890625c-10.847656 15.554688-26.171875 27.4375-43.9375 34.066407l-38.535156 14.449218c-3.328126 1.253906-5.527344 4.441406-5.523438 7.996094v8.53125h17.070312v-2.621094l32.996094-12.371094c20.992188-7.84375 39.105469-21.886718 51.933594-40.261718l38.980469-55.679688h123.554687c14.136719 0 25.597656-11.460937 25.597656-25.601562v-349.863282c0-14.140624-11.460937-25.601562-25.597656-25.601562h-221.867187c-14.136719 0-25.597657 11.460938-25.597657 25.601562v98.191407l-86.886718 66.695312c-9.3125 5.84375-15.992188 15.066407-18.640625 25.738281l-45.777344 183.132813c-1.527344 6.097656-2.30078125 12.359375-2.296875 18.644531v93.996094h17.066406zm162.132813-400.9375h221.867187c4.710938 0 8.535156 3.820313 8.535156 8.535156v349.867188c0 4.710938-3.824218 8.53125-8.535156 8.53125h-193.707031c14.476563-24.863281 19.792969-54.007812 15.027344-82.378906v-.242188l66.960937-74.015625c6.011719-7.019531 9.316406-15.953125 9.320313-25.191406v-1.332031c.003906-21.371094-17.316407-38.703125-38.6875-38.710938-10.273438-.003906-20.125 4.078125-27.386719 11.34375l-61.929688 61.925782v-209.796876c.003907-4.714843 3.824219-8.535156 8.535157-8.535156zm0 0" fill="url(#b)"/><path d="m341.332031 162.132812c23.527344.039063 42.632813-19 42.671875-42.527343.011719-7.601563-2.011718-15.066407-5.855468-21.625 3.785156-6.417969 5.808593-13.726563 5.851562-21.179688 0-23.5625-19.101562-42.667969-42.667969-42.667969-23.5625 0-42.664062 19.105469-42.664062 42.667969.042969 7.453125 2.0625 14.761719 5.851562 21.179688-11.902343 20.292969-5.105469 46.394531 15.1875 58.296875 6.558594 3.847656 14.023438 5.867187 21.625 5.855468zm0-17.066406c-14.003906.128906-25.464843-11.117187-25.59375-25.125-.027343-2.769531.402344-5.523437 1.265625-8.15625 14.59375 10.253906 34.046875 10.253906 48.640625 0 4.375 13.308594-2.867187 27.640625-16.171875 32.015625-2.625.863281-5.375 1.289063-8.140625 1.265625zm0-93.867187c14.140625 0 25.601563 11.460937 25.601563 25.601562 0 14.136719-11.460938 25.601563-25.601563 25.601563-14.136719 0-25.597656-11.464844-25.597656-25.601563 0-14.140625 11.460937-25.601562 25.597656-25.601562zm0 0" fill="url(#c)"/><path d="m187.734375 51.199219h17.066406v128h-17.066406zm0 0" fill="url(#d)"/><path d="m221.867188 59.734375h17.066406v85.332031h-17.066406zm0 0" fill="url(#e)"/><path d="m281.601562 256h17.066407v34.132812h-17.066407zm0 0" fill="url(#f)"/><path d="m281.601562 307.199219h17.066407v42.667969h-17.066407zm0 0" fill="url(#g)"/><path d="m341.332031 187.734375h17.070313v170.667969h-17.070313zm0 0" fill="url(#h)"/><path d="m375.464844 187.734375h17.070312v170.667969h-17.070312zm0 0" fill="url(#i)"/></svg>