<svg height="512" viewBox="0 0 64 64" width="512" xmlns="http://www.w3.org/2000/svg" xmlns:xlink="http://www.w3.org/1999/xlink"><linearGradient id="gradient_ice" gradientUnits="userSpaceOnUse" x1="-17.014" x2="42.825" y1="49.403" y2="-14.901"><stop offset="0" stop-color="#fff200"/><stop offset="1" stop-color="#cd118c"/></linearGradient><linearGradient id="gradient_ice-3" x1="2.456" x2="62.294" xlink:href="#gradient_ice" y1="67.52" y2="3.216"/><linearGradient id="gradient_ice-4" x1="19.392" x2="79.23" xlink:href="#gradient_ice" y1="83.28" y2="18.976"/><linearGradient id="gradient_ice-5" x1="-2.276" x2="57.563" xlink:href="#gradient_ice" y1="63.117" y2="-1.187"/><linearGradient id="gradient_ice-6" x1=".791" x2="60.629" xlink:href="#gradient_ice" y1="65.971" y2="1.667"/><g id="money-coin-card-2" data-name="money-coin-card"><path d="m15 6a9 9 0 1 0 9 9 9.01 9.01 0 0 0 -9-9zm0 16a7 7 0 1 1 7-7 7.008 7.008 0 0 1 -7 7z" fill="url(#gradient_ice)"/><path d="m17 13h2a3 3 0 0 0 -3-3v-1h-2v1a3 3 0 0 0 0 6v2a1 1 0 0 1 -1-1h-2a3 3 0 0 0 3 3v1h2v-1a3 3 0 0 0 0-6v-2a1 1 0 0 1 1 1zm0 4a1 1 0 0 1 -1 1v-2a1 1 0 0 1 1 1zm-3-3a1 1 0 0 1 0-2z" fill="url(#gradient_ice)"/><path d="m59 25h-4v-2.321c5.985-.679 6-2.07 6-2.679v-5c0-.567-.014-2.2-7.138-2.8 2.166-.5 3.138-1.182 3.138-2.2v-5c0-2.708-8.392-3-12-3-10.831 0-12 2.1-12 3v2.618c-2.78.511-4 1.238-4 2.382v5c0 .527.015 1.98 5.74 2.657-3.74.732-3.74 1.822-3.74 2.343v5h-9.381a12 12 0 1 0 -13.238 0h-3.381a3 3 0 0 0 -3 3v31a3 3 0 0 0 3 3h54a3 3 0 0 0 3-3v-31a3 3 0 0 0 -3-3zm-5.093-4.216c-1.507.141-3.207.216-4.907.216-.96 0-1.941-.026-2.95-.079-4.291-.213-6.474-.841-7.05-1.186v-1.788c.67.023 1.342.053 2 .053 1.376 0 2.721-.047 4-.139 1.28.092 2.625.139 4 .139 2.5 0 7.289-.142 10-1.128v2.86c-.425.25-1.844.751-5.093 1.052zm-1.193-4.9a1.292 1.292 0 0 0 .286-.884v-.857a23.731 23.731 0 0 1 5.381.86 25.143 25.143 0 0 1 -5.667.876zm-.864-5.328a47.418 47.418 0 0 1 -6.85.444c-.649 0-1.288-.01-1.967-.029-4.877-.162-7.407-.862-8.033-1.234v-2.865c2.711.986 7.5 1.128 10 1.128 5.354 0 8.342-.513 10-1.141v2.87a9.808 9.808 0 0 1 -3.15.822zm-6.85-6.556a33.628 33.628 0 0 1 9.4 1 33.628 33.628 0 0 1 -9.4 1 33.628 33.628 0 0 1 -9.4-1 33.628 33.628 0 0 1 9.4-1zm-12 5.654v.346a1.326 1.326 0 0 0 .057.366 12.715 12.715 0 0 1 -1.431-.36 11.819 11.819 0 0 1 1.374-.352zm-2 2.218c2.711.986 7.5 1.128 10 1.128.69 0 1.37-.01 2.06-.03.631.02 1.28.03 1.94.03a52.251 52.251 0 0 0 6-.324v2.055c-.473.274-2.175.856-6.072 1.131a55.181 55.181 0 0 1 -6.878.059c-4.291-.213-6.474-.841-7.05-1.186zm6 7.462v.666a1.3 1.3 0 0 0 .165.69 19.184 19.184 0 0 1 -3.543-.69 17.818 17.818 0 0 1 3.378-.666zm-4 5.4v-2.862c2.711.986 7.5 1.128 10 1.128 1 0 2.031-.027 3.03-.08.993.052 1.992.08 2.97.08 1.391 0 2.718-.06 4-.15v1.879a3.548 3.548 0 0 1 -.65.271h-18.7a3.548 3.548 0 0 1 -.65-.271zm-28-9.734a10 10 0 1 1 10 10 10.011 10.011 0 0 1 -10-10zm0 12h54a1 1 0 0 1 1 1v5h-56v-5a1 1 0 0 1 1-1zm55 8v4h-56v-4zm-1 25h-54a1 1 0 0 1 -1-1v-18h56v18a1 1 0 0 1 -1 1z" fill="url(#gradient_ice-3)"/><path d="m52 46a5.965 5.965 0 0 0 -3.5 1.136 6 6 0 1 0 0 9.728 6 6 0 1 0 3.5-10.864zm-4 6a3.943 3.943 0 0 1 .5-1.9 3.845 3.845 0 0 1 0 3.792 3.943 3.943 0 0 1 -.5-1.892zm-7 0a4 4 0 0 1 4-4 3.954 3.954 0 0 1 2.067.593 5.973 5.973 0 0 0 0 6.814 3.954 3.954 0 0 1 -2.067.593 4 4 0 0 1 -4-4zm11 4a3.954 3.954 0 0 1 -2.067-.593 5.973 5.973 0 0 0 0-6.814 3.954 3.954 0 0 1 2.067-.593 4 4 0 0 1 0 8z" fill="url(#gradient_ice-4)"/><path d="m6 50h6v2h-6z" fill="url(#gradient_ice-5)"/><path d="m6 54h10v2h-10z" fill="url(#gradient_ice-6)"/></g></svg>