<?xml version="1.0" encoding="iso-8859-1"?>
<!-- Generator: Adobe Illustrator 19.0.0, SVG Export Plug-In . SVG Version: 6.00 Build 0)  -->
<svg version="1.1" id="Capa_1" xmlns="http://www.w3.org/2000/svg" xmlns:xlink="http://www.w3.org/1999/xlink" x="0px" y="0px"
	 viewBox="0 0 480.033 480.033" style="enable-background:new 0 0 480.033 480.033;" xml:space="preserve">
<g>
	
		<linearGradient id="SVGID_1_" gradientUnits="userSpaceOnUse" x1="-26.8587" y1="619.803" x2="-26.8587" y2="554.739" gradientTransform="matrix(8 0 0 -8 454.8859 4941)">
		<stop  offset="0" style="stop-color:#FC5C7D"/>
		<stop  offset="0.129" style="stop-color:#F35E85"/>
		<stop  offset="0.343" style="stop-color:#D9659B"/>
		<stop  offset="0.616" style="stop-color:#B070BF"/>
		<stop  offset="0.934" style="stop-color:#777FF0"/>
		<stop  offset="1" style="stop-color:#6A82FB"/>
	</linearGradient>
	<path style="fill:url(#SVGID_1_);" d="M216.016,360v1.168c0.037,9.94,6.511,18.71,16,21.672V392h16v-9.16
		c11.999-3.732,18.7-16.484,14.968-28.483c-1.844-5.929-6.032-10.847-11.592-13.613l-15.592-7.8
		c-3.376-1.686-4.745-5.789-3.059-9.165c1.156-2.314,3.52-3.777,6.107-3.779h2.336c3.77,0.009,6.823,3.062,6.832,6.832V328h16
		v-1.168c-0.037-9.94-6.511-18.71-16-21.672V296h-16v9.16c-11.999,3.732-18.7,16.484-14.968,28.483
		c1.844,5.929,6.032,10.847,11.592,13.613l15.592,7.8c3.376,1.686,4.745,5.789,3.059,9.165c-1.156,2.314-3.52,3.777-6.107,3.779
		h-2.336c-3.77-0.009-6.823-3.062-6.832-6.832V360H216.016z"/>
	
		<linearGradient id="SVGID_2_" gradientUnits="userSpaceOnUse" x1="-26.8591" y1="619.803" x2="-26.8591" y2="554.739" gradientTransform="matrix(8 0 0 -8 454.8859 4941)">
		<stop  offset="0" style="stop-color:#FC5C7D"/>
		<stop  offset="0.129" style="stop-color:#F35E85"/>
		<stop  offset="0.343" style="stop-color:#D9659B"/>
		<stop  offset="0.616" style="stop-color:#B070BF"/>
		<stop  offset="0.934" style="stop-color:#777FF0"/>
		<stop  offset="1" style="stop-color:#6A82FB"/>
	</linearGradient>
	<path style="fill:url(#SVGID_2_);" d="M240.016,240c-57.438,0-104,46.562-104,104c0,22.503,7.299,44.398,20.8,62.4l12.8-9.6
		c-29.099-38.861-21.185-93.953,17.675-123.052c38.861-29.099,93.953-21.185,123.052,17.675
		c29.099,38.861,21.185,93.953-17.675,123.052c-28.162,21.088-66.186,23.353-96.652,5.757l-8,13.848
		c49.75,28.706,113.351,11.647,142.057-38.103S341.72,282.626,291.97,253.92C276.172,244.805,258.255,240.004,240.016,240
		L240.016,240z"/>
</g>
<g>
	
		<linearGradient id="SVGID_3_" gradientUnits="userSpaceOnUse" x1="-26.3587" y1="619.803" x2="-26.3587" y2="554.739" gradientTransform="matrix(8 0 0 -8 454.8859 4941)">
		<stop  offset="0" style="stop-color:#FC5C7D"/>
		<stop  offset="0.129" style="stop-color:#F35E85"/>
		<stop  offset="0.343" style="stop-color:#D9659B"/>
		<stop  offset="0.616" style="stop-color:#B070BF"/>
		<stop  offset="0.934" style="stop-color:#777FF0"/>
		<stop  offset="1" style="stop-color:#6A82FB"/>
	</linearGradient>
	<path style="fill:url(#SVGID_3_);" d="M436.016,400h-20.8c-3.825-18.613-20.198-31.979-39.2-32h-2.248
		c13.062-70.804-31.689-139.415-101.752-156v-36c0-4.418-3.582-8-8-8h-16V0h-16v16h-104c-4.418,0-8,3.582-8,8v40h-56
		c-4.418,0-8,3.582-8,8v80c0,4.418,3.582,8,8,8h112c4.418,0,8-3.582,8-8v-40h48v56h-16c-4.418,0-8,3.582-8,8v36
		c-72.746,17.357-117.647,90.401-100.29,163.147c1.366,5.725,3.104,11.354,5.202,16.853h-0.912c-19.002,0.021-35.375,13.387-39.2,32
		h-20.8c-15.464,0-28,12.536-28,28s12.536,28,28,28h100v-16h-100c-6.627,0-12-5.373-12-12s5.373-12,12-12h28c4.418,0,8-3.582,8-8
		c0-13.255,10.745-24,24-24h8v-0.136c35.233,66.295,117.537,91.475,183.831,56.243c31.784-16.892,55.572-45.7,66.145-80.107h6.024
		c13.255,0,24,10.745,24,24c0,4.418,3.582,8,8,8h28c6.627,0,12,5.373,12,12s-5.373,12-12,12h-84v16h84c15.464,0,28-12.536,28-28
		S451.48,400,436.016,400z M72.016,80h48v24c0,2.125,0.847,4.163,2.352,5.664L156.704,144H72.016V80z M168.016,132.688L147.328,112
		h20.688V132.688z M136.016,96V32h96v64H136.016z M224.016,184h32v25.024c-10.623-1.365-21.377-1.365-32,0V184z M240.016,464
		c-66.274,0-120-53.726-120-120s53.726-120,120-120s120,53.726,120,120C359.941,410.243,306.259,463.925,240.016,464z"/>
	
		<linearGradient id="SVGID_4_" gradientUnits="userSpaceOnUse" x1="-43.3587" y1="619.803" x2="-43.3587" y2="554.739" gradientTransform="matrix(8 0 0 -8 454.8859 4941)">
		<stop  offset="0" style="stop-color:#FC5C7D"/>
		<stop  offset="0.129" style="stop-color:#F35E85"/>
		<stop  offset="0.343" style="stop-color:#D9659B"/>
		<stop  offset="0.616" style="stop-color:#B070BF"/>
		<stop  offset="0.934" style="stop-color:#777FF0"/>
		<stop  offset="1" style="stop-color:#6A82FB"/>
	</linearGradient>
	<path style="fill:url(#SVGID_4_);" d="M96.016,192h24v16h-24V192z"/>
	
		<linearGradient id="SVGID_5_" gradientUnits="userSpaceOnUse" x1="-8.3587" y1="619.803" x2="-8.3587" y2="554.739" gradientTransform="matrix(8 0 0 -8 454.8859 4941)">
		<stop  offset="0" style="stop-color:#FC5C7D"/>
		<stop  offset="0.129" style="stop-color:#F35E85"/>
		<stop  offset="0.343" style="stop-color:#D9659B"/>
		<stop  offset="0.616" style="stop-color:#B070BF"/>
		<stop  offset="0.934" style="stop-color:#777FF0"/>
		<stop  offset="1" style="stop-color:#6A82FB"/>
	</linearGradient>
	<path style="fill:url(#SVGID_5_);" d="M376.016,176h24v16h-24V176z"/>
	
		<linearGradient id="SVGID_6_" gradientUnits="userSpaceOnUse" x1="0.6413" y1="619.803" x2="0.6413" y2="554.739" gradientTransform="matrix(8 0 0 -8 454.8859 4941)">
		<stop  offset="0" style="stop-color:#FC5C7D"/>
		<stop  offset="0.129" style="stop-color:#F35E85"/>
		<stop  offset="0.343" style="stop-color:#D9659B"/>
		<stop  offset="0.616" style="stop-color:#B070BF"/>
		<stop  offset="0.934" style="stop-color:#777FF0"/>
		<stop  offset="1" style="stop-color:#6A82FB"/>
	</linearGradient>
	<path style="fill:url(#SVGID_6_);" d="M448.016,336h24v16h-24V336z"/>
	
		<linearGradient id="SVGID_7_" gradientUnits="userSpaceOnUse" x1="-54.3587" y1="619.803" x2="-54.3587" y2="554.739" gradientTransform="matrix(8 0 0 -8 454.8859 4941)">
		<stop  offset="0" style="stop-color:#FC5C7D"/>
		<stop  offset="0.129" style="stop-color:#F35E85"/>
		<stop  offset="0.343" style="stop-color:#D9659B"/>
		<stop  offset="0.616" style="stop-color:#B070BF"/>
		<stop  offset="0.934" style="stop-color:#777FF0"/>
		<stop  offset="1" style="stop-color:#6A82FB"/>
	</linearGradient>
	<path style="fill:url(#SVGID_7_);" d="M8.016,16h24v16h-24V16z"/>
	
		<linearGradient id="SVGID_8_" gradientUnits="userSpaceOnUse" x1="-17.3587" y1="619.803" x2="-17.3587" y2="554.739" gradientTransform="matrix(8 0 0 -8 454.8859 4941)">
		<stop  offset="0" style="stop-color:#FC5C7D"/>
		<stop  offset="0.129" style="stop-color:#F35E85"/>
		<stop  offset="0.343" style="stop-color:#D9659B"/>
		<stop  offset="0.616" style="stop-color:#B070BF"/>
		<stop  offset="0.934" style="stop-color:#777FF0"/>
		<stop  offset="1" style="stop-color:#6A82FB"/>
	</linearGradient>
	<path style="fill:url(#SVGID_8_);" d="M304.016,80h24v16h-24V80z"/>
	
		<linearGradient id="SVGID_9_" gradientUnits="userSpaceOnUse" x1="-1.3587" y1="619.803" x2="-1.3587" y2="554.739" gradientTransform="matrix(8 0 0 -8 454.8859 4941)">
		<stop  offset="0" style="stop-color:#FC5C7D"/>
		<stop  offset="0.129" style="stop-color:#F35E85"/>
		<stop  offset="0.343" style="stop-color:#D9659B"/>
		<stop  offset="0.616" style="stop-color:#B070BF"/>
		<stop  offset="0.934" style="stop-color:#777FF0"/>
		<stop  offset="1" style="stop-color:#6A82FB"/>
	</linearGradient>
	<path style="fill:url(#SVGID_9_);" d="M432.016,16h24v16h-24V16z"/>
	
		<linearGradient id="SVGID_10_" gradientUnits="userSpaceOnUse" x1="-52.3587" y1="619.803" x2="-52.3587" y2="554.739" gradientTransform="matrix(8 0 0 -8 454.8859 4941)">
		<stop  offset="0" style="stop-color:#FC5C7D"/>
		<stop  offset="0.129" style="stop-color:#F35E85"/>
		<stop  offset="0.343" style="stop-color:#D9659B"/>
		<stop  offset="0.616" style="stop-color:#B070BF"/>
		<stop  offset="0.934" style="stop-color:#777FF0"/>
		<stop  offset="1" style="stop-color:#6A82FB"/>
	</linearGradient>
	<path style="fill:url(#SVGID_10_);" d="M24.016,328h24v16h-24V328z"/>
	
		<linearGradient id="SVGID_11_" gradientUnits="userSpaceOnUse" x1="-32.8587" y1="619.803" x2="-32.8587" y2="554.739" gradientTransform="matrix(8 0 0 -8 454.8859 4941)">
		<stop  offset="0" style="stop-color:#FC5C7D"/>
		<stop  offset="0.129" style="stop-color:#F35E85"/>
		<stop  offset="0.343" style="stop-color:#D9659B"/>
		<stop  offset="0.616" style="stop-color:#B070BF"/>
		<stop  offset="0.934" style="stop-color:#777FF0"/>
		<stop  offset="1" style="stop-color:#6A82FB"/>
	</linearGradient>
	<path style="fill:url(#SVGID_11_);" d="M184.016,336h16v16h-16V336z"/>
	
		<linearGradient id="SVGID_12_" gradientUnits="userSpaceOnUse" x1="-20.8587" y1="619.803" x2="-20.8587" y2="554.739" gradientTransform="matrix(8 0 0 -8 454.8859 4941)">
		<stop  offset="0" style="stop-color:#FC5C7D"/>
		<stop  offset="0.129" style="stop-color:#F35E85"/>
		<stop  offset="0.343" style="stop-color:#D9659B"/>
		<stop  offset="0.616" style="stop-color:#B070BF"/>
		<stop  offset="0.934" style="stop-color:#777FF0"/>
		<stop  offset="1" style="stop-color:#6A82FB"/>
	</linearGradient>
	<path style="fill:url(#SVGID_12_);" d="M280.016,336h16v16h-16V336z"/>
</g>
<g>
</g>
<g>
</g>
<g>
</g>
<g>
</g>
<g>
</g>
<g>
</g>
<g>
</g>
<g>
</g>
<g>
</g>
<g>
</g>
<g>
</g>
<g>
</g>
<g>
</g>
<g>
</g>
<g>
</g>
</svg>
