<svg height="512" viewBox="0 0 64 64" width="512" xmlns="http://www.w3.org/2000/svg" xmlns:xlink="http://www.w3.org/1999/xlink"><linearGradient id="gradient_ice" gradientUnits="userSpaceOnUse" x1="-7.569" x2="62.987" y1="62.561" y2="-25.857"><stop offset="0" stop-color="#fff200"/><stop offset="1" stop-color="#cd118c"/></linearGradient><linearGradient id="gradient_ice-2" x1="-1.947" x2="68.609" xlink:href="#gradient_ice" y1="67.047" y2="-21.371"/><linearGradient id="gradient_ice-4" x1="18.017" x2="88.573" xlink:href="#gradient_ice" y1="82.978" y2="-5.44"/><path d="m19.614 27h2.386v12a1 1 0 0 0 1 1h22a1 1 0 0 0 1-1v-28h2a1 1 0 0 0 1-1v-5a3 3 0 0 0 -3-3h-21a3 3 0 0 0 -3 3h-2.386a7.6 7.6 0 0 0 -6.042 3h-3.572v-1a1 1 0 0 0 -1-1h-6a1 1 0 0 0 -1 1v17a1 1 0 0 0 1 1h6a1 1 0 0 0 1-1h3.572a7.6 7.6 0 0 0 6.042 3zm-11.614-4h-4v-15h4zm16 15v-3.9a5.013 5.013 0 0 1 3.9 3.9zm16.1 0a5.016 5.016 0 0 1 3.9-3.9v3.9zm6.9-33v4h-1v-5a1 1 0 0 1 1 1zm-22-1h19v28.08a7 7 0 0 0 -5.92 5.92h-8.16a7 7 0 0 0 -5.92-5.92v-19.08h5a4 4 0 0 0 0-8h-5a1 1 0 0 1 1-1zm-15 18v-12h2.472a7.565 7.565 0 0 0 -.472 2.615v6.77a7.565 7.565 0 0 0 .472 2.615zm4-9.385a5.621 5.621 0 0 1 5.614-5.615h9.386a2 2 0 0 1 0 4h-8v2h1v12h-2.386a5.621 5.621 0 0 1 -5.614-5.615z" fill="url(#gradient_ice)"/><path d="m25 22a9 9 0 1 0 9-9 9.01 9.01 0 0 0 -9 9zm9-7a7 7 0 1 1 -7 7 7.008 7.008 0 0 1 7-7z" fill="url(#gradient_ice-2)"/><path d="m32 24h-2a3 3 0 0 0 3 3v1h2v-1a3 3 0 0 0 0-6v-2a1 1 0 0 1 1 1h2a3 3 0 0 0 -3-3v-1h-2v1a3 3 0 0 0 0 6v2a1 1 0 0 1 -1-1zm0-4a1 1 0 0 1 1-1v2a1 1 0 0 1 -1-1zm3 3a1 1 0 0 1 0 2z" fill="url(#gradient_ice-2)"/><path d="m61 44h-6a1 1 0 0 0 -1 1v1h-4.591a9.465 9.465 0 0 0 -6.909-3h-7.5a4 4 0 0 0 0 8v.266a1 1 0 0 1 -.858.989l-4.526.647a1 1 0 0 1 -.7-.158l-5.825-3.883a3.912 3.912 0 0 0 -4.34 6.51l8.683 5.789a4.992 4.992 0 0 0 2.774.84h12.292a9.437 9.437 0 0 0 5.809-2h5.691v1a1 1 0 0 0 1 1h6a1 1 0 0 0 1-1v-16a1 1 0 0 0 -1-1zm-18.5 16h-12.289a2.989 2.989 0 0 1 -1.664-.5l-8.684-5.789a1.912 1.912 0 0 1 2.121-3.182l5.826 3.883a2.979 2.979 0 0 0 2.088.474l4.527-.647a3.014 3.014 0 0 0 2.575-2.973v-.266h3v-2h-5a2 2 0 0 1 0-4h7.5a7.5 7.5 0 0 1 0 15zm7.732-2a9.457 9.457 0 0 0 .632-10h3.136v10zm9.768 2h-4v-14h4z" fill="url(#gradient_ice-4)"/></svg>