<svg height="512" viewBox="0 0 64 64" width="512" xmlns="http://www.w3.org/2000/svg" xmlns:xlink="http://www.w3.org/1999/xlink"><linearGradient id="gradient_ice" gradientUnits="userSpaceOnUse" x1="-5.938" x2="55.877" y1="59.249" y2="-6.261"><stop offset="0" stop-color="#fff200"/><stop offset="1" stop-color="#cd118c"/></linearGradient><linearGradient id="gradient_ice-2" x1="-.878" x2="60.936" xlink:href="#gradient_ice" y1="64.023" y2="-1.487"/><linearGradient id="gradient_ice-3" x1="-11.86" x2="49.955" xlink:href="#gradient_ice" y1="53.661" y2="-11.849"/><linearGradient id="gradient_ice-4" x1="-15.313" x2="46.502" xlink:href="#gradient_ice" y1="50.403" y2="-15.108"/><linearGradient id="gradient_ice-5" x1="-7.907" x2="53.907" xlink:href="#gradient_ice" y1="57.391" y2="-8.119"/><linearGradient id="gradient_ice-6" x1="3.427" x2="65.241" xlink:href="#gradient_ice" y1="68.085" y2="2.575"/><g id="Piggy-saving-money-2" data-name="Piggy-saving-money"><circle cx="16" cy="36" fill="url(#gradient_ice)" r="2"/><path d="m37 24h2a3 3 0 0 0 -3-3v-1h-2v1a3 3 0 0 0 0 6v2a1 1 0 0 1 -1-1h-2a3 3 0 0 0 3 3v1h2v-1a3 3 0 0 0 0-6v-2a1 1 0 0 1 1 1zm0 4a1 1 0 0 1 -1 1v-2a1 1 0 0 1 1 1zm-3-3a1 1 0 0 1 0-2z" fill="url(#gradient_ice-2)"/><path d="m34 2h2v4h-2z" fill="url(#gradient_ice-3)"/><path d="m27 3h2v3h-2z" fill="url(#gradient_ice-4)"/><path d="m41 3h2v3h-2z" fill="url(#gradient_ice-5)"/><path d="m60 24.05v-2.05h-2v2h-.5a2.5 2.5 0 1 0 2.5 2.5v3a.5.5 0 0 1 -.5.5h-3.044a15.925 15.925 0 0 0 -9.456-5.695v-15.305a1 1 0 0 0 -1-1h-22a1 1 0 0 0 -1 1v15.034a15.751 15.751 0 0 0 -3.291.549l-6.224-3.457a1 1 0 0 0 -1.485.874v7.445a15.91 15.91 0 0 0 -1.85 2.555h-7.15a1 1 0 0 0 -1 1v13a1 1 0 0 0 1 1h6.621a16.016 16.016 0 0 0 10.379 8.5v2.5a4 4 0 0 0 8 0v-2h12v2a4 4 0 0 0 8 0v-2.5a15.967 15.967 0 0 0 9.834-23.5h1.666a2.5 2.5 0 0 0 2.5-2.5v-3a2.5 2.5 0 0 0 -2-2.45zm-2 2.45a.5.5 0 1 1 -.5-.5h.5zm-30-.5a7 7 0 1 1 7 7 7.008 7.008 0 0 1 -7-7zm16 0a9 9 0 1 0 -14.644 7h-4.356v-17.08a7 7 0 0 0 5.92-5.92h8.16a7.059 7.059 0 0 0 5.92 5.93v17.07h-4.356a8.983 8.983 0 0 0 3.356-7zm-22.5 7a1.5 1.5 0 0 1 0-3h1.5v3zm25.5-3h1.5a1.5 1.5 0 0 1 0 3h-1.5zm-2-16.119a5.033 5.033 0 0 1 -3.889-3.881h3.889zm-16.1-3.881a5.016 5.016 0 0 1 -3.9 3.9v-3.9zm17.9 43.72a1 1 0 0 0 -.8.98v3.3a2 2 0 0 1 -4 0v-3a1 1 0 0 0 -1-1h-14a1 1 0 0 0 -1 1v3a2 2 0 0 1 -4 0v-3.3a1 1 0 0 0 -.8-.98 14.01 14.01 0 0 1 -10.024-8.12 1 1 0 0 0 -.916-.6h-6.26v-11h6.74a1 1 0 0 0 .886-.535 13.823 13.823 0 0 1 2.107-2.955 1 1 0 0 0 .267-.68v-6.13l5.1 2.835a1 1 0 0 0 .782.082 13.773 13.773 0 0 1 3.118-.58v1.963h-1.5a3.5 3.5 0 0 0 0 7h27a3.5 3.5 0 0 0 0-7h-1.5v-1.665a14 14 0 0 1 -.2 27.385z" fill="url(#gradient_ice-6)"/></g></svg>