<svg version="1.2" xmlns="http://www.w3.org/2000/svg" viewBox="0 0 732 130" width="732" height="130"><style>.a{fill:#6530a0}.b{fill:#7030a0}.c{fill:#2e61b6}</style><path class="a" d="m444.2 89.7v20.3h-53.4v-93.3h24.2v73z"/><path class="b" d="m516.5 81.7v2.7h-43.8q0 13.2 12.8 13.2 6.5 0 10-5.6h20.1q-2.4 8-7.1 12.4-8.5 7.9-22.8 7.9-18.1 0-27.3-11-6.8-8.2-6.8-20.1 0-14.1 8.6-22.9 8.5-8.9 24.1-8.9 19.3 0 27.5 14 4.7 7.9 4.7 18.3zm-43.3-9.3h23.8q-2.2-9.8-11.8-9.8-5.4 0-8.7 3.2-2.6 2.4-3.3 6.6zm121.5-21.3v58.9h-20.8v-6.5q-3 3.7-6 5.4-5.4 3-12.1 3-11 0-19.6-7.5-10.2-9.1-10.2-23.9 0-15.1 10.5-24.1 8.3-7.2 19.1-7.2 6.2 0 11.8 2.7 3.1 1.5 6.5 5v-5.8zm-20.2 29.4q0-5.5-3.9-9.4-3.9-3.9-9.5-3.9-6.3 0-10.3 4.7-3.2 3.8-3.2 8.6 0 4.9 3.2 8.7 4 4.7 10.3 4.7 5.6 0 9.5-3.8 3.9-3.9 3.9-9.6zm78.6-30v19.8q-4.4-2.1-8.9-2.1-10.3 0-13.3 8.4-1.2 3.1-1.2 8.2v25.2h-20.8v-58.9h20.8v9.6q3.3-5.1 7.2-7.4 5.1-3 12.1-3 1.7 0 4.1 0.2zm71.4 22v37.5h-20.8v-29.8q0-7.8-1.8-10.4-2.6-3.7-7.8-3.7-4.7 0-8 3.2-2.9 2.9-2.9 9.2v31.5h-20.8v-58.9h20.8v7.4q3.6-4.2 6.7-5.9 4.9-2.8 12.3-2.8 9.6 0 15.5 5.2 6.8 5.8 6.8 17.5z"/><path class="c" d="m87.4 76.4q0 25.3-22.3 33-7.7 2.7-16.7 2.7-18.7 0-34.8-11.4l11.2-20.9q11.7 10.5 22.9 10.5 5 0 8.6-2.3 4.1-2.6 4.1-7.5 0-4.4-4.6-7.3-3.3-2.2-11.3-4.5-9.7-2.8-12.2-3.9-3.9-1.7-6.7-4-8-6.6-8-19.9 0-13.9 8.3-23.1 9.6-10.7 25.7-10.7 16.2 0 31.8 8.1l-10.4 20.2q-8.5-6.6-17.2-6.6-4.2 0-7.4 2.1-3.8 2.5-3.8 6.5 0 3.9 4.9 6.8 2.2 1.3 13.2 4.5 13.8 4.1 19.6 11.5 5.1 6.3 5.1 16.2zm129.1-11.1v44.2h-24v-33.7q0-8.7-1.8-12-2.7-4.7-8.2-4.7-6 0-9.2 5.2-2.3 3.6-2.3 11.5v33.7h-24v-33.7q0-8.7-1.5-11.4-2.9-5.3-9-5.3-5.6 0-8.8 4.6-1.1 1.6-1.6 4.5-0.5 2.7-0.5 7.6v33.7h-24.1v-68h24.1v8.3q4.2-4.1 7.7-6 6.4-3.4 14.2-3.4 10.1 0 16.7 5.2 3.4 2.6 6.5 7.5 2.8-4.6 6.2-7.2 7.2-5.6 16.5-5.6 7.7 0 13.6 3.7 6.4 4 8.3 10.9 1.2 4.2 1.2 10.4zm93.1-23.8v68h-24v-7.6q-3.5 4.3-7 6.3-6.1 3.5-14 3.5-12.6 0-22.5-8.8-11.8-10.4-11.8-27.5 0-17.4 12.1-27.8 9.6-8.3 22-8.3 7.3 0 13.6 3.1 3.7 1.7 7.6 5.8v-6.7zm-23.3 34q0-6.5-4.5-10.9-4.6-4.6-11-4.6-7.2 0-11.8 5.4-3.8 4.4-3.8 10.1 0 5.6 3.8 10 4.5 5.4 11.8 5.4 6.5 0 11-4.4 4.5-4.5 4.5-11zm90.7-34.7v22.9q-5.1-2.4-10.3-2.4-11.9 0-15.4 9.6-1.3 3.6-1.3 9.5v29.1h-24v-68h24v11.1q3.8-5.9 8.2-8.5 6-3.6 14.1-3.6 1.9 0 4.7 0.3zm51.2 0.7v19.8h-13.7v48.2h-24.1v-48.2h-7.9v-19.8h7.9v-20.4h24.1v20.4z"/></svg>