<svg version="1.2" xmlns="http://www.w3.org/2000/svg" viewBox="0 0 992 1448" width="992" height="1448"><defs><linearGradient id="P" gradientUnits="userSpaceOnUse"/><linearGradient id="g1" x1="506.6" y1="947.5" x2="712.9" y2="1040.9" href="#P"><stop stop-color="#00bae1"/><stop offset=".91" stop-color="#760071"/></linearGradient><linearGradient id="g2" x1="490.2" y1="1014.2" x2="668.9" y2="1095.1" href="#P"><stop stop-color="#00bae1"/><stop offset=".91" stop-color="#760071"/></linearGradient><linearGradient id="g3" x1="490.2" y1="1014.2" x2="668.9" y2="1095.1" href="#P"><stop stop-color="#00bae1"/><stop offset=".91" stop-color="#760071"/></linearGradient></defs><style>.a{fill:#002670}.b{fill:#00bae1}.c{fill:#760071}.d{fill:url(#g1)}.e{fill:#00b9e1}.f{fill:#fff}.g{fill:url(#g2)}.h{fill:url(#g3)}</style><g style="display:none"><path class="a" d="m1135.2 2033.6c0 0-473.7-443.7-1007.7-53.5 0 0 489.3-552.4 1007.7 53.5z"/><path class="a" d="m653.3 233.5c0 0-744.8 390.8-494.6 1210.8 0 0-467.8-834.3 494.6-1210.8z"/><path class="b" d="m704.1 357.4c-331.5 175.1-533.4 416-493.4 786.8 54.1 415.6-86.2 698.6-348.5 898.3 335.9-96.5 557.3-330.2 499.5-898.3-33.8-302.9 107.2-557.5 342.4-786.8z"/><path class="c" d="m452.5 770.1c131.3 1.2 235.2 18.1 180.1 103.5-91.2 139.8-232.2 189.6-376.3 234.1-163.7 46.5-305.5 58.8-433.5 64.8 160.9-19.7 305.5-53.8 420.9-113.7 121.3-59 225.8-120.9 278.7-191.9 32.6-49.9-12.2-74.6-69.9-96.8z"/><path class="c" d="m504.9 982.2c131.3 1.2 235.2 18.1 180.2 103.6-91.2 139.8-232.3 189.5-376.3 234-163.8 46.6-305.5 58.8-433.5 64.8 160.8-19.7 305.4-53.7 420.9-113.6 121.3-59.1 225.7-121 278.6-192 32.6-49.9-12.1-74.6-69.9-96.8z"/></g><g style="display:none"><path class="c" d="m498 1215h171.8v-53.4h-98.4v-150.7h-73.4zm370.9-79.9c0-54-43.3-82.5-93.7-82.5-55 0-96.4 34.1-96.4 82.5 0 47.5 40.4 82.8 103 82.8 33.9 0 57.8-8.7 74.3-25.7l-36.7-34.7c-11.2 7.9-19.9 11.7-35.5 11.7-17.4 0-29.2-6.4-34.2-18.7h118.2c0.3-4.6 1-10.7 1-15.4zm-93.1-37.6c14.4 0 24.6 7.8 27.4 21.3h-54.7c2.8-13.5 12.7-21.3 27.3-21.3zm186.7-44.9c-26.4 0-56.6 6.4-76.5 18l22.4 43.5c11.2-7.9 28.3-12.5 43.5-12.5 20 0 29.9 6.4 32.1 18.6h-28.3c-52.9 0-77.8 17.2-77.8 48.1 0 27.4 21.5 49.6 63.1 49.6 24 0 40.2-7.9 48.3-23.9v21h65.3v-85.7c0-53.1-33.6-76.7-92.1-76.7zm-0.3 125.6c-10.6 0-16.8-5.5-16.8-12.8 0-8.7 6.5-13.4 21.5-13.4h17.4v11.1c-3.7 10.5-12.4 15.1-22.1 15.1zm189.8-105.5v-17.2h-66.9v159.5h70.3v-70.9c0-25.3 14.9-34.4 36.1-34.4 5 0 9.3 0.3 15.6 1.2v-58.3c-23.7 0-42.7 6.7-55.1 20.1zm193.2-20.1c-19.9 0-38 6.1-51.3 18.6v-15.7h-66.9v159.5h70.3v-75c0-23.6 12.1-32 26.4-32 12.8 0 20.9 7.6 20.9 27.4v79.6h70.3v-91c0-50.1-30.5-71.4-69.7-71.4z"/><path class="b" d="m-340 1219.7c68.4 0 102.7-31.8 102.7-69.6 0-76.2-121.9-55.5-121.9-80.3 0-7.1 7-13 28.7-13 19.2 0 39.7 5 61.4 15.4l22.3-50.5c-22.9-12.1-53.5-18-83.1-18-68.3 0-102.6 31.3-102.6 69.7 0 77 121.8 56 121.8 82 0 7.1-7.5 11.2-28.6 11.2-24.3 0-52-7.4-72.8-18.9l-23.9 50.8c22.1 12.7 59.2 21.2 96 21.2zm350.5-169.1c-23.6 0-43.8 8.9-57.6 24.5-12-16.8-31.5-24.5-53.9-24.5-18.9 0-35.9 5.9-48.8 18v-15h-67.7v161.4h71.2v-78.8c0-21.5 9.7-29.5 22.3-29.5 12 0 19.2 7.7 19.2 27.7v80.6h71.2v-78.8c0-21.5 9.8-29.5 22.4-29.5 11.3 0 19.2 7.7 19.2 27.7v80.6h71.1v-92.1c0-50.7-29.6-72.3-68.6-72.3zm176.6 0c-26.7 0-57.3 6.5-77.4 18.3l22.6 44c11.4-8 28.7-12.7 44.1-12.7 20.2 0 30.2 6.5 32.4 18.9h-28.6c-53.5 0-78.7 17.4-78.7 48.7 0 27.7 21.7 50.2 63.9 50.2 24.2 0 40.6-8 48.8-24.2v21.2h66.1v-86.8c0-53.7-34-77.6-93.2-77.6zm-0.3 127.2c-10.7 0-17-5.6-17-13 0-8.8 6.6-13.5 21.7-13.5h17.7v11.2c-3.8 10.6-12.6 15.3-22.4 15.3zm192.1-106.8v-17.4h-67.7v161.4h71.1v-71.7c0-25.7 15.1-34.8 36.6-34.8 5 0 9.4 0.3 15.7 1.2v-59.1c-23.9 0-43.1 6.8-55.7 20.4zm125.9 144h74.3v-152.6h64.6v-54h-203.4v54h64.5z"/><path class="d" d="m432.4 1007.9v54h62.6v152.9h163.9v-56.3l-90.8 0.1v-96.7h63v-54z"/></g><path class="a" d="m950.9 1350.6c0 0-343.6-321.8-730.9-38.8 0 0 354.9-400.7 730.9 38.8z"/><path class="a" d="m601.3 45c0 0-540.1 283.5-358.6 878.2 0 0-339.4-605.1 358.6-878.2z"/><path class="e" d="m635.3 134.9c-240.5 127-386.9 301.7-357.9 570.6 39.3 301.5-62.5 506.7-252.7 651.6 243.6-70 404.1-239.5 362.3-651.6-24.6-219.7 77.7-404.3 248.3-570.6z"/><path class="c" d="m455.7 434.2c95.2 0.9 170.6 13.1 130.7 75.1-66.2 101.4-168.5 137.5-273 169.7-118.7 33.8-221.5 42.7-314.4 47.1 116.7-14.3 221.6-39 305.3-82.5 88-42.8 163.7-87.7 202.1-139.2 23.6-36.2-8.8-54.1-50.7-70.2z"/><path class="c" d="m493.7 588.1c95.2 0.8 170.6 13.1 130.7 75.1-66.2 101.3-168.5 137.5-272.9 169.7-118.8 33.8-221.6 42.7-314.5 47 116.7-14.3 221.6-39 305.3-82.4 88-42.8 163.8-87.8 202.1-139.2 23.7-36.2-8.8-54.1-50.7-70.2z"/><g style="display:none"><path class="f" d="m1135.2 2033.6c0 0-473.7-443.7-1007.7-53.5 0 0 489.3-552.4 1007.7 53.5z"/><path class="f" d="m653.3 233.5c0 0-744.8 390.8-494.6 1210.8 0 0-467.8-834.3 494.6-1210.8z"/><path class="f" d="m704.1 357.4c-331.5 175.1-533.4 416-493.4 786.8 54.1 415.6-86.2 698.6-348.5 898.3 335.9-96.5 557.3-330.2 499.5-898.3-33.8-302.9 107.2-557.5 342.4-786.8z"/><path class="f" d="m452.5 770.1c131.3 1.2 235.2 18.1 180.1 103.5-91.2 139.8-232.2 189.6-376.3 234.1-163.7 46.5-305.5 58.8-433.5 64.8 160.9-19.7 305.5-53.8 420.9-113.7 121.3-59 225.8-120.9 278.7-191.9 32.6-49.9-12.2-74.6-69.9-96.8z"/><path class="f" d="m504.9 982.2c131.3 1.2 235.2 18.1 180.2 103.6-91.2 139.8-232.3 189.5-376.3 234-163.8 46.6-305.5 58.8-433.5 64.8 160.8-19.7 305.4-53.7 420.9-113.6 121.3-59.1 225.7-121 278.6-192 32.6-49.9-12.1-74.6-69.9-96.8z"/></g><g style="display:none"><path class="a" d="m822 1018.2c0 0-272.1-254.9-579-30.7 0 0 281.2-317.4 579 30.7z"/><path class="a" d="m545.1-16c0 0-427.9 224.6-284.1 695.6 0 0-268.8-479.3 284.1-695.6z"/><path class="b" d="m572.1 55.2c-190.6 100.6-306.5 239-283.5 452 31 238.8-49.5 401.4-200.3 516.2 193-55.5 320.2-189.7 287-516.2-19.4-174 61.6-320.3 196.8-452z"/><path class="c" d="m429.8 292.3c75.4 0.7 135.1 10.4 103.5 59.5-52.4 80.3-133.5 108.9-216.2 134.4-94.1 26.8-175.5 33.9-249.1 37.3 92.4-11.3 175.5-30.9 241.8-65.3 69.7-33.9 129.7-69.5 160.1-110.3 18.8-28.6-7-42.8-40.1-55.6z"/><path class="c" d="m459.9 414.2c75.4 0.7 135.1 10.4 103.5 59.5-52.4 80.3-133.4 108.9-216.2 134.4-94.1 26.8-175.5 33.8-249.1 37.3 92.4-11.3 175.5-30.9 241.9-65.3 69.6-33.9 129.7-69.5 160-110.3 18.8-28.7-6.9-42.9-40.1-55.6z"/><path class="c" d="m799.4 1176.8c0-46.7-37.4-71.5-81.1-71.5-47.7 0-83.5 29.6-83.5 71.5 0 41.2 35 71.7 89.2 71.7 29.4 0 50.1-7.6 64.4-22.2l-31.8-30.1c-9.7 6.9-17.3 10.1-30.7 10.1-15.1 0-25.4-5.5-29.7-16.1h102.4c0.3-4.1 0.8-9.4 0.8-13.4zm-80.5-32.6c12.4 0 21.2 6.8 23.7 18.5h-47.5c2.5-11.7 11.1-18.5 23.8-18.5zm161.6-38.9c-22.9 0-49 5.6-66.2 15.7l19.4 37.6c9.7-6.8 24.5-10.8 37.7-10.8 17.2 0 25.9 5.5 27.7 16.1h-24.5c-45.8 0-67.4 14.9-67.4 41.7 0 23.7 18.6 42.9 54.8 42.9 20.7 0 34.7-6.8 41.7-20.7v18.2h56.6v-74.3c0-45.9-29.1-66.4-79.8-66.4zm-0.2 108.9c-9.2 0-14.6-4.8-14.6-11.1 0-7.6 5.7-11.7 18.6-11.7h15.1v9.6c-3.2 9.1-10.8 13.2-19.1 13.2zm164.4-91.4v-15h-58v138.2h60.9v-61.4c0-21.9 13-29.8 31.3-29.8 4.3 0 8.1 0.3 13.5 1v-50.5c-20.5 0-37 5.8-47.7 17.5zm167.3-17.5c-17.2 0-32.9 5.3-44.5 16.2v-13.7h-57.9v138.2h60.9v-64.9c0-20.5 10.5-27.8 22.9-27.8 11.1 0 18.1 6.6 18.1 23.8v68.9h60.9v-78.8c0-43.4-26.4-61.9-60.4-61.9z"/><path class="b" d="m-240.3 1250.1c59.2 0 88.9-27.6 88.9-60.3 0-66-105.5-48.1-105.5-69.6 0-6.1 6-11.2 24.8-11.2 16.6 0 34.4 4.3 53.2 13.3l19.4-43.7c-20-10.5-46.4-15.6-72-15.6-59.2 0-88.9 27.1-88.9 60.3 0 66.7 105.5 48.6 105.5 71.1 0 6.1-6.6 9.7-24.8 9.7-21 0-45-6.4-63-16.4l-20.7 44c19 11 51.2 18.4 83.1 18.4zm303.6-146.5c-20.5 0-37.9 7.7-49.9 21.2-10.4-14.5-27.3-21.2-46.7-21.2-16.3 0-31.1 5.1-42.2 15.6v-13h-58.7v139.8h61.7v-68.2c0-18.7 8.4-25.6 19.3-25.6 10.4 0 16.6 6.6 16.6 24v69.8h61.7v-68.2c0-18.7 8.4-25.6 19.3-25.6 9.9 0 16.7 6.6 16.7 24v69.8h61.6v-79.7c0-44-25.6-62.7-59.4-62.7zm153 0c-23.2 0-49.7 5.7-67.1 15.9l19.6 38.1c9.8-6.9 24.8-11 38.2-11 17.4 0 26.2 5.6 28.1 16.3h-24.8c-46.4 0-68.2 15.1-68.2 42.2 0 24 18.8 43.5 55.3 43.5 21 0 35.2-6.9 42.3-21v18.4h57.3v-75.1c0-46.6-29.5-67.3-80.7-67.3zm-0.3 110.2c-9.3 0-14.7-4.9-14.7-11.3 0-7.6 5.7-11.7 18.8-11.7h15.2v9.7c-3.2 9.2-10.9 13.3-19.3 13.3zm166.3-92.5v-15.1h-58.6v139.8h61.6v-62.1c0-22.2 13.1-30.2 31.7-30.2 4.3 0 8.2 0.3 13.6 1.1v-51.2c-20.7 0-37.4 5.9-48.3 17.7z"/><path class="g" d="m425.9 1066.6v46.7h54.3v132.4h141.9v-48.7l-78.6 0.1v-83.8h54.5v-46.7z"/><path class="c" d="m-291 1362.7c16.2 0 23.7-7.6 23.7-16.4 0-21-37.1-12.3-37.1-26.3 0-5 4.5-9.1 14.9-9.1 5.4 0 11.5 1.5 16.8 4.7l2.9-6.6c-5.1-3.3-12.5-5.1-19.7-5.1-16.1 0-23.4 7.6-23.4 16.4 0 21.4 37.1 12.5 37.1 26.5 0 5-4.6 8.9-15.2 8.9-7.8 0-15.6-2.8-20.2-6.7l-3.2 6.4c4.9 4.3 14.1 7.3 23.4 7.3zm64.2 0c18.6 0 32.4-12.5 32.4-29.4 0-16.9-13.8-29.4-32.4-29.4-18.8 0-32.7 12.6-32.7 29.4 0 16.8 13.9 29.4 32.7 29.4zm0-7.3c-13.8 0-23.9-9.4-23.9-22.1 0-12.7 10.1-22.1 23.9-22.1 13.5 0 23.7 9.4 23.7 22.1 0 12.7-10.2 22.1-23.7 22.1zm89-43.7v-7.1h-43.2v57.4h8.8v-23.2h30.7v-7.1h-30.7v-20zm24.9 50.3h8.7v-50.3h21v-7.1h-50.7v7.1h21zm116.7-57.4l-16.9 46.9-16.9-46.9h-8l-17.2 46.7-16.6-46.7h-9l20.5 57.4h9.3l16.8-45.8 16.7 45.8h9.2l20.4-57.4zm62.8 57.4h9.2l-27.8-57.4h-8.7l-27.7 57.4h9l6.8-14.3h32.5zm-36.2-20.9l13.2-28.2 13.2 28.2zm105 20.9l-14.5-19.3c8.5-2.9 13.4-9.3 13.4-18.1 0-12.5-9.6-20-25.5-20h-23.9v57.4h8.8v-17.5h15.1c1.3 0 2.6-0.1 3.9-0.1l13.2 17.6zm-26.9-24.5h-14.9v-25.8h14.9c11.2 0 17.1 4.7 17.1 12.9 0 8.2-5.9 12.9-17.1 12.9zm48.7 17.3v-18.5h30.7v-7h-30.7v-17.6h34.5v-7.1h-43.2v57.4h44.4v-7.2zm73.4 7.2h25.8c19.7 0 33.1-11.7 33.1-28.7 0-17.1-13.4-28.7-33.1-28.7h-25.8zm8.8-7.1v-43.2h16.5c15.2 0 24.9 8.7 24.9 21.6 0 12.9-9.7 21.6-24.9 21.6zm72.3 0v-18.6h30.7v-7h-30.7v-17.6h34.5v-7.1h-43.3v57.4h44.5v-7.1zm115.8-3.2c-4.3 2.6-9.2 3.6-14.3 3.6-14.1 0-24.3-9.4-24.3-22 0-12.8 10.2-22.1 24.4-22.1 6.9 0 12.7 2.1 17.7 6.7l5.5-5.1c-5.6-5.8-13.9-8.9-23.6-8.9-19 0-32.8 12.4-32.8 29.4 0 17 13.8 29.3 32.6 29.3 8.6 0 17.1-2.4 23.2-7.3v-22.3h-8.4zm33.9 3.2v-18.6h30.7v-6.9h-30.7v-17.7h34.5v-7.1h-43.3v57.4h44.5v-7.1zm62 7.1h8.7v-50.3h21v-7.1h-50.7v7.1h21zm39.2 0h8.8v-57.4h-8.8zm48.2-62.1h7.9l14.7-10.6h-10.7zm6.6 62.7c18.6 0 32.4-12.4 32.4-29.3 0-16.9-13.8-29.4-32.4-29.4-18.8 0-32.7 12.6-32.7 29.4 0 16.8 13.9 29.3 32.7 29.3zm0-7.3c-13.8 0-23.9-9.3-23.9-22 0-12.7 10.1-22.1 23.9-22.1 13.5 0 23.7 9.4 23.7 22.1 0 12.7-10.2 22-23.7 22zm89.8-50.7v42.8l-36.8-42.8h-7.2v57.4h8.8v-42.8l36.7 42.8h7.2v-57.4zm59.4 50.2v-18.5h30.7v-7h-30.7v-17.6h34.5v-7.1h-43.2v57.4h44.4v-7.2zm49.9 7.2h25.8c19.7 0 33.1-11.7 33.1-28.7 0-17.1-13.4-28.7-33.1-28.7h-25.8zm8.7-7.2v-43.1h16.6c15.1 0 24.8 8.7 24.8 21.6 0 12.8-9.7 21.5-24.8 21.5zm88.9 7.8c16.1 0 25.8-8.8 25.8-25.4v-32.6h-8.4v32.3c0 12.7-6.3 18.4-17.4 18.4-11 0-17.2-5.7-17.2-18.4v-32.3h-8.7v32.6c0 16.6 9.8 25.4 25.9 25.4zm71.2 0c9.5 0 17.7-3.1 23.3-9l-5.7-5.2c-4.7 4.7-10.5 6.9-17.2 6.9-13.8 0-24.1-9.3-24.1-22 0-12.7 10.3-22.1 24.1-22.1 6.7 0 12.5 2.1 17.2 6.8l5.7-5.2c-5.6-5.9-13.8-8.9-23.2-8.9-18.7 0-32.5 12.4-32.5 29.4 0 16.9 13.8 29.3 32.4 29.3zm80.1-0.6h9.2l-27.8-57.4h-8.7l-27.7 57.4h9l6.7-14.4h32.6zm-36.2-20.9l13.2-28.1 13.2 28.1zm63.6 20.9h8.6v-50.3h21v-7.1h-50.6v7.1h21zm39.2 0h8.7v-57.4h-8.7zm70.9-57.4l-22.2 47.2-22-47.2h-9.5l27 57.4h8.6l26.9-57.4zm60.4 57.4h9.1l-27.8-57.4h-8.6l-27.8 57.4h9l6.8-14.3h32.5zm-36.2-20.9l13.2-28.1 13.2 28.1z"/></g><g style="display:none"><path class="a" d="m822 1018.2c0 0-272.1-254.9-579-30.7 0 0 281.2-317.4 579 30.7z"/><path class="a" d="m545.1-16c0 0-427.9 224.6-284.1 695.6 0 0-268.8-479.3 284.1-695.6z"/><path class="b" d="m572.1 55.2c-190.6 100.6-306.5 239-283.5 452 31 238.8-49.5 401.4-200.3 516.2 193-55.5 320.2-189.7 287-516.2-19.4-174 61.6-320.3 196.8-452z"/><path class="c" d="m429.8 292.3c75.4 0.7 135.1 10.4 103.5 59.5-52.4 80.3-133.5 108.9-216.2 134.4-94.1 26.8-175.5 33.9-249.1 37.3 92.4-11.3 175.5-30.9 241.8-65.3 69.7-33.9 129.7-69.5 160.1-110.3 18.8-28.6-7-42.8-40.1-55.6z"/><path class="c" d="m459.9 414.2c75.4 0.7 135.1 10.4 103.5 59.5-52.4 80.3-133.4 108.9-216.2 134.4-94.1 26.8-175.5 33.8-249.1 37.3 92.4-11.3 175.5-30.9 241.9-65.3 69.6-33.9 129.7-69.5 160-110.3 18.8-28.7-6.9-42.9-40.1-55.6z"/><path class="c" d="m799.4 1176.8c0-46.7-37.4-71.5-81.1-71.5-47.7 0-83.5 29.6-83.5 71.5 0 41.2 35 71.7 89.2 71.7 29.4 0 50.1-7.6 64.4-22.2l-31.8-30.1c-9.7 6.9-17.3 10.1-30.7 10.1-15.1 0-25.4-5.5-29.7-16.1h102.4c0.3-4.1 0.8-9.4 0.8-13.4zm-80.5-32.6c12.4 0 21.2 6.8 23.7 18.5h-47.5c2.5-11.7 11.1-18.5 23.8-18.5zm161.6-38.9c-22.9 0-49 5.6-66.2 15.7l19.4 37.6c9.7-6.8 24.5-10.8 37.7-10.8 17.2 0 25.9 5.5 27.7 16.1h-24.5c-45.8 0-67.4 14.9-67.4 41.7 0 23.7 18.6 42.9 54.8 42.9 20.7 0 34.7-6.8 41.7-20.7v18.2h56.6v-74.3c0-45.9-29.1-66.4-79.8-66.4zm-0.2 108.9c-9.2 0-14.6-4.8-14.6-11.1 0-7.6 5.7-11.7 18.6-11.7h15.1v9.6c-3.2 9.1-10.8 13.2-19.1 13.2zm164.4-91.4v-15h-58v138.2h60.9v-61.4c0-21.9 13-29.8 31.3-29.8 4.3 0 8.1 0.3 13.5 1v-50.5c-20.5 0-37 5.8-47.7 17.5zm167.3-17.5c-17.2 0-32.9 5.3-44.5 16.2v-13.7h-57.9v138.2h60.9v-64.9c0-20.5 10.5-27.8 22.9-27.8 11.1 0 18.1 6.6 18.1 23.8v68.9h60.9v-78.8c0-43.4-26.4-61.9-60.4-61.9z"/><path class="b" d="m-240.3 1250.1c59.2 0 88.9-27.6 88.9-60.3 0-66-105.5-48.1-105.5-69.6 0-6.1 6-11.2 24.8-11.2 16.6 0 34.4 4.3 53.2 13.3l19.4-43.7c-20-10.5-46.4-15.6-72-15.6-59.2 0-88.9 27.1-88.9 60.3 0 66.7 105.5 48.6 105.5 71.1 0 6.1-6.6 9.7-24.8 9.7-21 0-45-6.4-63-16.4l-20.7 44c19 11 51.2 18.4 83.1 18.4zm303.6-146.5c-20.5 0-37.9 7.7-49.9 21.2-10.4-14.5-27.3-21.2-46.7-21.2-16.3 0-31.1 5.1-42.2 15.6v-13h-58.7v139.8h61.7v-68.2c0-18.7 8.4-25.6 19.3-25.6 10.4 0 16.6 6.6 16.6 24v69.8h61.7v-68.2c0-18.7 8.4-25.6 19.3-25.6 9.9 0 16.7 6.6 16.7 24v69.8h61.6v-79.7c0-44-25.6-62.7-59.4-62.7zm153 0c-23.2 0-49.7 5.7-67.1 15.9l19.6 38.1c9.8-6.9 24.8-11 38.2-11 17.4 0 26.2 5.6 28.1 16.3h-24.8c-46.4 0-68.2 15.1-68.2 42.2 0 24 18.8 43.5 55.3 43.5 21 0 35.2-6.9 42.3-21v18.4h57.3v-75.1c0-46.6-29.5-67.3-80.7-67.3zm-0.3 110.2c-9.3 0-14.7-4.9-14.7-11.3 0-7.6 5.7-11.7 18.8-11.7h15.2v9.7c-3.2 9.2-10.9 13.3-19.3 13.3zm166.3-92.5v-15.1h-58.6v139.8h61.6v-62.1c0-22.2 13.1-30.2 31.7-30.2 4.3 0 8.2 0.3 13.6 1.1v-51.2c-20.7 0-37.4 5.9-48.3 17.7z"/><path class="h" d="m425.9 1066.6v46.7h54.3v132.4h141.9v-48.7l-78.6 0.1v-83.8h54.5v-46.7z"/><path class="c" d="m-301.6 1362.6c15.8 0 23.1-7.3 23.1-15.9 0-20.5-36.2-12-36.2-25.7 0-4.8 4.4-8.8 14.5-8.8 5.3 0 11.2 1.4 16.4 4.5l2.8-6.4c-4.9-3.2-12.2-4.9-19.2-4.9-15.7 0-22.8 7.3-22.8 16 0 20.8 36.1 12.1 36.1 25.8 0 4.9-4.4 8.6-14.7 8.6-7.7 0-15.3-2.7-19.7-6.4l-3.2 6.2c4.8 4.2 13.7 7 22.9 7zm62.5 0c18.2 0 31.7-12.1 31.7-28.6 0-16.5-13.5-28.6-31.7-28.6-18.3 0-31.8 12.2-31.8 28.6 0 16.4 13.5 28.6 31.8 28.6zm0-7.1c-13.4 0-23.3-9.1-23.3-21.5 0-12.4 9.9-21.5 23.3-21.5 13.3 0 23.2 9.1 23.2 21.5 0 12.4-9.9 21.5-23.2 21.5zm86.9-42.5v-7h-42.1v56h8.5v-22.6h30v-6.9h-30v-19.5zm24.3 49h8.5v-49h20.5v-7h-49.5v7h20.5zm113.9-56l-16.5 45.7-16.4-45.7h-7.9l-16.8 45.5-16.1-45.5h-8.8l19.9 56h9.2l16.3-44.8 16.3 44.8h8.9l20-56zm61.3 56h9l-27.2-56h-8.4l-27.1 56h8.8l6.6-14h31.7zm-35.3-20.4l12.9-27.5 12.9 27.5zm102.4 20.4l-14.2-18.8c8.4-2.8 13.2-9.1 13.2-17.7 0-12.2-9.4-19.5-25-19.5h-23.3v56h8.6v-17.1h14.7c1.3 0 2.6-0.1 3.8-0.1l12.9 17.2zm-26.2-23.9h-14.5v-25.2h14.5c10.9 0 16.6 4.6 16.6 12.6 0 8-5.7 12.6-16.6 12.6zm47.5 16.9v-18.1h30v-6.8h-30v-17.2h33.7v-6.9h-42.2v56h43.4v-7zm71.6 7h25.2c19.2 0 32.2-11.4 32.2-28 0-16.7-13-28-32.2-28h-25.2zm8.5-7v-42.1h16.1c14.8 0 24.3 8.5 24.3 21.1 0 12.5-9.5 21-24.3 21zm70.5 0v-18.1h30v-6.8h-30v-17.2h33.7v-6.9h-42.2v56h43.4v-7zm113-3.1c-4.3 2.5-9 3.6-14 3.6-13.8 0-23.7-9.2-23.7-21.5 0-12.5 9.9-21.6 23.8-21.6 6.7 0 12.4 2 17.3 6.5l5.3-4.9c-5.5-5.7-13.5-8.7-23-8.7-18.5 0-32 12.1-32 28.7 0 16.5 13.5 28.6 31.9 28.6 8.3 0 16.6-2.4 22.6-7.1v-21.9h-8.2zm33 3.2v-18.1h30v-6.8h-30v-17.2h33.7v-7h-42.2v56h43.3v-6.9zm66.1 7.6c15.8 0 23.1-7.4 23.1-16 0-20.5-36.1-12-36.1-25.6 0-4.9 4.3-8.9 14.5-8.9 5.3 0 11.1 1.4 16.4 4.5l2.8-6.4c-5-3.2-12.2-4.9-19.2-4.9-15.7 0-22.9 7.3-22.9 16 0 20.8 36.2 12.1 36.2 25.8 0 4.9-4.5 8.7-14.8 8.7-7.7 0-15.3-2.8-19.7-6.5l-3.2 6.2c4.8 4.2 13.8 7.1 22.9 7.1zm46.6-0.7h8.5v-49h20.5v-7h-49.5v7h20.5zm38.3 0h8.5v-56h-8.5zm47-60.6h7.7l14.3-10.4h-10.4zm6.4 61.2c18.2 0 31.7-12.1 31.7-28.6 0-16.5-13.5-28.7-31.7-28.7-18.3 0-31.8 12.3-31.8 28.7 0 16.4 13.5 28.6 31.8 28.6zm0-7.1c-13.4 0-23.3-9.1-23.3-21.5 0-12.4 9.9-21.5 23.3-21.5 13.2 0 23.1 9.1 23.1 21.5 0 12.4-9.9 21.5-23.1 21.5zm87.6-49.5v41.7l-35.9-41.7h-7v56h8.6v-41.8l35.8 41.8h7v-56zm58 49v-18.1h29.9v-6.8h-29.9v-17.2h33.6v-6.9h-42.2v56h43.4v-7zm48.7 7h25.1c19.2 0 32.3-11.4 32.3-28 0-16.7-13.1-28-32.3-28h-25.1zm8.5-7v-42.1h16.1c14.8 0 24.3 8.5 24.3 21.1 0 12.5-9.5 21-24.3 21zm86.8 7.6c15.7 0 25.2-8.5 25.2-24.8v-31.8h-8.3v31.5c0 12.4-6.1 18-16.9 18-10.7 0-16.8-5.6-16.8-18v-31.5h-8.5v31.8c0 16.3 9.5 24.8 25.3 24.8zm69.4 0c9.3 0 17.4-3 22.8-8.8l-5.5-5c-4.6 4.5-10.3 6.7-16.8 6.7-13.5 0-23.5-9.1-23.5-21.5 0-12.4 10-21.5 23.5-21.5 6.5 0 12.2 2 16.8 6.6l5.5-5c-5.4-5.8-13.5-8.8-22.7-8.8-18.2 0-31.7 12.1-31.7 28.7 0 16.5 13.5 28.6 31.6 28.6zm78.2-0.6h9l-27.2-56h-8.4l-27.1 56h8.8l6.6-14h31.7zm-35.3-20.4l12.9-27.5 12.9 27.5zm62 20.4h8.5v-49.1h20.5v-6.9h-49.4v6.9h20.4zm38.3 0h8.5v-56h-8.5zm69.2-56l-21.7 46-21.5-46h-9.2l26.3 56h8.4l26.2-56zm58.9 56h9l-27.1-56h-8.5l-27 56h8.7l6.6-14h31.8zm-35.4-20.4l12.9-27.4 12.9 27.4z"/></g></svg>