<svg width="470" height="67" xmlns="http://www.w3.org/2000/svg" xmlns:xlink="http://www.w3.org/1999/xlink" overflow="hidden"><defs><clipPath id="clip0"><rect x="307" y="446" width="470" height="67"/></clipPath></defs><g clip-path="url(#clip0)" transform="translate(-307 -446)"><path d="M4.55329-58.2704C3.45398-58.2704 2.8263-57.7224 2.8263-56.5434L2.8263-43.9793C2.8263-42.6442 3.45398-42.0165 4.55329-42.0165L18.5357-42.0165 18.5357-1.72699C18.5357-0.551389 19.1634 0 20.2627 0L35.497 0C36.7523 0 37.3835-0.551389 37.3835-1.72699L37.3835-42.0165 51.4387-42.0165C52.4617-42.0165 53.1657-43.1921 53.1657-43.9793L53.1657-56.5434C53.1657-57.7224 52.3819-58.2704 51.4387-58.2704Z" fill="#0079C4" transform="matrix(1 0 0 1.00815 306.692 510.533)"/><path d="M6.36004-1.72699C6.36004-0.551389 6.91143 0 8.0905 0L23.245 0C24.5802 0 25.1315-0.551389 25.1315-1.72699L25.1315-18.3762 27.4099-18.3762 35.7328-1.72699C35.8888-0.783735 36.9881 0 38.0874 0L54.0326 0C54.8164 0 55.6799-0.707442 55.3678-1.72699L44.1354-22.5376C49.7117-25.9153 53.3252-32.199 53.3252-39.1868 53.3252-49.6319 45.1584-58.2704 34.3179-58.2704L8.0905-58.2704C6.91143-58.2704 6.36004-57.4866 6.36004-56.5434ZM35.3409-38.7949C35.3409-36.4402 33.4544-34.1618 31.02-34.1618L24.972-34.1618 24.972-43.4279 31.02-43.4279C33.4544-43.4279 35.3409-41.0733 35.3409-38.7949Z" fill="#0079C4" transform="matrix(1 0 0 1.00815 363.001 510.533)"/><path d="M41.153-56.5434C40.9172-57.3306 40.0537-58.2704 39.1868-58.2704L23.6404-58.2704C22.7734-58.2704 21.8336-57.4069 21.6741-56.5434L2.19862-1.72699C1.80675-0.551389 2.11886 0 3.29793 0L18.2999 0C19.5552 0 20.4187-0.551389 20.8904-1.72699L23.0092-8.48237 39.8179-8.48237 41.9368-1.72699C42.4084-0.551389 43.2719 0 44.5272 0L59.6055 0C60.7083 0 61.0204-0.551389 60.6285-1.72699ZM31.4118-37.7753 35.1051-22.9329 27.722-22.9329Z" fill="#0079C4" transform="matrix(1 0 0 1.00815 420.801 510.533)"/><path d="M54.8164-50.6549C49.3961-55.3678 43.8996-59.1373 33.6902-59.1373 16.6492-59.1373 3.21817-44.451 3.21817-29.1369 3.21817-11.4647 18.0641 0.863495 34.5537 0.863495 41.7807 0.863495 49.0042-1.72699 54.9724-7.69517 55.7596-8.32285 56.1515-9.18981 55.3678-10.2094L44.2151-20.9701C43.8996-21.2822 43.6637-21.362 43.4279-21.362 43.1158-21.362 42.88-21.2822 42.5644-20.9701 40.2895-18.6917 37.0679-17.2768 33.77-17.2768 27.0943-17.2768 21.8336-23.3248 21.8336-29.2132 21.8336-35.497 27.4099-41.153 33.926-41.153 38.0112-41.153 40.4456-39.7381 42.4084-37.6956 42.8003-37.4598 43.0361-37.3037 43.2719-37.3037 43.5875-37.3037 43.8233-37.4598 44.0591-37.6956L55.288-47.9847C56.0717-49.0042 55.6036-49.9475 54.8164-50.6549Z" fill="#0079C4" transform="matrix(1 0 0 1.00815 483.864 510.533)"/><path d="M25.2876-37.0679 25.2876-56.5434C25.2876-57.5664 24.1883-58.2704 23.4045-58.2704L8.0905-58.2704C6.99119-58.2704 6.36004-57.4866 6.36004-56.5434L6.36004-1.6507C6.36004-0.551389 6.99119 0.0797607 8.24656 0.0797607L23.4045 0.0797607C24.7397 0.0797607 25.2876-0.551389 25.2876-1.6507L25.2876-24.268 38.0874-1.6507C38.7186-0.707442 39.974 0.0797607 41.153 0.0797607L58.9015 0.0797607C59.4494 0.0797607 59.8413-0.235814 59.8413-0.707442 59.8413-0.943256 59.6852-1.25536 59.5292-1.6507L42.9563-30.6281 59.0576-56.6231C59.3731-57.015 59.5292-57.3306 59.4494-57.6427 59.4494-58.1143 59.1373-58.3501 58.6657-58.3501L39.974-58.3501C38.8746-58.3501 37.4598-57.5664 36.8321-56.6231Z" fill="#0079C4" transform="matrix(1 0 0 1.00815 541.35 510.533)"/><path d="M41.153-56.5434C40.9172-57.3306 40.0537-58.2704 39.1868-58.2704L23.6404-58.2704C22.7734-58.2704 21.8336-57.4069 21.6741-56.5434L2.19862-1.72699C1.80675-0.551389 2.11886 0 3.29793 0L18.2999 0C19.5552 0 20.4187-0.551389 20.8904-1.72699L23.0092-8.48237 39.8179-8.48237 41.9368-1.72699C42.4084-0.551389 43.2719 0 44.5272 0L59.6055 0C60.7083 0 61.0204-0.551389 60.6285-1.72699ZM31.4118-37.7753 35.1051-22.9329 27.722-22.9329Z" fill="#009BEE" transform="matrix(1 0 0 1.00815 602.679 510.533)"/><path d="M5.26073-1.72699C5.26073-0.551389 5.88842 0 6.99119 0L22.2255 0C23.4808 0 24.1085-0.551389 24.1085-1.72699L24.1085-18.612 35.4172-18.612C46.1779-18.612 53.2454-28.9011 53.2454-38.3233 53.2454-47.9049 45.9421-58.2704 35.1051-58.2704L6.99119-58.2704C5.88842-58.2704 5.26073-57.4866 5.26073-56.5434ZM35.653-38.403C35.653-35.4172 34.2416-32.7469 30.9437-32.7469L24.1085-32.7469 24.1085-44.1354 30.9437-44.1354C34.2416-44.1354 35.653-41.153 35.653-38.403Z" fill="#009BEE" transform="matrix(1 0 0 1.00815 665.741 510.533)"/><path d="M5.26073-1.72699C5.26073-0.551389 5.88842 0 6.99119 0L22.2255 0C23.4808 0 24.1085-0.551389 24.1085-1.72699L24.1085-18.612 35.4172-18.612C46.1779-18.612 53.2454-28.9011 53.2454-38.3233 53.2454-47.9049 45.9421-58.2704 35.1051-58.2704L6.99119-58.2704C5.88842-58.2704 5.26073-57.4866 5.26073-56.5434ZM35.653-38.403C35.653-35.4172 34.2416-32.7469 30.9437-32.7469L24.1085-32.7469 24.1085-44.1354 30.9437-44.1354C34.2416-44.1354 35.653-41.153 35.653-38.403Z" fill="#009BEE" transform="matrix(1 0 0 1.00815 722.678 510.533)"/></g></svg>