<svg width="2023" height="2078" xmlns="http://www.w3.org/2000/svg" xmlns:xlink="http://www.w3.org/1999/xlink" overflow="hidden"><defs><clipPath id="clip0"><rect x="2294" y="147" width="2023" height="2078"/></clipPath></defs><g clip-path="url(#clip0)" transform="translate(-2294 -147)"><path d="M2294 1208C2294 906.453 2537.78 662 2838.5 662 3139.22 662 3383 906.453 3383 1208 3383 1509.55 3139.22 1754 2838.5 1754 2537.78 1754 2294 1509.55 2294 1208Z" fill="#2E75B6" fill-rule="evenodd" fill-opacity="0.8"/><path d="M3170 1221.5C3170 912.497 3426.76 662 3743.5 662 4060.24 662 4317 912.497 4317 1221.5 4317 1530.5 4060.24 1781 3743.5 1781 3426.76 1781 3170 1530.5 3170 1221.5Z" fill="#7030A0" fill-rule="evenodd" fill-opacity="0.6"/><path d="M2959 494.5C2959 302.581 3110.55 147 3297.5 147 3484.45 147 3636 302.581 3636 494.5 3636 686.419 3484.45 842 3297.5 842 3110.55 842 2959 686.419 2959 494.5Z" fill="#CC99FF" fill-rule="evenodd"/><path d="M3238 738.5C3238 506.264 3433.88 318 3675.5 318 3917.12 318 4113 506.264 4113 738.5 4113 970.736 3917.12 1159 3675.5 1159 3433.88 1159 3238 970.736 3238 738.5Z" fill="#7030A0" fill-rule="evenodd" fill-opacity="0.8"/><path d="M2441 738.5C2441 506.264 2636.88 318 2878.5 318 3120.12 318 3316 506.264 3316 738.5 3316 970.736 3120.12 1159 2878.5 1159 2636.88 1159 2441 970.736 2441 738.5Z" fill="#A0CDF0" fill-rule="evenodd" fill-opacity="0.8"/><path d="M2596 1804.5C2596 1572.26 2791.65 1384 3033 1384 3274.35 1384 3470 1572.26 3470 1804.5 3470 2036.74 3274.35 2225 3033 2225 2791.65 2225 2596 2036.74 2596 1804.5Z" fill="#00B0F0" fill-rule="evenodd" fill-opacity="0.4"/><path d="M3112 1804.5C3112 1572.26 3307.88 1384 3549.5 1384 3791.12 1384 3987 1572.26 3987 1804.5 3987 2036.74 3791.12 2225 3549.5 2225 3307.88 2225 3112 2036.74 3112 1804.5Z" fill="#7030A0" fill-rule="evenodd" fill-opacity="0.4"/><path d="M2834.37 2015.19C2903.64 2038.56 2959.22 2096.21 3022.85 2104L3216.17 2061.93C3217.78 1524.43 3219.39 986.921 3221 449.414L2989.02 398C2863.37 499.269 2693.89 558.941 2612.06 701.808L2498 1255.21" fill="#FFFFFF" fill-rule="evenodd" fill-opacity="0.501961"/><path d="M335.904 1617.19C405.079 1640.56 460.581 1698.21 524.126 1706L717.174 1663.93C718.783 1126.43 720.391 588.92 722 51.4137L490.342 0C364.861 101.269 195.622 160.941 113.898 303.808L0 857.206" fill="#FFFFFF" fill-rule="evenodd" fill-opacity="0.6" transform="matrix(-1 0 0 1 4055 390)"/><path d="M0 0 3.83304 810.172" stroke="#FFFFFF" stroke-width="10.3125" stroke-linecap="round" stroke-linejoin="round" stroke-miterlimit="10" stroke-opacity="0.898039" fill="none" fill-rule="evenodd" transform="matrix(1 0 0 -1 2860 2008.17)"/><path d="M0 0 361.069 79.4577" stroke="#FFFFFF" stroke-width="10.3125" stroke-linecap="round" stroke-linejoin="round" stroke-miterlimit="10" stroke-opacity="0.898039" fill="none" fill-rule="evenodd" transform="matrix(1 0 0 -1 2506 1262.46)"/><path d="M2617 714 2863.3 1197.99" stroke="#FFFFFF" stroke-width="10.3125" stroke-linecap="round" stroke-linejoin="round" stroke-miterlimit="10" stroke-opacity="0.898039" fill="none" fill-rule="evenodd"/><path d="M2620 719 3104.42 963.124" stroke="#FFFFFF" stroke-width="10.3125" stroke-linecap="round" stroke-linejoin="round" stroke-miterlimit="10" stroke-opacity="0.898039" fill="none" fill-rule="evenodd"/><path d="M3010 663 3108.95 963.054" stroke="#FFFFFF" stroke-width="10.3125" stroke-linecap="round" stroke-linejoin="round" stroke-miterlimit="10" stroke-opacity="0.898039" fill="none" fill-rule="evenodd"/><path d="M0 0 389.818 55.3125" stroke="#FFFFFF" stroke-width="10.3125" stroke-linecap="round" stroke-linejoin="round" stroke-miterlimit="10" stroke-opacity="0.898039" fill="none" fill-rule="evenodd" transform="matrix(1 0 0 -1 2617 718.313)"/><path d="M3012 399 3012.09 663.473" stroke="#FFFFFF" stroke-width="10.3125" stroke-linecap="round" stroke-linejoin="round" stroke-miterlimit="10" stroke-opacity="0.898039" fill="none" fill-rule="evenodd"/><path d="M0 0 222.129 214.818" stroke="#FFFFFF" stroke-width="10.3125" stroke-linecap="round" stroke-linejoin="round" stroke-miterlimit="10" stroke-opacity="0.898039" fill="none" fill-rule="evenodd" transform="matrix(-1 0 0 1 3234.13 449)"/><path d="M0 0 128.032 514.871" stroke="#FFFFFF" stroke-width="10.3125" stroke-linecap="round" stroke-linejoin="round" stroke-miterlimit="10" stroke-opacity="0.898039" fill="none" fill-rule="evenodd" transform="matrix(-1 0 0 1 3236.03 449)"/><path d="M0 0 252.229 214.818" stroke="#FFFFFF" stroke-width="10.3125" stroke-linecap="round" stroke-linejoin="round" stroke-miterlimit="10" stroke-opacity="0.898039" fill="none" fill-rule="evenodd" transform="matrix(-1 0 0 1 3112.23 963)"/><path d="M3218.08 1409.53 2860 1170" stroke="#FFFFFF" stroke-width="10.3125" stroke-linecap="round" stroke-linejoin="round" stroke-miterlimit="10" stroke-opacity="0.898039" fill="none" fill-rule="evenodd"/><path d="M3218.6 1422.68 3101 963" stroke="#FFFFFF" stroke-width="10.3125" stroke-linecap="round" stroke-linejoin="round" stroke-miterlimit="10" stroke-opacity="0.898039" fill="none" fill-rule="evenodd"/><path d="M0 0 347.957 585.305" stroke="#FFFFFF" stroke-width="10.3125" stroke-linecap="round" stroke-linejoin="round" stroke-miterlimit="10" stroke-opacity="0.898039" fill="none" fill-rule="evenodd" transform="matrix(1 0 0 -1 2860 2008.31)"/><path d="M0 0 160.141 495.583" stroke="#FFFFFF" stroke-width="10.3125" stroke-linecap="round" stroke-linejoin="round" stroke-miterlimit="10" stroke-opacity="0.898039" fill="none" fill-rule="evenodd" transform="matrix(1 0 0 -1 3059 1913.58)"/><path d="M3059 1903 3207.59 2041.39" stroke="#FFFFFF" stroke-width="10.3125" stroke-linecap="round" stroke-linejoin="round" stroke-miterlimit="10" stroke-opacity="0.898039" fill="none" fill-rule="evenodd"/><path d="M0 0 30.2699 174.087" stroke="#FFFFFF" stroke-width="10.3125" stroke-linecap="round" stroke-linejoin="round" stroke-miterlimit="10" stroke-opacity="0.898039" fill="none" fill-rule="evenodd" transform="matrix(-1 0 0 1 3059.27 1908)"/><path d="M0 0 194.391 99.891" stroke="#FFFFFF" stroke-width="10.3125" stroke-linecap="round" stroke-linejoin="round" stroke-miterlimit="10" stroke-opacity="0.898039" fill="none" fill-rule="evenodd" transform="matrix(-1 0 0 1 3054.39 1908)"/><path d="M3028.97 2082.2 2863 2008" stroke="#FFFFFF" stroke-width="10.3125" stroke-linecap="round" stroke-linejoin="round" stroke-miterlimit="10" stroke-opacity="0.898039" fill="none" fill-rule="evenodd"/><path d="M0 0 31.1948 1604.5" stroke="#FFFFFF" stroke-width="10.3125" stroke-linecap="round" stroke-linejoin="round" stroke-miterlimit="10" stroke-opacity="0.898039" fill="none" fill-rule="evenodd" transform="matrix(1 0 0 -1 3208 2047.5)"/><path d="M0 0 184.062 34.5854" stroke="#FFFFFF" stroke-width="10.3125" stroke-linecap="round" stroke-linejoin="round" stroke-miterlimit="10" stroke-opacity="0.898039" fill="none" fill-rule="evenodd" transform="matrix(-1 0 0 1 3211.06 2048)"/><path d="M3012 392 3238.25 442.762" stroke="#FFFFFF" stroke-width="10.3125" stroke-linecap="round" stroke-linejoin="round" stroke-miterlimit="10" stroke-opacity="0.898039" fill="none" fill-rule="evenodd"/><path d="M0 0 398.341 316.773" stroke="#FFFFFF" stroke-width="10.3125" stroke-linecap="round" stroke-linejoin="round" stroke-miterlimit="10" stroke-opacity="0.898039" fill="none" fill-rule="evenodd" transform="matrix(-1 0 0 1 3011.34 392)"/><path d="M0 0 108.664 548.785" stroke="#FFFFFF" stroke-width="10.3125" stroke-linecap="round" stroke-linejoin="round" stroke-miterlimit="10" stroke-opacity="0.898039" fill="none" fill-rule="evenodd" transform="matrix(-1 0 0 1 2612.66 714)"/><path d="M2506 1263 2854.87 1995.53" stroke="#FFFFFF" stroke-width="10.3125" stroke-linecap="round" stroke-linejoin="round" stroke-miterlimit="10" stroke-opacity="0.898039" fill="none" fill-rule="evenodd"/><path d="M3697.82 2005.17 3694 1195" stroke="#FFFFFF" stroke-width="10.3125" stroke-linecap="round" stroke-linejoin="round" stroke-miterlimit="10" stroke-opacity="0.898039" fill="none" fill-rule="evenodd"/><path d="M4049.98 1259.46 3690 1180" stroke="#FFFFFF" stroke-width="10.3125" stroke-linecap="round" stroke-linejoin="round" stroke-miterlimit="10" stroke-opacity="0.898039" fill="none" fill-rule="evenodd"/><path d="M0 0 245.551 483.994" stroke="#FFFFFF" stroke-width="10.3125" stroke-linecap="round" stroke-linejoin="round" stroke-miterlimit="10" stroke-opacity="0.898039" fill="none" fill-rule="evenodd" transform="matrix(-1 0 0 1 3940.55 711)"/><path d="M0 0 482.958 244.123" stroke="#FFFFFF" stroke-width="10.3125" stroke-linecap="round" stroke-linejoin="round" stroke-miterlimit="10" stroke-opacity="0.898039" fill="none" fill-rule="evenodd" transform="matrix(-1 0 0 1 3936.96 716)"/><path d="M0 0 98.6467 300.054" stroke="#FFFFFF" stroke-width="10.3125" stroke-linecap="round" stroke-linejoin="round" stroke-miterlimit="10" stroke-opacity="0.898039" fill="none" fill-rule="evenodd" transform="matrix(-1 0 0 1 3548.65 660)"/><path d="M3940.64 715.313 3552 660" stroke="#FFFFFF" stroke-width="10.3125" stroke-linecap="round" stroke-linejoin="round" stroke-miterlimit="10" stroke-opacity="0.898039" fill="none" fill-rule="evenodd"/><path d="M0 0 0.0848097 264.473" stroke="#FFFFFF" stroke-width="10.3125" stroke-linecap="round" stroke-linejoin="round" stroke-miterlimit="10" stroke-opacity="0.898039" fill="none" fill-rule="evenodd" transform="matrix(-1 0 0 1 3546.08 396)"/><path d="M3325 445 3546.46 659.818" stroke="#FFFFFF" stroke-width="10.3125" stroke-linecap="round" stroke-linejoin="round" stroke-miterlimit="10" stroke-opacity="0.898039" fill="none" fill-rule="evenodd"/><path d="M3323 445 3450.65 959.872" stroke="#FFFFFF" stroke-width="10.3125" stroke-linecap="round" stroke-linejoin="round" stroke-miterlimit="10" stroke-opacity="0.898039" fill="none" fill-rule="evenodd"/><path d="M3446 960 3697.47 1174.82" stroke="#FFFFFF" stroke-width="10.3125" stroke-linecap="round" stroke-linejoin="round" stroke-miterlimit="10" stroke-opacity="0.898039" fill="none" fill-rule="evenodd"/><path d="M0 0 356.998 239.534" stroke="#FFFFFF" stroke-width="10.3125" stroke-linecap="round" stroke-linejoin="round" stroke-miterlimit="10" stroke-opacity="0.898039" fill="none" fill-rule="evenodd" transform="matrix(1 0 0 -1 3341 1414.53)"/><path d="M0 0 117.243 459.684" stroke="#FFFFFF" stroke-width="10.3125" stroke-linecap="round" stroke-linejoin="round" stroke-miterlimit="10" stroke-opacity="0.898039" fill="none" fill-rule="evenodd" transform="matrix(1 0 0 -1 3341 1419.68)"/><path d="M3697.9 2005.31 3351 1420" stroke="#FFFFFF" stroke-width="10.3125" stroke-linecap="round" stroke-linejoin="round" stroke-miterlimit="10" stroke-opacity="0.898039" fill="none" fill-rule="evenodd"/><path d="M3498.66 1910.58 3339 1415" stroke="#FFFFFF" stroke-width="10.3125" stroke-linecap="round" stroke-linejoin="round" stroke-miterlimit="10" stroke-opacity="0.898039" fill="none" fill-rule="evenodd"/><path d="M0 0 148.146 138.391" stroke="#FFFFFF" stroke-width="10.3125" stroke-linecap="round" stroke-linejoin="round" stroke-miterlimit="10" stroke-opacity="0.898039" fill="none" fill-rule="evenodd" transform="matrix(-1 0 0 1 3499.15 1900)"/><path d="M3499 1905 3529.18 2079.09" stroke="#FFFFFF" stroke-width="10.3125" stroke-linecap="round" stroke-linejoin="round" stroke-miterlimit="10" stroke-opacity="0.898039" fill="none" fill-rule="evenodd"/><path d="M3504 1905 3697.8 2004.89" stroke="#FFFFFF" stroke-width="10.3125" stroke-linecap="round" stroke-linejoin="round" stroke-miterlimit="10" stroke-opacity="0.898039" fill="none" fill-rule="evenodd"/><path d="M0 0 165.471 74.1969" stroke="#FFFFFF" stroke-width="10.3125" stroke-linecap="round" stroke-linejoin="round" stroke-miterlimit="10" stroke-opacity="0.898039" fill="none" fill-rule="evenodd" transform="matrix(1 0 0 -1 3529 2079.2)"/><path d="M3351.1 2044.5 3320 440" stroke="#FFFFFF" stroke-width="10.3125" stroke-linecap="round" stroke-linejoin="round" stroke-miterlimit="10" stroke-opacity="0.898039" fill="none" fill-rule="evenodd"/><path d="M3348 2045 3531.51 2079.59" stroke="#FFFFFF" stroke-width="10.3125" stroke-linecap="round" stroke-linejoin="round" stroke-miterlimit="10" stroke-opacity="0.898039" fill="none" fill-rule="evenodd"/><path d="M0 0 225.565 50.762" stroke="#FFFFFF" stroke-width="10.3125" stroke-linecap="round" stroke-linejoin="round" stroke-miterlimit="10" stroke-opacity="0.898039" fill="none" fill-rule="evenodd" transform="matrix(-1 0 0 1 3546.56 389)"/><path d="M3547 389 3944.14 705.773" stroke="#FFFFFF" stroke-width="10.3125" stroke-linecap="round" stroke-linejoin="round" stroke-miterlimit="10" stroke-opacity="0.898039" fill="none" fill-rule="evenodd"/><path d="M3944 711 4052.33 1259.78" stroke="#FFFFFF" stroke-width="10.3125" stroke-linecap="round" stroke-linejoin="round" stroke-miterlimit="10" stroke-opacity="0.898039" fill="none" fill-rule="evenodd"/><path d="M0 0 347.812 732.533" stroke="#FFFFFF" stroke-width="10.3125" stroke-linecap="round" stroke-linejoin="round" stroke-miterlimit="10" stroke-opacity="0.898039" fill="none" fill-rule="evenodd" transform="matrix(-1 0 0 1 4050.81 1260)"/></g></svg>