<svg width="1007" height="1036" xmlns="http://www.w3.org/2000/svg" xmlns:xlink="http://www.w3.org/1999/xlink" overflow="hidden"><defs><clipPath id="clip0"><rect x="1138" y="1152" width="1007" height="1036"/></clipPath></defs><g clip-path="url(#clip0)" transform="translate(-1138 -1152)"><path d="M1138 1681C1138 1530.78 1259.33 1409 1409 1409 1558.67 1409 1680 1530.78 1680 1681 1680 1831.22 1558.67 1953 1409 1953 1259.33 1953 1138 1831.22 1138 1681Z" fill="#FFFFFF" fill-rule="evenodd" fill-opacity="0.2"/><path d="M1574 1687.5C1574 1533.69 1701.82 1409 1859.5 1409 2017.18 1409 2145 1533.69 2145 1687.5 2145 1841.31 2017.18 1966 1859.5 1966 1701.82 1966 1574 1841.31 1574 1687.5Z" fill="#FFFFFF" fill-rule="evenodd" fill-opacity="0.2"/><path d="M1469 1325.5C1469 1229.68 1544.44 1152 1637.5 1152 1730.56 1152 1806 1229.68 1806 1325.5 1806 1421.32 1730.56 1499 1637.5 1499 1544.44 1499 1469 1421.32 1469 1325.5Z" fill="#FFFFFF" fill-rule="evenodd" fill-opacity="0.2"/><path d="M1608 1447.5C1608 1331.8 1705.6 1238 1826 1238 1946.4 1238 2044 1331.8 2044 1447.5 2044 1563.2 1946.4 1657 1826 1657 1705.6 1657 1608 1563.2 1608 1447.5Z" fill="#FFFFFF" fill-rule="evenodd" fill-opacity="0.2"/><path d="M1211 1447.5C1211 1331.8 1308.6 1238 1429 1238 1549.4 1238 1647 1331.8 1647 1447.5 1647 1563.2 1549.4 1657 1429 1657 1308.6 1657 1211 1563.2 1211 1447.5Z" fill="#FFFFFF" fill-rule="evenodd" fill-opacity="0.2"/><path d="M1288 1978C1288 1862.02 1385.6 1768 1506 1768 1626.4 1768 1724 1862.02 1724 1978 1724 2093.98 1626.4 2188 1506 2188 1385.6 2188 1288 2093.98 1288 1978Z" fill="#FFFFFF" fill-rule="evenodd" fill-opacity="0.2"/><path d="M1545 1978C1545 1862.02 1642.6 1768 1763 1768 1883.4 1768 1981 1862.02 1981 1978 1981 2093.98 1883.4 2188 1763 2188 1642.6 2188 1545 2093.98 1545 1978Z" fill="#FFFFFF" fill-rule="evenodd" fill-opacity="0.2"/><path d="M1411.02 2084.75C1445.42 2096.4 1473.01 2125.12 1504.61 2129L1600.6 2108.04C1601.4 1840.23 1602.2 1572.42 1603 1304.62L1487.81 1279C1425.42 1329.46 1341.27 1359.19 1300.63 1430.37L1244 1706.1" fill="#FFFFFF" fill-rule="evenodd" fill-opacity="0.498039"/><path d="M167.487 805.754C201.979 817.397 229.652 846.119 261.337 850L357.594 829.041C358.396 561.233 359.198 293.425 360 25.6164L244.492 0C181.925 50.4565 97.5402 80.1873 56.7914 151.37L0 427.096" fill="#FFFFFF" fill-rule="evenodd" fill-opacity="0.501961" transform="matrix(-1 0 0 1 2015 1273)"/><path d="M0 0 1.90948 403.577" stroke="#FFFFFF" stroke-width="10.3125" stroke-linecap="round" stroke-linejoin="round" stroke-miterlimit="10" stroke-opacity="0.898039" fill="none" fill-rule="evenodd" transform="matrix(1 0 0 -1 1420 2079.58)"/><path d="M0 0 179.862 39.5809" stroke="#FFFFFF" stroke-width="10.3125" stroke-linecap="round" stroke-linejoin="round" stroke-miterlimit="10" stroke-opacity="0.898039" fill="none" fill-rule="evenodd" transform="matrix(1 0 0 -1 1243 1707.58)"/><path d="M1298 1435 1420.69 1676.1" stroke="#FFFFFF" stroke-width="10.3125" stroke-linecap="round" stroke-linejoin="round" stroke-miterlimit="10" stroke-opacity="0.898039" fill="none" fill-rule="evenodd"/><path d="M1300 1437 1541.31 1558.61" stroke="#FFFFFF" stroke-width="10.3125" stroke-linecap="round" stroke-linejoin="round" stroke-miterlimit="10" stroke-opacity="0.898039" fill="none" fill-rule="evenodd"/><path d="M1494 1410 1543.29 1559.47" stroke="#FFFFFF" stroke-width="10.3125" stroke-linecap="round" stroke-linejoin="round" stroke-miterlimit="10" stroke-opacity="0.898039" fill="none" fill-rule="evenodd"/><path d="M0 0 194.183 27.5534" stroke="#FFFFFF" stroke-width="10.3125" stroke-linecap="round" stroke-linejoin="round" stroke-miterlimit="10" stroke-opacity="0.898039" fill="none" fill-rule="evenodd" transform="matrix(1 0 0 -1 1298 1437.55)"/><path d="M1495 1278 1495.04 1409.74" stroke="#FFFFFF" stroke-width="10.3125" stroke-linecap="round" stroke-linejoin="round" stroke-miterlimit="10" stroke-opacity="0.898039" fill="none" fill-rule="evenodd"/><path d="M0 0 110.651 107.009" stroke="#FFFFFF" stroke-width="10.3125" stroke-linecap="round" stroke-linejoin="round" stroke-miterlimit="10" stroke-opacity="0.898039" fill="none" fill-rule="evenodd" transform="matrix(-1 0 0 1 1605.65 1303)"/><path d="M0 0 63.7776 256.477" stroke="#FFFFFF" stroke-width="10.3125" stroke-linecap="round" stroke-linejoin="round" stroke-miterlimit="10" stroke-opacity="0.898039" fill="none" fill-rule="evenodd" transform="matrix(-1 0 0 1 1606.78 1303)"/><path d="M0 0 125.645 107.009" stroke="#FFFFFF" stroke-width="10.3125" stroke-linecap="round" stroke-linejoin="round" stroke-miterlimit="10" stroke-opacity="0.898039" fill="none" fill-rule="evenodd" transform="matrix(-1 0 0 1 1545.64 1559)"/><path d="M1598.37 1785.32 1420 1666" stroke="#FFFFFF" stroke-width="10.3125" stroke-linecap="round" stroke-linejoin="round" stroke-miterlimit="10" stroke-opacity="0.898039" fill="none" fill-rule="evenodd"/><path d="M1597.58 1787.99 1539 1559" stroke="#FFFFFF" stroke-width="10.3125" stroke-linecap="round" stroke-linejoin="round" stroke-miterlimit="10" stroke-opacity="0.898039" fill="none" fill-rule="evenodd"/><path d="M0 0 173.33 291.563" stroke="#FFFFFF" stroke-width="10.3125" stroke-linecap="round" stroke-linejoin="round" stroke-miterlimit="10" stroke-opacity="0.898039" fill="none" fill-rule="evenodd" transform="matrix(1 0 0 -1 1420 2079.56)"/><path d="M0 0 79.7724 246.869" stroke="#FFFFFF" stroke-width="10.3125" stroke-linecap="round" stroke-linejoin="round" stroke-miterlimit="10" stroke-opacity="0.898039" fill="none" fill-rule="evenodd" transform="matrix(1 0 0 -1 1519 2031.87)"/><path d="M1519 2027 1593.02 2095.94" stroke="#FFFFFF" stroke-width="10.3125" stroke-linecap="round" stroke-linejoin="round" stroke-miterlimit="10" stroke-opacity="0.898039" fill="none" fill-rule="evenodd"/><path d="M0 0 15.0784 86.7192" stroke="#FFFFFF" stroke-width="10.3125" stroke-linecap="round" stroke-linejoin="round" stroke-miterlimit="10" stroke-opacity="0.898039" fill="none" fill-rule="evenodd" transform="matrix(-1 0 0 1 1519.08 2030)"/><path d="M0 0 96.8336 49.7595" stroke="#FFFFFF" stroke-width="10.3125" stroke-linecap="round" stroke-linejoin="round" stroke-miterlimit="10" stroke-opacity="0.898039" fill="none" fill-rule="evenodd" transform="matrix(-1 0 0 1 1516.83 2030)"/><path d="M1503.68 2115.96 1421 2079" stroke="#FFFFFF" stroke-width="10.3125" stroke-linecap="round" stroke-linejoin="round" stroke-miterlimit="10" stroke-opacity="0.898039" fill="none" fill-rule="evenodd"/><path d="M0 0 15.5393 799.261" stroke="#FFFFFF" stroke-width="10.3125" stroke-linecap="round" stroke-linejoin="round" stroke-miterlimit="10" stroke-opacity="0.898039" fill="none" fill-rule="evenodd" transform="matrix(1 0 0 -1 1593 2099.26)"/><path d="M0 0 91.6883 17.2283" stroke="#FFFFFF" stroke-width="10.3125" stroke-linecap="round" stroke-linejoin="round" stroke-miterlimit="10" stroke-opacity="0.898039" fill="none" fill-rule="evenodd" transform="matrix(-1 0 0 1 1594.69 2099)"/><path d="M1495 1275 1607.7 1300.29" stroke="#FFFFFF" stroke-width="10.3125" stroke-linecap="round" stroke-linejoin="round" stroke-miterlimit="10" stroke-opacity="0.898039" fill="none" fill-rule="evenodd"/><path d="M0 0 198.429 157.797" stroke="#FFFFFF" stroke-width="10.3125" stroke-linecap="round" stroke-linejoin="round" stroke-miterlimit="10" stroke-opacity="0.898039" fill="none" fill-rule="evenodd" transform="matrix(-1 0 0 1 1495.43 1275)"/><path d="M0 0 54.1295 273.37" stroke="#FFFFFF" stroke-width="10.3125" stroke-linecap="round" stroke-linejoin="round" stroke-miterlimit="10" stroke-opacity="0.898039" fill="none" fill-rule="evenodd" transform="matrix(-1 0 0 1 1296.13 1435)"/><path d="M1243 1708 1416.78 2072.9" stroke="#FFFFFF" stroke-width="10.3125" stroke-linecap="round" stroke-linejoin="round" stroke-miterlimit="10" stroke-opacity="0.898039" fill="none" fill-rule="evenodd"/><path d="M1836.9 2077.58 1835 1674" stroke="#FFFFFF" stroke-width="10.3125" stroke-linecap="round" stroke-linejoin="round" stroke-miterlimit="10" stroke-opacity="0.898039" fill="none" fill-rule="evenodd"/><path d="M2012.32 1706.58 1833 1667" stroke="#FFFFFF" stroke-width="10.3125" stroke-linecap="round" stroke-linejoin="round" stroke-miterlimit="10" stroke-opacity="0.898039" fill="none" fill-rule="evenodd"/><path d="M0 0 122.318 241.096" stroke="#FFFFFF" stroke-width="10.3125" stroke-linecap="round" stroke-linejoin="round" stroke-miterlimit="10" stroke-opacity="0.898039" fill="none" fill-rule="evenodd" transform="matrix(-1 0 0 1 1957.32 1433)"/><path d="M0 0 240.58 121.607" stroke="#FFFFFF" stroke-width="10.3125" stroke-linecap="round" stroke-linejoin="round" stroke-miterlimit="10" stroke-opacity="0.898039" fill="none" fill-rule="evenodd" transform="matrix(-1 0 0 1 1955.58 1436)"/><path d="M0 0 49.1398 149.468" stroke="#FFFFFF" stroke-width="10.3125" stroke-linecap="round" stroke-linejoin="round" stroke-miterlimit="10" stroke-opacity="0.898039" fill="none" fill-rule="evenodd" transform="matrix(-1 0 0 1 1762.14 1408)"/><path d="M1957.6 1435.55 1764 1408" stroke="#FFFFFF" stroke-width="10.3125" stroke-linecap="round" stroke-linejoin="round" stroke-miterlimit="10" stroke-opacity="0.898039" fill="none" fill-rule="evenodd"/><path d="M0 0 0.0422244 131.744" stroke="#FFFFFF" stroke-width="10.3125" stroke-linecap="round" stroke-linejoin="round" stroke-miterlimit="10" stroke-opacity="0.898039" fill="none" fill-rule="evenodd" transform="matrix(-1 0 0 1 1761.04 1276)"/><path d="M1651 1301 1761.32 1408.01" stroke="#FFFFFF" stroke-width="10.3125" stroke-linecap="round" stroke-linejoin="round" stroke-miterlimit="10" stroke-opacity="0.898039" fill="none" fill-rule="evenodd"/><path d="M1650 1301 1713.58 1557.48" stroke="#FFFFFF" stroke-width="10.3125" stroke-linecap="round" stroke-linejoin="round" stroke-miterlimit="10" stroke-opacity="0.898039" fill="none" fill-rule="evenodd"/><path d="M1712 1557 1837.26 1664.01" stroke="#FFFFFF" stroke-width="10.3125" stroke-linecap="round" stroke-linejoin="round" stroke-miterlimit="10" stroke-opacity="0.898039" fill="none" fill-rule="evenodd"/><path d="M0 0 177.834 119.321" stroke="#FFFFFF" stroke-width="10.3125" stroke-linecap="round" stroke-linejoin="round" stroke-miterlimit="10" stroke-opacity="0.898039" fill="none" fill-rule="evenodd" transform="matrix(1 0 0 -1 1659 1783.32)"/><path d="M0 0 58.4036 228.986" stroke="#FFFFFF" stroke-width="10.3125" stroke-linecap="round" stroke-linejoin="round" stroke-miterlimit="10" stroke-opacity="0.898039" fill="none" fill-rule="evenodd" transform="matrix(1 0 0 -1 1659 1785.99)"/><path d="M1836.81 2077.56 1664 1786" stroke="#FFFFFF" stroke-width="10.3125" stroke-linecap="round" stroke-linejoin="round" stroke-miterlimit="10" stroke-opacity="0.898039" fill="none" fill-rule="evenodd"/><path d="M1737.53 2030.87 1658 1784" stroke="#FFFFFF" stroke-width="10.3125" stroke-linecap="round" stroke-linejoin="round" stroke-miterlimit="10" stroke-opacity="0.898039" fill="none" fill-rule="evenodd"/><path d="M0 0 73.7971 68.938" stroke="#FFFFFF" stroke-width="10.3125" stroke-linecap="round" stroke-linejoin="round" stroke-miterlimit="10" stroke-opacity="0.898039" fill="none" fill-rule="evenodd" transform="matrix(-1 0 0 1 1737.8 2025)"/><path d="M1738 2028 1753.03 2114.72" stroke="#FFFFFF" stroke-width="10.3125" stroke-linecap="round" stroke-linejoin="round" stroke-miterlimit="10" stroke-opacity="0.898039" fill="none" fill-rule="evenodd"/><path d="M1740 2028 1836.54 2077.76" stroke="#FFFFFF" stroke-width="10.3125" stroke-linecap="round" stroke-linejoin="round" stroke-miterlimit="10" stroke-opacity="0.898039" fill="none" fill-rule="evenodd"/><path d="M0 0 82.4275 36.9604" stroke="#FFFFFF" stroke-width="10.3125" stroke-linecap="round" stroke-linejoin="round" stroke-miterlimit="10" stroke-opacity="0.898039" fill="none" fill-rule="evenodd" transform="matrix(1 0 0 -1 1753 2114.96)"/><path d="M1664.49 2097.26 1649 1298" stroke="#FFFFFF" stroke-width="10.3125" stroke-linecap="round" stroke-linejoin="round" stroke-miterlimit="10" stroke-opacity="0.898039" fill="none" fill-rule="evenodd"/><path d="M1663 2098 1754.41 2115.23" stroke="#FFFFFF" stroke-width="10.3125" stroke-linecap="round" stroke-linejoin="round" stroke-miterlimit="10" stroke-opacity="0.898039" fill="none" fill-rule="evenodd"/><path d="M0 0 112.362 25.2866" stroke="#FFFFFF" stroke-width="10.3125" stroke-linecap="round" stroke-linejoin="round" stroke-miterlimit="10" stroke-opacity="0.898039" fill="none" fill-rule="evenodd" transform="matrix(-1 0 0 1 1761.36 1273)"/><path d="M1762 1273 1959.83 1430.8" stroke="#FFFFFF" stroke-width="10.3125" stroke-linecap="round" stroke-linejoin="round" stroke-miterlimit="10" stroke-opacity="0.898039" fill="none" fill-rule="evenodd"/><path d="M1960 1433 2013.97 1706.37" stroke="#FFFFFF" stroke-width="10.3125" stroke-linecap="round" stroke-linejoin="round" stroke-miterlimit="10" stroke-opacity="0.898039" fill="none" fill-rule="evenodd"/><path d="M0 0 173.259 364.903" stroke="#FFFFFF" stroke-width="10.3125" stroke-linecap="round" stroke-linejoin="round" stroke-miterlimit="10" stroke-opacity="0.898039" fill="none" fill-rule="evenodd" transform="matrix(-1 0 0 1 2012.26 1707)"/></g></svg>