<svg xmlns="http://www.w3.org/2000/svg" xmlns:xlink="http://www.w3.org/1999/xlink" viewBox="0 0 326.52 186.57"><defs><style>.cls-1,.cls-2,.cls-4,.cls-5{fill:none;stroke-miterlimit:10;}.cls-1,.cls-5{stroke-width:3px;}.cls-1{stroke:url(#Degradado_sin_nombre_64);}.cls-2,.cls-4{stroke-width:2px;}.cls-2{stroke:url(#Degradado_sin_nombre_56);}.cls-3{fill:url(#Degradado_sin_nombre_56-2);}.cls-4{stroke:#fff;}.cls-5{stroke:#f7b114;}.cls-6{fill:#f7b114;}.cls-7{fill:url(#Degradado_sin_nombre_56-3);}.cls-8{fill:url(#Degradado_sin_nombre_56-4);}.cls-9{fill:url(#Degradado_sin_nombre_64-2);}.cls-10{fill:url(#Degradado_sin_nombre_64-3);}.cls-11{fill:url(#Degradado_sin_nombre_64-4);}.cls-12{fill:url(#Degradado_sin_nombre_64-5);}.cls-13{fill:url(#Degradado_sin_nombre_64-6);}.cls-14{fill:url(#Degradado_sin_nombre_64-7);}.cls-15{fill:url(#Degradado_sin_nombre_64-8);}</style><linearGradient id="Degradado_sin_nombre_64" x1="43.6" y1="106.86" x2="326.52" y2="106.86" gradientUnits="userSpaceOnUse"><stop offset="0" stop-color="#bd008e"/><stop offset="1" stop-color="#e94100"/></linearGradient><linearGradient id="Degradado_sin_nombre_56" x1="96.06" y1="54.37" x2="289.06" y2="54.37" gradientUnits="userSpaceOnUse"><stop offset="0" stop-color="#fffb6a"/><stop offset="1" stop-color="#d43c00"/></linearGradient><linearGradient id="Degradado_sin_nombre_56-2" x1="0" y1="44.32" x2="88.63" y2="44.32" gradientTransform="translate(53.55 -17.67) rotate(53.47)" xlink:href="#Degradado_sin_nombre_56"/><linearGradient id="Degradado_sin_nombre_56-3" x1="80.06" y1="160.07" x2="292.06" y2="160.07" xlink:href="#Degradado_sin_nombre_56"/><linearGradient id="Degradado_sin_nombre_56-4" x1="296.06" y1="52.07" x2="316.06" y2="52.07" xlink:href="#Degradado_sin_nombre_56"/><linearGradient id="Degradado_sin_nombre_64-2" x1="133.16" y1="103.73" x2="149.66" y2="103.73" xlink:href="#Degradado_sin_nombre_64"/><linearGradient id="Degradado_sin_nombre_64-3" x1="152.93" y1="103.73" x2="155.07" y2="103.73" xlink:href="#Degradado_sin_nombre_64"/><linearGradient id="Degradado_sin_nombre_64-4" x1="164.77" y1="108.42" x2="175.82" y2="108.42" xlink:href="#Degradado_sin_nombre_64"/><linearGradient id="Degradado_sin_nombre_64-5" x1="177.57" y1="106.15" x2="189.04" y2="106.15" xlink:href="#Degradado_sin_nombre_64"/><linearGradient id="Degradado_sin_nombre_64-6" x1="190.79" y1="108.61" x2="201.8" y2="108.61" xlink:href="#Degradado_sin_nombre_64"/><linearGradient id="Degradado_sin_nombre_64-7" x1="204.14" y1="108.61" x2="215.14" y2="108.61" xlink:href="#Degradado_sin_nombre_64"/><linearGradient id="Degradado_sin_nombre_64-8" x1="217.02" y1="108.64" x2="228.49" y2="108.64" xlink:href="#Degradado_sin_nombre_64"/></defs><title>buying</title><g id="Capa_2" data-name="Capa 2"><g id="home"><rect class="cls-1" x="45.1" y="28.65" width="279.91" height="156.42" rx="9.94" ry="9.94"/><line class="cls-2" x1="96.06" y1="54.57" x2="289.06" y2="54.18"/><rect class="cls-3" x="10.3" y="10.3" width="68.03" height="68.03" rx="8.19" ry="8.19" transform="translate(-17.67 53.55) rotate(-53.47)"/><rect class="cls-4" x="21.83" y="31.36" width="44.5" height="27" rx="2.42" ry="2.42" transform="translate(-9.32 11.64) rotate(-13.61)"/><line class="cls-4" x1="24.19" y1="44.53" x2="62.1" y2="35.35"/><circle class="cls-4" cx="36.52" cy="50.81" r="4"/><circle class="cls-5" cx="83.56" cy="110.57" r="17.5"/><path class="cls-6" d="M83.15,116v-1.69a4.87,4.87,0,0,1-2.56-.74l.4-1.12a4.46,4.46,0,0,0,2.41.72c1.19,0,2-.68,2-1.64s-.65-1.49-1.89-2c-1.71-.67-2.76-1.44-2.76-2.9A2.74,2.74,0,0,1,83.27,104v-1.69h1v1.62a4.35,4.35,0,0,1,2.18.59l-.42,1.1A4.06,4.06,0,0,0,84,105c-1.29,0-1.77.77-1.77,1.44,0,.87.62,1.31,2.07,1.91,1.73.7,2.6,1.57,2.6,3.06a2.91,2.91,0,0,1-2.65,2.85V116Z"/><circle class="cls-5" cx="108.56" cy="88.57" r="7.5"/><path class="cls-6" d="M108.38,90.91v-.73a2.07,2.07,0,0,1-1.1-.31l.18-.48a1.93,1.93,0,0,0,1,.31.75.75,0,0,0,.85-.71c0-.39-.28-.63-.81-.85-.73-.29-1.18-.62-1.18-1.24a1.18,1.18,0,0,1,1.08-1.16V85h.45v.69a1.88,1.88,0,0,1,.93.26l-.18.47a1.68,1.68,0,0,0-.9-.24c-.56,0-.76.33-.76.61s.26.56.89.82,1.11.68,1.11,1.31a1.25,1.25,0,0,1-1.14,1.22v.75Z"/><rect class="cls-7" x="80.06" y="155.07" width="212" height="10" rx="5" ry="5"/><circle class="cls-8" cx="306.06" cy="52.07" r="10"/><path class="cls-9" d="M133.16,95.13h3.34l4.95,14.55,4.91-14.55h3.3v17.21h-2.21V102.18c0-.35,0-.93,0-1.74s0-1.69,0-2.62l-4.91,14.52h-2.31l-4.94-14.52v.53c0,.42,0,1.06,0,1.93s0,1.5,0,1.9v10.16h-2.23Z"/><path class="cls-10" d="M152.93,95.13h2.14v2.39h-2.14Zm0,4.72h2.14v12.49h-2.14Z"/><path class="cls-11" d="M164.77,99.85h2v1.66a5,5,0,0,1,1.38-1.32,4.45,4.45,0,0,1,2.51-.7,4.71,4.71,0,0,1,3.62,1.63,6.72,6.72,0,0,1,1.49,4.67q0,4.11-2.15,5.86a4.84,4.84,0,0,1-3.16,1.11,4.24,4.24,0,0,1-2.38-.62,5.22,5.22,0,0,1-1.25-1.2v6.41h-2.11Zm7.91,9.84a5.92,5.92,0,0,0,1-3.7,6.9,6.9,0,0,0-.43-2.58,3.18,3.18,0,0,0-6,.12,8.64,8.64,0,0,0-.44,3,6.31,6.31,0,0,0,.44,2.47,3,3,0,0,0,3,1.94A3,3,0,0,0,172.68,109.69Z"/><path class="cls-12" d="M186.09,100.14a4.66,4.66,0,0,1,1.91,1.62,5.46,5.46,0,0,1,.85,2.21,14.91,14.91,0,0,1,.19,2.77h-9.2a5.36,5.36,0,0,0,.9,3.06,3,3,0,0,0,2.61,1.16,3.38,3.38,0,0,0,2.64-1.09,3.76,3.76,0,0,0,.8-1.47h2.07a4.47,4.47,0,0,1-.55,1.55,5.4,5.4,0,0,1-1,1.38,4.92,4.92,0,0,1-2.38,1.27,7.48,7.48,0,0,1-1.72.19,5.29,5.29,0,0,1-4-1.71,6.65,6.65,0,0,1-1.63-4.77,7.17,7.17,0,0,1,1.65-4.91,5.39,5.39,0,0,1,4.28-1.89A5.69,5.69,0,0,1,186.09,100.14Zm.78,4.92a5.6,5.6,0,0,0-.6-2.19,3.07,3.07,0,0,0-2.89-1.52,3.2,3.2,0,0,0-2.44,1.05,4,4,0,0,0-1.05,2.66Z"/><path class="cls-13" d="M198.63,100.3a5.63,5.63,0,0,1,1.22,1.19V99.91h2v11.41a8.43,8.43,0,0,1-.71,3.78q-1.31,2.55-5,2.55a6,6,0,0,1-3.41-.91,3.51,3.51,0,0,1-1.55-2.84h2.14a2.47,2.47,0,0,0,.61,1.3,3.11,3.11,0,0,0,2.25.7q2.43,0,3.18-1.71a9.61,9.61,0,0,0,.41-3.59,4.21,4.21,0,0,1-1.52,1.43,5.14,5.14,0,0,1-2.36.46,5,5,0,0,1-3.57-1.44c-1-1-1.53-2.56-1.53-4.79a7.29,7.29,0,0,1,1.54-4.92,4.77,4.77,0,0,1,3.72-1.77A4.52,4.52,0,0,1,198.63,100.3Zm.26,2.26a3.09,3.09,0,0,0-2.45-1.13,3,3,0,0,0-3.05,2.09,8.37,8.37,0,0,0-.43,2.92,5.17,5.17,0,0,0,.86,3.22,2.79,2.79,0,0,0,2.32,1.11,3.25,3.25,0,0,0,3.2-2,6.65,6.65,0,0,0,.51-2.71A5.22,5.22,0,0,0,198.89,102.56Z"/><path class="cls-14" d="M212,100.3a5.63,5.63,0,0,1,1.22,1.19V99.91h1.94v11.41a8.44,8.44,0,0,1-.7,3.78c-.87,1.7-2.53,2.55-5,2.55a6.07,6.07,0,0,1-3.41-.91,3.53,3.53,0,0,1-1.54-2.84h2.14a2.4,2.4,0,0,0,.61,1.3,3.11,3.11,0,0,0,2.25.7q2.43,0,3.18-1.71a9.83,9.83,0,0,0,.41-3.59,4.16,4.16,0,0,1-1.53,1.43,5.5,5.5,0,0,1-5.92-1c-1-1-1.53-2.56-1.53-4.79a7.23,7.23,0,0,1,1.54-4.92,4.77,4.77,0,0,1,3.72-1.77A4.52,4.52,0,0,1,212,100.3Zm.26,2.26a3.09,3.09,0,0,0-2.45-1.13,3,3,0,0,0-3,2.09,8.14,8.14,0,0,0-.43,2.92,5.17,5.17,0,0,0,.86,3.22,2.78,2.78,0,0,0,2.31,1.11,3.24,3.24,0,0,0,3.2-2,6.49,6.49,0,0,0,.52-2.71A5.22,5.22,0,0,0,212.24,102.56Z"/><path class="cls-15" d="M226.16,99.79h2.33l-2,5.51c-.76,2.16-1.4,3.91-1.92,5.27a35.29,35.29,0,0,1-2.58,5.86,3,3,0,0,1-2.58,1.06,5.5,5.5,0,0,1-.68,0,5,5,0,0,1-.59-.13V115.4c.36.1.63.16.79.19l.44,0a1.52,1.52,0,0,0,.86-.19,1.87,1.87,0,0,0,.46-.47c0-.07.18-.39.42-1s.42-1,.53-1.28L217,99.79h2.39L222.77,110Z"/></g></g></svg>