<svg xmlns="http://www.w3.org/2000/svg" viewBox="0 0 1368.58 766.2"><title>bg_recovery</title><g id="Layer_2" data-name="Layer 2"><g id="Layer_1-2" data-name="Layer 1"><path d="M0,589.14l259.59-84.67c23.38-7.62,48.76,2.25,61.51,23.93L461,766.2H0Z" fill="#f7f7f7"/><path d="M1368.58,177.06,1109.15,262.2c-23.37,7.67-48.77-2.16-61.56-23.82L907.26.84l461-.84Z" fill="#f7f7f7"/><rect x="86" y="196.2" width="75.5" height="86.5" rx="7.88" ry="7.88" fill="none" stroke="#f230c9" stroke-miterlimit="10"/><path d="M100.5,188.2c0-14.08,10.52-25.5,23.5-25.5s23.5,11.42,23.5,25.5" fill="none" stroke="#f230c9" stroke-miterlimit="10"/><path d="M119.5,219.7v28h9v-12h0a8,8,0,0,0,8-8h0a8,8,0,0,0-8-8Z" fill="none" stroke="#f230c9" stroke-miterlimit="10"/><path d="M165.5,233.7h12.82a11.19,11.19,0,0,1,11.18,11.18v50.64a11.19,11.19,0,0,0,11.18,11.18H325.5" fill="none" stroke="#f230c9" stroke-miterlimit="10" stroke-dasharray="6"/><circle cx="257.5" cy="307.7" r="12" fill="none" stroke="#f230c9" stroke-miterlimit="10"/><polyline points="253.5 301.7 257.5 311.7 269.5 295.7" fill="none" stroke="#f230c9" stroke-miterlimit="10"/><path d="M961,544.2h77.55A23.45,23.45,0,0,1,1062,567.65v64.1a23.45,23.45,0,0,0,23.45,23.45H1126" fill="none" stroke="#f230c9" stroke-miterlimit="10" stroke-dasharray="6"/><circle cx="1155" cy="654.2" r="29.5" fill="none" stroke="#f230c9" stroke-miterlimit="10"/><polyline points="1139.5 645.7 1154.5 665.7 1191.5 632.7" fill="none" stroke="#f230c9" stroke-miterlimit="10"/><polygon points="1013.5 525.7 999.5 559.7 1022.5 559.7 1013.5 525.7" fill="none" stroke="#f230c9" stroke-miterlimit="10"/></g></g></svg>