<svg xmlns="http://www.w3.org/2000/svg" xmlns:xlink="http://www.w3.org/1999/xlink" viewBox="0 0 1366 1978"><defs><linearGradient id="linear-gradient" x1="856" y1="102" x2="1006" y2="102" gradientUnits="userSpaceOnUse"><stop offset="0" stop-color="#ffea00"/><stop offset="0.49" stop-color="#d5706e"/><stop offset="0.84" stop-color="#ba20b7"/><stop offset="1" stop-color="#af00d4"/></linearGradient><linearGradient id="linear-gradient-2" x1="969" y1="167.5" x2="1102" y2="167.5" xlink:href="#linear-gradient"/><linearGradient id="linear-gradient-3" x1="1032.25" y1="54" x2="1032.25" y2="10.5" gradientUnits="userSpaceOnUse"><stop offset="0" stop-color="#ffea00"/><stop offset="0.05" stop-color="#fadd0c" stop-opacity="0.94"/><stop offset="0.53" stop-color="#d26776" stop-opacity="0.44"/><stop offset="0.85" stop-color="#b91dba" stop-opacity="0.12"/><stop offset="1" stop-color="#af00d4" stop-opacity="0"/></linearGradient><linearGradient id="linear-gradient-4" x1="809.5" y1="253" x2="809.5" y2="168" gradientUnits="userSpaceOnUse"><stop offset="0" stop-color="#dbdc00"/><stop offset="0.42" stop-color="#dcd307"/><stop offset="1" stop-color="#ddbe15"/></linearGradient><linearGradient id="linear-gradient-5" x1="808.82" y1="276.97" x2="810.82" y2="276.97" gradientUnits="userSpaceOnUse"><stop offset="0" stop-color="#dbb200"/><stop offset="0.21" stop-color="#dbbb03"/><stop offset="0.55" stop-color="#dcd509"/><stop offset="0.98" stop-color="#ddfd15"/><stop offset="1" stop-color="#ddff15"/></linearGradient><linearGradient id="linear-gradient-6" x1="1148.66" y1="202.74" x2="1366" y2="202.74" gradientUnits="userSpaceOnUse"><stop offset="0" stop-color="#6f49ff"/><stop offset="0.15" stop-color="#7845f8"/><stop offset="0.39" stop-color="#9239e6"/><stop offset="0.69" stop-color="#ba25c9"/><stop offset="1" stop-color="#ea0fa7"/></linearGradient><linearGradient id="linear-gradient-7" x1="683" y1="282.28" x2="683" y2="1978" xlink:href="#linear-gradient-6"/><linearGradient id="linear-gradient-8" x1="505.5" y1="1760.68" x2="505.5" y2="1978" gradientUnits="userSpaceOnUse"><stop offset="0" stop-color="#6f00ff"/><stop offset="0.15" stop-color="#7801f8"/><stop offset="0.39" stop-color="#9204e6"/><stop offset="0.69" stop-color="#ba09c9"/><stop offset="1" stop-color="#ea0fa7"/></linearGradient><linearGradient id="linear-gradient-9" x1="141.99" y1="1549.1" x2="210.01" y2="1666.9" gradientUnits="userSpaceOnUse"><stop offset="0" stop-color="#6f00ff"/><stop offset="0.24" stop-color="#7800f9"/><stop offset="0.63" stop-color="#9100e8"/><stop offset="1" stop-color="#af00d4"/></linearGradient><linearGradient id="linear-gradient-10" x1="176" y1="1676" x2="176" y2="1763" gradientUnits="userSpaceOnUse"><stop offset="0" stop-color="#6f00ff"/><stop offset="0.08" stop-color="#7100fd" stop-opacity="0.96"/><stop offset="0.23" stop-color="#7800f9" stop-opacity="0.86"/><stop offset="0.4" stop-color="#8200f2" stop-opacity="0.7"/><stop offset="0.62" stop-color="#9000e9" stop-opacity="0.48"/><stop offset="0.85" stop-color="#a200dc" stop-opacity="0.2"/><stop offset="1" stop-color="#af00d4" stop-opacity="0"/></linearGradient><linearGradient id="linear-gradient-11" x1="293.73" y1="1636.55" x2="335.21" y2="1708.39" xlink:href="#linear-gradient-9"/><linearGradient id="linear-gradient-12" x1="314.47" y1="1713.94" x2="314.47" y2="1767" xlink:href="#linear-gradient-10"/><linearGradient id="linear-gradient-13" x1="22.6" y1="1096.55" x2="265.3" y2="676.18" xlink:href="#linear-gradient-8"/><linearGradient id="linear-gradient-14" x1="238.75" y1="612.8" x2="297.93" y2="715.3" xlink:href="#linear-gradient-6"/><linearGradient id="linear-gradient-15" x1="252.07" y1="732.17" x2="284.6" y2="788.52" xlink:href="#linear-gradient-6"/><linearGradient id="linear-gradient-16" x1="1049.39" y1="1576.57" x2="1408.41" y2="1935.59" xlink:href="#linear-gradient-8"/><linearGradient id="linear-gradient-17" x1="1070.75" y1="1021.15" x2="1070.75" y2="1308.03" xlink:href="#linear-gradient-8"/><linearGradient id="linear-gradient-18" x1="837.1" y1="958.79" x2="837.1" y2="1085.59" xlink:href="#linear-gradient-8"/><linearGradient id="linear-gradient-19" x1="0" y1="1363.5" x2="417.5" y2="1363.5" xlink:href="#linear-gradient-9"/></defs><title>bg_work_v2</title><g id="Layer_2" data-name="Layer 2"><g id="Layer_6" data-name="Layer 6"><circle cx="931" cy="102" r="75" opacity="0" fill="url(#linear-gradient)"/><line x1="931" y1="265" x2="931" y2="177" fill="none" stroke="#17e07f" opacity="0" stroke-miterlimit="10" stroke-width="2"/><path d="M928.45,130v-7.54c-4.33-.07-8.82-1.42-11.43-3.29l1.79-5a20,20,0,0,0,10.76,3.21c5.3,0,8.89-3.06,8.89-7.32,0-4.11-2.91-6.65-8.44-8.89-7.62-3-12.33-6.42-12.33-12.92,0-6.21,4.41-10.91,11.28-12V68.69h4.64v7.25a20,20,0,0,1,9.71,2.61l-1.87,4.93A18.13,18.13,0,0,0,932,81c-5.76,0-7.92,3.43-7.92,6.42,0,3.88,2.76,5.83,9.26,8.51,7.7,3.14,11.58,7,11.58,13.68,0,5.9-4.11,11.43-11.8,12.7V130Z" fill="#fff"/><circle cx="1035.5" cy="167.5" r="66.5" opacity="0.33" fill="url(#linear-gradient-2)"/><circle cx="1032.25" cy="32.25" r="21.25" fill="none" stroke-miterlimit="10" stroke="url(#linear-gradient-3)"/><path d="M1037.45,208v-7.54c-4.33-.07-8.82-1.42-11.43-3.29l1.79-5a20,20,0,0,0,10.76,3.21c5.3,0,8.89-3.06,8.89-7.32s-2.91-6.65-8.44-8.89c-7.62-3-12.33-6.42-12.33-12.92,0-6.21,4.41-10.91,11.28-12v-7.55h4.64v7.25a20,20,0,0,1,9.71,2.61l-1.87,4.93A18.13,18.13,0,0,0,1041,159c-5.76,0-7.92,3.43-7.92,6.42,0,3.88,2.76,5.83,9.26,8.51,7.7,3.14,11.58,7,11.58,13.68,0,5.9-4.11,11.43-11.8,12.7V208Z" fill="#fff"/><line x1="1036" y1="309" x2="1036" y2="234" fill="none" stroke="#350ff2" stroke-miterlimit="10"/><g opacity="0.32"><circle cx="809.9" cy="210.5" r="42.5" fill="url(#linear-gradient-4)"/><path d="M810.75,236.4v-4.82a14,14,0,0,1-7.31-2.1l1.15-3.2a12.77,12.77,0,0,0,6.87,2.05c3.39,0,5.68-2,5.68-4.68s-1.86-4.25-5.39-5.68c-4.87-1.91-7.88-4.1-7.88-8.26,0-4,2.82-7,7.21-7.69V197.2h3v4.63a12.82,12.82,0,0,1,6.21,1.67l-1.2,3.16a11.44,11.44,0,0,0-6-1.63c-3.68,0-5.06,2.2-5.06,4.11,0,2.48,1.76,3.72,5.92,5.44,4.92,2,7.4,4.49,7.4,8.74,0,3.77-2.63,7.3-7.55,8.11v5Z" fill="#fff"/><line x1="809.82" y1="300.93" x2="809.82" y2="253" fill="none" stroke-miterlimit="10" stroke-width="2" stroke="url(#linear-gradient-5)"/></g><path d="M1151,282c54-457,181.53-115.74,215-282V405.48C1308.26,278.77,1126,359,1151,282Z" fill="url(#linear-gradient-6)"/><path d="M1366,333V1978H0V333C585,765,455,101,1366,333Z" fill="url(#linear-gradient-7)"/><path d="M1011,1927.69V1978H0V1855.81C251.86,1579.88,672.49,1999.18,1011,1927.69Z" opacity="0.19" fill="url(#linear-gradient-8)"/><g opacity="0.66"><circle cx="176" cy="1608" r="68" opacity="0.37" fill="url(#linear-gradient-9)"/><line x1="176" y1="1763" x2="176" y2="1676" fill="none" stroke-miterlimit="10" stroke-width="2" stroke="url(#linear-gradient-10)"/></g><g opacity="0.66"><circle cx="314.47" cy="1672.47" r="41.47" opacity="0.37" fill="url(#linear-gradient-11)"/><line x1="314.47" y1="1767" x2="314.47" y2="1713.94" fill="none" stroke-miterlimit="10" stroke-width="2" stroke="url(#linear-gradient-12)"/></g><g opacity="0.36"><path d="M0,594.4v466C0,1082.82,18.72,1101,41.81,1101H314.19c23.09,0,41.81-18.18,41.81-40.61V868.68c0-22.42-18.72-40.6-41.81-40.6H221c-23.1,0-41.82-18.18-41.82-40.61V745.7c0-22.42-18.72-40.6-41.81-40.6H125.44c-23.1,0-41.82-18.18-41.82-40.61V594.4c0-22.24-18.42-40.34-41.31-40.6h0C19,553.53,0,571.79,0,594.4Z" opacity="0.34" fill="url(#linear-gradient-13)"/><ellipse cx="268.34" cy="664.05" rx="60.47" ry="58.73" opacity="0.37" fill="url(#linear-gradient-14)"/><line x1="268.34" y1="797.91" x2="268.34" y2="722.78" fill="url(#linear-gradient-15)"/></g><path d="M1366,1453.35H1198.5a62.5,62.5,0,0,0-62.5,62.5V1651.5a62.5,62.5,0,0,1-62.5,62.5h0a62.5,62.5,0,0,0-62.5,62.5V1978h355Z" opacity="0.19" fill="url(#linear-gradient-16)"/><g opacity="0.43"><path d="M888.47,1308H1253c28.16,0,51-30.72,51-68.6h0c0-37.89-22.82-68.6-51-68.6h-24.71c-28.15,0-51-30.72-51-68.6v-12.48c0-37.88-22.82-68.6-51-68.6h-66.43c-28.15,0-51,30.72-51,68.6V1096c0,37.89-22.82,68.6-51,68.6H888.47c-28.15,0-51,30.71-51,68.6v6.24C837.5,1277.31,860.32,1308,888.47,1308Z" opacity="0.34" fill="url(#linear-gradient-17)"/><path d="M756.53,1085.59H917.68c12.44,0,22.53-13.57,22.53-30.32h0c0-16.75-10.09-30.32-22.53-30.32H906.75c-12.44,0-22.53-13.58-22.53-30.33v-5.51c0-16.75-10.09-30.32-22.53-30.32H832.32c-12.44,0-22.53,13.57-22.53,30.32v2.76c0,16.74-10.09,30.32-22.53,30.32H756.53c-12.44,0-22.53,13.58-22.53,30.32v2.76C734,1072,744.09,1085.59,756.53,1085.59Z" opacity="0.34" fill="url(#linear-gradient-18)"/></g><g opacity="0.27"><path d="M266,686.5h51.5A31.5,31.5,0,0,1,349,718h0a31.5,31.5,0,0,0,31.5,31.5H445" fill="none" stroke="#fff" stroke-miterlimit="10" stroke-dasharray="6"/><circle cx="460" cy="744" r="24.5" fill="none" stroke="#fff" stroke-miterlimit="10" stroke-dasharray="6"/></g><path d="M.5,1213.5h130a32,32,0,0,1,32,32h0a32,32,0,0,0,32,32h96a32,32,0,0,1,32,32v18a32,32,0,0,0,32,32h31a32,32,0,0,1,32,32v90a32,32,0,0,1-32,32H0Z" opacity="0.19" fill="url(#linear-gradient-19)"/><line x1="355" y1="1368" x2="355" y2="1225" fill="none" stroke="#fff" stroke-miterlimit="10" stroke-dasharray="6"/><polygon points="374.86 1225.79 417.76 1273.46 374.86 1297.29 374.86 1225.79" fill="none" stroke="#fff" stroke-miterlimit="10" stroke-dasharray="6"/></g></g></svg>