<?xml version="1.0" encoding="utf-8"?>
<!-- Generator: Adobe Illustrator 22.0.1, SVG Export Plug-In . SVG Version: 6.00 Build 0)  -->
<svg version="1.1" xmlns="http://www.w3.org/2000/svg" xmlns:xlink="http://www.w3.org/1999/xlink" x="0px" y="0px"
	 viewBox="0 0 1366 768" style="enable-background:new 0 0 1366 768;" xml:space="preserve">
<style type="text/css">
	.st0{fill:#C16B6B;}
	.st1{fill:url(#SVGID_1_);}
	.st2{opacity:0.18;}
	.st3{fill:#2D1E56;}
	.st4{opacity:0.35;}
	.st5{opacity:0.46;}
	.st6{fill:none;}
	.st7{opacity:0.3;fill:url(#SVGID_2_);}
	.st8{fill:url(#SVGID_3_);}
	.st9{fill:url(#SVGID_4_);}
	.st10{opacity:0.3;fill:url(#SVGID_5_);}
	.st11{opacity:0.3;fill:url(#SVGID_6_);}
	.st12{fill:url(#SVGID_7_);}
	.st13{fill:url(#SVGID_8_);}
	.st14{fill:url(#SVGID_9_);}
	.st15{opacity:8.000000e-02;}
	.st16{fill:#FFFFFF;}
	.st17{opacity:0.21;fill:#8C1193;}
	.st18{fill:url(#SVGID_10_);}
</style>
<g id="Capa_1">
	<g>
		<rect x="0.5" y="0.5" class="st0" width="1365" height="767"/>
		<path d="M1365,1v766H1V1H1365 M1366,0H0v768h1366V0L1366,0z"/>
	</g>
	<g>
		<g>
			<linearGradient id="SVGID_1_" gradientUnits="userSpaceOnUse" x1="1361.5269" y1="775.7477" x2="4.4731" y2="-7.7477">
				<stop  offset="0" style="stop-color:#D7007F"/>
				<stop  offset="0.1063" style="stop-color:#CA0B87"/>
				<stop  offset="0.3014" style="stop-color:#A9279C"/>
				<stop  offset="0.5636" style="stop-color:#7355BE"/>
				<stop  offset="0.8795" style="stop-color:#2994EC"/>
				<stop  offset="1" style="stop-color:#0BAEFF"/>
			</linearGradient>
			<rect class="st1" width="1366" height="768"/>
		</g>
		<g class="st2">
			<path class="st3" d="M1366,552.5V768H968.2c35-8.8,71.3-13.5,107.1-19.3c53.5-8.7,108.3-20.6,152.4-51
				c37.8-26.1,64.7-63.7,93.8-98.6C1335,582.8,1349.7,566.6,1366,552.5z"/>
		</g>
		<g class="st2">
			<path class="st3" d="M522.7,768H274c18.1-1.5,35.4-5.5,50.8-14.9c21.7-13.1,36.2-35.3,57.9-48.3c43.4-25.9,106.6-4.3,130.4,38.9
				C517.5,751.5,520.6,759.6,522.7,768z"/>
		</g>
		<g class="st4">
			<path class="st3" d="M469.8,40.7c-33,73.7-117.4,123.5-201.2,118.6c-43.6-2.6-86.3-18.3-129.8-14.5C90,149.1,47.3,177.6,0,190V0
				h472C479.7,11.8,475.6,27.7,469.8,40.7z"/>
		</g>
		<g class="st5">
			<path class="st6" d="M896.9,410.3c10.7,0.3,21.3,0.6,32,0.9"/>
		</g>
		<linearGradient id="SVGID_2_" gradientUnits="userSpaceOnUse" x1="624.6932" y1="227.7182" x2="596.7548" y2="179.5242">
			<stop  offset="0" style="stop-color:#FFFFFF;stop-opacity:0"/>
			<stop  offset="0.9986" style="stop-color:#FFFFFF"/>
		</linearGradient>
		<polygon class="st7" points="598.5,189.2 604.6,176.7 612.4,188.3 625.5,194.1 613.3,201.5 607.2,214 599.5,202.4 586.3,196.6 		
			"/>
		<linearGradient id="SVGID_3_" gradientUnits="userSpaceOnUse" x1="867.6341" y1="260.9875" x2="839.6964" y2="212.795">
			<stop  offset="0.1417" style="stop-color:#42287C"/>
			<stop  offset="1" style="stop-color:#714091"/>
		</linearGradient>
		<polygon class="st8" points="841.5,222.5 847.5,209.9 855.3,221.6 868.4,227.4 856.3,234.8 850.2,247.3 842.4,235.7 829.3,229.9 
					"/>
		<linearGradient id="SVGID_4_" gradientUnits="userSpaceOnUse" x1="976.9922" y1="162.8718" x2="949.0527" y2="114.6761">
			<stop  offset="0.1417" style="stop-color:#42287C"/>
			<stop  offset="1" style="stop-color:#714091"/>
		</linearGradient>
		<polygon class="st9" points="950.8,124.3 956.9,111.8 964.7,123.4 977.8,129.2 965.6,136.7 959.5,149.2 951.8,137.5 938.6,131.8 
					"/>
		<linearGradient id="SVGID_5_" gradientUnits="userSpaceOnUse" x1="534.0033" y1="401.6507" x2="517.6973" y2="373.5228">
			<stop  offset="0" style="stop-color:#FFFFFF;stop-opacity:0"/>
			<stop  offset="0.9986" style="stop-color:#FFFFFF"/>
		</linearGradient>
		<polygon class="st10" points="518.7,379.2 522.3,371.9 526.8,378.6 534.5,382 527.4,386.4 523.8,393.7 519.3,386.9 511.6,383.5 		
			"/>
		<polygon class="st3" points="1303.6,390.1 1307.1,382.8 1311.7,389.6 1319.3,393 1312.2,397.3 1308.7,404.6 1304.1,397.8 
			1296.5,394.4 		"/>
		
			<linearGradient id="SVGID_6_" gradientUnits="userSpaceOnUse" x1="1301.5453" y1="523.8879" x2="1273.7003" y2="475.8553" gradientTransform="matrix(0.9893 0.1458 -0.1458 0.9893 68.7866 -426.1165)">
			<stop  offset="0" style="stop-color:#FFFFFF;stop-opacity:0"/>
			<stop  offset="0.9986" style="stop-color:#FFFFFF"/>
		</linearGradient>
		<polygon class="st11" points="1259.9,240.2 1267.8,228.6 1273.7,241.2 1285.8,248.8 1272.6,254.4 1264.7,266 1258.8,253.4 
			1246.7,245.8 		"/>
		<polygon class="st3" points="769.3,172.2 774.3,169.6 773.9,175 776.5,179.8 770.9,179.4 765.9,182 766.3,176.6 763.6,171.8 		"/>
		
			<linearGradient id="SVGID_7_" gradientUnits="userSpaceOnUse" x1="969.4962" y1="1690.6145" x2="958.4965" y2="1671.64" gradientTransform="matrix(0.8001 0.5998 -0.5998 0.8001 711.8584 -1619.5948)">
			<stop  offset="0.1417" style="stop-color:#42287C"/>
			<stop  offset="1" style="stop-color:#714091"/>
		</linearGradient>
		<polygon class="st12" points="474.5,296.3 479.5,293.8 479,299.2 481.7,303.9 476.1,303.5 471.1,306.1 471.5,300.7 468.8,295.9 		
			"/>
		
			<linearGradient id="SVGID_8_" gradientUnits="userSpaceOnUse" x1="1443.3658" y1="1131.3119" x2="1432.3673" y2="1112.3395" gradientTransform="matrix(0.8001 0.5998 -0.5998 0.8001 711.8584 -1619.5948)">
			<stop  offset="0.1417" style="stop-color:#42287C"/>
			<stop  offset="1" style="stop-color:#714091"/>
		</linearGradient>
		<polygon class="st13" points="1189.1,133.1 1194.1,130.5 1193.6,135.9 1196.3,140.7 1190.7,140.3 1185.7,142.8 1186.1,137.4 
			1183.4,132.7 		"/>
		
			<linearGradient id="SVGID_9_" gradientUnits="userSpaceOnUse" x1="1455.1888" y1="1335.5383" x2="1444.1891" y2="1316.5637" gradientTransform="matrix(0.8001 0.5998 -0.5998 0.8001 711.8579 -1619.5944)">
			<stop  offset="0.1417" style="stop-color:#42287C"/>
			<stop  offset="1" style="stop-color:#714091"/>
		</linearGradient>
		<polygon class="st14" points="1076,303.6 1081,301 1080.6,306.4 1083.3,311.2 1077.6,310.8 1072.6,313.3 1073.1,307.9 
			1070.4,303.2 		"/>
	</g>
	<g class="st15">
		
			<image style="overflow:visible;opacity:0.3;" width="832" height="810" xlink:href="EAC3726F.png"  transform="matrix(1 0 0 1 553 -21)">
		</image>
		<g>
			<path class="st16" d="M1363,2v648.9c-83,70.5-190.5,113.1-308,113.1c-262.9,0-476-213.1-476-476c0-107.3,35.5-206.4,95.5-286
				H1363z"/>
		</g>
	</g>
	<path class="st17" d="M629.1,486h703.8c18.3,0,33.1,14.8,33.1,33.1v0c0,18.3-14.8,33.1-33.1,33.1H1160v0c0,20.9-17,37.9-37.9,37.9
		H780c-43,0-83.6-19.6-110.3-53.1L629.1,486z"/>
	<linearGradient id="SVGID_10_" gradientUnits="userSpaceOnUse" x1="1229.04" y1="590.4199" x2="1366.5" y2="590.4199">
		<stop  offset="0" style="stop-color:#0BAEFF"/>
		<stop  offset="0.1197" style="stop-color:#1CA0F4"/>
		<stop  offset="0.3562" style="stop-color:#487AD9"/>
		<stop  offset="0.6834" style="stop-color:#8D3FAD"/>
		<stop  offset="1" style="stop-color:#D7007F"/>
	</linearGradient>
	<path class="st18" d="M1366.5,481.8l-109.2,82.8c-51.5,39-28.4,120.9,35.9,127.4l69.9,7L1366.5,481.8z"/>
</g>
<g id="Capa_2">
</g>
</svg>
