<svg xmlns="http://www.w3.org/2000/svg" xmlns:xlink="http://www.w3.org/1999/xlink" viewBox="0 0 651.14 448.45"><defs><style>.cls-1{isolation:isolate;}.cls-2,.cls-3,.cls-6{mix-blend-mode:multiply;}.cls-2{fill:url(#linear-gradient);}.cls-13,.cls-3,.cls-6{opacity:0.3;}.cls-3{fill:url(#linear-gradient-2);}.cls-4{fill:#00bec5;}.cls-11,.cls-5{fill:#fff;}.cls-6{fill:url(#linear-gradient-3);}.cls-7{fill:#974d0e;}.cls-8{fill:#ffd524;}.cls-9{fill:#ffb02d;}.cls-10{fill:#f89723;}.cls-11{opacity:0.2;mix-blend-mode:overlay;}.cls-12{fill:url(#linear-gradient-4);}.cls-13{mix-blend-mode:color-dodge;fill:url(#linear-gradient-5);}.cls-14{fill:#cb7319;}.cls-15{fill:#532c00;}.cls-16{fill:#774206;}</style><linearGradient id="linear-gradient" x1="340.16" y1="490.57" x2="340.16" y2="249.29" gradientUnits="userSpaceOnUse"><stop offset="0" stop-color="#3d2a39" stop-opacity="0"/><stop offset="0.2" stop-color="#442d41" stop-opacity="0.15"/><stop offset="0.58" stop-color="#573554" stop-opacity="0.53"/><stop offset="1" stop-color="#6e3e6d"/></linearGradient><linearGradient id="linear-gradient-2" x1="279.33" y1="467.69" x2="520.28" y2="467.69" gradientTransform="translate(-207.54 -221.5) rotate(9.06)" gradientUnits="userSpaceOnUse"><stop offset="0" stop-color="#3d2a39"/><stop offset="0.31" stop-color="#482e49"/><stop offset="0.42" stop-color="#4d3050"/><stop offset="0.77" stop-color="#603860"/><stop offset="1" stop-color="#6e3e6d"/></linearGradient><linearGradient id="linear-gradient-3" x1="483.17" y1="235" x2="651.14" y2="235" gradientTransform="matrix(1, 0, 0, 1, 0, 0)" xlink:href="#linear-gradient-2"/><linearGradient id="linear-gradient-4" x1="67.92" y1="-112.05" x2="67.92" y2="104.18" gradientTransform="translate(300.1 247.38)" gradientUnits="userSpaceOnUse"><stop offset="0" stop-color="#cb7319"/><stop offset="1" stop-color="#9a4f0f"/></linearGradient><linearGradient id="linear-gradient-5" x1="67.92" y1="-92.37" x2="67.92" y2="-52.5" gradientTransform="translate(295.9 260.01) rotate(-10.31)" xlink:href="#linear-gradient-4"/></defs><title>cash</title><g class="cls-1"><g id="Capa_2" data-name="Capa 2"><g id="Capa_1-2" data-name="Capa 1"><ellipse class="cls-2" cx="340.16" cy="424.3" rx="275.3" ry="24.15"/><path class="cls-3" d="M224.34,366.24c-.91-3.83-2.43-9.47-2.79-10.28-7.24-15.83-22.87-27-27.16-44.31-1.31-5.35-1.46-11.18-4.4-15.84s-10.39-7.08-13.86-2.8-1.85,16.26-11.34,13.95c-7.24-1.77-6.33-14-5.94-19.69.33-5,.73-10.4-1.69-14.82s-8.93-7-12.66-3.59-3,10.84-7.71,12.74c-2.76,1.13-6-.55-7.71-3s-2.33-5.44-3.11-8.31a61.88,61.88,0,0,0-15.11-26.58c-2.47-2.56-5.3-5-8.75-5.84s-7.62.31-9.25,3.47c-2.46,4.73,1.71,10,5.24,14s6.55,10.55,2.57,14.11c-3.35,3-9,.66-11.43-3.08s-3-8.4-4.63-12.56c-3.26-8.21-11.53-15-20.62-14.83-2.84.06-6,1-7.28,3.57s-.13,5.64,1.56,7.9,3.94,4.12,5.33,6.58c5,8.81-6.87,12.36-12.67,7.38-5-4.23-6.1-11.14-9.22-16.58A26.08,26.08,0,0,0,19.58,235C0,235-3.58,250.85,3.08,266.84c3.52,8.45,9,17.61,15.94,23.69a60.86,60.86,0,0,0,43,14.81c4.24-.23,8.57-.9,12.63.32s7.74,5.11,7,9.28c-1.46,7.87-15.49,7.89-16.78,15.8-.68,4.19,3.22,8,7.39,8.84s8.42-.53,12.46-1.85l22.08-7.25c3-1,6.07-2,9.13-1.38s5.95,3.31,5.54,6.4c-.59,4.49-6.94,6-8.46,10.23-1.36,3.85,2.22,8,6.23,8.81s8-.83,11.76-2.55c4.34-2,20.28-6.81,21.22,2.5.24,2.57-2,4.63-3.95,6.3-3.81,3.21-5.75,10.13.89,11.69,2.7.63,5.49-.23,8.14-1a134.67,134.67,0,0,1,64.69-2.36c1,.21,2.07.43,3.09.68A16.31,16.31,0,0,0,224.34,366.24Z"/><path class="cls-4" d="M224.47,239.18c-1.69,21.66,12.09,40.57,14.37,61.67.12,1.06-.3,8.17-.72,12.95-.22,2.58-.44,4.47-.58,4.39-1.09-.68-2.19-1.33-3.31-2a164.08,164.08,0,0,0-75.7-22.14c-3.36-.13-6.91-.21-9.78-2-7.09-4.35-2.19-11.6,3.45-13.85,2.93-1.17,6.29-2.71,7-5.77,2.49-11.12-17.77-11.71-23.58-11-4.94.56-10.24.86-14.57-1.58s-6.87-8.65-3.82-12.57c3.39-4.35,11.31-3.62,13.72-8.58,1.65-3.41-.64-7.68-4-9.52s-7.29-1.91-11.09-1.93l-28.31-.09c-5.18,0-10.62-.11-15.12-2.65s-7.54-8.47-5.14-13.05c4.53-8.65,20.75-3.3,25.47-11.83,2.5-4.53-.26-10.43-4.49-13.41s-9.5-3.86-14.48-5.22a74.19,74.19,0,0,1-44-33.62c-5.7-9.71-8.51-22.41-9.33-33.52C19,92.82,29.16,75.81,51.82,83.4a31.74,31.74,0,0,1,20.64,23.38c1.51,7.49.2,15.92,4.29,22.71,4.8,8,19.89,8.45,17.49-3.67-.66-3.37-2.55-6.38-3.64-9.65s-1.2-7.28,1.23-9.73,6.49-2.36,9.8-1.33c10.58,3.27,17.52,14.32,18.13,25.06.32,5.45-.87,11,.53,16.31s7,10.11,12,7.94c6-2.58,5-11.31,2.45-17.3s-5.33-13.7-.67-18.23c3.1-3,8.37-2.76,12-.45s6,6.2,7.88,10.11a75.37,75.37,0,0,1,7.25,36.53c-.21,3.63-.66,7.34.4,10.81s4.15,6.66,7.77,6.42c6.19-.38,8.1-9.28,13.8-11.78s12.15,3,13.26,9-1.42,12.09-3.74,17.79c-2.61,6.36-8.39,20.22-.69,25,10.08,6.32,12.62-8,18.46-11.76,5.66-3.61,13.33,2,14.95,8.56S225,232.49,224.47,239.18Z"/><path class="cls-5" d="M238.12,313.8c-.22,2.58-.44,4.47-.58,4.39-1.09-.68-2.19-1.33-3.31-2a247.37,247.37,0,0,0-24.14-50.05,237.26,237.26,0,0,0-79.28-78.46c-16.79-10-35.07-17.25-51.71-27.47C65.75,152.06,50.29,139.71,45.92,124a.87.87,0,0,1,1.57-.68c5.76,9.86,11.66,19.26,20.83,26.34,9,6.92,18.79,12.46,28.88,17.54,17.45,8.78,34.4,17.1,50.42,28.35a239.44,239.44,0,0,1,39.74,35.09A257.89,257.89,0,0,1,238.12,313.8Z"/><path class="cls-6" d="M591.79,267.76,566.35,261s17.46-2.69,34-4.34c7.07-9.31,10.07-14.73,15.87-24.9l-29.75,0,35.19-10.1c4.92-9.15,8.07-15.69,11.87-24.13l-19.16,1.63,22.84-10.37c9.93-22.77,14-36.39,14-36.39s-20.49,6.13-40.19,13.69l-7.63,25.59-1.46-21.16c-11.68,4.72-11.2,4.29-24.25,11.17l-6.82,30L566,187.48a162.09,162.09,0,0,0-19.52,12.15l-5.08,29.87-4.81-23.26c-4.15,3.1-8.12,6.33-11.86,9.69l1.39,30.83-10.28-22.34c-6.24,5.83-5,5.49-9.47,12q-2.08,3.06-3.94,6l1.59,23.68-7.53-16c-18.57,42.61-12.34,64.18-12.34,64.18s20,12.69,65.6-12.18l-12.28-5.52L561,295.59c1.64-1,0,0,1.69-1.07C573.22,287.83,582.94,278.49,591.79,267.76Z"/><path class="cls-4" d="M602.24,63.86,581.67,82.54l19.66-8.22c-1.15,10.19-2.28,18.16-4.36,29.48l-33.68,22.58,31.37-10.11c-2.69,12.69-4,19.42-8.32,31.64C569.5,155.25,552,164,552,164l29.12-1.51c-5.72,14.31-12.78,27.47-21.6,38.07-1.42,1.71,0,.11-1.42,1.71l-24.45,9.09L548.48,213c-39.69,41.68-65.07,35.06-65.07,35.06a25.9,25.9,0,0,1-1.54-2.83,55.47,55.47,0,0,1-2.5-6.21c-3.65-10.5-7.94-30.6-4.7-62.82L488,190.49l-9.7-24.42c.66-2.5,1.35-5,2.15-7.66,2.47-8.41,1.29-7.64,5.9-15.88l18.41,20.05-11.92-32c2.8-4.8,5.9-9.56,9.23-14.23l13,22.89L510.27,106a181.84,181.84,0,0,1,16.48-19.43l13.24,24-3-34c11.43-11.65,11.07-11,21.81-20l8.71,21.84-.63-29.59c18.21-14.64,37.74-28,37.74-28S605,36.5,602.24,63.86Z"/><path class="cls-5" d="M583.29,96.1c-3.84.82-7.29,3.57-10.65,5.54-1.8,1.06-3.62,2.11-5.43,3.16a288.69,288.69,0,0,0,14.35-43.47c.08-.3-.39-.55-.55-.22-7.8,17.24-15.12,34.53-22.87,51.62-.4-10-1.62-20.81-4.4-29.94a.77.77,0,0,0-1.51.21c-1.11,11.64.5,25,2.77,36.54-5.76,12.42-11.84,24.71-18.56,36.78-.2-5.67-1.7-11.38-2.75-16.89-1.24-6.56-1.57-14.39-5.48-19.92a.34.34,0,0,0-.62.08c-1.57,6.23.72,13.16,1.84,19.37,1.25,7,2,14.53,5,21-.29.5-.55,1-.84,1.51-3.45,6-7,11.85-10.72,17.66-2.61-10.46-7.74-21.85-12.61-31.16-.52-1-2-.29-1.77.75,2.6,11,6.57,24.1,12.06,34.05-3.59,5.56-7.3,11-11.08,16.45q-3-6.43-6.09-12.86c-2.13-4.43-3.95-9.3-7.31-13-.37-.4-1.25-.12-1.17.49.61,4.68,3,9,4.88,13.26q3.53,7.85,7.14,15.64c-3.94,5.57-8,11.08-12.1,16.53A100.22,100.22,0,0,0,487,206.62c-.32-.46-1.2-.21-1,.41a102.26,102.26,0,0,0,6.86,14.8q-6.63,8.71-13.55,17.23a55.47,55.47,0,0,0,2.5,6.21c4.7-5.65,9.23-11.45,13.68-17.31,3.19.58,6.65-.52,9.86-1.2,5.5-1.17,10.89-3,16.28-4.69a.69.69,0,0,0-.37-1.32c-5.78,1.09-11.59,1.57-17.42,2.3-1.71.22-3.43.29-5.07.52q12.8-17.23,24.28-35.4a154.36,154.36,0,0,0,17.79-3.35c5.78-1.31,12.45-2.19,17.47-5.46a.87.87,0,0,0-.44-1.6c-5.51-.59-11.45,1.34-16.87,2.43-4.94,1-10,1.88-14.9,3.06q5.3-8.59,10.32-17.32c3-5.26,6-10.64,8.95-16.07,4.43-.91,8.7-3.23,12.82-5,5-2.16,11.12-4,15.23-7.74a.61.61,0,0,0-.42-1c-5.54.22-11.23,3.12-16.36,5.09-2.71,1.05-5.59,2-8.33,3.15,5.83-11,11.41-22.26,16.39-33.75,3.39-2.24,6.74-4.57,10.09-6.86,3.08-2.11,6.7-3.92,9-6.91C584.13,96.45,583.66,96,583.29,96.1Z"/><path class="cls-7" d="M522.69,340.61,228.11,394.2,184.45,154.27,479,100.67A17.86,17.86,0,0,1,499.8,115l37.26,204.8A17.86,17.86,0,0,1,522.69,340.61Z"/><circle class="cls-8" cx="430.34" cy="134.35" r="65.51" transform="translate(153.32 490.03) rotate(-69.42)"/><circle class="cls-9" cx="430.34" cy="134.35" r="53.28" transform="translate(-6.8 244.6) rotate(-31.49)"/><path class="cls-10" d="M479.33,155.24a53.27,53.27,0,0,1-100.88-33,52.53,52.53,0,0,1,10.16-21,50,50,0,0,0-2.9,8.76,53.28,53.28,0,0,0,93.62,45.24Z"/><path class="cls-8" d="M430.39,160.64l-2.55,10.89-9.47-2.21,2.57-11a37.66,37.66,0,0,1-16.16-11.82l7.43-9c4.1,5.61,11.12,10.56,16.32,11.77,3.84.9,6.6,0,7.21-2.59,2-8.47-25.48-9.49-21.35-27.14,1.84-7.9,8.82-12,18.28-11.42l2.44-10.46,9.47,2.21-2.43,10.39a37.79,37.79,0,0,1,14.34,9l-7.32,9.17c-4.57-4.22-10.71-8.13-14.84-9.1-3.13-.73-5.46-.07-6,2.2-1.93,8.26,25.43,9.7,21.24,27.64C447.53,158,439.64,161.53,430.39,160.64Z"/><path class="cls-11" d="M429.47,102.88c.28,5.41,2.63,10.54,5.74,15a46.25,46.25,0,0,0,22.12,16.89,22.47,22.47,0,0,0,8.52,1.58c8.77-.39,11.48-9.21,9.71-16.65-2.22-9.35-8.47-18-15.83-24.07-6.08-5-19-11.79-26.13-5.28C430.32,93.3,429.25,98.62,429.47,102.88Z"/><circle class="cls-8" cx="290.94" cy="86.09" r="56.26" transform="translate(-11.65 108.44) rotate(-20.71)"/><circle class="cls-9" cx="290.94" cy="86.09" r="45.76" transform="translate(-0.81 2.79) rotate(-0.55)"/><path class="cls-10" d="M336.68,85.64a45.75,45.75,0,1,1-90-11.21,44.41,44.41,0,0,0,.74,7.89,45.76,45.76,0,0,0,89.25,3.32Z"/><path class="cls-8" d="M300,106.75l1.75,9.45-8.21,1.52-1.76-9.5A32.54,32.54,0,0,1,275,104.5l2.74-9.64c5.16,3,12.39,4.47,16.9,3.63,3.33-.62,5.2-2.24,4.78-4.53-1.36-7.34-23.32,1.33-26.16-14-1.27-6.85,2.78-12.52,10.45-15.29l-1.69-9.07,8.21-1.52,1.68,9a32.37,32.37,0,0,1,14.37,2.12L303.72,75c-5-1.74-11.22-2.7-14.81-2-2.71.5-4.32,1.82-4,3.8,1.33,7.16,23.35-1.14,26.24,14.42C312.6,98.74,307.62,104.26,300,106.75Z"/><path class="cls-11" d="M279.41,61.63a25.09,25.09,0,0,0,9.67,9.8,39.71,39.71,0,0,0,23.22,5.66,19.33,19.33,0,0,0,7.25-1.69c6.77-3.33,5.85-11.21,1.9-16.45-5-6.59-12.88-11.27-20.76-13.48-6.49-1.82-19-2.73-22.37,4.86C276.77,53.8,277.76,58.36,279.41,61.63Z"/><circle class="cls-8" cx="161.46" cy="68.83" r="45.86" transform="translate(-12.36 44.43) rotate(-15.1)"/><circle class="cls-9" cx="161.46" cy="68.83" r="37.3" transform="translate(40.73 196.24) rotate(-69.63)"/><path class="cls-10" d="M197.38,58.81a37.3,37.3,0,0,1-69.59,26.1A36.88,36.88,0,0,1,124.16,69a35.47,35.47,0,0,0,2.25,6,37.31,37.31,0,0,0,71-16.24Z"/><path class="cls-8" d="M173,83.18l3.37,7.07-6.14,2.93-3.4-7.11a26.49,26.49,0,0,1-14,.61l.13-8.17c4.69,1.28,10.7.91,14.07-.7,2.49-1.2,3.62-2.87,2.81-4.58-2.63-5.49-18.08,6-23.55-5.49-2.45-5.12-.45-10.44,5-14.24L148,46.71l6.15-2.93,3.22,6.74a26.43,26.43,0,0,1,11.77-1.36v8.22c-4.35-.31-9.42.24-12.1,1.52-2,1-3,2.35-2.31,3.82,2.56,5.36,18.15-5.82,23.71,5.82C181.19,74.22,178.43,79.62,173,83.18Z"/><path class="cls-11" d="M147.21,52a20.46,20.46,0,0,0,9.69,5.67,32.38,32.38,0,0,0,19.48-.44,15.91,15.91,0,0,0,5.35-2.87c4.62-4,2.24-10.06-2-13.35-5.3-4.14-12.52-6.16-19.19-6.23-5.49-.06-15.52,1.86-16.58,8.55C143.49,46.4,145.23,49.78,147.21,52Z"/><path class="cls-12" d="M209.38,155H517.19a9.46,9.46,0,0,1,9.46,9.46V389.43a9.46,9.46,0,0,1-9.46,9.46H209.38a0,0,0,0,1,0,0V155a0,0,0,0,1,0,0Z" transform="translate(-43.63 70.35) rotate(-10.31)"/><path class="cls-13" d="M505.46,146.16l3.94,21.65a17.85,17.85,0,0,0-20.76-14.37L194.05,207l-3.94-21.65L484.7,131.79A17.85,17.85,0,0,1,505.46,146.16Z"/><path class="cls-14" d="M425.2,227H533.92a5.28,5.28,0,0,1,5.28,5.28v47.82a5.28,5.28,0,0,1-5.28,5.28H425.2a0,0,0,0,1,0,0V227A0,0,0,0,1,425.2,227Z" transform="translate(-38.07 90.45) rotate(-10.31)"/><path class="cls-15" d="M468.45,258.68a13.51,13.51,0,1,1-15.71-10.87A13.52,13.52,0,0,1,468.45,258.68Z"/><path class="cls-16" d="M450.4,256.4a10.16,10.16,0,0,0,3.2,3.61,11.69,11.69,0,0,0,5.06,2.77c1.92.33,4.17-.47,4.89-2.28a5.09,5.09,0,0,0-.91-4.52,11,11,0,0,0-8-4.67C451.45,251,448.84,252.86,450.4,256.4Z"/><path class="cls-14" d="M243.2,384.09H109.76v14.06c0,17.25,31.56,31.24,70.51,31.24s70.49-14,70.49-31.24V384.09Z"/><path class="cls-10" d="M250.75,383.52v9c0,17.25-31.56,31.23-70.48,31.23s-70.52-14-70.52-31.23v-8.49a14.32,14.32,0,0,1,1.15-5.57H249.63A14.06,14.06,0,0,1,250.75,383.52Z"/><path class="cls-8" d="M250.78,384.07a3.32,3.32,0,0,1,0,.55c-.63,17-32,30.69-70.48,30.69-39,0-70.52-14-70.52-31.24a14.32,14.32,0,0,1,1.15-5.57c5.91-14.59,34.73-25.66,69.37-25.66s63.45,11.07,69.36,25.66a14.06,14.06,0,0,1,1.12,5A3.44,3.44,0,0,1,250.78,384.07Z"/><ellipse class="cls-9" cx="180.26" cy="384.08" rx="57.34" ry="25.4"/><path class="cls-10" d="M236.73,388.46c-4.64,12-28.17,21-56.47,21-31.67,0-57.35-11.38-57.35-25.41,0-3.9,2-7.57,5.5-10.85a11.54,11.54,0,0,0-.89,4.38c0,14,25.68,25.41,57.35,25.41C207.79,403,227.54,397.07,236.73,388.46Z"/><path class="cls-8" d="M186.76,393.53v5.33H176.29v-5.37a73.91,73.91,0,0,1-19.83-3.73l5.59-5a64.8,64.8,0,0,0,20,3.69c4.24,0,6.92-.69,6.92-2,0-4.15-29-1.64-29-10.29,0-3.87,6.29-6.55,16.36-7.28v-5.13h10.47v5.09A79.53,79.53,0,0,1,204,371.5l-5.43,5.05a85.25,85.25,0,0,0-17.79-2.61c-3.46,0-5.74.56-5.74,1.67,0,4,29,1.74,29,10.53C204.07,390.43,196.67,392.94,186.76,393.53Z"/><path class="cls-11" d="M171.64,369.56c1.62,2.48,5.34,4.6,9.68,6.33,7.56,3,17.25,4.92,27.33,5.44a54.46,54.46,0,0,0,9.31-.19c9.1-1.14,9.77-5.53,6.1-8.79-4.62-4.1-13.29-7.46-22.49-9.46-7.59-1.65-22.76-3.41-28.68.39C170.19,365,170.37,367.61,171.64,369.56Z"/><path class="cls-14" d="M238.62,361.77H105.18v14.06c0,17.25,31.56,31.24,70.51,31.24s70.49-14,70.49-31.24V361.77Z"/><path class="cls-10" d="M246.17,361.21v9c0,17.25-31.56,31.24-70.48,31.24s-70.52-14-70.52-31.24v-8.49a14.15,14.15,0,0,1,1.16-5.57H245.05A14.07,14.07,0,0,1,246.17,361.21Z"/><path class="cls-8" d="M246.2,361.75a3.32,3.32,0,0,1,0,.55c-.63,17-32,30.69-70.48,30.69-39,0-70.52-14-70.52-31.24a14.15,14.15,0,0,1,1.16-5.57c5.9-14.59,34.72-25.66,69.36-25.66s63.45,11.07,69.36,25.66a14.07,14.07,0,0,1,1.12,5A3.26,3.26,0,0,1,246.2,361.75Z"/><ellipse class="cls-9" cx="175.69" cy="361.76" rx="57.34" ry="25.4"/><path class="cls-10" d="M232.15,366.14c-4.64,11.95-28.17,21-56.46,21-31.67,0-57.36-11.38-57.36-25.41,0-3.89,2-7.57,5.5-10.85a11.54,11.54,0,0,0-.89,4.38c0,14,25.68,25.41,57.35,25.41C203.21,380.7,223,374.75,232.15,366.14Z"/><path class="cls-8" d="M182.18,371.21v5.33H171.71v-5.36a74.36,74.36,0,0,1-19.83-3.74l5.59-5a64.81,64.81,0,0,0,20,3.7c4.25,0,6.92-.7,6.92-2,0-4.15-29-1.64-29-10.28,0-3.87,6.29-6.56,16.36-7.29v-5.12h10.47v5.09a79,79,0,0,1,17.23,2.61L194,354.23a85.25,85.25,0,0,0-17.78-2.61c-3.46,0-5.75.56-5.75,1.67,0,4,29,1.75,29,10.53C199.49,368.11,192.09,370.62,182.18,371.21Z"/><path class="cls-11" d="M167.06,347.24c1.63,2.48,5.34,4.61,9.68,6.33,7.56,3,17.25,4.92,27.33,5.44a54.46,54.46,0,0,0,9.31-.19c9.1-1.14,9.78-5.53,6.1-8.79-4.61-4.1-13.29-7.46-22.49-9.46-7.59-1.65-22.76-3.41-28.67.39C165.61,342.7,165.79,345.29,167.06,347.24Z"/><path class="cls-14" d="M263.06,335.44H129.62V349.5c0,17.25,31.56,31.24,70.51,31.24s70.49-14,70.49-31.24V335.44Z"/><path class="cls-10" d="M270.61,334.88v9c0,17.25-31.56,31.24-70.49,31.24s-70.51-14-70.51-31.24v-8.49a14.14,14.14,0,0,1,1.15-5.57H269.49A14.07,14.07,0,0,1,270.61,334.88Z"/><path class="cls-8" d="M270.64,335.42a3.32,3.32,0,0,1,0,.55c-.63,17-32,30.69-70.49,30.69-39,0-70.51-14-70.51-31.24a14.14,14.14,0,0,1,1.15-5.57c5.91-14.59,34.73-25.66,69.36-25.66s63.46,11.07,69.37,25.66a14.07,14.07,0,0,1,1.12,5A3.26,3.26,0,0,1,270.64,335.42Z"/><ellipse class="cls-9" cx="200.12" cy="335.43" rx="57.34" ry="25.4"/><path class="cls-10" d="M256.59,339.81c-4.64,11.95-28.17,21-56.47,21-31.67,0-57.35-11.38-57.35-25.41,0-3.89,2-7.57,5.5-10.85a11.54,11.54,0,0,0-.89,4.38c0,14,25.68,25.41,57.35,25.41C227.65,354.37,247.4,348.43,256.59,339.81Z"/><path class="cls-8" d="M206.62,344.88v5.33H196.15v-5.36a74.28,74.28,0,0,1-19.83-3.74l5.59-5a64.81,64.81,0,0,0,20,3.7c4.24,0,6.92-.7,6.92-2,0-4.15-29-1.64-29-10.28,0-3.87,6.29-6.56,16.36-7.29v-5.12h10.47v5.09a79,79,0,0,1,17.23,2.61l-5.43,5a85.25,85.25,0,0,0-17.79-2.61c-3.46,0-5.74.56-5.74,1.67,0,4.05,29,1.75,29,10.53C223.93,341.78,216.53,344.29,206.62,344.88Z"/><path class="cls-11" d="M191.5,320.91c1.62,2.48,5.34,4.61,9.68,6.33,7.56,3,17.25,4.92,27.33,5.44a54.46,54.46,0,0,0,9.31-.19c9.1-1.14,9.77-5.53,6.1-8.79-4.62-4.1-13.3-7.46-22.49-9.46-7.59-1.65-22.76-3.41-28.68.39C190.05,316.37,190.22,319,191.5,320.91Z"/><path class="cls-14" d="M222.15,319.23H88.71V333.3c0,17.25,31.56,31.23,70.51,31.23s70.49-14,70.49-31.23V319.23Z"/><path class="cls-10" d="M229.7,318.67v9c0,17.26-31.56,31.24-70.48,31.24S88.7,345,88.7,327.7v-8.48a14.17,14.17,0,0,1,1.16-5.58H228.58A14.07,14.07,0,0,1,229.7,318.67Z"/><path class="cls-8" d="M229.73,319.22a3.44,3.44,0,0,1,0,.55c-.63,17-32,30.68-70.48,30.68-38.95,0-70.52-14-70.52-31.23a14.17,14.17,0,0,1,1.16-5.58c5.9-14.59,34.72-25.66,69.36-25.66s63.45,11.07,69.36,25.66a14.07,14.07,0,0,1,1.12,5A3.32,3.32,0,0,1,229.73,319.22Z"/><ellipse class="cls-9" cx="159.22" cy="319.22" rx="57.34" ry="25.4"/><path class="cls-10" d="M215.68,323.6c-4.64,11.95-28.17,21-56.46,21-31.67,0-57.36-11.38-57.36-25.41,0-3.89,2-7.57,5.5-10.85a11.55,11.55,0,0,0-.89,4.39c0,14,25.68,25.4,57.35,25.4C186.74,338.16,206.49,332.22,215.68,323.6Z"/><path class="cls-8" d="M165.71,328.67V334H155.24v-5.36a74.78,74.78,0,0,1-19.83-3.73l5.59-5a64.81,64.81,0,0,0,20,3.7c4.25,0,6.92-.7,6.92-2,0-4.15-29-1.64-29-10.28,0-3.87,6.29-6.56,16.36-7.29v-5.12h10.47V304a79.57,79.57,0,0,1,17.23,2.61l-5.43,5.06a84.66,84.66,0,0,0-17.78-2.62c-3.46,0-5.75.56-5.75,1.67,0,4.05,29,1.75,29,10.53C183,325.57,175.62,328.08,165.71,328.67Z"/><path class="cls-11" d="M150.59,304.7c1.63,2.48,5.34,4.61,9.68,6.33,7.56,3,17.25,4.93,27.33,5.44a54.46,54.46,0,0,0,9.31-.19c9.1-1.13,9.78-5.53,6.1-8.79-4.61-4.1-13.29-7.46-22.49-9.46-7.59-1.65-22.76-3.41-28.67.39C149.14,300.16,149.32,302.75,150.59,304.7Z"/><path class="cls-14" d="M256.36,286.79H122.92v14.07c0,17.25,31.56,31.23,70.51,31.23s70.49-14,70.49-31.23V286.79Z"/><path class="cls-10" d="M263.91,286.23v9c0,17.26-31.56,31.24-70.48,31.24s-70.52-14-70.52-31.24v-8.48a14.17,14.17,0,0,1,1.16-5.58H262.79A14.07,14.07,0,0,1,263.91,286.23Z"/><path class="cls-8" d="M263.94,286.78a3.44,3.44,0,0,1,0,.55c-.63,17-32,30.68-70.48,30.68-39,0-70.52-14-70.52-31.23a14.17,14.17,0,0,1,1.16-5.58c5.9-14.59,34.72-25.66,69.36-25.66s63.45,11.07,69.36,25.66a14.07,14.07,0,0,1,1.12,5A3.32,3.32,0,0,1,263.94,286.78Z"/><ellipse class="cls-9" cx="193.43" cy="286.78" rx="57.34" ry="25.4"/><path class="cls-10" d="M249.89,291.16c-4.64,11.95-28.17,21-56.46,21-31.68,0-57.36-11.38-57.36-25.41,0-3.89,2-7.57,5.5-10.85a11.55,11.55,0,0,0-.89,4.39c0,14,25.68,25.4,57.35,25.4C221,305.72,240.7,299.78,249.89,291.16Z"/><path class="cls-8" d="M199.92,296.23v5.33H189.45V296.2a74.78,74.78,0,0,1-19.83-3.73l5.59-5a64.81,64.81,0,0,0,20,3.7c4.24,0,6.92-.7,6.92-2,0-4.15-29-1.64-29-10.28,0-3.87,6.29-6.56,16.36-7.29V266.5h10.47v5.09a79.57,79.57,0,0,1,17.23,2.61l-5.43,5.06a84.66,84.66,0,0,0-17.78-2.62c-3.46,0-5.75.56-5.75,1.67,0,4.05,29,1.75,29,10.53C217.23,293.13,209.83,295.64,199.92,296.23Z"/><path class="cls-11" d="M184.8,272.26c1.63,2.48,5.34,4.61,9.68,6.33,7.56,3,17.25,4.93,27.33,5.44a54.46,54.46,0,0,0,9.31-.19c9.1-1.13,9.78-5.53,6.1-8.79-4.61-4.1-13.29-7.46-22.49-9.46-7.59-1.65-22.76-3.41-28.68.39C183.35,267.72,183.53,270.31,184.8,272.26Z"/><path class="cls-14" d="M570,386H436.58V400c0,17.25,31.56,31.23,70.52,31.23s70.48-14,70.48-31.23V386Z"/><path class="cls-10" d="M577.58,385.4v9c0,17.25-31.57,31.23-70.49,31.23s-70.51-14-70.51-31.23V386a14.15,14.15,0,0,1,1.15-5.58H576.45A14.13,14.13,0,0,1,577.58,385.4Z"/><path class="cls-8" d="M577.6,386a5.06,5.06,0,0,1,0,.55c-.63,17-32,30.68-70.49,30.68-38.95,0-70.51-14-70.51-31.23a14.15,14.15,0,0,1,1.15-5.58c5.91-14.58,34.72-25.66,69.36-25.66s63.46,11.08,69.36,25.66a14.13,14.13,0,0,1,1.13,5A5.06,5.06,0,0,1,577.6,386Z"/><ellipse class="cls-9" cx="507.09" cy="385.95" rx="57.34" ry="25.4"/><path class="cls-10" d="M563.55,390.33c-4.64,11.95-28.17,21-56.46,21-31.67,0-57.35-11.38-57.35-25.41,0-3.89,2-7.57,5.5-10.85a11.37,11.37,0,0,0-.89,4.39c0,14,25.68,25.41,57.35,25.41C534.61,404.9,554.37,399,563.55,390.33Z"/><path class="cls-8" d="M513.58,395.4v5.34H503.12v-5.37a74.22,74.22,0,0,1-19.83-3.73l5.58-5a64.57,64.57,0,0,0,20,3.7c4.25,0,6.93-.7,6.93-2,0-4.15-29-1.64-29-10.28,0-3.87,6.29-6.55,16.37-7.29v-5.12h10.46v5.09a79.57,79.57,0,0,1,17.23,2.61l-5.43,5.06a84.57,84.57,0,0,0-17.78-2.62c-3.46,0-5.74.56-5.74,1.68,0,4,29,1.74,29,10.52C530.89,392.3,523.49,394.81,513.58,395.4Z"/><path class="cls-11" d="M498.47,371.43c1.62,2.48,5.34,4.61,9.68,6.33,7.56,3,17.24,4.93,27.32,5.44a53.57,53.57,0,0,0,9.32-.19c9.1-1.13,9.77-5.52,6.1-8.79-4.62-4.1-13.3-7.45-22.5-9.45-7.58-1.65-22.75-3.42-28.67.38C497,366.89,497.19,369.48,498.47,371.43Z"/><path class="cls-14" d="M593.83,359.63H460.38V373.7c0,17.25,31.57,31.23,70.52,31.23s70.48-14,70.48-31.23V359.63Z"/><path class="cls-10" d="M601.38,359.07v9c0,17.25-31.56,31.23-70.49,31.23s-70.51-14-70.51-31.23v-8.49a14.15,14.15,0,0,1,1.15-5.58H600.25A14.13,14.13,0,0,1,601.38,359.07Z"/><path class="cls-8" d="M601.41,359.62a3.38,3.38,0,0,1,0,.55c-.63,17-32,30.68-70.49,30.68-38.95,0-70.51-14-70.51-31.23a14.15,14.15,0,0,1,1.15-5.58c5.91-14.58,34.72-25.65,69.36-25.65s63.46,11.07,69.36,25.65a14.13,14.13,0,0,1,1.13,5A3.38,3.38,0,0,1,601.41,359.62Z"/><ellipse class="cls-9" cx="530.89" cy="359.62" rx="57.34" ry="25.4"/><path class="cls-10" d="M587.35,364c-4.64,11.95-28.17,21-56.46,21-31.67,0-57.35-11.38-57.35-25.41,0-3.89,2-7.57,5.5-10.85a11.37,11.37,0,0,0-.89,4.39c0,14,25.68,25.41,57.35,25.41C558.42,378.57,578.17,372.62,587.35,364Z"/><path class="cls-8" d="M537.38,369.07v5.34H526.92V369a74.22,74.22,0,0,1-19.83-3.73l5.59-5a64.46,64.46,0,0,0,20,3.7c4.25,0,6.93-.7,6.93-2,0-4.15-29-1.64-29-10.28,0-3.87,6.3-6.55,16.37-7.29v-5.12h10.46v5.09A79.47,79.47,0,0,1,554.61,347l-5.42,5.06a84.74,84.74,0,0,0-17.79-2.62c-3.46,0-5.74.56-5.74,1.68,0,4,29,1.74,29,10.52C554.69,366,547.3,368.48,537.38,369.07Z"/><path class="cls-11" d="M522.27,345.1c1.62,2.48,5.34,4.61,9.68,6.33,7.56,3,17.24,4.93,27.32,5.44a53.55,53.55,0,0,0,9.32-.19c9.1-1.13,9.77-5.52,6.1-8.79-4.62-4.1-13.3-7.45-22.5-9.45-7.58-1.65-22.75-3.42-28.67.38C520.82,340.56,521,343.15,522.27,345.1Z"/><path class="cls-5" d="M501.74,37.4l-1.6-4.72-1.59,4.72a25.53,25.53,0,0,1-11.94,14.23h0a25.53,25.53,0,0,1,11.94,14.23l1.59,4.72,1.6-4.72a25.53,25.53,0,0,1,11.94-14.23h0A25.53,25.53,0,0,1,501.74,37.4Z"/><path class="cls-5" d="M90.3,247.14l-1.6-4.71-1.59,4.71a25.52,25.52,0,0,1-11.94,14.24h0a25.47,25.47,0,0,1,11.94,14.23l1.59,4.71,1.6-4.71a25.49,25.49,0,0,1,11.93-14.23h0A25.54,25.54,0,0,1,90.3,247.14Z"/><path class="cls-5" d="M465.61,3.54,464.41,0l-1.19,3.54a19.25,19.25,0,0,1-9,10.69h0a19.25,19.25,0,0,1,9,10.69l1.19,3.54,1.2-3.54a19.19,19.19,0,0,1,9-10.69h0A19.19,19.19,0,0,1,465.61,3.54Z"/><path class="cls-5" d="M493.56,280.5l-1.2-3.54-1.19,3.54a19.17,19.17,0,0,1-9,10.69h0a19.15,19.15,0,0,1,9,10.68l1.19,3.55,1.2-3.55a19.15,19.15,0,0,1,9-10.68h0A19.17,19.17,0,0,1,493.56,280.5Z"/><path class="cls-5" d="M363.55,20.84l-1.2-3.55-1.19,3.55a19.15,19.15,0,0,1-9,10.68h0a19.17,19.17,0,0,1,9,10.69l1.19,3.54,1.2-3.54a19.17,19.17,0,0,1,9-10.69h0A19.15,19.15,0,0,1,363.55,20.84Z"/><path class="cls-5" d="M108.11,4,106.92.5,105.72,4a19.13,19.13,0,0,1-9,10.69h0a19.17,19.17,0,0,1,9,10.69l1.2,3.54,1.19-3.54a19.21,19.21,0,0,1,9-10.69h0A19.17,19.17,0,0,1,108.11,4Z"/><path class="cls-5" d="M82.77,39.49,82,37.09l-.81,2.4a13,13,0,0,1-6.09,7.26h0A13,13,0,0,1,81.15,54L82,56.42,82.77,54a13,13,0,0,1,6.09-7.26h0A13,13,0,0,1,82.77,39.49Z"/><path class="cls-5" d="M65.68,283.93l-.81-2.41-.82,2.41A13,13,0,0,1,58,291.19h0a13,13,0,0,1,6.09,7.26l.82,2.4.81-2.4a13,13,0,0,1,6.09-7.26h0A13.07,13.07,0,0,1,65.68,283.93Z"/><path class="cls-5" d="M503.34,244l-.81-2.41-.82,2.41a13,13,0,0,1-6.09,7.26h0a13,13,0,0,1,6.09,7.25l.82,2.41.81-2.41a13,13,0,0,1,6.09-7.25h0A13.07,13.07,0,0,1,503.34,244Z"/><circle class="cls-8" cx="569.98" cy="241.65" r="45.86" transform="translate(-35.04 372.9) rotate(-35.21)"/><circle class="cls-9" cx="569.98" cy="241.65" r="37.3" transform="translate(262.22 778.83) rotate(-83.17)"/><path class="cls-10" d="M605.23,253.81a37.3,37.3,0,1,1-66-33.22,36.32,36.32,0,0,0-1.59,6.26,37.31,37.31,0,0,0,67.63,27Z"/><path class="cls-8" d="M571.32,260l-1.24,7.73-6.73-1.08,1.25-7.78a26.51,26.51,0,0,1-11.87-7.45l4.75-6.65c3.14,3.72,8.29,6.82,12,7.41,2.73.44,4.61-.3,4.91-2.16,1-6-18.27-5.37-16.26-17.9.89-5.61,5.56-8.85,12.2-8.88l1.19-7.43,6.72,1.08L577,224.28a26.34,26.34,0,0,1,10.46,5.56l-4.66,6.77c-3.4-2.72-7.88-5.15-10.82-5.62-2.22-.36-3.81.22-4.07,1.83-.94,5.87,18.24,5.52,16.2,18.25C583.16,257.29,577.82,260.17,571.32,260Z"/><path class="cls-11" d="M567.81,219.71a20.48,20.48,0,0,0,4.75,10.17,32.34,32.34,0,0,0,16.29,10.7,15.63,15.63,0,0,0,6,.68c6.1-.7,7.56-7,6-12.11-2-6.41-6.8-12.18-12.25-16-4.49-3.18-13.82-7.29-18.5-2.39C567.94,213,567.45,216.75,567.81,219.71Z"/></g></g></g></svg>