<svg xmlns="http://www.w3.org/2000/svg" viewBox="0 0 390.51 341.26"><title>cheked</title><g id="Layer_2" data-name="Layer 2"><g id="Capa_1" data-name="Capa 1"><path d="M390.51,9.94V312.15a9.94,9.94,0,0,1-9.94,9.94H9.94A9.93,9.93,0,0,1,0,312.15V9.94A9.93,9.93,0,0,1,9.94,0H380.57A9.93,9.93,0,0,1,390.51,9.94Z" fill="#f4df62"/><rect x="7.48" y="110.52" width="375.97" height="111.57" rx="8.61" ry="8.61" fill="#fff" stroke="#fff" stroke-miterlimit="10"/><rect x="83.27" y="71.17" width="128.42" height="15.79" fill="#f4c43d"/><rect x="228.53" y="71.69" width="59.17" height="15.79" fill="#f4c43d"/><path d="M390.51,9.94V31.17H0V9.94A9.93,9.93,0,0,1,9.94,0H380.57A9.93,9.93,0,0,1,390.51,9.94Z" fill="#60c8e8"/><rect x="24.33" y="129.06" width="292.31" height="5.26" fill="#f4df62"/><rect x="335.89" y="129.06" width="28.42" height="5.26" fill="#f4df62"/><rect x="313.38" y="195.85" width="31.35" height="159.79" rx="12" ry="12" transform="translate(-100.16 284.97) rotate(-41.19)" fill="#fff"/><circle cx="269.7" cy="191.69" r="90" fill="#f4c43d"/><circle cx="269.7" cy="191.69" r="68.94" fill="#fff" opacity="0.72"/><rect x="223.26" y="161.05" width="101.05" height="12.22" fill="#fff"/><rect x="223.26" y="186.95" width="34.85" height="10.53" fill="#fff"/><rect x="269.7" y="185.9" width="54.61" height="10.53" fill="#fff"/><rect x="30.64" y="166.3" width="139.84" height="6.96" fill="#f4df62"/></g></g></svg>