<svg xmlns="http://www.w3.org/2000/svg" viewBox="0 0 295.85 320.26"><defs><style>.cls-1{fill:#fdcd08;}.cls-2{fill:#f58a1f;}.cls-3{fill:#fcee3b;}.cls-4{fill:#fff;}.cls-5{fill:#f69d45;}.cls-6{fill:#f39c56;}.cls-7{fill:#fab67a;}.cls-8{fill:#5ac8e7;}.cls-9{fill:#2d2d2d;}.cls-10{fill:#f37b3e;}.cls-11{fill:#adcac6;}</style></defs><title>coins</title><g id="Capa_2" data-name="Capa 2"><g id="Capa_4" data-name="Capa 4"><path class="cls-1" d="M152,256.86A23.86,23.86,0,1,1,128.18,233,23.85,23.85,0,0,1,152,256.86Z"/><path class="cls-2" d="M147.62,256.86a19.44,19.44,0,1,1-19.44-19.45A19.45,19.45,0,0,1,147.62,256.86Z"/><path class="cls-1" d="M143,256.86a14.81,14.81,0,1,1-14.81-14.81A14.81,14.81,0,0,1,143,256.86Z"/><path class="cls-3" d="M134.13,256.81a8.75,8.75,0,0,0-4.35-1.87l-2-.4a5.3,5.3,0,0,1-2-.71,1.37,1.37,0,0,1-.54-1.15,1.55,1.55,0,0,1,.81-1.45,5.22,5.22,0,0,1,2.51-.47,11.28,11.28,0,0,1,2.72.35,16.91,16.91,0,0,1,2.95,1v-3.88a29.1,29.1,0,0,0-3.31-.68c-.33-.05-.64-.08-.95-.11v-2.14H126.4v2.09a6.88,6.88,0,0,0-3.7,1.41,5.16,5.16,0,0,0-1.77,4.21,4.72,4.72,0,0,0,1.28,3.48,7.87,7.87,0,0,0,4,1.89l1.84.4a5.77,5.77,0,0,1,2.23.84,1.78,1.78,0,0,1-.26,2.8,4.47,4.47,0,0,1-2.38.52,11.71,11.71,0,0,1-3.17-.47,18.63,18.63,0,0,1-3.4-1.41v4a22.33,22.33,0,0,0,3.52,1c.6.11,1.2.2,1.79.25v2.1H130v-2.13a7.05,7.05,0,0,0,3.66-1.37,5.51,5.51,0,0,0,1.8-4.52A4.76,4.76,0,0,0,134.13,256.81Z"/><rect class="cls-4" x="111.05" y="242.3" width="4.64" height="4.64" transform="translate(-139.8 151.9) rotate(-45.02)"/><path class="cls-5" d="M158.55,116.34c-1,33.72,1.11,43-11.75,43V108.71l29.71-23.25Z"/><path class="cls-6" d="M148.08,289.45,201.89,266c20.2-9.58,23,4.29,8,12.31-16.58,8.88-49.12,22.79-49.12,22.79l-12.71-3.42Z"/><path class="cls-7" d="M148.08,320.26c-18.6-2.23-91-14.85-92.72-14.89l-9.17,0V262.51l11.11-.16c19.46-5.13,25-13.2,51.77-8.83,7.16,1.18,43.81,3.19,62.37,5.48,12.39,1.54,15.51,16.57-10.48,17.59l-40.27,1.54s25,10.29,33.21,13.38l59.24-21.15c16.32-7.6,18.83,6.3,8,12.36C211.93,287.92,179.3,306.78,148.08,320.26Z"/><rect class="cls-8" x="23.81" y="256.79" width="31.09" height="53.11"/><rect class="cls-9" y="253.56" width="47.31" height="59.57"/><path class="cls-10" d="M161,262.36v9.19c6.72,3.33,16.73.44,16.73-4.6S167.69,259,161,262.36Z"/><path class="cls-11" d="M36.6,267.87a5.11,5.11,0,1,1-5.11-5.11A5.11,5.11,0,0,1,36.6,267.87Z"/><path class="cls-7" d="M264.36,64.14,241.75,85.46C235.94,106.77,214.62,119,214.62,119c-21.31,3.88-45.22,20.68-45.22,20.68-1.17,2.3-2.19,4.63-3.16,6.77-1.43,3.12-4.79,10.95-8.86,9.76-5.43-1.61-5.84-20.74.4-32L181,107.42c1.21-15.93-2.13-29.9-27.13,5.81L152,149.41c0,7.55-5.52,12.43-9.53,11.66-2-.39-3.67-2.21-4-5.85-.77-10.47-.11-1.46-3.23-43.92,22.27-50.82,21.71-45,64.6-58.48L236.59,31.2Z"/><path class="cls-1" d="M151.91,193.32a23.86,23.86,0,1,1-23.86-23.86A23.85,23.85,0,0,1,151.91,193.32Z"/><circle class="cls-2" cx="128.05" cy="193.32" r="19.44" transform="translate(-69.77 314.29) rotate(-87.93)"/><path class="cls-1" d="M142.86,193.32a14.81,14.81,0,1,1-14.81-14.81A14.81,14.81,0,0,1,142.86,193.32Z"/><path class="cls-3" d="M134,193.27a8.75,8.75,0,0,0-4.36-1.87l-2-.4a5.23,5.23,0,0,1-2-.71,1.36,1.36,0,0,1-.55-1.15,1.57,1.57,0,0,1,.81-1.45,5.22,5.22,0,0,1,2.51-.47,11.63,11.63,0,0,1,2.72.34,16.69,16.69,0,0,1,3,1V184.7a31.4,31.4,0,0,0-3.3-.69l-1-.1v-2.14h-3.55v2.09a6.77,6.77,0,0,0-3.7,1.41,5.16,5.16,0,0,0-1.77,4.21,4.73,4.73,0,0,0,1.27,3.48,7.94,7.94,0,0,0,4,1.89l1.83.4a5.83,5.83,0,0,1,2.24.84,1.78,1.78,0,0,1-.27,2.8,4.43,4.43,0,0,1-2.37.52,11.6,11.6,0,0,1-3.17-.47,18.07,18.07,0,0,1-3.4-1.41v4a21.75,21.75,0,0,0,3.52,1,17.92,17.92,0,0,0,1.79.25v2.1h3.55v-2.13a7.05,7.05,0,0,0,3.67-1.37,5.51,5.51,0,0,0,1.8-4.52A4.76,4.76,0,0,0,134,193.27Z"/><rect class="cls-4" x="110.92" y="178.76" width="4.65" height="4.65" transform="translate(-94.88 133.11) rotate(-45)"/><path class="cls-1" d="M198.78,217.17a23.86,23.86,0,1,1-23.85-23.85A23.85,23.85,0,0,1,198.78,217.17Z"/><path class="cls-2" d="M194.37,217.17a19.45,19.45,0,1,1-19.44-19.44A19.44,19.44,0,0,1,194.37,217.17Z"/><path class="cls-1" d="M189.73,217.17a14.81,14.81,0,1,1-14.8-14.81A14.81,14.81,0,0,1,189.73,217.17Z"/><path class="cls-3" d="M180.88,217.13a8.66,8.66,0,0,0-4.36-1.87l-2-.41a5.26,5.26,0,0,1-2-.7A1.38,1.38,0,0,1,172,213a1.6,1.6,0,0,1,.81-1.46,5.29,5.29,0,0,1,2.51-.46,11.63,11.63,0,0,1,2.72.34,16.69,16.69,0,0,1,3,1v-3.88a26.64,26.64,0,0,0-3.3-.69l-1-.1v-2.14h-3.55v2.09a6.77,6.77,0,0,0-3.7,1.4,5.19,5.19,0,0,0-1.77,4.22,4.73,4.73,0,0,0,1.27,3.48,7.94,7.94,0,0,0,4,1.88l1.83.41a5.83,5.83,0,0,1,2.24.84,1.78,1.78,0,0,1-.27,2.8,4.41,4.41,0,0,1-2.37.52,11.3,11.3,0,0,1-3.17-.48,17.61,17.61,0,0,1-3.4-1.4v4a21.08,21.08,0,0,0,3.52,1c.6.11,1.19.19,1.79.25v2.1h3.55v-2.13a7.05,7.05,0,0,0,3.67-1.37,5.53,5.53,0,0,0,1.8-4.52A4.76,4.76,0,0,0,180.88,217.13Z"/><rect class="cls-4" x="157.79" y="202.62" width="4.65" height="4.65" transform="translate(-98.01 173.18) rotate(-44.99)"/><path class="cls-10" d="M166.24,146.49c-1.73,3.79-3.3,7-5.27,8.63-1.36,1.11-2.57,1.43-3.59,1.13a18,18,0,0,1,.48-2.43c1-3.8,3.18-6.81,5.57-8.23C164.25,145.84,165.2,146.14,166.24,146.49Z"/><path class="cls-10" d="M143.17,156.36a14.64,14.64,0,0,1-.74,4.71c-2-.39-3.67-2.21-4-5.85l-.57-7.76a1.5,1.5,0,0,1,.42,0C141,147.42,143.17,151.42,143.17,156.36Z"/><rect class="cls-8" x="231.08" y="21.78" width="31.09" height="53.11" transform="translate(29.27 174.5) rotate(-41.22)"/><rect class="cls-9" x="234.78" y="8.21" width="47.31" height="59.57" transform="matrix(0.75, -0.66, 0.66, 0.75, 39.02, 179.72)"/><path class="cls-11" d="M274.1,46a5.11,5.11,0,1,1,7.21.47A5.11,5.11,0,0,1,274.1,46Z"/></g></g></svg>