<svg xmlns="http://www.w3.org/2000/svg" viewBox="0 0 398 368.89"><title>grow_scale</title><g id="Layer_2" data-name="Layer 2"><g id="Capa_1" data-name="Capa 1"><polygon points="398 368.89 0 368.89 85.08 114.65 106.56 50.43 123.44 0 132.39 21.12 144.45 49.56 160.32 87 234.11 261.04 238.9 249.44 295.84 126.27 318.37 179.76 398 368.89" fill="#44e0b0"/><polygon points="160.32 87 143.44 109.94 120.21 93.61 106.07 126.27 85.08 114.65 123.44 0 160.32 87" fill="#9ae8c6"/><polygon points="144.45 49.56 132.33 38.1 122.69 57.69 118.19 45.17 112.13 57.69 106.56 50.43 123.44 0 144.45 49.56" fill="#3ace9d"/><polygon points="290.1 368.89 211.05 368.89 132.39 21.12 144.45 49.56 160.32 87 234.11 261.04 238.9 249.44 290.1 368.89" fill="#3ece9e"/><rect x="294.96" y="45.72" width="2.94" height="85.44" fill="#dd9445"/><ellipse cx="297.9" cy="45.72" rx="30.81" ry="33.2" fill="#e5bf1f"/><ellipse cx="298.91" cy="46.19" rx="26.3" ry="28.34" fill="#efcb1d"/><path d="M298.1,62.39V58.15a10.8,10.8,0,0,1-6-1.84l.93-2.82a9.84,9.84,0,0,0,5.61,1.81c2.77,0,4.64-1.72,4.64-4.12s-1.52-3.73-4.41-5c-4-1.68-6.42-3.61-6.42-7.26a6.71,6.71,0,0,1,5.88-6.76V27.93h2.41V32a10,10,0,0,1,5.07,1.47l-1,2.77a8.92,8.92,0,0,0-4.9-1.42c-3,0-4.13,1.93-4.13,3.61,0,2.18,1.44,3.27,4.83,4.78,4,1.76,6,3.95,6,7.68A7.13,7.13,0,0,1,300.55,58v4.36Z" fill="#fff"/><polygon points="398 368.89 364.64 368.89 318.37 179.76 398 368.89" fill="#3ece9e"/></g></g></svg>