<svg xmlns="http://www.w3.org/2000/svg" viewBox="0 0 391.75 321.71"><title>invitar_refiridos</title><g id="Layer_2" data-name="Layer 2"><g id="Capa_1" data-name="Capa 1"><path d="M391.75,100.37V276.42a15.13,15.13,0,0,1-15.12,15.12h-294a15.12,15.12,0,0,1-15.11-15.12v-176A15.11,15.11,0,0,1,82.65,85.25h294A15.11,15.11,0,0,1,391.75,100.37Z" fill="#4eeabd"/><path d="M391.75,100.37v17.2H67.54v-17.2A15.11,15.11,0,0,1,82.65,85.25h294A15.11,15.11,0,0,1,391.75,100.37Z" fill="#44e0b0"/><path d="M188.06,152.38a94,94,0,0,1-89.35,93.91q-2.33.12-4.68.12A94,94,0,0,1,94,58.35c1.57,0,3.13,0,4.68.11A94,94,0,0,1,188.06,152.38Z" fill="#48e6ed"/><path d="M188.06,152.38a94,94,0,0,1-89.35,93.91V58.46A94,94,0,0,1,188.06,152.38Z" fill="#35dbdb"/><circle cx="94.03" cy="137.77" r="40.98" fill="#36d1dd"/><path d="M164.44,214.69a94,94,0,0,1-140.81,0,83.12,83.12,0,0,1,57.63-38,84.54,84.54,0,0,1,25.54,0A83.14,83.14,0,0,1,164.44,214.69Z" fill="#36d1dd"/><path d="M235,39.29A39.29,39.29,0,1,1,195.74,0,39.09,39.09,0,0,1,235,39.29Z" fill="#487eed"/><circle cx="195.74" cy="33.19" r="17.12" fill="#2964cc"/><path d="M225.16,65.33a39.29,39.29,0,0,1-58.84,0,34.73,34.73,0,0,1,58.84,0Z" fill="#2964cc"/><path d="M303.61,282.42a39.29,39.29,0,1,1-39.29-39.29A39.1,39.1,0,0,1,303.61,282.42Z" fill="#f2d661"/><circle cx="264.32" cy="276.32" r="17.12" fill="#efbc62"/><path d="M293.73,308.46a39.28,39.28,0,0,1-58.83,0,34.72,34.72,0,0,1,58.83,0Z" fill="#efbc62"/><rect x="209.82" y="157.03" width="158.07" height="7.85" fill="#44e0b0"/><rect x="209.82" y="178.38" width="79.04" height="11.43" fill="#44e0b0"/><rect x="298.13" y="178.38" width="69.75" height="11.95" fill="#44e0b0"/><line x1="217.16" y1="229.79" x2="360.54" y2="229.79" fill="none" stroke="#44e0b0" stroke-miterlimit="10" stroke-width="2"/></g></g></svg>