<svg xmlns="http://www.w3.org/2000/svg" xmlns:xlink="http://www.w3.org/1999/xlink" viewBox="0 0 345.5 279.5"><defs><style>.cls-1{fill:#efefef;}.cls-10,.cls-2,.cls-3,.cls-4,.cls-5,.cls-6,.cls-7,.cls-8,.cls-9{fill:none;stroke-miterlimit:10;stroke-width:2.5px;}.cls-2{stroke:url(#Degradado_sin_nombre_26);}.cls-3{stroke:url(#Degradado_sin_nombre_26-2);}.cls-4{stroke:url(#Degradado_sin_nombre_26-3);}.cls-5{stroke:url(#Degradado_sin_nombre_26-4);}.cls-6{stroke:url(#Degradado_sin_nombre_26-5);}.cls-7{stroke:url(#Degradado_sin_nombre_26-6);}.cls-8{stroke:url(#Degradado_sin_nombre_26-7);}.cls-9{stroke:url(#Degradado_sin_nombre_26-8);}.cls-10{stroke:url(#Degradado_sin_nombre_26-9);}</style><linearGradient id="Degradado_sin_nombre_26" x1="186.95" y1="73.55" x2="238.05" y2="73.55" gradientUnits="userSpaceOnUse"><stop offset="0" stop-color="#ed1c24"/><stop offset="1" stop-color="#ed1c8b"/></linearGradient><linearGradient id="Degradado_sin_nombre_26-2" x1="237.93" y1="122.37" x2="254" y2="122.37" xlink:href="#Degradado_sin_nombre_26"/><linearGradient id="Degradado_sin_nombre_26-3" x1="171" y1="117.35" x2="239.56" y2="117.35" xlink:href="#Degradado_sin_nombre_26"/><linearGradient id="Degradado_sin_nombre_26-4" x1="0" y1="155.75" x2="286.5" y2="155.75" xlink:href="#Degradado_sin_nombre_26"/><linearGradient id="Degradado_sin_nombre_26-5" x1="59" y1="123.75" x2="345.5" y2="123.75" xlink:href="#Degradado_sin_nombre_26"/><linearGradient id="Degradado_sin_nombre_26-6" x1="143.25" y1="154.25" x2="285.25" y2="154.25" xlink:href="#Degradado_sin_nombre_26"/><linearGradient id="Degradado_sin_nombre_26-7" x1="142" y1="180.75" x2="286.5" y2="180.75" xlink:href="#Degradado_sin_nombre_26"/><linearGradient id="Degradado_sin_nombre_26-8" x1="294.51" y1="43.25" x2="322.99" y2="43.25" xlink:href="#Degradado_sin_nombre_26"/><linearGradient id="Degradado_sin_nombre_26-9" x1="294.41" y1="43.25" x2="318.09" y2="43.25" xlink:href="#Degradado_sin_nombre_26"/></defs><title>nouser</title><g id="Capa_2" data-name="Capa 2"><g id="Capa_1-2" data-name="Capa 1"><rect class="cls-1" x="80.25" y="17.25" width="251" height="208"/><circle class="cls-2" cx="212.5" cy="73.55" r="24.3"/><path class="cls-3" d="M238.75,107.59a40.16,40.16,0,0,1,14,30.51"/><path class="cls-4" d="M172.25,138.1a40.25,40.25,0,0,1,66.5-30.51"/><path class="cls-5" d="M285.25,252.75v9a16.5,16.5,0,0,1-16.5,16.5h-251a16.5,16.5,0,0,1-16.5-16.5v-212a16.5,16.5,0,0,1,16.5-16.5h39"/><rect class="cls-6" x="60.25" y="1.25" width="284" height="245" rx="16.5" ry="16.5"/><line class="cls-7" x1="143.25" y1="154.25" x2="285.25" y2="154.25"/><rect class="cls-8" x="143.25" y="173.25" width="142" height="15"/><line class="cls-9" x1="295.25" y1="33.25" x2="322.25" y2="53.25"/><line class="cls-10" x1="317.25" y1="33.25" x2="295.25" y2="53.25"/></g></g></svg>