<svg xmlns="http://www.w3.org/2000/svg" viewBox="0 0 402.8 329.57"><title>objetive_v_2</title><g id="Layer_2" data-name="Layer 2"><g id="Layer_2-2" data-name="Layer 2"><path d="M402.8,128.17v201.4H0a91.8,91.8,0,0,1,91.8-91.8h28.86A18.34,18.34,0,0,0,139,219.43V204.11a18.34,18.34,0,0,1,18.34-18.34h82.42A15.24,15.24,0,0,0,255,170.53V143.41a15.24,15.24,0,0,1,15.24-15.24Z" fill="#30ef93"/><path d="M402.8,128.17v201.4H201.4V185.77h38.36A15.24,15.24,0,0,0,255,170.53V143.41a15.24,15.24,0,0,1,15.24-15.24Z" fill="#28dd82"/><line x1="68.29" y1="238.05" x2="68.29" y2="178.02" fill="none" stroke="#e0bf32" stroke-miterlimit="10" stroke-width="5"/><circle cx="68.69" cy="167.8" r="24.94" fill="#edc932"/><circle cx="68.69" cy="167.8" r="19.79" fill="#f4cb1c" stroke="#fff" stroke-miterlimit="10" stroke-width="2"/><path d="M67.29,182.38V179a9.8,9.8,0,0,1-5.16-1.49l.81-2.25a9,9,0,0,0,4.85,1.44c2.4,0,4-1.38,4-3.3s-1.31-3-3.81-4c-3.43-1.35-5.56-2.9-5.56-5.83s2-4.92,5.09-5.43v-3.4h2.09V158A9.07,9.07,0,0,1,74,159.16l-.85,2.22a8.2,8.2,0,0,0-4.24-1.14c-2.6,0-3.58,1.55-3.58,2.9,0,1.75,1.25,2.62,4.18,3.84,3.47,1.41,5.23,3.17,5.23,6.17,0,2.66-1.86,5.15-5.33,5.73v3.5Z" fill="#fff"/><line x1="202" y1="182.17" x2="202" y2="108.77" fill="none" stroke="#e0bf32" stroke-miterlimit="10" stroke-width="5"/><circle cx="202.5" cy="96.27" r="30.5" fill="#edc932"/><circle cx="202.5" cy="96.27" r="24.2" fill="#f4cb1c" stroke="#fff" stroke-miterlimit="10" stroke-width="2"/><path d="M200.78,114.1v-4.16a12,12,0,0,1-6.31-1.82l1-2.76a11,11,0,0,0,5.93,1.77c2.93,0,4.91-1.68,4.91-4s-1.61-3.67-4.66-4.91c-4.2-1.65-6.8-3.54-6.8-7.13,0-3.42,2.43-6,6.22-6.63V80.27h2.56v4A11,11,0,0,1,209,85.71l-1,2.72a9.93,9.93,0,0,0-5.2-1.41c-3.17,0-4.36,1.9-4.36,3.55,0,2.14,1.52,3.21,5.11,4.7,4.24,1.73,6.38,3.87,6.38,7.54,0,3.25-2.26,6.3-6.51,7v4.29Z" fill="#fff"/><polyline points="337.39 119.47 337.39 77.13 337.39 72.16 337.39 65.35 337.39 4.37" fill="none" stroke="#dd3378" stroke-miterlimit="10" stroke-width="5"/><polygon points="383.16 43.06 337.39 72.16 334.79 73.81 334.79 0 380.63 40.81 382.83 42.77 383.16 43.06" fill="#dd3378"/><polygon points="383.16 43.06 337.39 72.16 334.79 73.81 334.79 66.83 337.39 65.35 380.63 40.81 382.83 42.77 383.16 43.06" fill="#cc3278"/><rect x="319.46" y="112.77" width="43.25" height="15.07" fill="#dd3378"/><path d="M214.66,149.32h18.46a13.54,13.54,0,0,0,13.53-13.54V127a11.54,11.54,0,0,1,11.54-11.53h35.46a10.07,10.07,0,0,0,10.07-10.07V44.18a10.07,10.07,0,0,1,10.07-10.07h0" fill="none" stroke="#f4cb1c" stroke-miterlimit="10" stroke-width="2" stroke-dasharray="5"/><path d="M73,215.09h43.23a10.1,10.1,0,0,0,10.1-10.1v-44.2a11.47,11.47,0,0,1,11.48-11.47h51.33" fill="none" stroke="#f4cb1c" stroke-miterlimit="10" stroke-width="2" stroke-dasharray="5"/><line x1="4.9" y1="215.09" x2="51.71" y2="215.09" fill="none" stroke="#f4cb1c" stroke-miterlimit="10" stroke-width="2" stroke-dasharray="5"/></g></g></svg>