<svg xmlns="http://www.w3.org/2000/svg" xmlns:xlink="http://www.w3.org/1999/xlink" viewBox="0 0 512 501.77"><defs><style>.cls-1{fill:url(#Degradado_sin_nombre_20);}.cls-2{fill:url(#Degradado_sin_nombre_20-2);}</style><linearGradient id="Degradado_sin_nombre_20" y1="250.88" x2="512" y2="250.88" gradientUnits="userSpaceOnUse"><stop offset="0" stop-color="#d4287d"/><stop offset="1" stop-color="#ff5b1e"/></linearGradient><linearGradient id="Degradado_sin_nombre_20-2" x1="206.85" y1="98.7" x2="265.83" y2="98.7" xlink:href="#Degradado_sin_nombre_20"/></defs><title>p_prog</title><g id="Capa_2" data-name="Capa 2"><g id="Capa_1-2" data-name="Capa 1"><path class="cls-1" d="M492.44,266.71l-21-6.71a8.79,8.79,0,0,1-5.66-5.74A135,135,0,0,0,446,215.05a143,143,0,0,0-13.24-15.63,184.88,184.88,0,0,0,4.56-42.2c-.31-19-4.11-30.12-11.6-34-4-2.11-16.31-8.54-82.78,21.89a24.43,24.43,0,0,0-4.41,2.62c-4.48-1.2-9.06-2.32-13.66-3.32l-1.69-.34a101.64,101.64,0,0,0,9.12-37.74,7.45,7.45,0,0,0-14.89-.67,86.68,86.68,0,0,1-56.72,77.52,216,216,0,0,0-60,0A86.76,86.76,0,1,1,308.24,62.67,7.45,7.45,0,0,0,321.55,56,101.71,101.71,0,1,0,176.71,187.91h0c-4.63,1.21-9.23,2.56-13.78,4.08a7.45,7.45,0,1,0,4.73,14.13,200,200,0,0,1,126,0,7.21,7.21,0,0,0,2.36.39A7.45,7.45,0,0,0,298.42,192c-4.54-1.52-9.14-2.87-13.77-4.08h0a101.22,101.22,0,0,0,30.93-30.24c2.06.4,4.1.82,6.1,1.26q4,.87,8,1.86c-.09.32-.17.64-.24,1-3.64,17.25-3.4,32.5.7,45.33a53.91,53.91,0,0,0,19.76,27.78,62.66,62.66,0,0,0,36.68,11.64c9.14,0,17.57-2,23.76-5.5,7-4,12.88-12.33,17.52-24.88q3.22,3.76,6.1,7.71a120.38,120.38,0,0,1,17.65,34.89,23.67,23.67,0,0,0,15.33,15.46l21,6.72a13.2,13.2,0,0,1,9.2,12.61v34.77a13.21,13.21,0,0,1-9.2,12.61l-33.79,10.82a23,23,0,0,0-12.88,10.46c-13.28,22.94-34.15,41.93-62,56.43a11.66,11.66,0,0,0-6.12,8.23l-10.83,57.3a3.34,3.34,0,0,1-3.28,2.73H323.77a3.35,3.35,0,0,1-3.29-2.73l-6-31.67a11.7,11.7,0,0,0-13.32-9.41,311.73,311.73,0,0,1-46.42,3.45,297.49,297.49,0,0,1-34.15-1.93,11.8,11.8,0,0,0-12.91,9.47L202,484.14a3.36,3.36,0,0,1-3.29,2.73H163.52a3.35,3.35,0,0,1-3.29-2.75L149.81,430a11.68,11.68,0,0,0-6-8.14c-47.54-25.38-72.67-67.78-72.67-122.62,0-27.71,6.06-52.21,18-72.83,11.15-19.24,27.45-35.15,48.43-47.28a7.45,7.45,0,1,0-7.47-12.9c-40.67,23.53-65.21,59.83-72,105.94h0c-.71-.06-1.43-.12-2.15-.2a37.08,37.08,0,0,0-2.73-14.86c-4.32-10.75-13.2-18.51-22.62-19.76-7.42-1-14.49,2.15-19.39,8.63-7.11,9.4-5.95,16.83-3.73,21.41,3.75,7.74,13.4,13.21,29.41,16.64-.44.66-.92,1.33-1.45,2C26,297.88,14.86,300.51,7.63,300.75A7.83,7.83,0,0,0,0,308.54v0a7.8,7.8,0,0,0,7.48,7.78c.53,0,1.09,0,1.67,0,9.16,0,23.85-3.37,38-21.08a42.19,42.19,0,0,0,5.44-8.78c1.41.15,2.76.29,4,.41h0c-.25,4-.39,8.14-.39,12.31,0,31,7.4,58.69,22,82.23,13.45,21.7,32.71,39.46,57.26,52.83l10.13,52.61a18.27,18.27,0,0,0,17.93,14.86h35.19a18.27,18.27,0,0,0,17.93-14.86l5.15-27.21a312,312,0,0,0,33,1.71,327.83,327.83,0,0,0,45.66-3.18l5.42,28.68a18.28,18.28,0,0,0,17.94,14.86H359a18.28,18.28,0,0,0,17.94-14.86l10.53-55.79c29.77-15.74,52.21-36.42,66.71-61.48a8.13,8.13,0,0,1,4.53-3.73l33.78-10.82A28.06,28.06,0,0,0,512,328.29V293.51A28.06,28.06,0,0,0,492.44,266.71Zm-71.16-88.55c-2.87,24.52-10.56,45.5-18.29,49.88-8.79,5-29.07,5.94-44.3-5.2s-20.33-31.21-14.68-58h0a9,9,0,0,1,5.11-6.22c37.31-17.08,58.81-22.66,66.8-22.66a7.7,7.7,0,0,1,2.71.36C421,138.86,424.17,153.41,421.28,178.16ZM20.92,260.89c-.77-1.59,1-4.39,2.2-5.92,1.83-2.41,3.52-2.91,4.79-2.91a5.7,5.7,0,0,1,.75.06c3.43.45,8.23,4.22,10.77,10.55a22.45,22.45,0,0,1,1.56,7C30.67,267.56,22.66,264.47,20.92,260.89Z"/><path class="cls-2" d="M241.92,90.16V63.5c9.19.65,12.61,4.86,15.76,4.86,3.94,0,5.78-5,5.78-7.49,0-6.44-12.61-9.19-21.54-9.46V47.86c0-1.57-2-3-3.94-3-2.24,0-3.81,1.45-3.81,3v3.81c-12.48,1.32-25,7.89-25,24.44,0,16.81,13.14,21.54,25,25.74v30.87c-13.4-1.05-16.95-10.24-21.28-10.24-3.29,0-6,4.33-6,7.48,0,6.44,11,15.24,27.32,15.5h0v4.08c0,1.57,1.57,3,3.81,3,2,0,3.94-1.45,3.94-3v-4.47c14.19-2,23.91-10.9,23.91-27.06C265.83,100.15,253.35,94.36,241.92,90.16Zm-7-2.49c-7-2.63-12.61-5.39-12.61-12.88,0-6.83,5.25-10.11,12.61-11Zm6.17,44.79V104.74c6.44,2.76,11.56,6.44,11.56,14.71C252.69,126.94,248.22,131.15,241.13,132.46Z"/></g></g></svg>