<svg xmlns="http://www.w3.org/2000/svg" viewBox="0 0 388.51 235.17"><defs><style>.cls-1{fill:#fdcd08;}.cls-2{fill:#f8ec30;}.cls-3{fill:#fbae17;}.cls-4{fill:#ef4f32;}.cls-5{fill:#d82226;}.cls-6{fill:#afdedd;}</style></defs><title>pagy</title><g id="Capa_2" data-name="Capa 2"><g id="Capa_4" data-name="Capa 4"><path class="cls-1" d="M353.54,215v20.15H324.12a4.55,4.55,0,0,1-4.56-4.54V215.3a1.37,1.37,0,0,1,0-.28Z"/><path class="cls-2" d="M387.51,215H319.58a4.53,4.53,0,0,1,4.54-4.26H383A4.53,4.53,0,0,1,387.51,215Z"/><path class="cls-3" d="M387.53,215.3v15.33a4.55,4.55,0,0,1-4.56,4.54H353.54V215h34A1.37,1.37,0,0,1,387.53,215.3Z"/><path class="cls-1" d="M353.54,190.62v20.14H324.12a4.54,4.54,0,0,1-4.56-4.54V190.9a1.27,1.27,0,0,1,0-.28Z"/><path class="cls-2" d="M387.51,190.62H319.58a4.52,4.52,0,0,1,4.54-4.26H383A4.52,4.52,0,0,1,387.51,190.62Z"/><path class="cls-3" d="M387.53,190.9v15.32a4.55,4.55,0,0,1-4.56,4.54H353.54V190.62h34A1.27,1.27,0,0,1,387.53,190.9Z"/><path class="cls-1" d="M353.54,166.21v20.15H324.12a4.55,4.55,0,0,1-4.56-4.54V166.49a1.32,1.32,0,0,1,0-.28Z"/><path class="cls-2" d="M387.51,166.21H319.58a4.53,4.53,0,0,1,4.54-4.26H383A4.53,4.53,0,0,1,387.51,166.21Z"/><path class="cls-3" d="M387.53,166.49v15.33a4.55,4.55,0,0,1-4.56,4.54H353.54V166.21h34A1.32,1.32,0,0,1,387.53,166.49Z"/><path class="cls-1" d="M353.54,141.81V162H324.12a4.55,4.55,0,0,1-4.56-4.54V142.09a1.27,1.27,0,0,1,0-.28Z"/><path class="cls-2" d="M387.51,141.81H319.58a4.52,4.52,0,0,1,4.54-4.26H383A4.52,4.52,0,0,1,387.51,141.81Z"/><path class="cls-3" d="M387.53,142.09v15.32A4.55,4.55,0,0,1,383,162H353.54V141.81h34A1.27,1.27,0,0,1,387.53,142.09Z"/><path class="cls-1" d="M353.54,117.4v20.15H324.12a4.55,4.55,0,0,1-4.56-4.55V117.68a1.32,1.32,0,0,1,0-.28Z"/><path class="cls-2" d="M387.51,117.4H319.58a4.52,4.52,0,0,1,4.54-4.26H383A4.52,4.52,0,0,1,387.51,117.4Z"/><path class="cls-3" d="M387.53,117.68V133a4.56,4.56,0,0,1-4.56,4.55H353.54V117.4h34A1.32,1.32,0,0,1,387.53,117.68Z"/><path class="cls-1" d="M285.58,215v20.15H256.17a4.55,4.55,0,0,1-4.56-4.54V215.3a1.37,1.37,0,0,1,0-.28Z"/><path class="cls-2" d="M319.56,215H251.63a4.53,4.53,0,0,1,4.54-4.26H315A4.53,4.53,0,0,1,319.56,215Z"/><path class="cls-3" d="M319.58,215.3v15.33a4.55,4.55,0,0,1-4.56,4.54H285.58V215h34A1.37,1.37,0,0,1,319.58,215.3Z"/><path class="cls-1" d="M285.58,190.62v20.14H256.17a4.54,4.54,0,0,1-4.56-4.54V190.9a1.27,1.27,0,0,1,0-.28Z"/><path class="cls-2" d="M319.56,190.62H251.63a4.52,4.52,0,0,1,4.54-4.26H315A4.52,4.52,0,0,1,319.56,190.62Z"/><path class="cls-3" d="M319.58,190.9v15.32a4.55,4.55,0,0,1-4.56,4.54H285.58V190.62h34A1.27,1.27,0,0,1,319.58,190.9Z"/><path class="cls-1" d="M219,215v20.15H189.6a4.55,4.55,0,0,1-4.56-4.54V215.3a1.37,1.37,0,0,1,0-.28Z"/><path class="cls-2" d="M253,215H185.06a4.53,4.53,0,0,1,4.54-4.26h58.85A4.53,4.53,0,0,1,253,215Z"/><path class="cls-3" d="M253,215.3v15.33a4.55,4.55,0,0,1-4.56,4.54H219V215h34A1.37,1.37,0,0,1,253,215.3Z"/><path class="cls-1" d="M219,190.62v20.14H189.6a4.55,4.55,0,0,1-4.56-4.54V190.9a1.27,1.27,0,0,1,0-.28Z"/><path class="cls-2" d="M253,190.62H185.06a4.52,4.52,0,0,1,4.54-4.26h58.85A4.52,4.52,0,0,1,253,190.62Z"/><path class="cls-3" d="M253,190.9v15.32a4.55,4.55,0,0,1-4.56,4.54H219V190.62h34A1.27,1.27,0,0,1,253,190.9Z"/><path class="cls-1" d="M285.58,166.21v20.15H256.17a4.55,4.55,0,0,1-4.56-4.54V166.49a1.32,1.32,0,0,1,0-.28Z"/><path class="cls-2" d="M319.56,166.21H251.63a4.53,4.53,0,0,1,4.54-4.26H315A4.53,4.53,0,0,1,319.56,166.21Z"/><path class="cls-3" d="M319.58,166.49v15.33a4.55,4.55,0,0,1-4.56,4.54H285.58V166.21h34A1.32,1.32,0,0,1,319.58,166.49Z"/><path class="cls-1" d="M351.51,71.54,356.66,91l-28.44,7.53a4.55,4.55,0,0,1-5.57-3.23L318.73,80.5a1.26,1.26,0,0,1-.05-.28Z"/><path class="cls-2" d="M384.35,62.85,318.68,80.22a4.53,4.53,0,0,1,3.3-5.28l56.89-15A4.53,4.53,0,0,1,384.35,62.85Z"/><path class="cls-3" d="M384.44,63.12l3.92,14.81a4.56,4.56,0,0,1-3.25,5.56L356.66,91l-5.15-19.47,32.84-8.69A1.43,1.43,0,0,1,384.44,63.12Z"/><path class="cls-1" d="M85.44,45.69V235.17H73.76c-55.75,0-86.2-48.76-68.93-91.69L44.15,45.69Z"/><rect class="cls-4" x="44.15" y="26.36" width="82.63" height="19.35"/><path class="cls-3" d="M85.44,235.17V45.69h41.34l39.33,97.79C180.88,180.32,163.65,235.17,85.44,235.17Z"/><polygon class="cls-1" points="44.15 26.36 36.15 9.89 85.44 0 85.46 26.36 44.15 26.36"/><polygon class="cls-3" points="126.78 26.36 134.77 9.89 85.48 0 85.46 26.36 126.78 26.36"/><path class="cls-5" d="M78,78.25c-14.64,4.16-25.29,16.47-25.29,31,0,16.07,13.08,29.43,30.19,32C98,143.52,103.4,151.27,103.4,159c0,10.45-10.64,17.71-21.38,17.71-8,0-15-3.67-18.64-9.07L52.85,178.18A37.05,37.05,0,0,0,78,191.3v5.39H92.89V190c14.64-4.16,25.29-16.48,25.29-31,0-21.17-16.1-28.26-35.28-32.84-8.89-2.15-15.42-8.91-15.42-17,0-10.53,10.9-17.71,21.39-17.71,8,0,15,3.67,18.64,9.08L118,90.07A37,37,0,0,0,92.89,77V71.56H78Z"/><rect class="cls-5" x="126.78" y="26.36" width="30.26" height="19.35"/><rect class="cls-6" x="338.34" y="17.26" width="6.24" height="37.64"/><rect class="cls-6" x="350.42" y="17.26" width="6.24" height="37.64"/><rect class="cls-6" x="362.5" y="17.26" width="6.24" height="37.64"/></g></g></svg>