<svg xmlns="http://www.w3.org/2000/svg" viewBox="0 0 280.02 280.03"><defs><style>.cls-1{fill:#00978c;}.cls-2{fill:#00c4a0;}.cls-3{fill:#00a79b;}.cls-4{fill:#ffc34e;}.cls-5{fill:#fff;}.cls-6{fill:#ffd459;}.cls-7{fill:#f4873d;}</style></defs><title>pay</title><g id="Capa_2" data-name="Capa 2"><g id="Capa_1-2" data-name="Capa 1"><rect class="cls-1" x="24.91" y="52.41" width="240.65" height="122.49" transform="translate(-37.52 88.96) rotate(-30.35)"/><path class="cls-2" d="M202.15,23.11,38.44,119a13,13,0,0,1-4.88,17.64l37,63.2a13,13,0,0,1,17.78,4.38l163.72-95.86a12.93,12.93,0,0,1,4.88-17.64l-37-63.21A12.94,12.94,0,0,1,202.15,23.11Z"/><ellipse class="cls-1" cx="145.24" cy="113.65" rx="33.01" ry="41.78" transform="translate(-37.52 88.96) rotate(-30.35)"/><circle class="cls-1" cx="225.92" cy="66.41" r="7.47"/><circle class="cls-3" cx="64.56" cy="160.91" r="7.47"/><path class="cls-2" d="M160.71,143.59l-3-5.11A35.29,35.29,0,0,1,136,140.93l1.55-9.09q8.87,1.68,15.69-1l-8-13.59q-9,2.75-14.51,1.81t-9-7a14.82,14.82,0,0,1-1.57-12.4q2-6.33,8.58-10.67l-2.06-3.5,4.49-2.62,2.09,3.57a33.93,33.93,0,0,1,17.65-3.28l-.78,9.12a26.2,26.2,0,0,0-12.4,1.8l7.71,13.17.21-.13q9.17-2.82,14.83-1.81t9.26,7.13A14.74,14.74,0,0,1,171.27,125q-2.1,6.4-9,10.93l2.95,5.05Zm-31.42-42.33a5.79,5.79,0,0,0,.51,5,5.71,5.71,0,0,0,3.58,2.89c1.46.37,3.75.2,6.86-.49l-7.1-12.12A9.7,9.7,0,0,0,129.29,101.26ZM162,123.35a6.28,6.28,0,0,0-4.24-8.2c-1.59-.36-4-.13-7.32.67l7.38,12.61A11.51,11.51,0,0,0,162,123.35Z"/><rect class="cls-4" x="121.88" y="52.4" width="46.73" height="122.49" transform="translate(-37.52 88.96) rotate(-30.35)"/><rect class="cls-5" x="127.82" y="61.57" width="3.57" height="122.49" transform="translate(-44.3 82.32) rotate(-30.35)"/><rect class="cls-5" x="159.09" y="43.24" width="3.57" height="122.49" transform="translate(-30.75 95.61) rotate(-30.35)"/><rect class="cls-3" x="25.75" y="94.16" width="240.65" height="122.49" transform="translate(-26.71 30.37) rotate(-10.88)"/><path class="cls-2" d="M44.77,219.43,28.25,133.52a8.75,8.75,0,0,0,6.94-10.25l202-38.82a8.74,8.74,0,0,0,10.24,6.94l16.52,85.92A8.74,8.74,0,0,0,257,187.56L55,226.37A8.75,8.75,0,0,0,44.77,219.43Z"/><ellipse class="cls-3" cx="146.08" cy="155.41" rx="33.01" ry="41.78" transform="translate(-26.71 30.37) rotate(-10.88)"/><circle class="cls-3" cx="237.88" cy="137.77" r="7.47" transform="translate(-21.73 47.38) rotate(-10.88)"/><circle class="cls-3" cx="54.27" cy="173.06" r="7.47"/><path class="cls-2" d="M150.69,188.8,149.57,183a35.36,35.36,0,0,1-21.29-4.92l4.49-8.06q7.81,4.55,15.13,4.29l-3-15.47q-9.42-.42-14.28-3.12t-6.19-9.6a14.81,14.81,0,0,1,2.66-12.21q4-5.31,11.64-7.2l-.77-4,5.1-1,.78,4.07a33.92,33.92,0,0,1,17.74,2.79l-3.78,8.33a26.22,26.22,0,0,0-12.29-2.43l2.88,15,.24-.05q9.58.39,14.59,3.23c3.35,1.9,5.46,5.17,6.36,9.82a14.76,14.76,0,0,1-2.76,12.31q-4.11,5.34-12.16,7.3l1.1,5.74Zm-15.52-50.38a6.26,6.26,0,0,0,1.23,8.77c1.26.83,3.48,1.44,6.64,1.82l-2.65-13.79A9.65,9.65,0,0,0,135.17,138.42Zm23.5,31.73a6.26,6.26,0,0,0-1.26-9.14q-2.07-1.31-7.13-1.81L153,173.54A11.29,11.29,0,0,0,158.67,170.15Z"/><path class="cls-4" d="M97.74,259.48c0,11.35-21.88,20.55-48.87,20.55S0,270.83,0,259.48V242.67H97.74Z"/><ellipse class="cls-6" cx="48.87" cy="242.66" rx="48.87" ry="20.54"/><path class="cls-7" d="M48.87,226.14c-23.56,0-42.65,7.4-42.65,16.53s19.09,16.54,42.65,16.54,42.65-7.4,42.65-16.54S72.42,226.14,48.87,226.14Zm0,31.23c-20.94,0-37.91-6.58-37.91-14.7S27.93,228,48.87,228s37.91,6.58,37.91,14.69S69.81,257.37,48.87,257.37Z"/><path class="cls-7" d="M47.31,254.1v-2a61.76,61.76,0,0,1-17.49-3l5.19-2.4a47,47,0,0,0,12.3,2.4v-5.34a59.35,59.35,0,0,1-11.77-2q-3.74-1.22-3.73-3.6c0-1.59,1.43-2.88,4.3-3.9a36.58,36.58,0,0,1,11.2-1.65v-1.38h4.54v1.41a64.36,64.36,0,0,1,14.79,2.07L62,237.26a48.31,48.31,0,0,0-10.17-1.6v5.18h.22a59.2,59.2,0,0,1,12,2q3.84,1.28,3.84,3.68t-4.41,3.93a39,39,0,0,1-11.66,1.65v2Zm-5-17.79c-1.21.41-1.81.93-1.81,1.54s.47,1.1,1.42,1.46a27.3,27.3,0,0,0,5.41,1v-4.77A18,18,0,0,0,42.29,236.31Zm15,12.08c1.32-.42,2-.95,2-1.6s-.52-1.15-1.57-1.52a30.62,30.62,0,0,0-5.83-1.07v5A21.38,21.38,0,0,0,57.26,248.39Z"/><path class="cls-4" d="M97.74,239.07c0,11.35-21.88,20.55-48.87,20.55S0,250.42,0,239.07V222.26H97.74Z"/><ellipse class="cls-6" cx="48.87" cy="222.27" rx="48.87" ry="20.54"/><path class="cls-7" d="M48.87,205.73c-23.56,0-42.65,7.4-42.65,16.53s19.09,16.53,42.65,16.53,42.65-7.4,42.65-16.53S72.42,205.73,48.87,205.73Zm0,31.23C27.93,237,11,230.38,11,222.26s17-14.69,37.91-14.69,37.91,6.58,37.91,14.69S69.81,237,48.87,237Z"/><path class="cls-7" d="M47.31,233.68v-2a62.48,62.48,0,0,1-17.49-3l5.19-2.4a47.46,47.46,0,0,0,12.3,2.4v-5.35a59.51,59.51,0,0,1-11.77-1.95q-3.74-1.22-3.73-3.6t4.3-3.9a36.58,36.58,0,0,1,11.2-1.65v-1.38h4.54v1.41a64.37,64.37,0,0,1,14.79,2.06L62,216.85a47.67,47.67,0,0,0-10.17-1.6v5.18h.22a59.2,59.2,0,0,1,12,2c2.56.85,3.84,2.07,3.84,3.68s-1.47,2.92-4.41,3.93a39,39,0,0,1-11.66,1.65v2Zm-5-17.78c-1.21.41-1.81.92-1.81,1.54s.47,1.1,1.42,1.46a27.51,27.51,0,0,0,5.41,1v-4.76A17.66,17.66,0,0,0,42.29,215.9Zm15,12.08c1.32-.42,2-1,2-1.6s-.52-1.15-1.57-1.53a30.85,30.85,0,0,0-5.83-1.06v5A21.38,21.38,0,0,0,57.26,228Z"/><path class="cls-4" d="M97.74,218.66c0,11.34-21.88,20.54-48.87,20.54S0,230,0,218.66V201.85H97.74Z"/><ellipse class="cls-6" cx="48.87" cy="201.85" rx="48.87" ry="20.54"/><path class="cls-7" d="M48.87,185.32c-23.56,0-42.65,7.4-42.65,16.53s19.09,16.53,42.65,16.53,42.65-7.4,42.65-16.53S72.42,185.32,48.87,185.32Zm0,31.22C27.93,216.54,11,210,11,201.85s17-14.7,37.91-14.7,37.91,6.58,37.91,14.7S69.81,216.54,48.87,216.54Z"/><path class="cls-7" d="M47.31,213.27v-2a62.48,62.48,0,0,1-17.49-3l5.19-2.4a47.46,47.46,0,0,0,12.3,2.4v-5.35a59.35,59.35,0,0,1-11.77-2c-2.49-.81-3.73-2-3.73-3.59s1.43-2.89,4.3-3.9a36.58,36.58,0,0,1,11.2-1.65v-1.38h4.54v1.4a64.91,64.91,0,0,1,14.79,2.07L62,196.43a48.32,48.32,0,0,0-10.17-1.59V200h.22a57.81,57.81,0,0,1,12,2q3.84,1.26,3.84,3.68t-4.41,3.92a39.29,39.29,0,0,1-11.66,1.66v2Zm-5-17.79c-1.21.42-1.81.93-1.81,1.55s.47,1.1,1.42,1.46a27.51,27.51,0,0,0,5.41,1v-4.77A18.41,18.41,0,0,0,42.29,195.48Zm15,12.09c1.32-.43,2-1,2-1.6s-.52-1.15-1.57-1.53a30,30,0,0,0-5.83-1.06v5A21.38,21.38,0,0,0,57.26,207.57Z"/><path class="cls-4" d="M97.74,198.24c0,11.35-21.88,20.55-48.87,20.55S0,209.59,0,198.24v-16.8H97.74Z"/><ellipse class="cls-6" cx="48.87" cy="181.43" rx="48.87" ry="20.54"/><path class="cls-7" d="M48.87,164.9c-23.56,0-42.65,7.4-42.65,16.54S25.31,198,48.87,198s42.65-7.4,42.65-16.53S72.42,164.9,48.87,164.9Zm0,31.23c-20.94,0-37.91-6.58-37.91-14.69s17-14.7,37.91-14.7,37.91,6.58,37.91,14.7S69.81,196.13,48.87,196.13Z"/><path class="cls-7" d="M47.31,192.86v-2a62.11,62.11,0,0,1-17.49-3L35,185.45a47.45,47.45,0,0,0,12.3,2.39V182.5a59.35,59.35,0,0,1-11.77-2q-3.74-1.22-3.73-3.6t4.3-3.9a36.58,36.58,0,0,1,11.2-1.65V170h4.54v1.41a64.91,64.91,0,0,1,14.79,2.07L62,176a49,49,0,0,0-10.17-1.6v5.18h.22a59.2,59.2,0,0,1,12,2q3.84,1.27,3.84,3.68t-4.41,3.93a39,39,0,0,1-11.66,1.65v2Zm-5-17.79c-1.21.41-1.81.93-1.81,1.54s.47,1.11,1.42,1.46a27.3,27.3,0,0,0,5.41,1v-4.77A18,18,0,0,0,42.29,175.07Zm15,12.08c1.32-.42,2-1,2-1.59s-.52-1.16-1.57-1.53A30,30,0,0,0,51.85,183v4.95A20.93,20.93,0,0,0,57.26,187.15Z"/><path class="cls-4" d="M200.79,259.48c0,11.35-21.88,20.55-48.87,20.55s-48.86-9.2-48.86-20.55V242.67h97.73Z"/><ellipse class="cls-6" cx="151.92" cy="242.66" rx="48.87" ry="20.54"/><path class="cls-7" d="M151.92,226.14c-23.55,0-42.65,7.4-42.65,16.53s19.1,16.54,42.65,16.54,42.65-7.4,42.65-16.54S175.48,226.14,151.92,226.14Zm0,31.23c-20.93,0-37.91-6.58-37.91-14.7S131,228,151.92,228s37.91,6.58,37.91,14.69S172.86,257.37,151.92,257.37Z"/><path class="cls-7" d="M150.36,254.1v-2a61.82,61.82,0,0,1-17.49-3l5.19-2.4a47.13,47.13,0,0,0,12.3,2.4v-5.34a59.22,59.22,0,0,1-11.76-2q-3.73-1.22-3.74-3.6c0-1.59,1.43-2.88,4.3-3.9a36.58,36.58,0,0,1,11.2-1.65v-1.38h4.55v1.41a64.28,64.28,0,0,1,14.78,2.07l-4.62,2.53a48.21,48.21,0,0,0-10.16-1.6v5.18h.21a59.2,59.2,0,0,1,12,2q3.84,1.28,3.84,3.68t-4.41,3.93a38.93,38.93,0,0,1-11.65,1.65v2Zm-5-17.79c-1.21.41-1.81.93-1.81,1.54s.47,1.1,1.42,1.46a27.15,27.15,0,0,0,5.4,1v-4.77A18,18,0,0,0,145.35,236.31Zm15,12.08c1.33-.42,2-.95,2-1.6s-.52-1.15-1.56-1.52a30.79,30.79,0,0,0-5.83-1.07v5A21.36,21.36,0,0,0,160.31,248.39Z"/><path class="cls-4" d="M200.79,239.07c0,11.35-21.88,20.55-48.87,20.55s-48.86-9.2-48.86-20.55V222.26h97.73Z"/><ellipse class="cls-6" cx="151.92" cy="222.27" rx="48.87" ry="20.54"/><path class="cls-7" d="M151.92,205.73c-23.55,0-42.65,7.4-42.65,16.53s19.1,16.53,42.65,16.53,42.65-7.4,42.65-16.53S175.48,205.73,151.92,205.73Zm0,31.23C131,237,114,230.38,114,222.26s17-14.69,37.91-14.69,37.91,6.58,37.91,14.69S172.86,237,151.92,237Z"/><path class="cls-7" d="M150.36,233.68v-2a62.54,62.54,0,0,1-17.49-3l5.19-2.4a47.54,47.54,0,0,0,12.3,2.4v-5.35a59.38,59.38,0,0,1-11.76-1.95q-3.73-1.22-3.74-3.6t4.3-3.9a36.58,36.58,0,0,1,11.2-1.65v-1.38h4.55v1.41a64.28,64.28,0,0,1,14.78,2.06l-4.62,2.54a47.57,47.57,0,0,0-10.16-1.6v5.18h.21a59.2,59.2,0,0,1,12,2c2.56.85,3.84,2.07,3.84,3.68s-1.47,2.92-4.41,3.93a38.93,38.93,0,0,1-11.65,1.65v2Zm-5-17.78c-1.21.41-1.81.92-1.81,1.54s.47,1.1,1.42,1.46a27.36,27.36,0,0,0,5.4,1v-4.76A17.64,17.64,0,0,0,145.35,215.9Zm15,12.08c1.33-.42,2-1,2-1.6s-.52-1.15-1.56-1.53a31,31,0,0,0-5.83-1.06v5A21.36,21.36,0,0,0,160.31,228Z"/></g></g></svg>