<?xml version="1.0" encoding="utf-8"?>
<!-- Generator: Adobe Illustrator 22.0.1, SVG Export Plug-In . SVG Version: 6.00 Build 0)  -->
<svg version="1.1" id="Capa_1" xmlns="http://www.w3.org/2000/svg" xmlns:xlink="http://www.w3.org/1999/xlink" x="0px" y="0px"
	 viewBox="0 0 676 462" style="enable-background:new 0 0 676 462;" xml:space="preserve">
<style type="text/css">
	.st0{fill:#17FCA4;}
	.st1{fill:#FFFFFF;}
	.st2{fill:#005467;}
	.st3{fill:#F3CFC1;}
	.st4{fill:#33435A;}
	.st5{fill:#3A3029;}
	.st6{fill:#EFC40F;}
	.st7{opacity:0.1;fill:#232020;}
	.st8{fill:url(#SVGID_1_);}
	.st9{fill:url(#SVGID_2_);}
	.st10{fill:url(#SVGID_3_);}
	.st11{fill:#DE937A;}
	.st12{fill:#C2D69F;}
	.st13{fill:#BABCBE;}
	.st14{fill:#363636;}
	.st15{fill:#BCBEC0;}
	.st16{fill:#F299CA;}
	.st17{fill:#F40F82;}
	.st18{fill:#E2991A;}
	.st19{fill:#FCBC1D;}
	.st20{fill:#F4AD21;}
	.st21{fill:#A6D6CA;}
	.st22{fill:#FFD345;}
	.st23{fill:#00BCB9;}
	.st24{fill:#EEEEEE;}
	.st25{fill:#FDB037;}
	.st26{fill:#ECEEEE;}
</style>
<g>
	<g>
		<g>
			<g>
				<g>

						<rect x="329.2" y="30" transform="matrix(0.9712 -0.2384 0.2384 0.9712 -5.7348 102.2622)" class="st0" width="181.6" height="89.6"/>
				</g>
				<g>
					<g>

							<ellipse transform="matrix(0.9712 -0.2384 0.2384 0.9712 -5.8014 102.2611)" class="st1" cx="419.9" cy="75.1" rx="26.8" ry="40.3"/>
					</g>
					<path class="st2" d="M494.6,14L326.2,55.2l-0.6,0.1l19.3,80.6l168.9-41.5L494.6,14z M356.4,130.3c-7.9-1.2-9.6-7.8-9.6-7.8
						l-10.4-40.3c-3.2-15.5,3.7-24.5,8.6-28.8l56.5-13.8c-3.2,2.9-5.7,6.9-7.5,11.8c-3.2,8.8-3.5,19.5-0.9,30.1
						c2.6,10.6,7.8,20,14.7,26.3c2.3,2.1,4.7,3.8,7.2,5.1l-14.2,3.5l0.7,2.8L356.4,130.3z M432,108.8l-7,1.7
						c-11.7,0.1-23.7-12.3-28-29.8c-4.7-19.3,1.7-37.5,14.4-40.7c12.7-3.1,26.9,10.1,31.6,29.4C447.3,86.9,442.4,103.5,432,108.8z
						 M456.6,102.7l-14.5,3.6c1.6-2.2,2.9-4.9,4-7.8c3.2-8.8,3.5-19.5,0.9-30.1c-2.6-10.6-7.8-20-14.7-26.3c-3.9-3.5-8-5.9-12.1-7
						l56.5-13.8c6.4,1.7,16,6.7,20.3,21.4l9.5,40.5c0,0,1.7,6.9-5.4,11.7l-43.7,10.7L456.6,102.7z"/>
				</g>
			</g>
		</g>
		<rect x="350.1" y="84.6" transform="matrix(0.9715 -0.237 0.237 0.9715 -10.21 89.5324)" class="st2" width="34.3" height="5.3"/>

			<rect x="456.6" y="58.6" transform="matrix(0.9715 -0.237 0.237 0.9715 -1.021 114.0259)" class="st2" width="34.3" height="5.3"/>
	</g>
	<g>
		<polygon class="st3" points="304.8,212.2 292.7,207.7 289.7,194.9 296.7,193.3 302.4,201 307,201.3 311.4,208.3 		"/>
		<polygon class="st4" points="384,186.2 342,216.8 305.4,201 300,210.9 327.7,229.8 343.3,235.6 384,216 		"/>
		<polygon class="st3" points="440.6,122.7 441.5,109.8 431.1,101.8 426.8,107.5 431.5,115.8 429.8,120.2 434.4,127.1 		"/>
		<g>
			<g>
				<g>
					<polygon class="st2" points="358.2,268.6 357.4,341.4 365.1,435 375.7,435 388.3,348.6 402.7,262.1 					"/>
					<polygon class="st5" points="375.6,439.4 364.2,445.1 358.5,439.4 364.2,433.7 375.6,433.7 					"/>
				</g>
				<g>
					<polygon class="st2" points="430.5,268.6 430.7,310.7 423.6,435 413.1,435 395.4,352.5 386,262.1 					"/>
					<polygon class="st5" points="413.1,439.4 424.5,445.1 430.2,439.4 424.5,433.7 413.1,433.7 					"/>
				</g>
			</g>
			<path class="st4" d="M441.5,294c0.2,6.7,0.1,15.6-2.7,15.9c-0.5,0.1-1-0.2-1.5-0.4c-4.9-2.4-8.4-5.7-13.2-8
				c-5-2.4-10.8-3.7-16.4-4.5c-8.4-1.3-16.9-2.1-25.3-2.2c-7.2-0.1-14.8,3.2-21.6,5.1c-2.6,0.7-4.8,2.6-7,4.1
				c-3.2,2.2-4.6,3.1-4.2-1.4c0.7-7.4,1.5-14.8,2.4-22.2c1.8-14.7,4.3-29.4,8.5-43.7c1.6-5.5,3.4-10.8,5.3-16.2
				c2.2-6.5,4.5-13.1,6.7-19.6c2.8-8.1,7.5-13.9,15.8-16.7c7.1-2.5,16-3.1,22.9,0.3c7.7,3.8,11.4,16.9,15.1,23.8
				c3.3,6.1,7.4,22.7,8.6,29.3c1.5,7.9,2.8,15.8,3.9,23.7c1.2,8.7,2,17.4,2.3,26C441.2,288.1,441.3,290.8,441.5,294z"/>
			<path class="st1" d="M403.4,185.5l-14.2,0.1c0,0-15.3,53.4-15.8,62.6c-0.6,9-4.4,45.7-4.4,45.7s15.8,0.4,33.9,2.6
				c17.8,3.8,19.3,1.6,19.3,1.6s-9.6-38.5-9.9-49.6c-0.3-11.3-1.8-48.7-1.8-48.7L403.4,185.5z"/>
			<g>
				<path class="st3" d="M394.7,185.8c0.2,0.1,0.4,0.3,0.6,0.3c0.4,0.1,0.9,0.1,1.4,0c1.9-0.2,3.8-0.4,5.7-0.7
					c-0.6-5.8,2.8-7.1,6-10.8c3.3-3.8,2.3-8.8,2.1-13.4c-0.1-1.3-0.1-2.6-0.7-3.8c-1-2-3.2-3.2-5.3-3.8c-5.5-1.7-11.8-1.3-16.6,1.8
					c-1.3,0.8-2.5,1.9-3.2,3.2c-1.1,2.1-0.8,4.6-0.5,6.9c0.5,3.6,1.5,7.1,3.6,10.2c1.9,2.8,5.5,4.2,5.9,7.6
					C393.8,184.2,394.1,185.2,394.7,185.8z"/>
				<g>
					<path class="st4" d="M384.4,161.5c0.3,1.4,1,2.9,0.6,4.4c-2.3-0.8-3.8-3.1-4.6-5.5c-0.4-1.1-0.6-2.2-0.5-3.4
						c0.1-1.1,0.6-2.3,1.5-3c1.3-0.9,3.5-0.5,3.9,1.1C385.6,156.7,383.9,159.3,384.4,161.5z"/>
					<path class="st4" d="M372.2,148.7c0.1-1.7,0.7-3.3,2.3-4.3c1.3-0.9,2.9-1.7,3.7-3.1c0.6-1.1,0.7-2.5,1.3-3.6
						c1.1-2,3.6-2.6,5.7-3.3c5.3-1.7,8.2-3.7,13.9-1.5c4,1.6,9.2,1.8,13,4.1c1.6,1,2.9,2.5,4,4.2c3.8,5.9,4.7,14.2,2.2,20.4
						c-0.6,1.4-1.2,2.6-2,3.9c-1.5,2.4-3.1,5.4-5.7,6.6c-0.2-1.1-1-1.8-1.3-2.9c-0.2-0.8-0.1-1.7-0.1-2.5c0.2-3.2,1.2-8.4-2.1-10
						c-4.1-2-11.8-0.2-15.7,1.5c-3.5,1.5-9.4,3.5-13.1,1.9C374.9,158.5,372.1,152.4,372.2,148.7z"/>
				</g>
			</g>
		</g>
		<polygon class="st4" points="407.9,183.6 444.1,172.9 430.7,127.7 441.7,119.8 468.3,172.2 461,190.3 426.4,208.1 		"/>
	</g>
	<g>
		<g>
			<g>
				<g>

						<ellipse id="elipse" style="animation:flot .4s ease-in-out infinite;" transform="matrix(0.8845 -0.4665 0.4665 0.8845 28.42 302.5645)" class="coin st6" cx="625.4" cy="93.9" rx="42.1" ry="42.1"/>
					<path class="st7 coin" d="M639.6,50.2c-24.1-7.8-50,5.4-57.8,29.5c-7.8,24.1,5.4,50,29.5,57.8c24.1,7.8,50-5.4,57.8-29.5
						S663.7,58.1,639.6,50.2z M613.6,130.2c-20-6.5-31-28-24.5-48.1c6.5-20,28-31,48.1-24.5c20,6.5,31,28,24.5,48.1
						C655.2,125.7,633.7,136.7,613.6,130.2z"/>
					<linearGradient id="SVGID_1_" gradientUnits="userSpaceOnUse" x1="574.8354" y1="93.8716" x2="675.9941" y2="93.8716">
						<stop  offset="0" style="stop-color:#EFC40F"/>
						<stop  offset="7.439872e-02" style="stop-color:#ECC520"/>
						<stop  offset="0.2214" style="stop-color:#E4C74C"/>
						<stop  offset="0.4248" style="stop-color:#D7CA91"/>
						<stop  offset="0.5825" style="stop-color:#CCCCCC"/>
						<stop  offset="0.7645" style="stop-color:#DBC97C"/>
						<stop  offset="1" style="stop-color:#EFC40F"/>
					</linearGradient>
					<path id="coin" class="st8 coin" d="M641,45.8c-26.6-8.6-55.1,5.9-63.7,32.5s5.9,55.1,32.5,63.7c26.6,8.6,55.1-5.9,63.7-32.5
						C682.1,82.9,667.6,54.4,641,45.8z M612.4,133.9c-22.1-7.2-34.2-30.9-27-53c7.2-22.1,30.9-34.2,53-27c22.1,7.2,34.2,30.9,27,53
						C658.3,129,634.5,141.1,612.4,133.9z"/>
				</g>
			</g>
			<g>
				<g>
					<path class="st1" d="M608.4,101.6c-0.4-0.5-0.2-1.2-0.1-1.9c0.3-1.7,1.7-2.6,3.4-2.3c2.5,0.5,4.4,3.2,6.3,5
						c1.5,1.5,3.4,2.6,5.6,3.3c2.4,0.8,4.4,0.8,6.2,0.2c1.8-0.7,3-1.9,3.6-3.8c0.6-1.9,0.5-3.4-0.4-4.6c-0.9-1.2-2.7-2.2-5.5-3.1
						l-1.8-0.6c-4.5-1.5-7.7-3.6-9.4-6.3c-1.7-2.7-2-5.8-0.8-9.4c1.2-3.5,3.2-5.9,6.2-7c3-1.2,6.5-1.1,10.7,0.3
						c1.7,0.6,3.4,1.4,4.9,2.6c3.3,2.4,8.4,7.4,5.9,10.7c-2.9,3.7-7.3-4.5-9.3-6.2c-1.1-1-2.6-1.8-4.4-2.4c-2.1-0.7-4-0.7-5.6,0
						c-1.6,0.7-2.7,1.9-3.3,3.6c-0.6,1.7-0.3,3.1,0.8,4.2c1.1,1.2,3.8,2.5,8,4c4.6,1.7,7.6,3.7,9.2,6.2c1.5,2.5,1.7,5.6,0.4,9.4
						c-1.2,3.6-3.3,6.1-6.4,7.5c-3.1,1.4-6.6,1.4-10.6,0.1c-1.3-0.4-2.6-1-4.1-1.8C615.3,107.6,611,105.1,608.4,101.6z"/>
				</g>
				<path class="st1" d="M617.7,120L617.7,120c-1.4-0.5-2.1-2.1-1.6-3.7L632.4,67c0.5-1.6,2.1-2.5,3.5-2.1l0.1,0
					c1.4,0.5,2.1,2.1,1.5,3.7l-16.3,49.2C620.6,119.5,619.1,120.4,617.7,120z"/>
			</g>
		</g>
	</g>
	<g>
		<g>
			<g>
				<g>
					<linearGradient id="SVGID_2_" gradientUnits="userSpaceOnUse" x1="243.4993" y1="170.8361" x2="310.1479" y2="170.8361">
						<stop  offset="0" style="stop-color:#EFC40F"/>
						<stop  offset="7.439872e-02" style="stop-color:#ECC520"/>
						<stop  offset="0.2214" style="stop-color:#E4C74C"/>
						<stop  offset="0.4248" style="stop-color:#D7CA91"/>
						<stop  offset="0.5825" style="stop-color:#CCCCCC"/>
						<stop  offset="0.7645" style="stop-color:#DBC97C"/>
						<stop  offset="1" style="stop-color:#EFC40F"/>
					</linearGradient>
					<circle class="st9" cx="276.8" cy="170.8" r="33.3"/>
					<path class="st7" d="M288,136.3c-19.1-6.2-39.6,4.3-45.7,23.3c-6.2,19.1,4.3,39.6,23.3,45.7c19.1,6.2,39.6-4.3,45.7-23.3
						S307.1,142.5,288,136.3z M267.5,199.6c-15.9-5.1-24.6-22.2-19.4-38.1c5.1-15.9,22.2-24.6,38.1-19.4
						c15.9,5.1,24.6,22.2,19.4,38.1C300.4,196,283.4,204.7,267.5,199.6z"/>
					<linearGradient id="SVGID_3_" gradientUnits="userSpaceOnUse" x1="236.7718" y1="170.8361" x2="316.8755" y2="170.8361">
						<stop  offset="0" style="stop-color:#EFC40F"/>
						<stop  offset="7.439872e-02" style="stop-color:#ECC520"/>
						<stop  offset="0.2214" style="stop-color:#E4C74C"/>
						<stop  offset="0.4248" style="stop-color:#D7CA91"/>
						<stop  offset="0.5825" style="stop-color:#CCCCCC"/>
						<stop  offset="0.7645" style="stop-color:#DBC97C"/>
						<stop  offset="1" style="stop-color:#EFC40F"/>
					</linearGradient>
					<path class="st10" d="M289.2,132.7c-21-6.8-43.6,4.7-50.4,25.7c-6.8,21,4.7,43.6,25.7,50.4c21,6.8,43.6-4.7,50.4-25.7
						C321.7,162.1,310.2,139.6,289.2,132.7z M266.5,202.5c-17.5-5.7-27.1-24.5-21.4-42c5.7-17.5,24.5-27.1,42-21.4
						c17.5,5.7,27.1,24.5,21.4,42C302.8,198.6,284.1,208.2,266.5,202.5z"/>
				</g>
			</g>
			<g>
				<g>
					<path class="st1" d="M263.4,177c-0.3-0.4-0.2-1-0.1-1.5c0.2-1.4,1.3-2.1,2.7-1.8c2,0.4,3.5,2.5,5,3.9c1.2,1.2,2.7,2,4.4,2.6
						c1.9,0.6,3.5,0.7,4.9,0.1c1.4-0.5,2.4-1.5,2.9-3c0.5-1.5,0.4-2.7-0.3-3.6c-0.7-0.9-2.1-1.8-4.3-2.5l-1.5-0.5
						c-3.6-1.2-6.1-2.8-7.5-5c-1.4-2.1-1.6-4.6-0.7-7.5c0.9-2.8,2.6-4.6,4.9-5.6c2.3-0.9,5.2-0.8,8.5,0.3c1.4,0.4,2.7,1.1,3.9,2.1
						c2.6,1.9,6.7,5.9,4.7,8.4c-2.3,2.9-5.8-3.6-7.3-4.9c-0.9-0.8-2.1-1.4-3.5-1.9c-1.7-0.5-3.1-0.5-4.4,0c-1.3,0.5-2.2,1.5-2.6,2.8
						c-0.4,1.3-0.2,2.5,0.6,3.4c0.8,0.9,3,2,6.4,3.2c3.6,1.3,6,3,7.3,4.9c1.2,2,1.3,4.5,0.3,7.4c-0.9,2.8-2.6,4.8-5.1,5.9
						c-2.4,1.1-5.2,1.1-8.4,0.1c-1-0.3-2.1-0.8-3.2-1.4C268.8,181.7,265.4,179.7,263.4,177z"/>
				</g>
				<path class="st1" d="M270.7,191.5L270.7,191.5c-1.1-0.4-1.7-1.7-1.3-3l12.9-39c0.4-1.3,1.6-2,2.7-1.6l0,0
					c1.1,0.4,1.6,1.7,1.2,2.9l-12.9,39C273,191.1,271.8,191.9,270.7,191.5z"/>
			</g>
		</g>
	</g>
	<g>
		<polygon class="st11" points="652.6,142.6 654.1,129.4 639.7,123.2 637.1,129.3 643.8,139.3 645.5,145.3 		"/>
		<g>
			<polygon class="st12" points="585.9,205.5 568.5,232.2 557.2,253.8 561.3,262.2 576.4,258 			"/>
			<g>
				<polygon class="st13" points="606.7,299.8 606.7,313.3 588.7,371.9 593.2,432.7 582,435 563.9,360.6 564.6,338.7 572.9,294.1
									"/>
				<polygon class="st14" points="583.4,433.8 574.8,442.9 577.3,447.5 595.1,439 591.8,432.3 				"/>
				<polygon class="st14" points="610.7,438 600.1,444.7 601.4,449.7 620.7,445.9 619.2,438.6 				"/>
				<path class="st12" d="M585.8,205.4l26.8-10.6c0,0,9.5,23.7,20.4,61.6c10.8,37.9-5,86.2-5,86.2s-61.5-14.6-73.7-17l15.4-69.3
					L585.8,205.4z"/>
				<polygon class="st15" points="592.4,315.8 610.6,439.7 618.8,439.7 624,372.1 635.3,304.5 				"/>
				<g>
					<path class="st11" d="M585,168.2c7.3,0.5,14.1-5.5,21.3-4c4.7,1,8.4,5.1,9.8,9.8c0.7,2.2,0.9,4.6,0.2,6.7
						c-0.4,1.4-1.2,2.7-2.1,3.8c-1.2,1.5-2.7,2.8-4.4,3.7c0.9,1.5,2,2.9,3.1,4.1c-3.4,1.3-6.7,2.6-10.1,3.9
						c-0.7-1.9-1.5-3.9-2.2-5.8c-1-0.1-2-0.2-3-0.5c-6-1.6-10.9-6.8-12.3-13C584.7,174.1,584.8,171.1,585,168.2z"/>
					<polygon class="st4" points="586.8,170.4 609.4,167.7 613.8,184.9 620.1,179.9 616.9,151.7 585,151 571.2,159.1 571.8,167.2
						584.1,175.5 					"/>
				</g>
				<path class="st12" d="M643.2,250.7c-10.8-37.9-20.2-61.6-20.2-61.6l-27,10.7l0,0.1c0.6,1.5,1.2,3.1,1.8,4.7
					c2.1,6.2,3.7,12.6,4.7,19.1c1.7,11.4,1.9,23.1,1.5,34.6c-0.3,11-1.5,22-3.4,32.9c-2.6,14.4-6.7,28.4-12,41.9
					c24.9,5.1,54.3,11.1,54.3,11.1S654,288.6,643.2,250.7z"/>
			</g>
			<polygon class="st12" points="619.1,192.3 642.8,180.9 642.7,142.8 653,140 664.5,184.9 660.5,191.5 627,217.5 			"/>
			<polygon class="st12" points="571.4,240.2 574.1,208.5 561.1,208.5 551.2,252 558,265.4 569.1,260 			"/>
			<polygon class="st11" points="562.6,208.5 562.6,197.8 570.6,194.8 577.9,200.5 577.9,205.5 572.5,208.5 			"/>
		</g>
	</g>
	<g>
		<polygon class="st3" points="122.9,151.7 124.4,138.8 134.5,132.9 137.5,139.9 132.6,147.8 132.6,154.3 		"/>
		<g>
			<path class="st4" d="M200.4,440.1l-9.1-8.4c-2.6-1.3-5.4-2.3-7.7-2.2c-1.6,0-3,0.5-3.8,1.8c-0.8,1.2-0.9,2.8-0.4,4
				c0.2,0.5,0.5,0.9,0.8,1.3l0,0c0,0,0,0,0,0c0.3,0.3,0.6,0.7,0.9,1c0.2,0.2,0.4,0.4,0.6,0.6c1.9,2,5,5.3,6.3,6.1
				c1.8,1.1,5.8,4,10.6,0.7c0,0,0,0-0.1,0C200.3,443.8,200.8,441.9,200.4,440.1z"/>
			<path class="st3" d="M193.3,367.3l-0.7,10.5l-3.6,51.1l3.6,5.9c0,0,0.7,4.8-4.8,4.4c-1.6-0.1-7.4-7.5-7.4-7.5l0.8-3.4l-4.1-38.4
				l0-11.1l-1.9-12.4L193.3,367.3z"/>
		</g>
		<g>
			<path class="st4" d="M135.9,427.1c-1.7-0.5-3.3-0.4-4.5,0.5c-1.2,1-1.9,2.5-1.8,4c0.1,1,0.5,2,0.9,2.9
				c2.2,4.7,8.3,15.4,15.4,13.5c3-0.8,4.1-3.8,3.5-6.5C148.5,437.5,141.5,428.9,135.9,427.1z"/>
		</g>
		<path class="st3" d="M171.4,361.2l-1.2,15.1l-29.7,53.4c0,0,4.3,7.4,1.6,8.1c-2.7,0.6-10.6-1.6-10.6-10
			c3.1-10.2,15.4-44.8,15.4-44.8l5.7-8.9l-0.1-16.8L171.4,361.2z"/>
		<path class="st16" d="M137.9,310.6c-0.2-4.5,1.2-16.1,2.7-20.2c5.3-15.2,6.4-22.7,6.4-35c0-12.4-5.5-51.5-5.5-51.5l18.5-10.5
			l23.4-0.3l12.3,5.3c0,0,3.1,48.2,3.8,64c0.5,11.3,1.3,21.2,2.4,34.3c0,0,2.9,30-1.6,62.1c0,0-1,10.7-1.5,11.6
			c-0.1,0.3-0.1,0.5-0.1,0.5s-0.2,0-0.2,0l-50.8,0l0-18.3c-1.7-5.9-3.3-11.8-4.8-17.7C140.9,327.3,138.3,318.9,137.9,310.6z"/>
		<path class="st17" d="M148.6,195.8l-8.7,6.5c0,0,6.6,45.1,6.9,53c0.4,7.9-9.8,39.3-9.8,39.3l42,5.5c0,0,6.2-33.6,8-50.3
			c1.8-16.7-23.7-57.4-23.7-57.4L148.6,195.8z"/>
		<path class="st17" d="M190.7,195l8.6,4.1c0,0-1.2,50.2,1,62.9c1.3,7.8,6.6,32.9,6.6,32.9l-13.6,4.6c0,0-8.4-31.5-10-48.2
			c-1.7-16.7,0.1-58.2,0.1-58.2L190.7,195z"/>
		<g>
			<g>
				<path class="st4" d="M189.1,176.6c1.1,4.3-1.4,8.6-3.7,12.2c-0.9,1.5-2.3,3.6-1.2,5.2c1.3,1.9,4.6,1.5,6,0.1c1-1,1.5-2.4,2-3.7
					c1.9-5.9,4.7-14.3,4.1-20.5c-0.4-5-6.6-13.9-12.9-10.7c-1.1,0.6-1.9,1.7-2.5,2.7c-0.4,0.6-0.7,1.3-0.8,2
					c-0.3,2.9,2.5,3.6,4.3,5.2C186.8,171.2,188.4,173.9,189.1,176.6z"/>
				<path class="st3" d="M178.5,192.1c4.2-0.5,7.8-3.5,9.6-7c1.9-3.6,2.3-7.6,2.3-11.6c-0.2-13.3-17.8-14-24.7-4.5
					C159.8,177.3,166.2,193.7,178.5,192.1z"/>
				<path class="st4" d="M166.5,175.3c-0.1,1.6-1,3.3-1.2,5c-0.4,3,0.3,7-0.8,9.8c-3.1-0.4-6.8-2.4-9.1-4.5
					c-2.3-2.2-1.9-5.4-2.4-8.6c-0.5-2.9-1.1-5.9-0.9-8.9c0.9-16.3,17.2-25.2,31.5-17.9c5.4,2.8,7.8,9.9,3.8,14.5
					c-4.3,5-13,2.8-18.2,6.5C168,172.1,167.2,173.5,166.5,175.3z"/>
			</g>
			<path class="st3" d="M178.9,190.8c-0.2,1-0.4,2-0.6,3c-0.1,0.5-0.1,1.7-0.5,2.1c-0.2,0.2-0.5,0.1-0.8,0.1c-0.8-0.1-7.6-1-7.5-1.4
				c0.2-1.2,0.4-2.3,0.8-3.4c0.3-0.9,0.4-2.6,0.9-3.3c1.2,0.8,2.4,1.3,3.7,1.7c1.3,0.4,2.6,0.7,4,1.1
				C178.9,190.6,178.9,190.7,178.9,190.8z"/>
		</g>
		<polygon class="st17" points="161.6,193.9 128.1,196.4 135.6,147.5 123.3,147.6 105.4,198.8 111.6,214.9 150.7,218.5 		"/>
		<g>
			<g>
				<path class="st18" d="M231.3,444.8h-14.7c-3.2,0-5.8-2.6-5.8-5.7l-12.6-42.7c0-3.2,2.6-5.7,5.8-5.7l32.1,9.7
					c3.2,0,5.8,2.6,5.8,5.7l-4.8,33C237.1,442.2,234.5,444.8,231.3,444.8z"/>
				<path class="st18" d="M332.5,444.8h14.7c3.2,0,5.8-2.6,5.8-5.7l12.6-42.7c0-3.2-2.6-5.7-5.8-5.7l-32.1,9.7
					c-3.2,0-5.8,2.6-5.8,5.7l4.8,33C326.7,442.2,329.3,444.8,332.5,444.8z"/>
				<path class="st19" d="M289.5,260.3v15.3h-14.2v-15.3c-59.1,3.1-89.8,44.4-89.8,91.7c0,49.2,43.4,89,96.9,89
					c53.5,0,96.9-39.9,96.9-89C379.4,304.7,348.7,263.4,289.5,260.3z"/>
				<g>
					<path class="st19" d="M199.8,251c-0.4,0-0.7,0.1-0.9,0.4c-0.2,0.3-19.2,31.2,4.2,62.8c0.2,0.3,0.5,0.4,0.8,0.4
						c0.2,0,0.3,0,0.5-0.1l44.1-25.6c0.4-0.2,0.6-0.8,0.4-1.2C248.7,287.4,233.5,254.4,199.8,251z"/>
					<path class="st19" d="M361.6,251.4c-0.2-0.3-0.6-0.5-0.9-0.4c-33.7,3.4-48.9,36.4-49.1,36.7c-0.2,0.5,0,1,0.4,1.2l44.1,25.6
						c0.2,0.1,0.3,0.1,0.5,0.1c0.3,0,0.6-0.1,0.8-0.4C380.8,282.6,361.8,251.7,361.6,251.4z"/>
				</g>
				<g>
					<ellipse class="st4" cx="258.1" cy="321.1" rx="6.3" ry="6.3"/>
					<ellipse class="st4" cx="306.8" cy="321.1" rx="6.3" ry="6.3"/>
				</g>
				<ellipse class="st20" cx="282.5" cy="364.3" rx="38" ry="28.4"/>
				<path class="st20" d="M209,410.2L209,410.2c17.8,18.9,44.1,30.9,73.4,30.9c53.5,0,96.9-39.9,96.9-89c0-10.4-1.5-20.5-4.4-30
					C340.8,466.6,209,410.2,209,410.2z"/>
			</g>
			<g>
				<g>
					<ellipse class="st1" cx="267.9" cy="362.8" rx="3.5" ry="5.8"/>
				</g>
				<g>
					<ellipse class="st1" cx="297" cy="362.8" rx="3.5" ry="5.8"/>
				</g>
			</g>
		</g>
		<g>
			<polygon class="st17" points="195.7,197.1 204.2,201.2 217,242.4 244.9,262.1 238.4,269.2 205.7,254.5 197.8,237.1 			"/>
			<polygon class="st17" points="244.1,261.3 249.8,263.5 244.8,271.6 237.4,271.7 234.1,266.4 			"/>
		</g>
	</g>
	<g>
		<g id="XMLID_639_">
			<g id="XMLID_641_">
				<polygon class="st2" points="60.6,444.6 60.1,449.6 50,454 45.6,448.6 50.9,444 61.1,439.6 				"/>
			</g>
			<g id="XMLID_640_">
				<polygon class="st21" points="69.1,342.9 61.3,443 51.5,444.4 43.4,359 36.7,332 				"/>
			</g>
		</g>
		<g id="XMLID_636_">
			<g id="XMLID_638_">
				<polygon class="st21" points="92.5,316.6 98.4,435.6 89.5,437.3 70.9,347.3 60.6,321.2 				"/>
			</g>
			<g id="XMLID_637_">
				<polygon class="st2" points="90.3,441.2 100.9,444.5 104.7,438.5 99,434.4 89.3,436.2 				"/>
			</g>
		</g>
		<g id="XMLID_635_">
			<path class="st22" d="M79.9,188.1c-7.2-6-24.7-2.5-33.8-2.5c0.9,0-8.7,51.2-9,55.7c-1.1,16.3-6.1,32.7-13.1,47.7
				c-2.9,6.3-6.4,12.3-8.5,19c-3.5,11-3.4,23.9-2.5,35.2c9.8,2.7,19.1,7.8,29.2,9.1c8.3,1.1,16.7-0.5,25.1-1.2
				c9.9-0.9,19.9-0.6,29.8-1.4c9.9-0.8,19.9-2.6,28.7-7.3c-3.9-7.6-6.9-15.6-9.5-23.8c-2.5-8.1-5.7-17.1-6.6-25.5
				c-0.8-7.6-1-15.4-2.1-23.1c-1.3-9-2.8-18-5-26.8c-2.5-10.1-5.7-20-9.7-29.6c-3-7.3-6.7-19.3-12.4-24.9
				C80.3,188.5,80.1,188.3,79.9,188.1z"/>
		</g>
		<g id="XMLID_631_">
			<g id="XMLID_633_">
				<g id="XMLID_634_">
					<path class="st11" d="M26,296.8c-0.4,2.6,1.7,9.2,4.1,10.6c5.6,3.3,3.6-5,3.5-8.1c1.1,0.3,2.1,0.6,3.2,0.7c1,0.1-2-8.8-2.9-9.7
						c-2.4-2-4-1-6.9-0.7C26.7,292.1,26.3,294.4,26,296.8z"/>
				</g>
			</g>
			<g id="XMLID_632_">
				<polygon class="st4" points="34.5,202.8 5.3,253.9 26.1,298.5 33.1,289.2 25.7,249.2 49.3,224.9 46.1,185.6 				"/>
			</g>
		</g>
		<g id="XMLID_627_">
			<g id="XMLID_629_">
				<g id="XMLID_630_">
					<path class="st11" d="M109.7,287.1c0.4,2.6-1.7,9.2-4.1,10.6c-5.6,3.3-3.6-5-3.5-8.1c-1.1,0.3-2.1,0.6-3.2,0.7
						c-1,0.1,2-8.8,2.9-9.7c2.4-2,4-1,6.9-0.7C109,282.4,109.3,284.8,109.7,287.1z"/>
				</g>
			</g>
			<g id="XMLID_628_">
				<polygon class="st4" points="92.5,197.1 115.3,229.5 109.5,288.9 102.5,279.5 98.7,235.6 86.3,215.3 75.6,185.6 				"/>
			</g>
		</g>
		<g id="XMLID_623_">
			<g id="XMLID_626_">
				<path class="st2" d="M64.5,160.4c4.6,0.8,10.2,4.7,11.3,9.6c0.5,2.3-0.2,4.5,0.4,6.9c1.3,4.9-4.6,12,1.2,15.4
					c3,1.7,6.7,1.2,10.2,0.6c0.4-0.1,0.8-0.2,1.2-0.4c0.5-0.4,0.6-1.2,0.4-1.9c-0.2-0.7-0.6-1.2-1-1.8c-4-6-3-14.7-4.6-21.5
					c-1.6-6.9-5.2-13.7-12-16.5c-3.4,2.2-5.8,5.8-6.7,9.7L64.5,160.4z"/>
			</g>
			<g id="XMLID_625_">
				<path class="st11" d="M70.3,189.9c4.4-1.9,7.3-6.4,8.3-11.1c1-4.7,0.2-9.6-1.1-14.2c-4.3-15.4-23.6-11-28.1,2.2
					C45.5,178.3,57.5,195.4,70.3,189.9z"/>
			</g>
			<g id="XMLID_624_">
				<path class="st2" d="M47.8,198.4c2.2-1.3,4.3-2.8,5.5-5.3c2-4.1,1.2-10.4,1.4-14.8c0.3-4.6,0.7-9.7,3.9-13.1
					c2.1-2.2,4.6-2.8,7.5-3.1c2-0.2,2.1,0.5,3.7-0.7c1.2-0.9,2.1-3.5,2.3-4.9c0.3-2.4-0.9-4.9-2.6-6.6c-2.7-2.7-5.7-3.8-9.4-3.6
					c-12.9,0.8-22,9.3-24.5,22.2c-1.2,6.2,0.6,12.8-0.7,18.8c-0.8,3.7-2.9,6.3-3.6,10.2c-1.6,10.2-6,23.3-4.7,33.6
					c0,0.4,0.1,0.8,0.4,1c0.6,0.5,1.4-0.2,1.9-0.9c2.7-3.7,5.3-7.4,8-11.1c1-1.4,2.1-2.9,2.7-4.6c1.5-4.2,0.1-9.3,2.7-12.9
					C43.8,200.8,45.8,199.6,47.8,198.4z"/>
			</g>
		</g>
	</g>
	<g>
		<g>
			<path class="st12" d="M101.3,317.8l-63.8-12.9c-1.9-0.4-3.2-2.4-2.7-4.5l18.2-90c0.4-2.1,2.3-3.5,4.3-3.1l63.8,12.9
				c1.9,0.4,3.2,2.4,2.7,4.5l-18.2,90C105.2,316.8,103.3,318.2,101.3,317.8z"/>
			<path class="st23" d="M71.5,268l-16.7-3.4c-1-0.2-1.7-1.3-1.5-2.4l3.5-17.4c0.2-1.1,1.3-1.9,2.3-1.6l16.7,3.4
				c1,0.2,1.7,1.3,1.5,2.4l-3.5,17.4C73.6,267.5,72.5,268.2,71.5,268z"/>
			<path class="st23" d="M102.3,274.3l-16.7-3.4c-1-0.2-1.7-1.3-1.5-2.4l3.5-17.4c0.2-1.1,1.3-1.9,2.3-1.6l16.7,3.4
				c1,0.2,1.7,1.3,1.5,2.4l-3.5,17.4C104.3,273.7,103.3,274.5,102.3,274.3z"/>
			<path class="st23" d="M65.7,296.6L49,293.2c-1-0.2-1.7-1.3-1.5-2.4l3.5-17.4c0.2-1.1,1.3-1.9,2.3-1.6l16.7,3.4
				c1,0.2,1.7,1.3,1.5,2.4L68,294.9C67.8,296,66.7,296.8,65.7,296.6z"/>
			<path class="st4" d="M96.5,302.8l-16.7-3.4c-1-0.2-1.7-1.3-1.5-2.4l3.5-17.4c0.2-1.1,1.3-1.9,2.3-1.6l16.7,3.4
				c1,0.2,1.7,1.3,1.5,2.4l-3.5,17.4C98.6,302.3,97.5,303,96.5,302.8z"/>
			<path class="st24" d="M66.5,255l4.7,1c0.3,0.1,0.5,0.2,0.7,0.5c0.2,0.2,0.2,0.5,0.1,0.8c-0.1,0.3-0.2,0.5-0.4,0.7
				c-0.2,0.1-0.5,0.2-0.8,0.1l-4.7-1l-1.1,5.3c-0.1,0.3-0.2,0.6-0.4,0.8c-0.2,0.2-0.5,0.2-0.8,0.2c-0.3-0.1-0.5-0.2-0.6-0.5
				c-0.2-0.3-0.2-0.5-0.1-0.8l1.1-5.3l-4.7-1c-0.3-0.1-0.5-0.2-0.7-0.4c-0.2-0.2-0.2-0.5-0.1-0.8c0.1-0.3,0.2-0.5,0.5-0.7
				c0.3-0.2,0.5-0.2,0.8-0.2l4.7,1l1.1-5.2c0.1-0.3,0.2-0.6,0.4-0.8c0.2-0.2,0.5-0.2,0.8-0.2c0.3,0.1,0.5,0.2,0.6,0.5
				c0.1,0.2,0.2,0.5,0.1,0.9L66.5,255z"/>
			<path class="st24" d="M90.5,262.3c-0.2,0-0.3-0.1-0.4-0.3c-0.1-0.1-0.1-0.3-0.1-0.5l0.3-1.5c0-0.2,0.1-0.3,0.2-0.4
				c0.1-0.1,0.3-0.1,0.4-0.1l10.8,2.2c0.2,0,0.3,0.1,0.4,0.2c0.1,0.1,0.1,0.3,0.1,0.5l-0.3,1.5c0,0.2-0.1,0.3-0.3,0.4
				c-0.2,0.1-0.3,0.1-0.5,0.1L90.5,262.3z"/>
			<path class="st24" d="M85.3,286.8c-0.2,0-0.3-0.1-0.4-0.3c-0.1-0.1-0.1-0.3-0.1-0.5l0.3-1.5c0-0.2,0.1-0.3,0.2-0.4
				c0.1-0.1,0.3-0.1,0.4-0.1l10.8,2.2c0.2,0,0.3,0.1,0.4,0.2c0.1,0.1,0.1,0.3,0.1,0.5l-0.3,1.5c0,0.2-0.1,0.3-0.3,0.4
				c-0.2,0.1-0.3,0.1-0.5,0.1L85.3,286.8z"/>
			<path class="st24" d="M84.2,292.3c-0.2,0-0.3-0.1-0.4-0.3c-0.1-0.1-0.1-0.3-0.1-0.5l0.3-1.5c0-0.2,0.1-0.3,0.2-0.4
				c0.1-0.1,0.3-0.1,0.4-0.1l10.8,2.2c0.2,0,0.3,0.1,0.4,0.2c0.1,0.1,0.1,0.3,0.1,0.5l-0.3,1.5c0,0.2-0.1,0.3-0.3,0.4
				c-0.2,0.1-0.3,0.1-0.5,0.1L84.2,292.3z"/>
			<g>
				<path class="st24" d="M53.9,283.9c-0.2,0-0.3-0.1-0.4-0.3c-0.1-0.1-0.1-0.3-0.1-0.5l0.3-1.5c0-0.2,0.1-0.3,0.2-0.4
					c0.1-0.1,0.3-0.1,0.4-0.1l10.8,2.2c0.2,0,0.3,0.1,0.4,0.2c0.1,0.1,0.1,0.3,0.1,0.5l-0.3,1.5c0,0.2-0.1,0.3-0.3,0.4
					c-0.2,0.1-0.3,0.1-0.5,0.1L53.9,283.9z"/>
				<path class="st24" d="M61.8,280.4c-0.2,0.8-0.9,1.4-1.7,1.2c-0.8-0.2-1.3-1-1.1-1.8c0.2-0.8,0.9-1.4,1.7-1.2
					C61.5,278.7,61.9,279.6,61.8,280.4z"/>
				<path class="st24" d="M60.4,287.4c-0.2,0.8-0.9,1.4-1.7,1.2c-0.8-0.2-1.3-1-1.1-1.8c0.2-0.8,0.9-1.4,1.7-1.2
					C60,285.7,60.5,286.5,60.4,287.4z"/>
			</g>
		</g>

			<rect x="79.4" y="201.8" transform="matrix(0.1985 -0.9801 0.9801 0.1985 -157.4174 269.8004)" class="st1" width="13.8" height="58.6"/>
	</g>
	<g id="XMLID_601_">
		<g id="XMLID_603_">
			<g id="XMLID_620_">
				<g id="XMLID_622_">
					<path class="st2" d="M511.8,431.8c1-1.1,2.1-1.7,3.5-1.5c1.3,0.2,2.4,1,2.9,2.2c0.4,0.8,0.4,1.6,0.5,2.5
						c0.4,4.4,0.3,14.8-5.5,16.3c-2.5,0.6-4.5-1.1-5.1-3.3C507.1,444.6,508.5,435.4,511.8,431.8z"/>
				</g>
				<g id="XMLID_621_">
					<path class="st3" d="M509.8,365.7l0.3,26.7c-0.4,11.9,1.5,23.8,1.1,35.7c-0.1,2.7-0.8,5.6-0.1,8.3c0.7,2.6,2.8,3.1,5,1.8
						c3-1.8,2.5-6,3-9c1.4-8.4,2.9-16.8,4.4-25.2c0.7-4.1-0.7-9.9-0.4-14c0,0,4.3-22.4,4.3-22.4L509.8,365.7z"/>
				</g>
			</g>
			<g id="XMLID_619_">
				<polygon class="st4" points="540.3,322.5 528.7,374.2 526.2,422.9 507.8,422.5 502.7,286.1 538.5,286.8 				"/>
			</g>
			<g id="XMLID_614_">
				<g id="XMLID_616_">
					<g id="XMLID_618_">
						<path class="st2" d="M485.5,430.8c1-1,2.2-1.6,3.5-1.3c1.2,0.3,2.3,1.2,2.8,2.4c0.3,0.8,0.4,1.7,0.4,2.5
							c0.2,4.4-0.3,14.8-6.2,16c-2.5,0.5-4.4-1.4-5-3.6C480.2,443.4,482,434.2,485.5,430.8z"/>
					</g>
					<g id="XMLID_617_">
						<path class="st3" d="M495.2,369.5l-1.6,26.7c-0.1,7.4-1.1,14.8-1.9,22.1c-0.7,6.8,0.4,14-3.2,20.2c-1.1,1.9-3.4,3.2-5,0.9
							c-1.2-1.8-0.5-4.9-0.7-6.9c-1-8.5-2.1-16.9-3.2-25.3c-0.5-4.1,1.2-9.8,1.1-14l-3.3-22.6L495.2,369.5z"/>
					</g>
				</g>
				<g id="XMLID_615_">
					<polygon class="st4" points="471.9,319.4 470.4,369.5 478.2,420.2 497,420.8 496.2,365.9 506.1,320.4 509.4,290.6 479.7,287.1
											"/>
				</g>
			</g>
			<g id="XMLID_613_">
				<polygon class="st25" points="495.4,184.5 527.5,183.8 546,218.3 539.4,250.7 538.3,289.5 492.5,290.1 477.5,287.6 481.5,246.2
					479.2,190.9 				"/>
			</g>
			<g id="XMLID_612_">
				<polygon class="st3" points="530.5,266.9 530.7,272.3 521.2,275.8 515.7,271.6 515.7,265.3 521,265 521.1,263.6 522.9,262.5
									"/>
			</g>
			<g id="XMLID_611_">
				<polygon class="st3" points="433.3,233.6 430.9,238.5 420.8,237.1 417.9,230.8 420.9,225.2 425.7,227.5 426.5,226.3
					428.6,226.2 				"/>
			</g>
			<g id="XMLID_610_">
				<polygon class="st25" points="528.5,186.2 564,227 565.7,244.9 530.7,272.5 524.4,263.4 547.1,239.3 525.2,217.8 				"/>
			</g>
			<g id="XMLID_609_">
				<polygon class="st25" points="494.2,205.5 477.5,238.9 459.9,244.2 425.6,239.4 430,228.2 461,225.7 479.2,190.9 				"/>
			</g>
			<g id="XMLID_604_">
				<g id="XMLID_608_">
					<path class="st3" d="M497.4,157.7c4.8-14,23.4-8.8,27.2,3.7c2.5,8.2-3.8,18.7-12.3,21.1c0,0.3-0.1,0.6-0.1,0.9
						c0,1.3-0.2,2.6-0.4,3.9c-0.1,0.5-7.5-0.9-8.3-1.1c-0.3-0.1-0.6-0.1-0.8-0.4c-0.3-0.5,0.2-1.8,0.2-2.3c0.1-0.6,0.1-1.2,0.2-1.8
						c-4.2-2-6.8-6.4-7.5-10.8C495,166.4,496,161.9,497.4,157.7z"/>
				</g>
				<g id="XMLID_605_">
					<g id="XMLID_607_">
						<path class="st4" d="M509.5,145c1,1,1.4,2.4,1.7,3.8c0.2,0.8,0.3,1.6,0.1,2.4c-0.7,3.2-3.9,3-6.3,4.1c-3,1.3-5.6,3.6-7.3,6.3
							c-2.6,4.2-1.5,9.6-0.4,14.3c0.4,1.6,1.1,4.1-0.1,5.5c-1.3,1.5-4.3,1.3-5.8,0.5c-1.4-0.7-2.6-2-4.1-2.2
							c-1.6-0.3-3.9,0.4-4.6-1.1c-0.2-0.4-0.2-0.9-0.5-1.3c-0.9-1.3-3.2,0.2-4.4-0.7c-0.8-0.6-0.8-1.8-0.5-2.7
							c0.3-0.9,0.7-1.9,0.5-2.9c-0.2-0.8-0.8-1.5-1.1-2.2c-0.7-1.5-0.5-3.4,0.6-4.7c2-2.3,5.9-1.9,8.1-4.1c1.1-1.1,1.6-2.8,2-4.4
							c0.4-1.6,0.9-3.2,2.1-4.3c1.5-1.3,3.6-1.1,5.1-2.6c0.9-0.9,1.4-2.1,2.4-2.9c1.3-1,3.8-1.8,5.4-2.4
							C504.8,142.5,507.6,143.1,509.5,145z"/>
					</g>
					<g id="XMLID_606_">
						<path class="st4" d="M521.2,167.4c0.1,4.6-2.2,9.6-0.1,13.7c2.1,4.1,7.5,4.8,12.1,5.1c0.8,0,10.4,0.9,10.4,0.7
							c0.7-3.2,1.5-6.5,3.2-9.3c1.7-2.8,4.5-5.2,7.7-5.4c-0.9-0.2-1.4-1.3-1.3-2.3c0.1-1,0.6-1.8,0.9-2.7c0.7-2.3,0-4.9-1.7-6.5
							c-3.4-3.2-9.6-1.9-12.5-5.5c-1.8-2.3-1.6-5.5-2.5-8.3c-1.8-5.3-7.7-6.5-12.1-8.9c-4.6-2.5-9-3.9-14.3-3.1
							c-6.6,1.1-11.5,7.8-9,14.1c3.3,8.1,16.3,7.4,18.8,15.7C521.1,165.6,521.2,166.5,521.2,167.4z"/>
					</g>
				</g>
			</g>
		</g>
		<g id="XMLID_602_">
			<polygon class="st26" points="518,184.4 508,198.4 503.4,198 495.6,183.8 			"/>
		</g>
		<g>
			<g>
				<g>
					<g>

							<ellipse transform="matrix(0.6567 -0.7542 0.7542 0.6567 -30.1437 440.2143)" class="st2" cx="468.4" cy="253.2" rx="42" ry="42"/>
						<path class="st7" d="M464.1,207.6c-25.2,2.4-43.7,24.7-41.3,49.9c2.4,25.2,24.7,43.7,49.9,41.3c25.2-2.4,43.7-24.7,41.3-49.9
							S489.3,205.3,464.1,207.6z M472,291.1c-20.9,2-39.5-13.4-41.5-34.4c-2-20.9,13.4-39.5,34.4-41.5c20.9-2,39.5,13.4,41.5,34.4
							C508.3,270.6,492.9,289.2,472,291.1z"/>
						<path class="st23" d="M463.7,202.9c-27.8,2.6-48.2,27.2-45.5,55c2.6,27.8,27.2,48.2,55,45.5c27.8-2.6,48.2-27.2,45.5-55
							C516.1,220.7,491.5,200.3,463.7,202.9z M472.3,295c-23.1,2.2-43.6-14.8-45.7-37.9c-2.2-23.1,14.8-43.6,37.9-45.7
							c23.1-2.2,43.6,14.8,45.7,37.9S495.4,292.9,472.3,295z"/>
					</g>
				</g>
				<g>
					<g>
						<path class="st1" d="M455.9,267c-0.5-0.3-0.7-1.1-0.9-1.7c-0.5-1.7,0.5-3.1,2.2-3.4c2.5-0.5,5.3,1.2,7.7,2.1
							c2,0.7,4.1,1,6.4,0.8c2.5-0.2,4.4-1,5.8-2.3c1.4-1.3,2-3,1.8-4.9c-0.2-2-0.9-3.3-2.2-4.1c-1.3-0.7-3.4-1-6.3-0.7l-1.9,0.2
							c-4.7,0.4-8.4-0.3-11.1-2c-2.7-1.8-4.2-4.5-4.5-8.3c-0.3-3.7,0.6-6.7,2.9-8.9c2.3-2.3,5.6-3.6,10-4c1.8-0.2,3.6,0,5.6,0.4
							c4,0.9,10.7,3.5,9.6,7.4c-1.2,4.5-8.5-1.2-11-2.1c-1.4-0.5-3.1-0.6-5-0.5c-2.2,0.2-3.9,0.9-5.1,2.2c-1.2,1.3-1.8,2.8-1.6,4.6
							c0.2,1.8,1,3,2.4,3.6c1.4,0.6,4.4,0.8,9,0.5c4.8-0.3,8.5,0.4,10.9,2.1c2.4,1.7,3.8,4.5,4.1,8.4c0.3,3.8-0.6,6.9-2.9,9.4
							c-2.3,2.5-5.5,3.9-9.7,4.3c-1.3,0.1-2.8,0.1-4.5-0.1C464.6,269.8,459.7,269.2,455.9,267z"/>
					</g>
					<path class="st1" d="M471.7,280.2L471.7,280.2c-1.5,0.1-2.8-1.1-2.9-2.8l-4.5-51.6c-0.1-1.7,0.9-3.1,2.4-3.3l0.1,0
						c1.4-0.1,2.7,1.1,2.9,2.8l4.5,51.6C474.2,278.6,473.1,280.1,471.7,280.2z"/>
				</g>
			</g>
		</g>
		<g>
			<g>
				<g>
					<g>

							<ellipse transform="matrix(0.6567 -0.7542 0.7542 0.6567 -31.9236 132.5215)" class="st2" cx="129.6" cy="101.3" rx="37.5" ry="37.5"/>
						<path class="st7" d="M125.8,60.6c-22.5,2.1-39,22.1-36.9,44.6c2.1,22.5,22.1,39,44.6,36.9c22.5-2.1,39-22.1,36.9-44.6
							S148.3,58.5,125.8,60.6z M132.8,135.2c-18.7,1.8-35.3-12-37.1-30.7c-1.8-18.7,12-35.3,30.7-37.1c18.7-1.8,35.3,12,37.1,30.7
							C165.2,116.9,151.5,133.5,132.8,135.2z"/>
						<path class="st23" d="M125.4,56.4c-24.8,2.3-43,24.3-40.7,49.1c2.3,24.8,24.3,43,49.1,40.7c24.8-2.3,43-24.3,40.7-49.1
							C172.2,72.3,150.2,54.1,125.4,56.4z M133.1,138.7c-20.6,1.9-38.9-13.2-40.9-33.9c-1.9-20.6,13.2-38.9,33.9-40.9
							C146.7,62,165,77.2,167,97.8S153.7,136.7,133.1,138.7z"/>
					</g>
				</g>
				<g>
					<g>
						<path class="st1" d="M118.4,113.7c-0.5-0.3-0.6-0.9-0.8-1.5c-0.4-1.5,0.4-2.8,2-3.1c2.3-0.5,4.8,1.1,6.9,1.9
							c1.8,0.7,3.7,0.9,5.7,0.7c2.2-0.2,3.9-0.9,5.2-2.1c1.2-1.2,1.8-2.7,1.6-4.4c-0.2-1.8-0.8-3-1.9-3.6c-1.1-0.7-3-0.9-5.6-0.6
							l-1.7,0.2c-4.2,0.4-7.5-0.2-9.9-1.8c-2.4-1.6-3.7-4-4-7.4c-0.3-3.3,0.6-5.9,2.6-8c2-2,5-3.2,8.9-3.5c1.6-0.1,3.3,0,5,0.4
							c3.6,0.8,9.5,3.1,8.6,6.6c-1,4-7.6-1.1-9.8-1.8c-1.3-0.4-2.8-0.6-4.5-0.4c-2,0.2-3.5,0.8-4.6,2c-1.1,1.1-1.6,2.5-1.4,4.1
							c0.1,1.6,0.8,2.6,2.1,3.2c1.3,0.6,4,0.7,8,0.5c4.3-0.3,7.6,0.4,9.7,1.9c2.1,1.5,3.4,4,3.7,7.5c0.3,3.4-0.6,6.2-2.6,8.4
							c-2,2.2-4.9,3.5-8.6,3.8c-1.2,0.1-2.5,0.1-4,0C126.2,116.2,121.8,115.6,118.4,113.7z"/>
					</g>
					<path class="st1" d="M132.5,125.4L132.5,125.4c-1.3,0.1-2.5-1-2.6-2.5l-4-46.1c-0.1-1.5,0.8-2.8,2.1-2.9l0,0
						c1.3-0.1,2.4,1,2.6,2.5l4,46.1C134.7,124,133.8,125.3,132.5,125.4z"/>
				</g>
			</g>
		</g>
	</g>
</g>
</svg>
