<svg xmlns="http://www.w3.org/2000/svg" xmlns:xlink="http://www.w3.org/1999/xlink" viewBox="0 0 670.72 444.32"><defs><style>.cls-1{fill:#17fca4;}.cls-2{fill:#fff;}.cls-3{fill:#005467;}.cls-4{fill:#f3cfc1;}.cls-5{fill:#33435a;}.cls-6{fill:#3a3029;}.cls-7{fill:#efc40f;}.cls-8{fill:#232020;opacity:0.1;}.cls-9{fill:url(#Degradado_sin_nombre_20);}.cls-10{fill:url(#Degradado_sin_nombre_20-2);}.cls-11{fill:url(#Degradado_sin_nombre_20-3);}.cls-12{fill:#de937a;}.cls-13{fill:#c2d69f;}.cls-14{fill:#babcbe;}.cls-15{fill:#363636;}.cls-16{fill:#bcbec0;}.cls-17{fill:#f299ca;}.cls-18{fill:#f40f82;}.cls-19{fill:#e2991a;}.cls-20{fill:#fcbc1d;}.cls-21{fill:#f4ad21;}.cls-22{fill:#a6d6ca;}.cls-23{fill:#ffd345;}.cls-24{fill:#00bcb9;}.cls-25{fill:#eee;}.cls-26{fill:#fdb037;}.cls-27{fill:#eceeee;}</style><linearGradient id="Degradado_sin_nombre_20" x1="569.56" y1="84.19" x2="670.72" y2="84.19" gradientUnits="userSpaceOnUse"><stop offset="0" stop-color="#efc40f"/><stop offset="0.07" stop-color="#ecc520"/><stop offset="0.22" stop-color="#e4c74c"/><stop offset="0.42" stop-color="#d7ca91"/><stop offset="0.58" stop-color="#ccc"/><stop offset="0.76" stop-color="#dbc97c"/><stop offset="1" stop-color="#efc40f"/></linearGradient><linearGradient id="Degradado_sin_nombre_20-2" x1="238.23" y1="161.15" x2="304.88" y2="161.15" gradientTransform="matrix(0.88, 0.47, -0.47, 0.88, 106.52, -108.06)" xlink:href="#Degradado_sin_nombre_20"/><linearGradient id="Degradado_sin_nombre_20-3" x1="231.5" y1="161.15" x2="311.6" y2="161.15" xlink:href="#Degradado_sin_nombre_20"/></defs><title>people</title><g id="Capa_2" data-name="Capa 2"><g id="Capa_4" data-name="Capa 4"><rect class="cls-1" x="323.91" y="20.35" width="181.59" height="89.62" transform="translate(-3.58 100.73) rotate(-13.79)"/><ellipse class="cls-2" cx="414.67" cy="65.44" rx="26.79" ry="40.28" transform="translate(-3.65 100.73) rotate(-13.79)"/><path class="cls-3" d="M489.32,4.37,321,45.54l-.61.15,19.25,80.63L508.5,84.87ZM351.08,120.64a11.22,11.22,0,0,1-9.57-7.77L331.13,72.58c-3.15-15.51,3.69-24.5,8.6-28.77L396.18,30a29.15,29.15,0,0,0-7.51,11.83c-3.17,8.77-3.47,19.45-.86,30.08s7.82,20,14.69,26.27a32.89,32.89,0,0,0,7.16,5.07l-14.22,3.49.7,2.83Zm75.64-21.57-7,1.71c-11.67.15-23.72-12.32-28-29.83-4.74-19.3,1.73-37.54,14.41-40.66S433,40.36,437.74,59.66C442,77.17,437.13,93.8,426.72,99.07Zm24.64-6-14.55,3.57a33,33,0,0,0,4-7.81c3.16-8.77,3.47-19.45.86-30.08s-7.83-20-14.69-26.27a29.35,29.35,0,0,0-12.11-7l56.51-13.82c6.36,1.68,16,6.66,20.28,21.36l9.46,40.51s1.69,6.93-5.38,11.66l-43.7,10.72Z"/><rect class="cls-3" x="344.87" y="74.9" width="34.28" height="5.31" transform="translate(-8.07 88.01) rotate(-13.71)"/><rect class="cls-3" x="451.33" y="48.93" width="34.28" height="5.31" transform="translate(1.12 112.5) rotate(-13.71)"/><polygon class="cls-4" points="299.52 202.49 287.44 198.01 284.4 185.22 291.39 183.6 297.09 191.33 301.75 191.6 306.16 198.66 299.52 202.49"/><polygon class="cls-5" points="378.7 176.51 336.71 207.16 300.08 191.33 294.71 201.21 322.44 220.11 337.99 225.92 378.7 206.32 378.7 176.51"/><polygon class="cls-4" points="435.35 112.97 436.25 100.12 425.85 92.07 421.49 97.77 426.19 106.16 424.51 110.52 429.12 117.44 435.35 112.97"/><polygon class="cls-3" points="352.96 258.96 352.12 331.69 359.88 425.31 370.41 425.31 383.02 338.93 397.44 252.41 352.96 258.96"/><polygon class="cls-6" points="370.35 429.75 358.96 435.45 353.26 429.75 358.96 424.06 370.35 424.06 370.35 429.75"/><polygon class="cls-3" points="425.22 258.96 425.43 301.03 418.32 425.31 407.78 425.31 390.15 342.84 380.74 252.41 425.22 258.96"/><polygon class="cls-6" points="407.84 429.75 419.24 435.45 424.93 429.75 419.24 424.06 407.84 424.06 407.84 429.75"/><path class="cls-5" d="M436.18,284.29c.22,6.68.08,15.61-2.73,15.94a2.83,2.83,0,0,1-1.5-.39c-4.89-2.38-8.37-5.74-13.19-8a59.72,59.72,0,0,0-16.4-4.53,169.2,169.2,0,0,0-25.28-2.21c-7.24-.07-14.76,3.23-21.6,5.05-2.64.7-4.78,2.62-7,4.12-3.23,2.22-4.64,3.1-4.2-1.44.71-7.41,1.46-14.82,2.37-22.21,1.82-14.74,4.3-29.44,8.48-43.71,1.6-5.45,3.45-10.83,5.3-16.2q3.36-9.81,6.74-19.63c2.79-8.13,7.5-13.86,15.75-16.7,7.14-2.46,16-3.13,22.93.31,7.71,3.82,11.38,16.85,15.13,23.82,3.28,6.1,7.42,22.75,8.65,29.33,1.47,7.91,2.84,15.8,3.92,23.66a241.82,241.82,0,0,1,2.27,26C435.88,278.44,436.07,281.1,436.18,284.29Z"/><path class="cls-2" d="M398.09,175.81l-14.25.13S368.56,229.35,368,238.55c-.55,9-4.41,45.68-4.41,45.68s15.77.37,33.94,2.58c17.77,3.8,19.26,1.55,19.26,1.55s-9.59-38.5-9.91-49.57c-.32-11.31-1.77-48.69-1.77-48.69Z"/><path class="cls-4" d="M389.45,176.08a1.77,1.77,0,0,0,.58.34,3.25,3.25,0,0,0,1.39,0l5.65-.66c-.62-5.77,2.75-7.08,6-10.79s2.3-8.83,2.11-13.43a9.75,9.75,0,0,0-.65-3.77c-.95-2-3.17-3.17-5.32-3.84-5.49-1.7-11.76-1.28-16.59,1.83a8.82,8.82,0,0,0-3.19,3.23c-1.07,2.1-.8,4.6-.5,6.94a23.4,23.4,0,0,0,3.56,10.15c1.89,2.83,5.5,4.18,5.92,7.57A3.82,3.82,0,0,0,389.45,176.08Z"/><path class="cls-5" d="M379.13,151.78c.32,1.45,1,2.92.64,4.36-2.3-.78-3.8-3.14-4.62-5.53a8.34,8.34,0,0,1-.54-3.38,4,4,0,0,1,1.49-2.95c1.27-.91,3.54-.55,3.9,1.09S378.65,149.6,379.13,151.78Z"/><path class="cls-5" d="M366.91,139.05a5.15,5.15,0,0,1,2.26-4.34c1.34-.9,2.89-1.65,3.7-3.09.63-1.12.72-2.5,1.35-3.61,1.13-2,3.59-2.63,5.72-3.31,5.35-1.72,8.23-3.7,13.9-1.5,4,1.56,9.23,1.77,13,4a13,13,0,0,1,4,4.19c3.78,5.9,4.69,14.2,2.23,20.36a25.13,25.13,0,0,1-2,3.86c-1.5,2.42-3.1,5.41-5.75,6.6-.16-1.15-1-1.78-1.28-2.9a9,9,0,0,1-.09-2.49c.17-3.24,1.16-8.36-2.07-10-4.09-2-11.76-.2-15.7,1.52-3.48,1.52-9.36,3.5-13.08,1.87C369.59,148.79,366.79,142.76,366.91,139.05Z"/><polygon class="cls-5" points="402.65 173.92 438.81 163.26 425.43 118.06 436.45 110.15 463.07 162.48 455.71 180.6 421.17 198.43 402.65 173.92"/><circle class="cls-7" cx="620.14" cy="84.19" r="42.07" transform="translate(32.33 298.99) rotate(-27.8)"/><path class="cls-8" d="M634.29,40.56a45.87,45.87,0,1,0,29.48,57.77A45.86,45.86,0,0,0,634.29,40.56Zm-25.92,79.93A38.16,38.16,0,1,1,656.44,96,38.17,38.17,0,0,1,608.37,120.49Z"/><path class="cls-9" d="M635.74,36.09a50.56,50.56,0,1,0,32.5,63.7A50.57,50.57,0,0,0,635.74,36.09Zm-28.57,88.12a42.07,42.07,0,1,1,53-27A42.07,42.07,0,0,1,607.17,124.21Z"/><path class="cls-2" d="M603.17,92a3.09,3.09,0,0,1,3.25-4.23c2.54.51,4.42,3.19,6.29,5a14.44,14.44,0,0,0,5.6,3.29,9.25,9.25,0,0,0,6.23.16,5.81,5.81,0,0,0,3.62-3.81,4.82,4.82,0,0,0-.38-4.61c-.88-1.17-2.7-2.22-5.48-3.14L620.47,84q-6.79-2.25-9.42-6.26t-.83-9.41a10.63,10.63,0,0,1,6.19-7q4.44-1.76,10.74.32a18,18,0,0,1,4.94,2.59c3.3,2.42,8.43,7.43,5.91,10.67-2.86,3.7-7.31-4.51-9.26-6.24a12.54,12.54,0,0,0-4.41-2.41,7.87,7.87,0,0,0-5.6,0,5.64,5.64,0,0,0-3.31,3.58A4,4,0,0,0,616.2,74q1.6,1.73,8,4,6.86,2.49,9.16,6.25t.44,9.39a11.75,11.75,0,0,1-6.39,7.46q-4.61,2.07-10.59.09a25.59,25.59,0,0,1-4.09-1.82C610.06,98,605.77,95.42,603.17,92Z"/><path class="cls-2" d="M612.42,110.29l0,0a2.85,2.85,0,0,1-1.54-3.71l16.3-49.24a2.86,2.86,0,0,1,3.45-2.07l0,0A2.86,2.86,0,0,1,632.17,59l-16.3,49.24A2.85,2.85,0,0,1,612.42,110.29Z"/><circle class="cls-10" cx="271.55" cy="161.15" r="33.32" transform="translate(-43.82 145.27) rotate(-27.8)"/><path class="cls-8" d="M282.75,126.61a36.32,36.32,0,1,0,23.35,45.75A36.3,36.3,0,0,0,282.75,126.61ZM262.23,189.9a30.22,30.22,0,1,1,38.06-19.43A30.22,30.22,0,0,1,262.23,189.9Z"/><path class="cls-11" d="M283.9,123.07a40,40,0,1,0,25.74,50.43A40,40,0,0,0,283.9,123.07Zm-22.62,69.78a33.32,33.32,0,1,1,42-21.42A33.32,33.32,0,0,1,261.28,192.85Z"/><path class="cls-2" d="M258.11,167.31a2.14,2.14,0,0,1-.1-1.53,2.11,2.11,0,0,1,2.67-1.82c2,.4,3.51,2.53,5,3.94a11.6,11.6,0,0,0,4.43,2.61,7.24,7.24,0,0,0,4.93.12,4.58,4.58,0,0,0,2.87-3,3.79,3.79,0,0,0-.3-3.64q-1-1.4-4.34-2.49l-1.45-.48q-5.37-1.78-7.46-5a8.3,8.3,0,0,1-.66-7.46,8.43,8.43,0,0,1,4.9-5.57c2.35-.93,5.18-.85,8.51.25a14.12,14.12,0,0,1,3.91,2.05c2.61,1.91,6.67,5.88,4.69,8.45-2.27,2.93-5.8-3.57-7.34-4.94a10,10,0,0,0-3.49-1.91,6.19,6.19,0,0,0-4.43,0,4.45,4.45,0,0,0-2.63,2.84,3.14,3.14,0,0,0,.62,3.36q1.27,1.36,6.37,3.2c3.62,1.32,6,3,7.26,4.95s1.33,4.46.35,7.43a9.31,9.31,0,0,1-5.06,5.91,11.25,11.25,0,0,1-8.39.07,20,20,0,0,1-3.24-1.44C263.57,172.05,260.17,170.05,258.11,167.31Z"/><path class="cls-2" d="M265.44,181.82h0a2.25,2.25,0,0,1-1.22-2.94l12.9-39a2.27,2.27,0,0,1,2.74-1.63h0a2.28,2.28,0,0,1,1.22,2.95l-12.91,39A2.26,2.26,0,0,1,265.44,181.82Z"/><polygon class="cls-12" points="647.29 132.91 648.85 119.69 634.47 113.55 631.8 119.66 638.57 129.6 640.21 135.66 647.29 132.91"/><polygon class="cls-13" points="580.63 195.77 563.24 222.48 551.91 244.11 556.05 252.49 571.12 248.28 580.63 195.77"/><polygon class="cls-14" points="601.48 290.08 601.48 303.6 583.45 362.2 587.95 423.05 576.68 425.3 558.65 350.93 559.35 329.05 567.67 284.42 601.48 290.08"/><polygon class="cls-15" points="578.16 424.15 569.56 433.25 572.05 437.87 589.8 429.35 586.53 422.6 578.16 424.15"/><polygon class="cls-15" points="605.44 428.31 594.84 434.97 596.09 440.06 615.41 436.25 613.93 428.9 605.44 428.31"/><path class="cls-13" d="M580.57,195.7l26.83-10.64s9.53,23.68,20.37,61.61-5,86.21-5,86.21-61.45-14.6-73.72-17l15.39-69.33Z"/><polygon class="cls-16" points="587.17 306.09 605.29 430.05 613.52 430.05 618.73 362.43 630 294.82 587.17 306.09"/><path class="cls-12" d="M579.69,158.49c7.3.54,14.13-5.46,21.32-4,4.67,1,8.36,5.11,9.79,9.78a11.77,11.77,0,0,1,.25,6.72,11.46,11.46,0,0,1-2.12,3.8,16.09,16.09,0,0,1-4.39,3.71,27.52,27.52,0,0,0,3.13,4.15l-10.11,3.87c-.74-1.93-1.49-3.87-2.23-5.81a15.3,15.3,0,0,1-3-.45,17.46,17.46,0,0,1-12.28-13A33.87,33.87,0,0,1,579.69,158.49Z"/><polygon class="cls-5" points="581.53 160.69 604.11 158.01 608.5 175.26 614.87 170.2 611.59 141.97 579.72 141.29 565.92 149.38 566.5 157.5 578.84 165.8 581.53 160.69"/><path class="cls-13" d="M637.89,241c-10.83-37.93-20.22-61.65-20.22-61.65L590.7,190l0,.14c.59,1.55,1.21,3.09,1.75,4.66a108.54,108.54,0,0,1,4.66,19.07,195.3,195.3,0,0,1,1.51,34.61,225.89,225.89,0,0,1-3.45,32.92,222.4,222.4,0,0,1-12,41.91c24.95,5.07,54.31,11.06,54.31,11.06S648.73,278.93,637.89,241Z"/><polygon class="cls-13" points="613.85 182.58 637.5 171.25 637.47 133.1 647.71 130.37 659.18 175.21 655.26 181.84 621.71 207.85 613.85 182.58"/><polygon class="cls-13" points="566.12 230.52 568.79 198.83 555.81 198.83 545.88 242.36 552.76 255.72 563.81 250.32 566.12 230.52"/><polygon class="cls-12" points="557.34 198.83 557.34 188.13 565.36 185.08 572.61 190.81 572.61 195.77 567.27 198.83 557.34 198.83"/><polygon class="cls-4" points="117.6 142.04 119.15 129.1 129.26 123.27 132.19 130.23 127.35 138.16 127.35 144.65 117.6 142.04"/><path class="cls-5" d="M195.12,430.42l-9.06-8.36a17.75,17.75,0,0,0-7.65-2.23,4.19,4.19,0,0,0-4.22,5.82,5.4,5.4,0,0,0,.79,1.27h0c.27.33.56.65.86,1s.39.42.61.64c1.87,2,5,5.34,6.26,6.08,1.83,1.1,5.85,4,10.6.74l-.06-.05A4.59,4.59,0,0,0,195.12,430.42Z"/><path class="cls-4" d="M188,357.61l-.73,10.49-3.59,51.08,3.59,5.94s.73,4.75-4.75,4.39c-1.63-.11-7.41-7.46-7.41-7.46l.84-3.36-4.07-38.35,0-11.14-2-12.37Z"/><path class="cls-5" d="M130.63,417.45a4.67,4.67,0,0,0-4.51.55,4.73,4.73,0,0,0-1.78,4,8.58,8.58,0,0,0,.93,2.86c2.19,4.74,8.32,15.45,15.35,13.49,3-.82,4.08-3.84,3.48-6.51C143.19,427.83,136.27,419.22,130.63,417.45Z"/><path class="cls-4" d="M166.09,351.48l-1.23,15.11L135.2,420s4.27,7.45,1.56,8.1-10.63-1.61-10.65-10c3.12-10.18,15.38-44.77,15.38-44.77l5.74-8.92-.09-16.77Z"/><path class="cls-17" d="M132.58,300.91c-.24-4.46,1.19-16.08,2.65-20.24,5.34-15.18,6.37-22.66,6.37-35s-5.49-51.54-5.49-51.54l18.46-10.52,23.42-.27,12.28,5.32s3.09,48.15,3.85,64c.54,11.34,1.33,21.16,2.37,34.3a298.55,298.55,0,0,1-1.59,62.09s-1,10.66-1.45,11.6c-.06.31-.09.48-.09.48h-51v-18.3q-2.53-8.82-4.83-17.7C135.61,317.63,133,309.17,132.58,300.91Z"/><path class="cls-18" d="M143.32,186.13l-8.67,6.52s6.59,45.12,6.95,53S131.8,285,131.8,285l42,5.48s6.18-33.6,8-50.3-23.66-57.39-23.66-57.39Z"/><path class="cls-18" d="M185.46,185.34l8.58,4.07s-1.21,50.16,1,62.9c1.34,7.77,6.56,32.92,6.56,32.92L188,289.88s-8.36-31.46-10-48.16.15-58.21.15-58.21Z"/><path class="cls-5" d="M183.8,167c1.11,4.31-1.45,8.57-3.69,12.2-.91,1.49-2.33,3.55-1.15,5.25,1.32,1.9,4.6,1.52,6,.1a8.83,8.83,0,0,0,2-3.69c1.95-5.93,4.67-14.25,4.14-20.49-.43-5-6.57-13.89-12.89-10.71a6.55,6.55,0,0,0-2.51,2.73,5,5,0,0,0-.81,2c-.3,2.9,2.49,3.64,4.33,5.2A14.73,14.73,0,0,1,183.8,167Z"/><path class="cls-4" d="M173.25,182.44a13.15,13.15,0,0,0,9.64-7,23.66,23.66,0,0,0,2.26-11.62c-.24-13.27-17.83-14-24.67-4.47C154.52,167.61,161,184,173.25,182.44Z"/><path class="cls-5" d="M161.24,165.57c-.14,1.61-1,3.31-1.19,5-.41,3,.27,7-.84,9.75a18.68,18.68,0,0,1-9.12-4.46c-2.34-2.17-1.92-5.38-2.44-8.56a41.12,41.12,0,0,1-.93-8.89c.92-16.31,17.2-25.23,31.54-17.88,5.43,2.79,7.8,9.86,3.81,14.51-4.29,5-13,2.84-18.15,6.55A8.78,8.78,0,0,0,161.24,165.57Z"/><path class="cls-4" d="M173.6,181.07c-.21,1-.43,2-.64,3-.1.45-.06,1.75-.45,2.06a1.06,1.06,0,0,1-.77.1c-.77-.09-7.59-1-7.52-1.4a23.12,23.12,0,0,1,.79-3.41c.29-.9.4-2.59.94-3.27a12.43,12.43,0,0,0,3.73,1.67c1.32.37,2.64.72,4,1.05Z"/><polygon class="cls-18" points="156.28 184.26 122.78 186.69 130.29 137.86 118.06 137.92 100.12 189.12 106.35 205.24 145.39 208.85 156.28 184.26"/><path class="cls-19" d="M226.07,435.12H211.42a5.76,5.76,0,0,1-5.76-5.75l-12.59-42.7a5.74,5.74,0,0,1,5.75-5.74l32.1,9.67a5.76,5.76,0,0,1,5.75,5.75l-4.85,33A5.75,5.75,0,0,1,226.07,435.12Z"/><path class="cls-19" d="M327.21,435.12h14.65a5.76,5.76,0,0,0,5.76-5.75l12.59-42.7a5.74,5.74,0,0,0-5.75-5.74l-32.1,9.67a5.76,5.76,0,0,0-5.75,5.75l4.84,33A5.76,5.76,0,0,0,327.21,435.12Z"/><path class="cls-20" d="M284.27,250.63v15.29H270.1V250.63c-59.14,3.05-89.81,44.43-89.81,91.74,0,49.17,43.38,89,96.9,89s96.89-39.86,96.89-89C374.08,295.06,343.46,253.68,284.27,250.63Z"/><path class="cls-20" d="M194.52,241.3a1,1,0,0,0-.91.45c-.2.31-19.24,31.21,4.21,62.81a1,1,0,0,0,1.27.26l44.11-25.57a1,1,0,0,0,.39-1.24C243.44,277.68,228.22,244.71,194.52,241.3Z"/><path class="cls-20" d="M356.28,241.75a1,1,0,0,0-.91-.45c-33.7,3.41-48.93,36.38-49.08,36.71a1,1,0,0,0,.4,1.24l44.11,25.57a1,1,0,0,0,.49.13,1,1,0,0,0,.78-.39C375.52,273,356.48,242.06,356.28,241.75Z"/><ellipse class="cls-5" cx="252.85" cy="311.37" rx="6.33" ry="6.32"/><ellipse class="cls-5" cx="301.52" cy="311.37" rx="6.33" ry="6.32"/><ellipse class="cls-21" cx="277.19" cy="354.65" rx="37.98" ry="28.36"/><path class="cls-21" d="M203.77,400.47h0c17.77,18.94,44.07,30.93,73.42,30.93,53.51,0,96.89-39.86,96.89-89a101.17,101.17,0,0,0-4.43-30C335.5,456.89,203.77,400.47,203.77,400.47Z"/><ellipse class="cls-2" cx="262.66" cy="353.13" rx="3.46" ry="5.83"/><ellipse class="cls-2" cx="291.71" cy="353.13" rx="3.46" ry="5.83"/><polygon class="cls-18" points="190.4 187.44 198.97 191.51 211.74 232.76 239.62 252.41 233.08 259.47 200.46 244.84 192.48 227.4 190.4 187.44"/><polygon class="cls-18" points="238.81 251.67 244.5 253.81 239.49 261.89 232.11 262.04 228.79 256.72 238.81 251.67"/><g id="_Grupo_" data-name="&lt;Grupo&gt;"><g id="_Grupo_2" data-name="&lt;Grupo&gt;"><polygon class="cls-3" points="55.35 434.95 54.87 439.97 44.71 444.32 40.35 438.97 45.67 434.28 55.83 429.93 55.35 434.95"/></g><g id="_Grupo_3" data-name="&lt;Grupo&gt;"><polygon class="cls-22" points="63.84 333.23 56.01 433.37 46.22 434.69 38.12 349.35 31.42 322.27 63.84 333.23"/></g></g><g id="_Grupo_4" data-name="&lt;Grupo&gt;"><g id="_Grupo_5" data-name="&lt;Grupo&gt;"><polygon class="cls-22" points="87.25 306.95 93.12 425.94 84.19 427.62 65.58 337.59 55.34 311.52 87.25 306.95"/></g><g id="_Grupo_6" data-name="&lt;Grupo&gt;"><polygon class="cls-3" points="84.98 431.56 95.59 434.8 99.47 428.83 93.69 424.68 84.03 426.5 84.98 431.56"/></g></g><g id="_Grupo_7" data-name="&lt;Grupo&gt;"><path class="cls-23" d="M74.62,178.44c-7.23-6-24.66-2.55-33.84-2.55.89,0-8.69,51.21-9,55.67-1.11,16.28-6.15,32.75-13.11,47.66-2.94,6.28-6.44,12.34-8.52,19-3.46,11-3.45,23.88-2.48,35.22,9.85,2.71,19.07,7.77,29.19,9.09,8.33,1.08,16.74-.46,25.11-1.2,9.89-.87,19.85-.64,29.76-1.4s19.91-2.58,28.68-7.25A143.84,143.84,0,0,1,111,308.89c-2.5-8.09-5.71-17.08-6.62-25.52-.82-7.63-1-15.39-2.06-23.12-1.29-9-2.85-17.95-5-26.78a201.23,201.23,0,0,0-9.7-29.6c-3-7.31-6.67-19.27-12.37-24.89A7.7,7.7,0,0,0,74.62,178.44Z"/></g><g id="_Grupo_8" data-name="&lt;Grupo&gt;"><g id="_Grupo_9" data-name="&lt;Grupo&gt;"><g id="_Grupo_10" data-name="&lt;Grupo&gt;"><path class="cls-12" d="M20.69,287.11c-.37,2.58,1.7,9.19,4.12,10.63,5.59,3.31,3.56-5,3.51-8.06a17,17,0,0,0,3.18.72c1,.08-1.95-8.83-2.93-9.66-2.36-2-4-1-6.89-.66C21.41,282.42,21,284.77,20.69,287.11Z"/></g></g><g id="_Grupo_11" data-name="&lt;Grupo&gt;"><polygon class="cls-5" points="29.27 193.1 0 244.2 20.82 288.84 27.87 279.51 20.44 239.56 44.03 215.25 40.78 175.89 29.27 193.1"/></g></g><g id="_Grupo_12" data-name="&lt;Grupo&gt;"><g id="_Grupo_13" data-name="&lt;Grupo&gt;"><g id="_Grupo_14" data-name="&lt;Grupo&gt;"><path class="cls-12" d="M104.39,277.45c.38,2.58-1.69,9.19-4.11,10.62-5.59,3.32-3.57-5-3.51-8.05a17,17,0,0,1-3.18.72c-1,.08,2-8.83,2.93-9.66,2.36-2,4-1,6.89-.67C103.68,272.76,104.06,275.1,104.39,277.45Z"/></g></g><g id="_Grupo_15" data-name="&lt;Grupo&gt;"><polygon class="cls-5" points="87.24 187.44 110.06 219.82 104.27 279.18 97.22 269.85 93.39 225.92 81.06 205.58 70.36 175.89 87.24 187.44"/></g></g><g id="_Grupo_16" data-name="&lt;Grupo&gt;"><g id="_Grupo_17" data-name="&lt;Grupo&gt;"><path class="cls-3" d="M59.26,150.76c4.58.83,10.23,4.75,11.33,9.58.53,2.33-.22,4.47.44,6.94,1.3,4.87-4.59,12.05,1.24,15.43,3,1.74,6.75,1.18,10.16.56a2.5,2.5,0,0,0,1.17-.42,1.8,1.8,0,0,0,.43-1.91,6.82,6.82,0,0,0-1-1.79c-4-6-3-14.68-4.59-21.54s-5.24-13.68-12-16.49a15.62,15.62,0,0,0-6.69,9.7Z"/></g><g id="_Grupo_18" data-name="&lt;Grupo&gt;"><path class="cls-12" d="M65,180.26c4.4-1.89,7.32-6.37,8.28-11.07s.2-9.59-1.09-14.2c-4.32-15.36-23.6-11-28.09,2.17C40.19,168.61,52.19,185.74,65,180.26Z"/></g><g id="_Grupo_19" data-name="&lt;Grupo&gt;"><path class="cls-3" d="M42.57,188.71c2.16-1.35,4.28-2.76,5.54-5.27,2-4.06,1.17-10.37,1.41-14.77.25-4.64.68-9.7,3.86-13.09,2.08-2.22,4.64-2.82,7.52-3.12,2-.2,2.12.54,3.71-.66,1.21-.93,2.1-3.45,2.27-4.9a8.21,8.21,0,0,0-2.63-6.62,11.55,11.55,0,0,0-9.38-3.62c-12.93.82-22,9.29-24.52,22.21-1.23,6.21.64,12.85-.73,18.84-.85,3.7-2.95,6.29-3.56,10.21-1.57,10.15-6,23.35-4.69,33.6a1.46,1.46,0,0,0,.44,1c.62.46,1.44-.24,1.89-.87l8-11.06A19.59,19.59,0,0,0,34.4,206c1.51-4.18.1-9.3,2.71-12.91C38.53,191.15,40.57,190,42.57,188.71Z"/></g></g><path class="cls-13" d="M96,308.09,32.26,295.17a3.73,3.73,0,0,1-2.75-4.49l18.24-90A3.73,3.73,0,0,1,52,197.59l63.78,12.92a3.73,3.73,0,0,1,2.75,4.49l-18.24,90A3.73,3.73,0,0,1,96,308.09Z"/><path class="cls-24" d="M66.22,258.35,49.51,255A2,2,0,0,1,48,252.56l3.54-17.44a2,2,0,0,1,2.29-1.64l16.7,3.38a2,2,0,0,1,1.47,2.4l-3.53,17.45A2,2,0,0,1,66.22,258.35Z"/><path class="cls-24" d="M97,264.59l-16.7-3.39a2,2,0,0,1-1.48-2.4l3.54-17.45a2,2,0,0,1,2.29-1.64l16.7,3.39a2,2,0,0,1,1.47,2.4L99.3,263A2,2,0,0,1,97,264.59Z"/><path class="cls-24" d="M60.44,286.87l-16.7-3.38a2,2,0,0,1-1.48-2.4l3.54-17.45A2,2,0,0,1,48.09,262l16.7,3.38a2,2,0,0,1,1.47,2.41l-3.53,17.44A2,2,0,0,1,60.44,286.87Z"/><path class="cls-5" d="M91.23,293.11l-16.7-3.38a2,2,0,0,1-1.47-2.4l3.53-17.45a2,2,0,0,1,2.29-1.64l16.7,3.38a2,2,0,0,1,1.48,2.4l-3.54,17.45A2,2,0,0,1,91.23,293.11Z"/><path class="cls-25" d="M61.19,245.3l4.75,1a1,1,0,0,1,.67.46,1.07,1.07,0,0,1,.14.82,1,1,0,0,1-.43.67,1,1,0,0,1-.8.13l-4.75-1-1.06,5.26a1.22,1.22,0,0,1-.43.76.9.9,0,0,1-.77.17.92.92,0,0,1-.62-.48,1.17,1.17,0,0,1-.13-.84L58.83,247,54.11,246a1.06,1.06,0,0,1-.7-.44,1,1,0,0,1-.14-.78,1,1,0,0,1,.46-.68,1,1,0,0,1,.8-.18l4.72,1,1.06-5.25a1.19,1.19,0,0,1,.44-.76.94.94,0,0,1,.77-.17.91.91,0,0,1,.64.46,1.29,1.29,0,0,1,.1.86Z"/><path class="cls-25" d="M85.19,252.67a.53.53,0,0,1-.38-.26.8.8,0,0,1,0-.52l.3-1.48a.6.6,0,0,1,.24-.39.55.55,0,0,1,.44-.08l10.83,2.2a.67.67,0,0,1,.44.25.57.57,0,0,1,.09.45l-.31,1.49a.66.66,0,0,1-.28.42.63.63,0,0,1-.49.11Z"/><path class="cls-25" d="M80.05,277.16a.55.55,0,0,1-.38-.26.78.78,0,0,1,0-.51l.3-1.49a.6.6,0,0,1,.24-.39.55.55,0,0,1,.44-.07l10.83,2.19a.71.71,0,0,1,.44.25.56.56,0,0,1,.09.46l-.3,1.48a.68.68,0,0,1-.29.42.59.59,0,0,1-.49.11Z"/><path class="cls-25" d="M79,282.61a.51.51,0,0,1-.38-.26.72.72,0,0,1,0-.51l.3-1.49a.59.59,0,0,1,.23-.39.57.57,0,0,1,.45-.07l10.83,2.19a.71.71,0,0,1,.44.25.56.56,0,0,1,.08.46l-.3,1.49a.65.65,0,0,1-.29.41.57.57,0,0,1-.48.11Z"/><path class="cls-25" d="M48.66,274.17a.52.52,0,0,1-.38-.25.8.8,0,0,1-.05-.52l.3-1.49a.65.65,0,0,1,.24-.39.59.59,0,0,1,.44-.07L60,273.65a.67.67,0,0,1,.44.25.56.56,0,0,1,.09.45l-.31,1.49a.66.66,0,0,1-.28.42.68.68,0,0,1-.49.11Z"/><path class="cls-25" d="M56.5,270.71a1.44,1.44,0,1,1-1.1-1.8A1.48,1.48,0,0,1,56.5,270.71Z"/><path class="cls-25" d="M55.09,277.7a1.44,1.44,0,1,1-1.1-1.79A1.49,1.49,0,0,1,55.09,277.7Z"/><rect class="cls-2" x="74.1" y="192.15" width="13.76" height="58.64" transform="translate(-152.15 256.87) rotate(-78.55)"/><g id="_Grupo_20" data-name="&lt;Grupo&gt;"><g id="_Grupo_21" data-name="&lt;Grupo&gt;"><g id="_Grupo_22" data-name="&lt;Grupo&gt;"><g id="_Grupo_23" data-name="&lt;Grupo&gt;"><path class="cls-3" d="M506.57,422.08A3.82,3.82,0,0,1,510,420.6a3.92,3.92,0,0,1,2.9,2.19,7.45,7.45,0,0,1,.5,2.48c.36,4.38.33,14.78-5.51,16.28-2.45.62-4.48-1.12-5.13-3.32C501.79,434.92,503.25,425.73,506.57,422.08Z"/></g><g id="_Grupo_24" data-name="&lt;Grupo&gt;"><path class="cls-4" d="M504.49,356l.31,26.71c-.36,11.87,1.49,23.8,1.14,35.66-.08,2.73-.79,5.61-.11,8.31s2.82,3.11,5,1.77c3-1.79,2.48-6,3-9,1.36-8.4,2.94-16.76,4.35-25.15.7-4.12-.73-9.88-.42-14l4.31-22.38Z"/></g></g><g id="_Grupo_25" data-name="&lt;Grupo&gt;"><polygon class="cls-5" points="535.01 312.87 523.38 364.5 520.91 413.27 502.48 412.86 497.47 276.45 533.2 277.1 535.01 312.87"/></g><g id="_Grupo_26" data-name="&lt;Grupo&gt;"><g id="_Grupo_27" data-name="&lt;Grupo&gt;"><g id="_Grupo_28" data-name="&lt;Grupo&gt;"><path class="cls-3" d="M480.2,421.11a3.77,3.77,0,0,1,3.51-1.28,4,4,0,0,1,2.79,2.36,7.42,7.42,0,0,1,.39,2.52c.18,4.4-.3,14.81-6.18,16-2.47.48-4.41-1.38-5-3.62C474.9,433.67,476.74,424.57,480.2,421.11Z"/></g><g id="_Grupo_29" data-name="&lt;Grupo&gt;"><path class="cls-4" d="M489.92,359.77l-1.57,26.67c-.13,7.41-1.11,14.76-1.88,22.12-.71,6.84.4,14-3.18,20.18-1.12,1.95-3.38,3.25-5,.88-1.22-1.83-.5-4.87-.73-6.94-1-8.46-2.15-16.89-3.16-25.33-.5-4.15,1.2-9.84,1.08-14l-3.25-22.56Z"/></g></g><g id="_Grupo_30" data-name="&lt;Grupo&gt;"><polygon class="cls-5" points="466.59 309.71 465.09 359.83 472.96 410.52 491.71 411.08 490.88 356.23 500.8 310.73 504.13 280.95 474.38 277.44 466.59 309.71"/></g></g><g id="_Grupo_31" data-name="&lt;Grupo&gt;"><polygon class="cls-26" points="490.13 174.86 522.18 174.1 540.76 208.66 534.16 241.03 532.98 279.77 487.26 280.39 472.22 277.95 476.21 236.56 473.92 181.26 490.13 174.86"/></g><g id="_Grupo_32" data-name="&lt;Grupo&gt;"><polygon class="cls-4" points="525.27 257.22 525.44 262.63 515.9 266.1 510.4 261.93 510.4 255.64 515.71 255.34 515.87 253.96 517.61 252.84 525.27 257.22"/></g><g id="_Grupo_33" data-name="&lt;Grupo&gt;"><polygon class="cls-4" points="428 223.95 425.61 228.81 415.55 227.38 412.66 221.12 415.61 215.57 420.44 217.8 421.24 216.66 423.3 216.49 428 223.95"/></g><g id="_Grupo_34" data-name="&lt;Grupo&gt;"><polygon class="cls-26" points="523.24 176.48 558.74 217.32 560.47 235.2 525.46 262.84 519.18 253.75 541.82 229.58 519.88 208.1 523.24 176.48"/></g><g id="_Grupo_35" data-name="&lt;Grupo&gt;"><polygon class="cls-26" points="488.97 195.8 472.27 229.18 454.65 234.48 420.33 229.77 424.75 218.49 455.7 215.97 473.92 181.26 488.97 195.8"/></g><g id="_Grupo_36" data-name="&lt;Grupo&gt;"><g id="_Grupo_37" data-name="&lt;Grupo&gt;"><path class="cls-4" d="M492.13,148c4.83-14,23.38-8.79,27.2,3.72,2.5,8.16-3.8,18.75-12.26,21.09a7.22,7.22,0,0,0-.06.88,27.22,27.22,0,0,1-.37,3.91c-.07.49-7.47-.94-8.29-1.1a1.08,1.08,0,0,1-.77-.38c-.3-.46.19-1.83.24-2.34s.13-1.22.19-1.83c-4.17-2-6.8-6.37-7.53-10.79S490.68,152.23,492.13,148Z"/></g><g id="_Grupo_38" data-name="&lt;Grupo&gt;"><g id="_Grupo_39" data-name="&lt;Grupo&gt;"><path class="cls-5" d="M504.23,135.31a7.27,7.27,0,0,1,1.67,3.77,5.82,5.82,0,0,1,.15,2.45c-.69,3.18-3.85,3-6.3,4.05a16.27,16.27,0,0,0-7.3,6.28c-2.65,4.21-1.46,9.63-.39,14.27.38,1.64,1.14,4.07-.13,5.53s-4.27,1.25-5.81.49-2.57-2-4.12-2.25-3.86.45-4.62-1.05a10,10,0,0,0-.5-1.32c-.9-1.29-3.16.22-4.43-.69-.79-.56-.78-1.76-.52-2.71a6.42,6.42,0,0,0,.53-2.87,9.55,9.55,0,0,0-1.13-2.23,4.43,4.43,0,0,1,.61-4.69c2-2.33,5.93-1.89,8.09-4.09a9.44,9.44,0,0,0,2-4.36,8.33,8.33,0,0,1,2.13-4.27c1.48-1.31,3.63-1.08,5.1-2.63a29.41,29.41,0,0,1,2.41-2.9,19.35,19.35,0,0,1,5.36-2.38A7,7,0,0,1,504.23,135.31Z"/></g><g id="_Grupo_40" data-name="&lt;Grupo&gt;"><path class="cls-5" d="M516,157.73c.09,4.62-2.21,9.62-.08,13.69s7.51,4.85,12.08,5.07c.75,0,10.39.86,10.43.68.72-3.22,1.47-6.5,3.15-9.33s4.5-5.17,7.72-5.38a2,2,0,0,1-1.29-2.25,15.2,15.2,0,0,1,.89-2.75,6.48,6.48,0,0,0-1.69-6.51c-3.41-3.17-9.59-1.85-12.51-5.5-1.82-2.27-1.6-5.55-2.55-8.31-1.84-5.34-7.69-6.46-12.06-8.87-4.61-2.55-9-4-14.28-3.06-6.61,1.1-11.52,7.82-9,14.15,3.27,8.11,16.33,7.41,18.77,15.65A10,10,0,0,1,516,157.73Z"/></g></g></g></g><g id="_Grupo_41" data-name="&lt;Grupo&gt;"><polygon class="cls-27" points="512.7 174.68 502.75 188.73 498.08 188.35 490.29 174.1 512.7 174.68"/></g><circle class="cls-3" cx="463.15" cy="243.53" r="42.01" transform="translate(-24.65 432.91) rotate(-48.95)"/><path class="cls-8" d="M458.87,197.94a45.79,45.79,0,1,0,49.87,41.31A45.8,45.8,0,0,0,458.87,197.94Zm7.84,83.52A38.1,38.1,0,1,1,501.08,240,38.09,38.09,0,0,1,466.71,281.46Z"/><path class="cls-24" d="M458.43,193.27a50.49,50.49,0,1,0,55,45.54A50.49,50.49,0,0,0,458.43,193.27Zm8.65,92.09A42,42,0,1,1,505,239.61,42,42,0,0,1,467.08,285.36Z"/><path class="cls-2" d="M450.66,257.37c-.54-.31-.7-1.05-.88-1.72A2.68,2.68,0,0,1,452,252.2c2.53-.53,5.32,1.18,7.74,2.08a14.61,14.61,0,0,0,6.44.81,9.22,9.22,0,0,0,5.77-2.32,5.83,5.83,0,0,0,1.82-4.93q-.27-3-2.17-4.07t-6.27-.72l-1.92.17q-7.11.63-11.11-2t-4.49-8.3a10.64,10.64,0,0,1,2.89-8.9q3.38-3.37,10-4a18.28,18.28,0,0,1,5.56.42c4,.91,10.66,3.48,9.64,7.45-1.16,4.52-8.49-1.24-11-2.06a12.49,12.49,0,0,0-5-.46,7.8,7.8,0,0,0-5.13,2.2,5.57,5.57,0,0,0-1.62,4.59,4,4,0,0,0,2.39,3.59c1.44.63,4.43.81,9,.52,4.85-.29,8.47.42,10.87,2.1s3.77,4.5,4.11,8.44a11.68,11.68,0,0,1-2.9,9.37q-3.4,3.72-9.68,4.27a26,26,0,0,1-4.47-.05C459.34,260.14,454.42,259.51,450.66,257.37Z"/><path class="cls-2" d="M466.39,270.52h-.05a2.86,2.86,0,0,1-2.89-2.8l-4.52-51.59a2.84,2.84,0,0,1,2.35-3.25h.05a2.87,2.87,0,0,1,2.88,2.8l4.53,51.59A2.86,2.86,0,0,1,466.39,270.52Z"/><circle class="cls-3" cx="124.32" cy="91.64" r="37.53" transform="translate(-26.43 125.22) rotate(-48.95)"/><path class="cls-8" d="M120.49,50.91A40.91,40.91,0,1,0,165,87.82,40.91,40.91,0,0,0,120.49,50.91Zm7,74.62a34,34,0,1,1,30.7-37.07A34,34,0,0,1,127.5,125.53Z"/><path class="cls-24" d="M120.1,46.73a45.11,45.11,0,1,0,49.12,40.69A45.11,45.11,0,0,0,120.1,46.73ZM127.82,129a37.52,37.52,0,1,1,33.86-40.87A37.53,37.53,0,0,1,127.82,129Z"/><path class="cls-2" d="M113.16,104c-.48-.28-.63-.94-.79-1.53a2.39,2.39,0,0,1,1.95-3.08c2.26-.48,4.76,1,6.92,1.86A13,13,0,0,0,127,102a8.23,8.23,0,0,0,5.15-2.08,5.18,5.18,0,0,0,1.63-4.4,4.32,4.32,0,0,0-1.94-3.64c-1.14-.65-3-.86-5.6-.64l-1.71.15c-4.24.38-7.55-.23-9.93-1.8s-3.72-4-4-7.41a9.49,9.49,0,0,1,2.58-8q3-3,8.91-3.53a15.94,15.94,0,0,1,5,.37c3.56.81,9.53,3.11,8.62,6.65-1,4-7.59-1.1-9.8-1.83a11,11,0,0,0-4.46-.42,7,7,0,0,0-4.59,2,5,5,0,0,0-1.44,4.1,3.54,3.54,0,0,0,2.13,3.2q1.94.85,8,.47,6.49-.37,9.71,1.88c2.15,1.51,3.37,4,3.68,7.54a10.49,10.49,0,0,1-2.59,8.37q-3,3.32-8.65,3.81a22.43,22.43,0,0,1-4,0C120.92,106.47,116.51,105.92,113.16,104Z"/><path class="cls-2" d="M127.21,115.75h0a2.55,2.55,0,0,1-2.57-2.5l-4-46.09a2.56,2.56,0,0,1,2.1-2.91h0a2.57,2.57,0,0,1,2.58,2.5l4,46.09A2.56,2.56,0,0,1,127.21,115.75Z"/></g></g></g></svg>