<svg xmlns="http://www.w3.org/2000/svg" viewBox="0 0 111.94 155.47"><defs><style>.cls-1,.cls-11,.cls-3{fill:none;stroke:#fff;stroke-miterlimit:10;}.cls-1{stroke-width:6px;}.cls-10,.cls-2,.cls-7,.cls-8,.cls-9{fill:#fff;}.cls-3{stroke-width:2px;}.cls-4{fill:#009eff;}.cls-5{fill:#e29907;}.cls-6{fill:#ffb600;}.cls-7{opacity:0.14;}.cls-8{font-size:12.9px;}.cls-10,.cls-8,.cls-9{font-family:MyriadPro-Regular, Myriad Pro;}.cls-9{font-size:11.28px;}.cls-10{font-size:8.16px;}.cls-11{stroke-width:7px;}</style></defs><title>pig</title><g id="Capa_2" data-name="Capa 2"><g id="Capa_12" data-name="Capa 12"><path class="cls-1" d="M93.92,136.63a52.1,52.1,0,0,1-74.06.77"/><ellipse class="cls-1" cx="55.69" cy="116.97" rx="19.26" ry="18.05"/><ellipse class="cls-2" cx="48.06" cy="119.72" rx="4.77" ry="6.41"/><ellipse class="cls-2" cx="62.75" cy="119.72" rx="4.77" ry="6.41"/><path class="cls-1" d="M42.83,34.79A13.78,13.78,0,1,1,56.51,47"/><path class="cls-3" d="M15.43,141.09A7.64,7.64,0,0,1,23,133.43"/><path class="cls-2" d="M15.57,139.64c5.4.9,7.08-1.46,6.16-6.09C18.36,134.39,16.27,136.39,15.57,139.64Z"/><path class="cls-2" d="M87.7,134.48A8,8,0,0,1,98.07,139"/><path class="cls-2" d="M89.07,134.25c1.5,5.58,4.17,6.82,8.15,3.91C95,135.3,92.45,133.51,89.07,134.25Z"/><path class="cls-1" d="M17.4,66.39c1.77,2.61,4.45,3.24,7.3,3.51"/><path class="cls-1" d="M11.12,82.64,7,66.3a2.69,2.69,0,0,1,3.76-3.11l6.67,3.2"/><path class="cls-1" d="M101.1,85.46l3.15-12.18L105.92,66a2.69,2.69,0,0,0-3.82-3c-4.71,3-9.43,6.07-14.95,7.59"/><ellipse class="cls-2" cx="39.87" cy="74.73" rx="5.92" ry="5.55"/><ellipse class="cls-4" cx="39.84" cy="78.26" rx="2.96" ry="2.8"/><ellipse class="cls-2" cx="72.84" cy="75.52" rx="5.92" ry="5.55"/><ellipse class="cls-4" cx="72.76" cy="78.3" rx="2.96" ry="2.78"/><path class="cls-5" d="M66.47,32.91a10.1,10.1,0,1,1-7.39-9.8A10.14,10.14,0,0,1,66.47,32.91Z"/><ellipse class="cls-6" cx="56.67" cy="33.13" rx="9.01" ry="9.08"/><path class="cls-7" d="M59.08,23.11c-.77.3-1.5.61-2.19.94-4.8,2.34-8,5.82-9,11.14A18.31,18.31,0,0,0,47.58,38a10.14,10.14,0,0,1,11.5-14.84Z"/><path class="cls-7" d="M55.52,41c4,.33,7.8-.09,9.85-7.67C63.41,37.73,60.35,40.6,55.52,41Z"/><text class="cls-8" transform="translate(53.09 36.23)">$</text><path class="cls-5" d="M91.32,19.9a8.86,8.86,0,1,1-6.46-8.57A8.87,8.87,0,0,1,91.32,19.9Z"/><ellipse class="cls-6" cx="82.75" cy="20.09" rx="7.88" ry="7.94"/><path class="cls-7" d="M84.86,11.33c-.67.26-1.31.53-1.92.82-4.19,2-7,5.09-7.86,9.74a17.86,17.86,0,0,0-.28,2.42,8.86,8.86,0,0,1,10.06-13Z"/><path class="cls-7" d="M81.75,27c3.49.29,6.82-.08,8.62-6.71C88.65,24.11,86,26.62,81.75,27Z"/><text class="cls-9" transform="translate(79.02 22.97)">$</text><path class="cls-5" d="M69.31,6.44A6.39,6.39,0,1,1,62.92,0a6.11,6.11,0,0,1,1.72.24A6.43,6.43,0,0,1,69.31,6.44Z"/><ellipse class="cls-6" cx="63.12" cy="6.57" rx="5.7" ry="5.75"/><path class="cls-7" d="M64.64.24c-.49.18-1,.38-1.39.59a9.55,9.55,0,0,0-5.69,7.05,13.19,13.19,0,0,0-.2,1.74A6.45,6.45,0,0,1,62.92,0,6.11,6.11,0,0,1,64.64.24Z"/><path class="cls-7" d="M62.39,11.57c2.52.21,4.93-.06,6.23-4.85C67.38,9.48,65.45,11.3,62.39,11.57Z"/><text class="cls-10" transform="translate(60.36 8.82)">$</text><path class="cls-11" d="M103.07,76.71a52.39,52.39,0,0,1,5.37,23.18"/><path class="cls-1" d="M16.08,65.52a52.58,52.58,0,0,1,79.56,0"/><path class="cls-1" d="M108.44,99.89a52.38,52.38,0,0,1-11.66,33"/><path class="cls-11" d="M9.11,74.73l-.7,2.77a53.39,53.39,0,0,0,7,55.93"/></g></g></svg>