<svg xmlns="http://www.w3.org/2000/svg" viewBox="0 0 395.16 370.46"><title>piggy_init</title><g id="Layer_2" data-name="Layer 2"><g id="Capa_1" data-name="Capa 1"><path d="M242.88,78.49a11.7,11.7,0,0,0-14.35,7.18,46.19,46.19,0,0,1-86.6,0,11.86,11.86,0,0,0-14.58-7.18A187.63,187.63,0,0,0,101,89.6l-8.57-4.4A56.72,56.72,0,0,0,26.63,96.09a11.2,11.2,0,0,0-.7,15.51l31,36.81a126.51,126.51,0,0,0-16.9,36.82H34.73A34.68,34.68,0,0,0,0,220v23.15a34.68,34.68,0,0,0,34.73,34.73H48.62A127,127,0,0,0,81,318.13v40.75a11.47,11.47,0,0,0,11.57,11.58h46.31a11.47,11.47,0,0,0,11.58-11.58V343.14c10.42,2.78,22.69,3.93,34.73,3.93s24.31-1.16,34.73-3.93v15.74a11.47,11.47,0,0,0,11.58,11.58h46.3a11.47,11.47,0,0,0,11.58-11.58V314.66C326.7,288,347.3,249.13,347.3,208.38,347.3,151,305.4,98.87,242.88,78.49Z" fill="#fe91c2"/><path d="M347.3,254.69a39.41,39.41,0,0,1-22.2-7c-12.67-8.61.42-27.74,13-19.15,14.45,9.87,33.88-8.16,33.88-31.73a48.21,48.21,0,0,0-.86-9.18c-2.89-15.16,19.87-19.22,22.75-4.39a71.48,71.48,0,0,1,1.27,13.57C395.16,228.72,372.83,254.69,347.3,254.69Z" fill="#fe52a2"/><path d="M347.3,208.38c0,40.75-20.6,79.65-57.88,106.28v44.22a11.47,11.47,0,0,1-11.58,11.58h-46.3A11.47,11.47,0,0,1,220,358.88V343.14c-10.42,2.78-22.69,3.93-34.73,3.93V115.77a46.32,46.32,0,0,0,43.3-30.1,11.7,11.7,0,0,1,14.35-7.18C305.4,98.87,347.3,151,347.3,208.38Z" fill="#fe73b1"/><path d="M185.23,0a69.66,69.66,0,0,0-69.46,69.46c0,38.67,31.72,69.46,69.46,69.46A69.46,69.46,0,1,0,185.23,0Z" fill="#fedb41"/><path d="M92.5,208.61a11.69,11.69,0,1,1,11.69-11.69A11.76,11.76,0,0,1,92.5,208.61ZM104,196.92h0Zm-11.47,0h0Z" fill="#0d70b2"/><path d="M242.19,139.85a11.63,11.63,0,0,1-15.05,6.71,119,119,0,0,0-82.66-.46,11.64,11.64,0,0,1-15-6.72,11.77,11.77,0,0,1,6.71-14.81,140.63,140.63,0,0,1,49.09-8.8A142.41,142.41,0,0,1,235.7,125,11.55,11.55,0,0,1,242.19,139.85Z" fill="#0d70b2"/><path d="M196.81,57.88V81c0,7.64-5.79,11.57-11.58,11.57S173.65,88.68,173.65,81V57.88c0-7.64,5.79-11.57,11.58-11.57S196.81,50.24,196.81,57.88Z" fill="#fea832"/><path d="M254.69,69.46a69.51,69.51,0,0,1-69.46,69.46V0A69.67,69.67,0,0,1,254.69,69.46Z" fill="#fc3"/><path d="M185.23,92.61V46.31c5.79,0,11.58,3.93,11.58,11.57V81C196.81,88.68,191,92.61,185.23,92.61Z" fill="#fe9923"/><path d="M242.19,139.85a11.63,11.63,0,0,1-15.05,6.71,115.16,115.16,0,0,0-41.91-7.64V115.77A142.41,142.41,0,0,1,235.7,125,11.55,11.55,0,0,1,242.19,139.85Z" fill="#095c92"/></g></g></svg>