<?xml version="1.0" encoding="utf-8"?>
<!-- Generator: Adobe Illustrator 22.0.1, SVG Export Plug-In . SVG Version: 6.00 Build 0)  -->
<svg version="1.1" id="Capa_1" xmlns="http://www.w3.org/2000/svg" xmlns:xlink="http://www.w3.org/1999/xlink" x="0px" y="0px"
	 viewBox="0 0 487.6 487.6" style="enable-background:new 0 0 487.6 487.6;" xml:space="preserve">
<style type="text/css">
	.st0{clip-path:url(#SVGID_3_);}
	.st1{clip-path:url(#SVGID_7_);}
	.st2{clip-path:url(#SVGID_8_);}
	.st3{fill:url(#SVGID_9_);}
	.st4{clip-path:url(#SVGID_8_);fill:none;stroke:#8E09AA;stroke-width:6;stroke-miterlimit:10;}
	.st5{fill:none;stroke:url(#SVGID_10_);stroke-width:6;stroke-miterlimit:10;}
	.st6{clip-path:url(#SVGID_13_);}
	.st7{clip-path:url(#SVGID_14_);}
	.st8{fill:none;stroke:#8E09AA;stroke-width:6;stroke-miterlimit:10;}
	.st9{clip-path:url(#SVGID_14_);fill:none;stroke:#8E09AA;stroke-width:6;stroke-miterlimit:10;}
	.st10{fill:#D89E0F;}
	.st11{fill:#FFC200;}
	.st12{fill:#FFFFFF;}
	.st13{fill:#EAAE07;}
	.st14{fill:url(#SVGID_15_);}
</style>
<g id="Capa_2_1_">
	<g id="Capa_2-2">
		<g>
			<g>
				<defs>
					<path id="SVGID_1_" d="M99.5,186c-1.8,21.3,3.2,40.1,18.7,55.1c-17.1,30.2-35.2,42.6-55.3,49.4c-10,3.4-16.7,12.7-16.7,23.2
						v35.9c0,6.4,2.2,12.7,6.3,17.7c29.3,35.8,62.9,51.1,94.7,58.8v43c0,9.4,7.6,17,17,17h58.5c4.7,0,8.5-3.8,8.5-8.5l0,0v-29.5h66
						v20.5c0,9.7,7.8,17.5,17.5,17.5h47c9.7,0,17.5-7.8,17.5-17.5v-22.5c102-80,113-335-207-255c-18.6-0.1-39.3-7.8-59.7-13.9
						c-5.4-1.6-11,1.4-12.6,6.8C99.7,184.6,99.6,185.3,99.5,186z"/>
				</defs>
				<defs>
					<path id="SVGID_2_" d="M99.5,186c-1.8,21.3,3.2,40.1,18.7,55.1c-17.1,30.2-35.2,42.6-55.3,49.4c-10,3.4-16.7,12.7-16.7,23.2
						v35.9c0,6.4,2.2,12.7,6.3,17.7c29.3,35.8,62.9,51.1,94.7,58.8v43c0,9.4,7.6,17,17,17h58.5c4.7,0,8.5-3.8,8.5-8.5l0,0v-29.5h66
						v20.5c0,9.7,7.8,17.5,17.5,17.5h47c9.7,0,17.5-7.8,17.5-17.5v-22.5c102-80,113-335-207-255c-18.6-0.1-39.3-7.8-59.7-13.9
						c-5.4-1.6-11,1.4-12.6,6.8C99.7,184.6,99.6,185.3,99.5,186z"/>
				</defs>
				<clipPath id="SVGID_3_">
					<use xlink:href="#SVGID_1_"  style="overflow:visible;"/>
				</clipPath>
				<clipPath id="SVGID_4_" class="st0">
					<use xlink:href="#SVGID_2_"  style="overflow:visible;"/>
				</clipPath>
			</g>
		</g>
		<g>
			<g>
				<defs>
					<path id="SVGID_5_" d="M99.5,186c-1.8,21.3,3.2,40.1,18.7,55.1c-17.1,30.2-35.2,42.6-55.3,49.4c-10,3.4-16.7,12.7-16.7,23.2
						v35.9c0,6.4,2.2,12.7,6.3,17.7c29.3,35.8,62.9,51.1,94.7,58.8v43c0,9.4,7.6,17,17,17h58.5c4.7,0,8.5-3.8,8.5-8.5l0,0v-29.5h66
						v20.5c0,9.7,7.8,17.5,17.5,17.5h47c9.7,0,17.5-7.8,17.5-17.5v-22.5c102-80,113-335-207-255c-18.6-0.1-39.3-7.8-59.7-13.9
						c-5.4-1.6-11,1.4-12.6,6.8C99.7,184.6,99.6,185.3,99.5,186z"/>
				</defs>
				<defs>
					<path id="SVGID_6_" d="M99.5,186c-1.8,21.3,3.2,40.1,18.7,55.1c-17.1,30.2-35.2,42.6-55.3,49.4c-10,3.4-16.7,12.7-16.7,23.2
						v35.9c0,6.4,2.2,12.7,6.3,17.7c29.3,35.8,62.9,51.1,94.7,58.8v43c0,9.4,7.6,17,17,17h58.5c4.7,0,8.5-3.8,8.5-8.5l0,0v-29.5h66
						v20.5c0,9.7,7.8,17.5,17.5,17.5h47c9.7,0,17.5-7.8,17.5-17.5v-22.5c102-80,113-335-207-255c-18.6-0.1-39.3-7.8-59.7-13.9
						c-5.4-1.6-11,1.4-12.6,6.8C99.7,184.6,99.6,185.3,99.5,186z"/>
				</defs>
				<clipPath id="SVGID_7_">
					<use xlink:href="#SVGID_5_"  style="overflow:visible;"/>
				</clipPath>
				<clipPath id="SVGID_8_" class="st1">
					<use xlink:href="#SVGID_6_"  style="overflow:visible;"/>
				</clipPath>
				<g class="st2">
					<linearGradient id="SVGID_9_" gradientUnits="userSpaceOnUse" x1="31.1484" y1="330.84" x2="458.1484" y2="330.84">
						<stop  offset="0" style="stop-color:#E400FF"/>
						<stop  offset="9.258623e-02" style="stop-color:#DC08FF"/>
						<stop  offset="0.2373" style="stop-color:#C61EFF"/>
						<stop  offset="0.416" style="stop-color:#A141FF"/>
						<stop  offset="0.6218" style="stop-color:#6F72FF"/>
						<stop  offset="0.8474" style="stop-color:#2FB0FF"/>
						<stop  offset="1" style="stop-color:#00DEFF"/>
					</linearGradient>
					<rect x="31.1" y="141" class="st3" width="427" height="379.6"/>
				</g>
				<path class="st4" d="M316.5,199.5L316.5,199.5c0,2.5-2,4.5-4.5,4.5h-40c-2.5,0-4.5-2-4.5-4.5l0,0c0-2.5,2-4.5,4.5-4.5h40
					C314.5,195,316.5,197,316.5,199.5z"/>
			</g>
			<linearGradient id="SVGID_10_" gradientUnits="userSpaceOnUse" x1="43.1484" y1="330.92" x2="445.8516" y2="330.92">
				<stop  offset="0" style="stop-color:#FF00FF"/>
				<stop  offset="1" style="stop-color:#00E3FF"/>
			</linearGradient>
			<path class="st5" d="M99.5,186c-1.7,19.3,2.3,36.6,14.6,50.8c2.4,2.8,2.7,6.9,0.7,10c-16.1,26.1-33.2,37.3-52,43.8
				c-10,3.4-16.7,12.7-16.7,23.2v35.9c0,6.4,2.2,12.7,6.3,17.7c29.3,35.8,62.9,51.1,94.7,58.8v43c0,9.4,7.6,17,17,17h58.5
				c4.7,0,8.5-3.8,8.5-8.5l0,0v-29.5h66v20.5c0,9.7,7.8,17.5,17.5,17.5h47c9.7,0,17.5-7.8,17.5-17.5v-22.5c102-80,113-335-207-255
				c-18.6-0.1-39.3-7.8-59.7-13.9c-5.4-1.6-11,1.4-12.6,6.8C99.7,184.6,99.6,185.3,99.5,186z"/>
		</g>
		<g>
			<g>
				<defs>
					<path id="SVGID_11_" d="M99.5,186c-1.8,21.3,3.2,40.1,18.7,55.1c-17.1,30.2-35.2,42.6-55.3,49.4c-10,3.4-16.7,12.7-16.7,23.2
						v35.9c0,6.4,2.2,12.7,6.3,17.7c29.3,35.8,62.9,51.1,94.7,58.8v43c0,9.4,7.6,17,17,17h58.5c4.7,0,8.5-3.8,8.5-8.5l0,0v-29.5h66
						v20.5c0,9.7,7.8,17.5,17.5,17.5h47c9.7,0,17.5-7.8,17.5-17.5v-22.5c102-80,113-335-207-255c-18.6-0.1-39.3-7.8-59.7-13.9
						c-5.4-1.6-11,1.4-12.6,6.8C99.7,184.6,99.6,185.3,99.5,186z"/>
				</defs>
				<defs>
					<path id="SVGID_12_" d="M99.5,186c-1.8,21.3,3.2,40.1,18.7,55.1c-17.1,30.2-35.2,42.6-55.3,49.4c-10,3.4-16.7,12.7-16.7,23.2
						v35.9c0,6.4,2.2,12.7,6.3,17.7c29.3,35.8,62.9,51.1,94.7,58.8v43c0,9.4,7.6,17,17,17h58.5c4.7,0,8.5-3.8,8.5-8.5l0,0v-29.5h66
						v20.5c0,9.7,7.8,17.5,17.5,17.5h47c9.7,0,17.5-7.8,17.5-17.5v-22.5c102-80,113-335-207-255c-18.6-0.1-39.3-7.8-59.7-13.9
						c-5.4-1.6-11,1.4-12.6,6.8C99.7,184.6,99.6,185.3,99.5,186z"/>
				</defs>
				<clipPath id="SVGID_13_">
					<use xlink:href="#SVGID_11_"  style="overflow:visible;"/>
				</clipPath>
				<clipPath id="SVGID_14_" class="st6">
					<use xlink:href="#SVGID_12_"  style="overflow:visible;"/>
				</clipPath>
				<g class="st7">
					<rect x="31.1" y="141" class="st8" width="427" height="379.6"/>
				</g>
				<path class="st9" d="M316.5,199.5L316.5,199.5c0,2.5-2,4.5-4.5,4.5h-40c-2.5,0-4.5-2-4.5-4.5l0,0c0-2.5,2-4.5,4.5-4.5h40
					C314.5,195,316.5,197,316.5,199.5z"/>
			</g>
			<path class="st8" d="M99.5,186c-1.7,19.3,2.3,36.6,14.6,50.8c2.4,2.8,2.7,6.9,0.7,10c-16.1,26.1-33.2,37.3-52,43.8
				c-10,3.4-16.7,12.7-16.7,23.2v35.9c0,6.4,2.2,12.7,6.3,17.7c29.3,35.8,62.9,51.1,94.7,58.8v43c0,9.4,7.6,17,17,17h58.5
				c4.7,0,8.5-3.8,8.5-8.5l0,0v-29.5h66v20.5c0,9.7,7.8,17.5,17.5,17.5h47c9.7,0,17.5-7.8,17.5-17.5v-22.5c102-80,113-335-207-255
				c-18.6-0.1-39.3-7.8-59.7-13.9c-5.4-1.6-11,1.4-12.6,6.8C99.7,184.6,99.6,185.3,99.5,186z"/>
		</g>
	</g>
</g>
<g>
	<circle class="st10" cx="239.3" cy="103.7" r="23.2"/>
	<circle class="st11" cx="244.3" cy="103.7" r="22.3"/>
	<g>
		<path class="st12" d="M243.1,118.9v-3.8c-2.2,0-4.4-0.7-5.7-1.6l0.9-2.5c1.3,0.9,3.3,1.6,5.3,1.6c2.6,0,4.4-1.5,4.4-3.6
			c0-2-1.4-3.3-4.2-4.4c-3.8-1.5-6.1-3.2-6.1-6.4c0-3.1,2.2-5.4,5.6-6v-3.8h2.3V92c2.2,0.1,3.8,0.7,4.8,1.3l-0.9,2.5
			c-0.8-0.4-2.3-1.3-4.7-1.3c-2.9,0-3.9,1.7-3.9,3.2c0,1.9,1.4,2.9,4.6,4.2c3.8,1.6,5.8,3.5,5.8,6.8c0,2.9-2,5.7-5.9,6.3v3.9H243.1z
			"/>
	</g>
</g>
<g>
	<ellipse class="st13" cx="262.8" cy="57.7" rx="11.8" ry="11.4"/>
	<ellipse class="st11" cx="265.8" cy="57.7" rx="11.3" ry="11"/>
	<g>
		<path class="st12" d="M265.2,65.2v-1.8c-1.1,0-2.2-0.3-2.9-0.8l0.5-1.2c0.7,0.4,1.7,0.8,2.7,0.8c1.3,0,2.2-0.8,2.2-1.8
			c0-1-0.7-1.6-2.1-2.2c-1.9-0.7-3.1-1.6-3.1-3.2c0-1.5,1.1-2.7,2.9-2.9v-1.8h1.2v1.8c1.1,0,1.9,0.3,2.5,0.6l-0.5,1.2
			c-0.4-0.2-1.2-0.6-2.4-0.6c-1.5,0-2,0.8-2,1.6c0,1,0.7,1.4,2.3,2.1c1.9,0.8,2.9,1.7,2.9,3.4c0,1.4-1,2.8-3,3.1v1.9H265.2z"/>
	</g>
</g>
<g>
	<circle class="st10" cx="313.5" cy="92.3" r="32"/>
	<linearGradient id="SVGID_15_" gradientUnits="userSpaceOnUse" x1="287.682" y1="92.3285" x2="349.0514" y2="92.3285">
		<stop  offset="0" style="stop-color:#FFAE15"/>
		<stop  offset="0.2024" style="stop-color:#FFB619"/>
		<stop  offset="0.5185" style="stop-color:#FFCC26"/>
		<stop  offset="0.9067" style="stop-color:#FFF03A"/>
		<stop  offset="1" style="stop-color:#FFFA3F"/>
	</linearGradient>
	<circle class="st14" cx="318.4" cy="92.3" r="30.7"/>
	<g>
		<path class="st12" d="M316.6,113.4v-5.2c-3-0.1-6-1-7.8-2.3l1.2-3.4c1.8,1.2,4.5,2.2,7.4,2.2c3.6,0,6.1-2.1,6.1-5
			c0-2.8-2-4.6-5.8-6.1c-5.2-2-8.5-4.4-8.5-8.9c0-4.3,3-7.5,7.7-8.2v-5.2h3.2v5c3.1,0.1,5.2,0.9,6.7,1.8l-1.3,3.4
			c-1.1-0.6-3.2-1.7-6.5-1.7c-3.9,0-5.4,2.4-5.4,4.4c0,2.7,1.9,4,6.3,5.8c5.3,2.2,7.9,4.8,7.9,9.4c0,4-2.8,7.8-8.1,8.7v5.3H316.6z"
			/>
	</g>
</g>
</svg>
