<svg xmlns="http://www.w3.org/2000/svg" viewBox="0 0 270.1 343.87"><defs><style>.cls-1{fill:#fff;}.cls-2{fill:#e5e5e5;}.cls-3{fill:#f15a24;}.cls-4{fill:#c1272d;}.cls-5{fill:#003f6d;}.cls-6{fill:#ffc5a6;}.cls-7{fill:#fbeae1;}</style></defs><title>reset</title><g id="Capa_2" data-name="Capa 2"><g id="Capa_1-2" data-name="Capa 1"><rect class="cls-1" width="141.22" height="275.14" rx="18.35" ry="18.35"/><rect class="cls-2" x="52.85" y="20.22" width="35.51" height="4.97" rx="2.39" ry="2.39"/><path class="cls-2" d="M66.81,12.34a3.8,3.8,0,1,0,3.8-3.8A3.8,3.8,0,0,0,66.81,12.34Z"/><path class="cls-2" d="M58.67,257.66a11.94,11.94,0,1,0,11.94-11.94A11.93,11.93,0,0,0,58.67,257.66Z"/><rect class="cls-3" x="5.43" y="35.21" width="130.35" height="206.11"/><path class="cls-4" d="M47.32,156.94A21.64,21.64,0,1,0,69,135.65,21.46,21.46,0,0,0,47.32,156.94Z"/><path class="cls-4" d="M38.1,156.94c0,16.77,13.82,30.35,30.85,30.35s30.86-13.58,30.86-30.35S86,126.59,69,126.59,38.1,140.18,38.1,156.94Zm4,0A26.85,26.85,0,1,1,69,183.35,26.63,26.63,0,0,1,42.11,156.94Z"/><polygon class="cls-1" points="218.24 267.96 163.89 304.13 181.04 329.86 234.88 293.26 218.24 267.96"/><polygon class="cls-5" points="225.58 270.45 165.88 313.23 184.8 343.87 270.1 343.85 225.58 270.45"/><path class="cls-6" d="M200,250s1.55-12.61-4.13-23.25-17.88-27.18-25.95-39.52-13.26-12.72-17.86-10.5-6.12,5.41-4.54,7.57,7,9.35,8.22,10.77c1.71,2,.25,2.7-.21,2.11-1-1.24-5.37-6-9.1-10.87s-8.87-5-12.61-3.31-6,6.17-4.65,8.34,8.66,13.31,9.79,15,.07,1.75-.42,1.75-6.63-8.41-10.3-13.66-8.71-6.53-12.86-5.14-6.83,4.75-5.74,6.82,11,17.22,11.78,18.61-.4,2.18-2,.3-40.58-60.07-43.25-63.83-8.47-5-14.1-1.56-3,10.9-.85,14.17,49.35,71.89,60.51,86.39c.71.92-.76,1.21-1.25.72S110.32,238,104.26,230.59c-6.45-7.84-11.46-7.17-13.41-6.59a15.24,15.24,0,0,0-5.8,3c1.67,1.41,5.76,5,7.51,7.57a8.84,8.84,0,0,1,1.59,6.32c6.77,6.75,16,15.39,24.94,23.35a104.74,104.74,0,0,0,36.76,20.83l11.2,17L213.69,271Z"/><path class="cls-7" d="M92.56,234.56c-1.75-2.6-5.84-6.16-7.51-7.57a3.4,3.4,0,0,0-1.2,2.06c-.1,1,4.06,5.6,10.3,11.83A8.84,8.84,0,0,0,92.56,234.56Z"/><path class="cls-7" d="M74.59,152.4a6.93,6.93,0,0,0-5.79-2.8,10.44,10.44,0,0,0-5.42,1.66A5.12,5.12,0,0,0,61,154.61c-.65,2.93.9,6.33,1.91,7.88l1.58,2.34c2.58.17,6.18.19,8.79-1.8s4.26-4.33,4.26-6.36C75.64,153.93,74.94,152.88,74.59,152.4Z"/></g></g></svg>