<?xml version="1.0" encoding="iso-8859-1"?>
<!-- Generator: Adobe Illustrator 19.0.0, SVG Export Plug-In . SVG Version: 6.00 Build 0)  -->
<svg version="1.1" id="Capa_1" xmlns="http://www.w3.org/2000/svg" xmlns:xlink="http://www.w3.org/1999/xlink" x="0px" y="0px"
	 viewBox="0 0 402.773 402.773" style="enable-background:new 0 0 402.773 402.773;" xml:space="preserve">
<path style="fill:#FFE600;" d="M201.387,6.827L201.387,6.827c-28.278,0-51.2,22.922-51.2,51.2v37.547h102.4V58.027
	C252.587,29.749,229.664,6.827,201.387,6.827z"/>
<path style="fill:#602F75;" d="M252.587,102.4h-102.4c-3.77,0-6.827-3.053-6.827-6.827V58.027C143.36,26.033,169.39,0,201.387,0
	s58.027,26.033,58.027,58.027v37.547C259.413,99.347,256.357,102.4,252.587,102.4z M157.013,88.747h88.747v-30.72
	c0-24.467-19.907-44.373-44.373-44.373s-44.373,19.907-44.373,44.373V88.747z"/>
<polygon style="fill:#EAEAEA;" points="351.573,129.707 51.2,129.707 71.68,95.573 331.093,95.573 "/>
<path style="fill:#602F75;" d="M351.573,136.533H51.2c-2.459,0-4.729-1.319-5.939-3.459c-1.213-2.147-1.179-4.774,0.087-6.88
	l20.48-34.133c1.232-2.055,3.456-3.314,5.852-3.314h259.413c2.396,0,4.62,1.26,5.854,3.313l20.48,34.133
	c1.266,2.106,1.3,4.733,0.087,6.88C356.302,135.214,354.033,136.533,351.573,136.533z M63.256,122.88h276.26l-12.29-20.48H75.547
	L63.256,122.88z"/>
<rect x="211.623" y="54.599" transform="matrix(-0.9737 -0.2277 0.2277 -0.9737 487.9106 267.8843)" style="fill:#EA3457;" width="95.57" height="102.397"/>
<path style="fill:#602F75;" d="M294.284,173.38c-0.521,0-1.039-0.06-1.553-0.179l-93.059-21.767
	c-3.673-0.86-5.953-4.533-5.093-8.201l23.318-99.714c0.413-1.766,1.507-3.294,3.046-4.246c1.536-0.954,3.396-1.26,5.154-0.847
	l93.059,21.767c3.673,0.86,5.953,4.533,5.093,8.201l-23.32,99.712c-0.413,1.766-1.507,3.294-3.046,4.246
	C296.793,173.027,295.547,173.38,294.284,173.38z M209.427,139.694l79.763,18.661l20.21-86.42l-79.763-18.661L209.427,139.694z"/>
<rect x="84.657" y="33.896" transform="matrix(-0.9931 0.1174 -0.1174 -0.9931 294.5211 173.6336)" style="fill:#EA3457;" width="114.98" height="123.189"/>
<path style="fill:#602F75;" d="M92.269,170.233c-3.41,0-6.361-2.553-6.77-6.026L71.038,41.873c-0.213-1.801,0.3-3.606,1.42-5.026
	c1.12-1.42,2.76-2.34,4.56-2.553l114.179-13.493c3.693-0.461,7.141,2.234,7.579,5.98l14.461,122.334
	c0.213,1.801-0.3,3.606-1.42,5.026s-2.76,2.34-4.56,2.553L93.078,170.187C92.81,170.22,92.54,170.233,92.269,170.233z M85.4,47.053
	l12.856,108.773l100.623-11.894L186.023,35.159L85.4,47.053z"/>
<rect x="141.171" y="83.932" transform="matrix(-0.9723 0.2338 -0.2338 -0.9723 423.5203 236.7019)" style="fill:#00E7FF;" width="113.12" height="119.042"/>
<path style="fill:#602F75;" d="M156.653,221.38c-1.246,0-2.483-0.34-3.564-1.007c-1.546-0.947-2.65-2.466-3.074-4.227L122.185,100.4
	c-0.423-1.76-0.13-3.613,0.814-5.159c0.947-1.539,2.466-2.647,4.227-3.074l109.974-26.44c3.663-0.86,7.351,1.374,8.233,5.047
	l27.834,115.739c0.423,1.76,0.13,3.613-0.814,5.159c-0.947,1.539-2.466,2.647-4.227,3.074l-109.976,26.447
	C157.723,221.321,157.187,221.38,156.653,221.38z M137.057,103.847l24.637,102.473l96.703-23.253L233.757,80.601L137.057,103.847z"
	/>
<polyline style="fill:#FFFFFF;" points="353.483,166.955 365.227,395.947 37.547,395.947 51.2,129.707 351.573,129.707 "/>
<path style="fill:#602F75;" d="M365.227,402.773H37.547c-1.871,0-3.661-0.766-4.949-2.127c-1.287-1.353-1.963-3.18-1.867-5.047
	l13.653-266.24c0.186-3.633,3.183-6.48,6.816-6.48h300.373c3.77,0,6.827,3.053,6.827,6.827c0,3.773-3.057,6.827-6.827,6.827H57.687
	L44.733,389.12H358.04l-11.373-221.821c-0.193-3.76,2.703-6.973,6.467-7.166c3.731-0.133,6.977,2.707,7.166,6.473L372.043,395.6
	c0.097,1.867-0.58,3.693-1.867,5.047C368.887,402.007,367.097,402.773,365.227,402.773z"/>
<rect x="95.573" y="136.533" style="fill:#FFE600;" width="109.227" height="252.587"/>
<circle style="fill:#FFFFFF;" cx="252.587" cy="170.667" r="13.653"/>
<path style="fill:#602F75;" d="M252.587,191.147c-11.293,0-20.48-9.187-20.48-20.48s9.187-20.48,20.48-20.48
	c11.293,0,20.48,9.187,20.48,20.48S263.88,191.147,252.587,191.147z M252.587,163.84c-3.763,0-6.827,3.06-6.827,6.827
	s3.063,6.827,6.827,6.827s6.827-3.06,6.827-6.827S256.35,163.84,252.587,163.84z"/>
<circle style="fill:#FFFFFF;" cx="150.187" cy="170.667" r="13.653"/>
<path style="fill:#602F75;" d="M150.187,191.147c-11.293,0-20.48-9.187-20.48-20.48s9.187-20.48,20.48-20.48
	c11.293,0,20.48,9.187,20.48,20.48S161.48,191.147,150.187,191.147z M150.187,163.84c-3.763,0-6.827,3.06-6.827,6.827
	s3.063,6.827,6.827,6.827c3.763,0,6.827-3.06,6.827-6.827S153.95,163.84,150.187,163.84z"/>
<path style="fill:#602F75;" d="M201.387,273.067c-31.997,0-58.027-26.033-58.027-58.027v-37.547c0-3.773,3.057-6.827,6.827-6.827
	c3.77,0,6.827,3.053,6.827,6.827v37.547c0,24.467,19.907,44.373,44.373,44.373s44.373-19.907,44.373-44.373v-35.734
	c-0.171-0.573-0.263-1.186-0.263-1.812c0-3.773,2.794-6.827,6.564-6.827h0.526c3.77,0,6.827,3.053,6.827,6.827v37.547
	C259.413,247.033,233.383,273.067,201.387,273.067z"/>
<g>
</g>
<g>
</g>
<g>
</g>
<g>
</g>
<g>
</g>
<g>
</g>
<g>
</g>
<g>
</g>
<g>
</g>
<g>
</g>
<g>
</g>
<g>
</g>
<g>
</g>
<g>
</g>
<g>
</g>
</svg>
