<svg id="eHIedoahvqw1" xmlns="http://www.w3.org/2000/svg" xmlns:xlink="http://www.w3.org/1999/xlink" viewBox="0 0 408 393" shape-rendering="geometricPrecision" text-rendering="geometricPrecision">
<style><![CDATA[
#eHIedoahvqw2_tr {animation: eHIedoahvqw2_tr__tr 9900ms linear infinite reverse forwards}@keyframes eHIedoahvqw2_tr__tr { 0% {transform: translate(95.75px,108.900009px) rotate(0deg)} 100% {transform: translate(95.75px,108.900009px) rotate(269.999996deg)}} #eHIedoahvqw34_ts {animation: eHIedoahvqw34_ts__ts 9900ms linear infinite reverse forwards}@keyframes eHIedoahvqw34_ts__ts { 0% {transform: translate(238.350006px,125.650002px) scale(1,1)} 14.141414% {transform: translate(238.350006px,125.650002px) scale(1.225454,1.225454)} 42.424242% {transform: translate(238.350006px,125.650002px) scale(0.825453,0.825453)} 65.656566% {transform: translate(238.350006px,125.650002px) scale(1.225454,1.225454)} 100% {transform: translate(238.350006px,125.650002px) scale(1,1)}} #eHIedoahvqw49_to {animation: eHIedoahvqw49_to__to 9900ms linear infinite reverse forwards}@keyframes eHIedoahvqw49_to__to { 0% {transform: translate(340.300003px,116.305557px)} 20.20202% {transform: translate(340.300003px,110.344447px)} 100% {transform: translate(340.300003px,116.305557px)}} #eHIedoahvqw55_to {animation: eHIedoahvqw55_to__to 9900ms linear infinite reverse forwards}@keyframes eHIedoahvqw55_to__to { 0% {transform: translate(340.350006px,151.700005px)} 24.242424% {transform: translate(333.75px,151.700005px)} 34.848485% {transform: translate(339.550006px,151.700005px)} 60.606061% {transform: translate(332.277931px,151.700005px)} 81.818182% {transform: translate(347.059814px,151.700006px)} 100% {transform: translate(340.350006px,151.700005px)}} #eHIedoahvqw61_ts {animation: eHIedoahvqw61_ts__ts 9900ms linear infinite reverse forwards}@keyframes eHIedoahvqw61_ts__ts { 0% {transform: translate(340.699997px,63.699999px) scale(1,1)} 20.20202% {transform: translate(340.699997px,63.699999px) scale(0.764334,0.764334)} 44.444444% {transform: translate(340.699997px,63.699999px) scale(1,1)} 67.676768% {transform: translate(340.699997px,63.699999px) scale(1.06579,1.06579)} 100% {transform: translate(340.699997px,63.699999px) scale(1,1)}} #eHIedoahvqw83_tr {animation: eHIedoahvqw83_tr__tr 9900ms linear infinite reverse forwards}@keyframes eHIedoahvqw83_tr__tr { 0% {transform: translate(87.65px,131.247284px) rotate(-28.060215deg)} 14.141414% {transform: translate(87.65px,131.247284px) rotate(15.55242deg)} 37.373737% {transform: translate(87.65px,131.247284px) rotate(0.803474deg)} 59.59596% {transform: translate(87.65px,131.247284px) rotate(-28.060215deg)} 82.828283% {transform: translate(87.65px,131.247284px) rotate(15.55242deg)} 100% {transform: translate(87.65px,131.247284px) rotate(-28.060215deg)}} #eHIedoahvqw108_tr {animation: eHIedoahvqw108_tr__tr 9900ms linear infinite reverse forwards}@keyframes eHIedoahvqw108_tr__tr { 0% {transform: translate(312.6px,228.8px) rotate(0deg)} 9.090909% {transform: translate(312.6px,228.8px) rotate(15.55242deg)} 32.323232% {transform: translate(312.6px,228.8px) rotate(-28.060215deg)} 54.545455% {transform: translate(312.6px,228.8px) rotate(0.803474deg)} 77.777778% {transform: translate(312.6px,228.8px) rotate(15.55242deg)} 100% {transform: translate(312.6px,228.8px) rotate(0deg)}}
]]></style>
<defs><linearGradient id="eHIedoahvqw2-fill" x1="59.7" y1="-66.3" x2="205.9" y2="31.7" spreadMethod="pad" gradientUnits="userSpaceOnUse" gradientTransform="translate(0 0)"><stop id="eHIedoahvqw2-fill-0" offset="0%" stop-color="#525dea"/><stop id="eHIedoahvqw2-fill-1" offset="100%" stop-color="#4b28c4"/></linearGradient><linearGradient id="eHIedoahvqw5-fill" x1="67.5" y1="309.1" x2="272.7" y2="309.1" spreadMethod="pad" gradientUnits="userSpaceOnUse" gradientTransform="translate(0 0)"><stop id="eHIedoahvqw5-fill-0" offset="0%" stop-color="#8b3fae"/><stop id="eHIedoahvqw5-fill-1" offset="100%" stop-color="#3f02a8"/></linearGradient><linearGradient id="eHIedoahvqw6-fill" x1="299.9" y1="422.1" x2="180.6" y2="313.8" spreadMethod="pad" gradientUnits="userSpaceOnUse" gradientTransform="translate(0 0)"><stop id="eHIedoahvqw6-fill-0" offset="0%" stop-color="#383838"/><stop id="eHIedoahvqw6-fill-1" offset="100%" stop-color="#9ba0b4"/></linearGradient><linearGradient id="eHIedoahvqw7-fill" x1="112.5" y1="280.2" x2="203.3" y2="387.7" spreadMethod="pad" gradientUnits="userSpaceOnUse" gradientTransform="translate(0 0)"><stop id="eHIedoahvqw7-fill-0" offset="0%" stop-color="#ced2d8"/><stop id="eHIedoahvqw7-fill-1" offset="100%" stop-color="#9ba0b4"/></linearGradient><linearGradient id="eHIedoahvqw11-fill" x1="54.9" y1="345" x2="54.9" y2="318.6" spreadMethod="pad" gradientUnits="userSpaceOnUse" gradientTransform="translate(0 0)"><stop id="eHIedoahvqw11-fill-0" offset="0%" stop-color="#ced2d8"/><stop id="eHIedoahvqw11-fill-1" offset="100%" stop-color="#9ba0b4"/></linearGradient><linearGradient id="eHIedoahvqw13-fill" x1="205.8" y1="259.3" x2="107.6" y2="403.3" spreadMethod="pad" gradientUnits="userSpaceOnUse" gradientTransform="translate(0 0)"><stop id="eHIedoahvqw13-fill-0" offset="0%" stop-color="#ced2d8"/><stop id="eHIedoahvqw13-fill-1" offset="100%" stop-color="#9ba0b4"/></linearGradient><linearGradient id="eHIedoahvqw15-fill" x1="57.4" y1="243.4" x2="253.3" y2="291.4" spreadMethod="pad" gradientUnits="userSpaceOnUse" gradientTransform="translate(0 0)"><stop id="eHIedoahvqw15-fill-0" offset="0%" stop-color="#4b28c4"/><stop id="eHIedoahvqw15-fill-1" offset="100%" stop-color="#3f02a8"/></linearGradient><linearGradient id="eHIedoahvqw19-fill" x1="147.7" y1="269" x2="147.7" y2="266.8" spreadMethod="pad" gradientUnits="userSpaceOnUse" gradientTransform="translate(0 0)"><stop id="eHIedoahvqw19-fill-0" offset="0%" stop-color="#ced2d8"/><stop id="eHIedoahvqw19-fill-1" offset="100%" stop-color="#9ba0b4"/></linearGradient><linearGradient id="eHIedoahvqw21-fill" x1="259.2" y1="285.6" x2="185.6" y2="218.7" spreadMethod="pad" gradientUnits="userSpaceOnUse" gradientTransform="translate(0 0)"><stop id="eHIedoahvqw21-fill-0" offset="0%" stop-color="#ced2d8"/><stop id="eHIedoahvqw21-fill-1" offset="100%" stop-color="#9ba0b4"/></linearGradient><linearGradient id="eHIedoahvqw22-fill" x1="234.2" y1="187.8" x2="107.9" y2="372.9" spreadMethod="pad" gradientUnits="userSpaceOnUse" gradientTransform="translate(0 0)"><stop id="eHIedoahvqw22-fill-0" offset="0%" stop-color="#ff57a4"/><stop id="eHIedoahvqw22-fill-1" offset="100%" stop-color="#8b3fae"/></linearGradient><linearGradient id="eHIedoahvqw25-fill" x1="278.9" y1="230" x2="278.9" y2="254.7" spreadMethod="pad" gradientUnits="userSpaceOnUse" gradientTransform="translate(0 0)"><stop id="eHIedoahvqw25-fill-0" offset="0%" stop-color="#ced2d8"/><stop id="eHIedoahvqw25-fill-1" offset="100%" stop-color="#9ba0b4"/></linearGradient><linearGradient id="eHIedoahvqw29-fill" x1="211.7" y1="173.7" x2="113.4" y2="317.7" spreadMethod="pad" gradientUnits="userSpaceOnUse" gradientTransform="translate(0 0)"><stop id="eHIedoahvqw29-fill-0" offset="0%" stop-color="#ced2d8"/><stop id="eHIedoahvqw29-fill-1" offset="100%" stop-color="#9ba0b4"/></linearGradient><linearGradient id="eHIedoahvqw48-fill" x1="332.7" y1="75.4" x2="383.1" y2="125.9" spreadMethod="pad" gradientUnits="userSpaceOnUse" gradientTransform="translate(0 0)"><stop id="eHIedoahvqw48-fill-0" offset="0%" stop-color="#ff57a4"/><stop id="eHIedoahvqw48-fill-1" offset="100%" stop-color="#8b3fae"/></linearGradient><linearGradient id="eHIedoahvqw56-fill" x1="332.7" y1="111.3" x2="383.1" y2="161.8" spreadMethod="pad" gradientUnits="userSpaceOnUse" gradientTransform="translate(0 0)"><stop id="eHIedoahvqw56-fill-0" offset="0%" stop-color="#ff57a4"/><stop id="eHIedoahvqw56-fill-1" offset="100%" stop-color="#8b3fae"/></linearGradient><linearGradient id="eHIedoahvqw62-fill" x1="326.1" y1="-11.3" x2="419.8" y2="82.4" spreadMethod="pad" gradientUnits="userSpaceOnUse" gradientTransform="translate(0 0)"><stop id="eHIedoahvqw62-fill-0" offset="0%" stop-color="#3f02a8"/><stop id="eHIedoahvqw62-fill-1" offset="100%" stop-color="#8b3fae"/></linearGradient><linearGradient id="eHIedoahvqw67-fill" x1="79.7" y1="127.8" x2="211.8" y2="238.1" spreadMethod="pad" gradientUnits="userSpaceOnUse" gradientTransform="translate(0 0)"><stop id="eHIedoahvqw67-fill-0" offset="0%" stop-color="#4b28c4"/><stop id="eHIedoahvqw67-fill-1" offset="100%" stop-color="#3f02a8"/></linearGradient><linearGradient id="eHIedoahvqw69-fill" x1="100.6" y1="128.8" x2="183.4" y2="198" spreadMethod="pad" gradientUnits="userSpaceOnUse" gradientTransform="translate(0 0)"><stop id="eHIedoahvqw69-fill-0" offset="0%" stop-color="#4b28c4"/><stop id="eHIedoahvqw69-fill-1" offset="100%" stop-color="#3f02a8"/></linearGradient><linearGradient id="eHIedoahvqw84-fill" x1="63.3" y1="61.5" x2="108.6" y2="119.1" spreadMethod="pad" gradientUnits="userSpaceOnUse" gradientTransform="translate(0 0)"><stop id="eHIedoahvqw84-fill-0" offset="0%" stop-color="#3f02a8"/><stop id="eHIedoahvqw84-fill-1" offset="100%" stop-color="#8b3fae"/></linearGradient><linearGradient id="eHIedoahvqw90-fill" x1="247.5" y1="333.9" x2="340.7" y2="333.9" spreadMethod="pad" gradientUnits="userSpaceOnUse" gradientTransform="translate(0 0)"><stop id="eHIedoahvqw90-fill-0" offset="0%" stop-color="#525dea"/><stop id="eHIedoahvqw90-fill-1" offset="100%" stop-color="#4b28c4"/></linearGradient><linearGradient id="eHIedoahvqw92-fill" x1="247.5" y1="334" x2="340.7" y2="334" spreadMethod="pad" gradientUnits="userSpaceOnUse" gradientTransform="translate(0 0)"><stop id="eHIedoahvqw92-fill-0" offset="0%" stop-color="#525dea"/><stop id="eHIedoahvqw92-fill-1" offset="100%" stop-color="#4b28c4"/></linearGradient><linearGradient id="eHIedoahvqw94-fill" x1="374.2" y1="373.8" x2="263.4" y2="373.8" spreadMethod="pad" gradientUnits="userSpaceOnUse" gradientTransform="translate(0 0)"><stop id="eHIedoahvqw94-fill-0" offset="0%" stop-color="#525dea"/><stop id="eHIedoahvqw94-fill-1" offset="100%" stop-color="#4b28c4"/></linearGradient><linearGradient id="eHIedoahvqw109-fill" x1="344.5" y1="163.3" x2="335.8" y2="236.1" spreadMethod="pad" gradientUnits="userSpaceOnUse" gradientTransform="translate(0 0)"><stop id="eHIedoahvqw109-fill-0" offset="0%" stop-color="#3f02a8"/><stop id="eHIedoahvqw109-fill-1" offset="100%" stop-color="#8b3fae"/></linearGradient></defs><g id="eHIedoahvqw2_tr" transform="translate(95.75,108.900009) rotate(269.999996)"><path style="mix-blend-mode:multiply" d="M180.1,130.3h-14.4c-2.5,0-4.7,1.5-5.6,3.8q-.5,1.3-1.1,2.5c-1,2.2-.5,4.9,1.3,6.7l10.2,10.2c2.4,2.3,2.4,6.2,0,8.5l-21.6,21.7c-2.4,2.3-6.2,2.3-8.6,0l-10.2-10.2c-1.8-1.8-4.4-2.3-6.7-1.3q-1.2.5-2.4,1c-2.4.9-3.9,3.2-3.9,5.6v14.5c0,3.3-2.7,6-6,6h-30.7c-3.3,0-6-2.7-6-6v-14.5c0-2.4-1.5-4.7-3.9-5.6q-1.2-.5-2.4-1c-2.3-1-4.9-.5-6.7,1.3L51.2,183.7c-2.4,2.3-6.2,2.3-8.6,0L21,162c-2.4-2.3-2.4-6.2,0-8.5l10.2-10.2c1.8-1.8,2.3-4.5,1.3-6.7q-.6-1.2-1.1-2.5c-.9-2.3-3.1-3.8-5.6-3.8h-14.4c-3.4,0-6.1-2.7-6.1-6.1v-30.6c0-3.3,2.7-6,6.1-6h14.4c2.5,0,4.7-1.6,5.6-3.9q.5-1.2,1.1-2.4c1-2.3.5-5-1.3-6.7L21,64.4c-2.4-2.4-2.4-6.2,0-8.6L42.6,34.2c2.4-2.4,6.2-2.4,8.6,0L61.4,44.4c1.8,1.7,4.4,2.2,6.7,1.2q1.2-.5,2.4-1c2.4-.9,3.9-3.1,3.9-5.6v-14.5c0-3.3,2.7-6,6-6h30.7c3.3,0,6,2.7,6,6v14.5c0,2.5,1.5,4.7,3.9,5.6q1.2.5,2.4,1c2.3,1,4.9.5,6.7-1.2l10.2-10.2c2.4-2.4,6.2-2.4,8.6,0l21.6,21.6c2.4,2.4,2.4,6.2,0,8.6L160.3,74.6c-1.8,1.7-2.3,4.4-1.3,6.7q.6,1.2,1.1,2.4c.9,2.3,3.1,3.9,5.6,3.9h14.4c3.4,0,6.1,2.7,6.1,6v30.6c0,3.4-2.7,6.1-6.1,6.1ZM95.7,73c-19.8,0-35.8,16.1-35.8,35.9s16,35.9,35.8,35.9c19.9,0,35.9-16.1,35.9-35.9s-16-35.9-35.9-35.9Z" transform="translate(-95.75,-108.900009)" fill="url(#eHIedoahvqw2-fill)" fill-rule="evenodd"/></g><path d="M153.9,108.9c0,31.1-25.1,56.2-56.2,56.2-31,0-56.2-25.1-56.2-56.2c0-31,25.2-56.2,56.2-56.2c31.1,0,56.2,25.2,56.2,56.2Z" fill="none" stroke="#fff" stroke-width="2"/><path style="mix-blend-mode:multiply" d="M403.6,365.4c0,9.6-87.3,17.4-195,17.4s-195-7.8-195-17.4c0-9.5,87.3-17.3,195-17.3s195,7.8,195,17.3Z" fill-opacity="0.3"/><path d="M197.7,352.9v-38.5h72.4c1.4,0,2.6-1.1,2.6-2.6s-1.2-2.7-2.6-2.7h-199.4c-1.8,0-3.2,1.5-3.2,3.3v42.6c0,1.8,1.4,3.3,3.2,3.3h199.4c1.4,0,2.6-1.2,2.6-2.7s-1.2-2.7-2.6-2.7Z" fill="url(#eHIedoahvqw5-fill)"/><path d="M270.1,352.9h-72.4v-38.5h72.4Z" fill="url(#eHIedoahvqw6-fill)"/><path d="M197.7,352.9h-124.5v-38.5h124.5Z" fill="url(#eHIedoahvqw7-fill)"/><path style="mix-blend-mode:multiply" d="M270.1,317.9h-196.9v-3.5h196.9Z" opacity="0.4" fill="#383838"/><path style="mix-blend-mode:multiply" d="M94.5,347.6l-6.9-6.2-6.8,6.2v-33.2h13.7Z" opacity="0.4" fill="#383838"/><path d="M93.8,346.5L86.7,340l-7,6.5v-32.1h14.1Z" fill="#ff57a4"/><path style="mix-blend-mode:overlay" d="M91.8,316.6v25.9l-5.1-4.7-7,7v1.7l7-6.5l7.1,6.5v-29.9Z" fill="url(#eHIedoahvqw11-fill)"/><path style="mix-blend-mode:multiply" d="M93.8,316.6h-14.1v-2.2h14.1Z" opacity="0.4" fill="#383838"/><path style="mix-blend-mode:overlay" d="M67.5,311.7h205.2c-.1-1.4-1.2-2.6-2.7-2.6h-199.3c-1.6,0-2.9,1.1-3.2,2.6Z" fill="url(#eHIedoahvqw13-fill)"/><path style="mix-blend-mode:multiply" d="M272.7,355.7h-205.2c.4,1.6,1.7,2.6,3.2,2.6h199.3c1.3,0,2.7-1.1,2.7-2.6Z" opacity="0.4" fill="#383838"/><path d="M249.7,309.1h-204v-42.5h204Z" fill="url(#eHIedoahvqw15-fill)"/><path d="M242.7,309.1h-26.5v-42.5h26.5Z" fill="#525dea"/><path d="M207.4,282.8h-137.7v10.1h137.7Z" fill="#525dea"/><path d="M235.7,287.9c0,3.4-2.8,6.2-6.2,6.2s-6.2-2.8-6.2-6.2c0-3.5,2.8-6.3,6.2-6.3s6.2,2.8,6.2,6.3Z" fill="#4b28c4"/><path style="mix-blend-mode:overlay" d="M249.7,269.2h-204v-2.6h204Z" fill="url(#eHIedoahvqw19-fill)"/><path style="mix-blend-mode:multiply" d="M249.7,306.2h-204v2.9h204Z" opacity="0.4" fill="#383838"/><path d="M275.9,261.3h-72.4v-32.5h72.4Z" fill="url(#eHIedoahvqw21-fill)"/><path d="M275.9,228.8c1.4,0,2.6-1.2,2.6-2.7c0-1.4-1.2-2.6-2.6-2.6h-199.4c-1.8,0-3.3,1.4-3.3,3.2v36.6c0,1.8,1.5,3.3,3.3,3.3h199.4c1.4,0,2.6-1.2,2.6-2.7c0-1.4-1.2-2.6-2.6-2.6h-72.4v-32.5Z" fill="url(#eHIedoahvqw22-fill)"/><path style="mix-blend-mode:multiply" d="M275.9,228.8h-72.4v32.5h2.8v-29.8h3.2v23.5l4.3-3.8v-19.7h62.1Z" opacity="0.4" fill="#383838"/><path d="M212.9,250.1l-4.3,3.8v-25.1h4.3Z" fill="#8b3fae"/><path style="mix-blend-mode:overlay" d="M212.1,229.7v19.8l-3.5,3v1.4l4.3-3.8v-20.4Z" fill="url(#eHIedoahvqw25-fill)"/><path style="mix-blend-mode:multiply" d="M212.9,229.7h-4.3v-.9h4.3Z" opacity="0.4" fill="#383838"/><path d="M184.1,266.6h-6.1v-43.1h6.1Z" fill="#ff57a4"/><path d="M174.8,266.6h-6.2v-43.1h6.2Z" fill="#ff57a4"/><path style="mix-blend-mode:overlay" d="M73.3,226h205.2c-.1-1.4-1.2-2.5-2.6-2.5h-199.4c-1.6,0-2.9,1.1-3.2,2.5Z" fill="url(#eHIedoahvqw29-fill)"/><path style="mix-blend-mode:multiply" d="M278.5,264h-205.2c.4,1.7,1.8,2.6,3.2,2.6h199.4c1.2,0,2.6-1,2.6-2.6Z" opacity="0.4" fill="#383838"/><path d="M354.7,208.5h-232.7L122,58h232.7Z" fill="#e6e8ec"/><path d="M354.7,67.3h-232.7v-9.3h232.7Z" fill="#ced2d8"/><path d="M327.7,178h-178.7v-104.8h178.7Z" fill="#525dea"/><g id="eHIedoahvqw34_ts" transform="translate(238.350006,125.650002) scale(1,1)"><g transform="translate(-238.350006,-125.650001)"><path d="M252.1,135.6h-27.5v-19.9h27.5Z" fill="#3f02a8"/><path d="M244,125.6l-11.3-6.5v13Z" fill="#fff"/></g></g><path d="M218.6,193.5h-69.6v-5.5h69.6Z" fill="#ced2d8"/><path d="M253.4,199.5h-104.4v-3.3h104.4Z" fill="#ced2d8"/><path d="M307.6,190.7c0,1.8-1.4,3.2-3.1,3.2s-3.2-1.4-3.2-3.2c0-1.7,1.5-3.1,3.2-3.1s3.1,1.4,3.1,3.1Z" fill="#ced2d8"/><path d="M316.6,190.7c0,1.8-1.5,3.2-3.2,3.2s-3.1-1.4-3.1-3.2c0-1.7,1.4-3.1,3.1-3.1s3.2,1.4,3.2,3.1Z" fill="#ced2d8"/><path d="M325.5,190.7c0,1.8-1.4,3.2-3.1,3.2-1.8,0-3.2-1.4-3.2-3.2c0-1.7,1.4-3.1,3.2-3.1c1.7,0,3.1,1.4,3.1,3.1Z" fill="#ced2d8"/><path d="M131.4,62.6c0,1.6-1.3,2.9-2.8,2.9-1.6,0-2.9-1.3-2.9-2.9c0-1.5,1.3-2.8,2.9-2.8c1.5,0,2.8,1.3,2.8,2.8Z" fill="#3f02a8"/><path d="M138.8,62.6c0,1.6-1.3,2.9-2.8,2.9-1.6,0-2.8-1.3-2.8-2.9c0-1.5,1.2-2.8,2.8-2.8c1.5,0,2.8,1.3,2.8,2.8Z" fill="#8b3fae"/><path d="M138.8,62.6c0,1.6-1.3,2.9-2.8,2.9-1.6,0-2.8-1.3-2.8-2.9c0-1.5,1.2-2.8,2.8-2.8c1.5,0,2.8,1.3,2.8,2.8Z" transform="translate(7.7 0)" fill="#c036a1"/><path d="M146.2,62.6c0,1.6-1.2,2.9-2.8,2.9s-2.8-1.3-2.8-2.9c0-1.5,1.2-2.8,2.8-2.8s2.8,1.3,2.8,2.8Z" transform="translate(196.900009 53.655557)" fill="#ff57a4"/><g style="mix-blend-mode:multiply" opacity="0.1"><path d="M356.7,117.8c0,9-7.3,16.3-16.4,16.3-9,0-16.3-7.3-16.3-16.3c0-9.1,7.3-16.4,16.3-16.4c9.1,0,16.4,7.3,16.4,16.4Z"/></g><path d="M356.7,115.8c0,9-7.3,16.3-16.4,16.3-9,0-16.3-7.3-16.3-16.3c0-9.1,7.3-16.4,16.3-16.4c9.1,0,16.4,7.3,16.4,16.4Z" fill="url(#eHIedoahvqw48-fill)"/><g id="eHIedoahvqw49_to" transform="translate(340.300003,116.305557)"><g transform="translate(-340.300003,-116.305557)"><path d="M349.5,117.7c0-.1-.1-.3-.2-.3v-2.5l-.3.1v2.4c-.1,0-.2.2-.2.3q0,.2.2.3l-.2,1.5c.4.2.7,0,.7,0l-.2-1.5q.2-.1.2-.3Z" fill="#fff"/><path d="M351.6,113.8l-11.3-2.9-11.3,2.9l11.3,2.9Z" fill="#fff"/><path d="M334.9,116.5v4.1c5.4,2.5,10.9,0,10.9,0v-4.1l-5.5,1.4Z" fill="#fff"/></g></g><g style="mix-blend-mode:multiply" opacity="0.1"><path d="M356.7,153.7c0,9-7.3,16.4-16.4,16.4-9,0-16.3-7.4-16.3-16.4s7.3-16.4,16.3-16.4c9.1,0,16.4,7.4,16.4,16.4Z"/></g><g id="eHIedoahvqw55_to" transform="translate(340.350006,151.700005)"><g transform="translate(-340.350006,-151.700004)"><path d="M356.7,151.7c0,9-7.3,16.4-16.4,16.4-9,0-16.3-7.4-16.3-16.4s7.3-16.4,16.3-16.4c9.1,0,16.4,7.4,16.4,16.4Z" fill="url(#eHIedoahvqw56-fill)"/><path d="M347.3,149.5c0,.8-1.1,1.5-1.5,2.2-.3.8,0,2.1-.6,2.7-.6.5-1.8.2-2.6.6-.7.3-1.4,1.4-2.3,1.4-.8,0-1.5-1.1-2.3-1.4-.7-.4-2-.1-2.6-.6-.6-.6-.3-1.9-.6-2.7-.3-.7-1.4-1.4-1.4-2.2c0-.9,1.1-1.6,1.4-2.3.3-.8,0-2.1.6-2.6.6-.6,1.9-.3,2.6-.7.8-.3,1.5-1.4,2.3-1.4.9,0,1.6,1.1,2.3,1.4.8.4,2,.1,2.6.7.6.5.3,1.8.6,2.6.4.7,1.5,1.4,1.5,2.3Zm-3,0c0-2.3-1.8-4.1-4-4.1s-4,1.8-4,4.1c0,2.2,1.8,4,4,4s4-1.8,4-4Z" fill="#fff" fill-rule="evenodd"/><path d="M340.3,157.5c-.8,0-1.4-.8-2.1-1.3v5.6l2.1-1.7l2.2,1.7v-5.6c-.7.5-1.4,1.3-2.2,1.3Z" fill="#fff"/></g></g><g style="mix-blend-mode:multiply" opacity="0.1"><path d="M370.7,65.7c0,16.8-13.6,30.4-30.4,30.4s-30.4-13.6-30.4-30.4s13.6-30.4,30.4-30.4s30.4,13.6,30.4,30.4Z"/></g><g id="eHIedoahvqw61_ts" transform="translate(340.699997,63.699999) scale(1,1)"><g transform="translate(-340.699997,-63.699998)"><path d="M370.7,63.7c0,16.8-13.6,30.4-30.4,30.4s-30.4-13.6-30.4-30.4s13.6-30.4,30.4-30.4s30.4,13.6,30.4,30.4Z" transform="translate(.4 0)" fill="url(#eHIedoahvqw62-fill)"/><path d="M350.8,54.9c0,6.6-4.7,11.9-10.5,11.9-5.7,0-10.4-5.3-10.4-11.9c0-6.5,4.7-11.9,10.4-11.9c5.8,0,10.5,5.4,10.5,11.9Z" fill="none" stroke="#fff" stroke-width="2"/><path d="M360.5,78.2c0-4.8-4.2-7-10.4-9.1-2.6,2.7-6,2.3-9.8,2.3s-7.2.4-9.8-2.3c-6.2,2.1-10.4,4.3-10.4,9.1" fill="none" stroke="#fff" stroke-width="2"/></g></g><path d="M101,177.3c0,0,2.6,8.6.8,14.4s-4.1,9.3-4.1,9.3l1.4.7c0,0,8.6-5.3,10.6-11.2c2-6,0-14.4,0-14.4Z" fill="#d7dadf"/><path d="M101.5,118.5c-5.8,3.1-1.9,7.7-6.6,14.5-1.9,2.9-1.7,6.3.8,8.9c4.4,4.5-.2,5.3,1.2,9.5c1.6,4.5,12.8,3.9,15.1-1.4c2.5-6.1-3.4-35.2-10.5-31.5Z" fill="#ff57a4"/><path d="M108.3,202c-18.3,6.5-26.1,18.7-25.1,32c1,13.2,5.3,29.7,4.4,33.9c0,0-6.4,9.9-4.4,11.6c2,1.8,10.4-12.3,11.3-15.5c2-6.9-3-29.5,2-34.8c5-5.2,26.9-20.9,47.2-22.1c0,0-15.1-12.4-35.4-5.1Z" fill="url(#eHIedoahvqw67-fill)"/><path style="mix-blend-mode:multiply" d="M94.6,249.7c-.5-8.3-1-17.4,1.9-20.5c5-5.2,26.9-20.9,47.2-22.1c0,0-15.1-12.4-35.4-5.1-7.2,2.6-13.1,6.4-17.6,10.8-8.6,9.1,3.1,21.5,3.9,36.9Z" opacity="0.4" fill="#383838"/><path d="M143.7,207.1c0,17.6-9.2,16.4-24.7,16.4s-8,29.9,0,37.8c0,0,4.7,5.5-1.8,17s-2.2-11.7-2.2-11.7-21.2-21.1-21.4-40.6c-.1-19.5,25.4-25.2,25.4-25.2s24.7-5.1,24.7,6.3Z" fill="url(#eHIedoahvqw69-fill)"/><path d="M108.8,150.6c-11.9,3.9-11.1,18.9-9.5,26.4c0,0,6.4,2.3,10.9-4c3.6-4.9,1.8-23.4-1.4-22.4Z" fill="#a163bd"/><path d="M108.8,150.6c-5.7,3.3-8.5,15.8-.5,30.7c6,11.1,0,20.7,0,20.7s14.7-4.9,35.4,5.1c0-8-.7-20.1-3.7-31.5-2.3-8.5-5.8-16.6-11.4-22.3-3.3-3.4-7.7-5.4-12.8-4.2Z" fill="#a163bd"/><path d="M106.5,138.9c0,0,2.8,4.7,2.3,11.9c0,0-1.1,1.8.5,3.7.8,0,1.7-2.1,4.4-2.6c5.3-1.1.6-15.3.6-15.3Z" fill="#d7dadf"/><path d="M97.7,128.4c-.5,4.5,1.9,13,4.8,15.3c5.5,4.6,11.3-2.8,12.5-8.2c0,0,2.8,1.8,3.9-4.1.6-3.3-.8-4.3-2-4.1-.9.2-1.6,1.2-1.6,1.2s-2-7.9-8.4-5.6-7.9-5.3-9.2,5.5Z" fill="#d7dadf"/><path d="M103.5,118.8c-.4,0-9.1,1.3-7.6,11.2c0,0,5.7,3,15.8,0c0,0,.3-11-8.2-11.2Z" fill="#ff57a4"/><path d="M103.6,199.2l33-.2-22.4,9.6-33,.1Z" fill="#9ba0b4"/><path d="M114.2,208.6h-33L65.1,186l1.7-1h32.1Z" fill="#aeb2c2"/><path d="M112.8,208.6h-31.6L65.1,186h33Z" fill="#d7dadf"/><path d="M114.2,211.7h-33v-3.1h33Z" fill="#aeb2c2"/><path d="M114.2,211.7l22.4-10.3v-2.4l-22.4,9.6Z" fill="#aeb2c2"/><path d="M124.6,151.3c-5.4,1.1-4.2,9.3,4,16.7c8.1,7.5,10.4,14,4,21.2-3.3,3.8-18.7,9.6-19.3,13.5c0,0-.8,2.9,5.4,0c6.2-3,4.3-5.1,6.7-5.4c4.1-.5,16.6-7,18.3-12.3c3.3-10.5-9.2-35.8-19.1-33.7Z" fill="#d7dadf"/><path d="M124,150.2c-8.1,2.8-1.6,14.9,7.4,22.8c0,0,5.5,1.1,10.1-6.2c0,0-8.5-19.7-17.5-16.6Z" fill="#a163bd"/><path d="M110.7,126.1c2,1.3,1.7,3.5,1.7,7.1c0,3.7,1.6,3.7,2.3,7.3.7,3.7-6.3,7.9-1.6,12.6s16.7.4,15.4-6.8c-.9-4.8-5.6-4.7-3.6-10c2.3-6.5-1.9-6.2-4.3-8.9-1.3-1.6-3.3-7.6-6.9-9.5-4.2-2.2-10.5-2.1-15.2,3.2Z" fill="#ff57a4"/><g id="eHIedoahvqw83_tr" transform="translate(87.65,131.247284) rotate(-28.060215)"><g transform="translate(-87.649999,-131.247283)"><path d="M83.3,99.7c-7.5-7.5-19.7-7.5-27.2,0s-7.5,19.7,0,27.2c6.5,6.4,16.5,7.3,23.9,2.6l7,1.1-1.1-7c4.7-7.5,3.9-17.4-2.6-23.9Z" fill="url(#eHIedoahvqw84-fill)"/><path d="M65.3,108.1l-1.1-1.7q.5-.4,1.1-.8t1.3-.6q.6-.3,1.4-.5.8-.1,1.6-.1q1.3,0,2.3.3q1,.4,1.7,1t1.1,1.5q.4.8.4,1.9q0,1-.3,1.8-.3.7-.7,1.2-.4.6-1,1-.5.4-.9.7-.5.4-.8.7-.4.3-.4.7l-.4,1.9h-2.8l-.3-2.1q-.1-.7.1-1.2t.6-.8q.5-.4,1-.8t1-.8q.4-.4.7-.9t.3-1.2q0-.8-.5-1.2-.5-.5-1.4-.5-.7,0-1.2.1-.5.2-.8.4-.4.2-.6.3-.3.1-.5.1-.6,0-.9-.4Zm1.4,13.8q0-.5.2-.9t.5-.7.7-.5.9-.2t1,.2q.4.2.7.5t.5.7.2.9-.2.9-.5.7-.7.5q-.5.2-1,.2t-.9-.2-.7-.5-.5-.7-.2-.9Z" fill="#fff"/></g></g><path d="M280.6,307.3c0,0,3.4,15.4,2.7,18.5-.8,3.2-7.5,6.6-7.5,6.6s-3.8,0-5.9,2.2c-3.5,3.5,6.2,5.4,6.2,5.4s16.6-7.4,18.1-15.1-3.1-18.9-3.1-18.9Z" fill="#d7dadf"/><path d="M308.1,274.9c-15.5,2.1-31.1,14.2-27.5,32.4h12.5Z" fill="#525dea"/><path d="M343.6,307.3c0,0-3.4,15.4-2.6,18.5.7,3.2,7.4,6.6,7.4,6.6s3.8,0,5.9,2.2c3.5,3.5-6.2,5.4-6.2,5.4s-16.6-7.4-18.1-15.1s3.1-18.9,3.1-18.9Z" fill="#d7dadf"/><path d="M316.1,274.9c15.5,2.1,31.2,14.2,27.5,32.4h-12.5Z" fill="#525dea"/><path d="M328.2,348.4c2.9,4.2,27.2-17.4,41.5-14.2c0,0,3.3,39.5-57.3,39.5s-57.2-39.5-57.2-39.5c14.2-3.2,38.5,18.4,41.5,14.2Z" fill="url(#eHIedoahvqw90-fill)"/><path style="mix-blend-mode:multiply" d="M309.6,362.7c-3.1-.9-6.6-2.4-10.3-4.8-6.5-4.3-17-14.1-27.6-18.7l36.9,30.2c1.7-.5,13.2-.4,18.4-1.9c13.5-4,31.3-31,31.3-31-10.1,3.5-32.8,22.7-48.7,26.2Z" opacity="0.4" fill="#383838"/><path d="M290.8,353.8c3.9,3.7,26.6,21.9,38.8,15.5c12.1-6.4,26.9,4.3,21.3,4.3s-22.4,0-22.4,0c-85.5,2.7-87.5-36.1-73.3-39.4c0,0,10.1-3.8,35.6,19.6Z" fill="url(#eHIedoahvqw92-fill)"/><path style="mix-blend-mode:multiply" d="M308.7,366.2c-6.2,2.2-14.4,2-19.6,1.2c0,0,2.3,4.9,17.1,4.9c2.7,0,6.1-1.1,9.8-3-2.9-1-4.5-1.8-7.3-3.1Z" opacity="0.4" fill="#383838"/><path d="M334.1,353.8c-4,3.7-26.7,21.9-38.8,15.5-12.2-6.4-27,4.3-21.4,4.3c5.7,0,22.4,0,22.4,0c85.6,2.7,87.6-36.1,73.4-39.4c0,0-10.1-3.8-35.6,19.6Z" fill="url(#eHIedoahvqw94-fill)"/><path d="M312.4,352.8c13,0,15.8-4.4,15.8-4.4s-1.2-10.5,5.3-35.9-7.1-38-21.1-38c-13.9,0-27.6,12.6-21,38c6.5,25.4,5.3,35.9,5.3,35.9s2.7,4.4,15.7,4.4Z" fill="#525dea"/><path d="M328.5,257l-16.1-9.3-15.7,9.5c5.8,2.1-1.2,6.8,3.6,10.7c1.9,1.6,3.5.8,5.5.8c1.8,0,2.9,2.1,6.6,2.1c3.1,0,4.5-2.6,6.7-2.1c1.8.5,3.6.8,5.5-.8c4.7-3.9-2.2-7.8,3.9-10.9Z" fill="#6332b9"/><path d="M317.2,268.3c-1.4,5.7-.5,10.7-.5,10.7s-.5,2.2-4.6,2c-4.1,0-4.5-2.2-4.5-2.2s1.2-5.2,0-10.7Z" fill="#d7dadf"/><path d="M305.4,260.4c.7,2.2.1,4.3-1.3,4.7-1.5.4-3.2-1.1-3.9-3.4-.7-2.2-.1-4.3,1.4-4.7c1.4-.4,3.2,1.1,3.8,3.4Z" fill="#d7dadf"/><path d="M319.4,260.4c-.7,2.2,0,4.3,1.4,4.7c1.5.4,3.2-1.1,3.9-3.4.7-2.2,0-4.3-1.4-4.7-1.5-.4-3.2,1.1-3.9,3.4Z" fill="#d7dadf"/><path d="M323.2,257.8c0,7.2-4.8,13-10.8,13-5.9,0-10.7-5.8-10.7-13c0-7.3,4.8-13.1,10.7-13.1c6,0,10.8,5.8,10.8,13.1Z" fill="#d7dadf"/><path d="M312.4,234.7c5.3,0,5.1,4.9,10.8,3.9c3.3-.6,6.7,3.9,4.9,7.6-3.5,7,2.9,4,2.6,8.4-.2,4.4-6,3.8-6,3.8-.2-.9-1.4-1.4-1.4-1.4l-.8,5.2c0,0-1.7-.3-1.9-1.6-.3-1.4.7-4,.9-5c.3-1.8-1.7-.8-3.4-1.1-2.8-.4-4.8-2.8-7.7-1.7-6.1,2.2-6.8.8-7,2.8-.2,1,1.1,3.6.9,5-.3,1.3-1.9,1.6-1.9,1.6l-.8-5.2c0,0-1.2.5-1.4,1.4c0,0-5.8.6-6.1-3.8s6.3-2.4,2.1-8.9c-1.9-3.1.1-8.4,5.5-6.2c5.4,2.1,5.5-4.8,10.7-4.8Z" fill="#6332b9"/><path d="M319.1,357.8c0,.9-3,1.7-6.7,1.7-3.6,0-6.6-.8-6.6-1.7c0-1,3-1.7,6.6-1.7c3.7,0,6.7.7,6.7,1.7Z" fill="#383838"/><path d="M312.4,360.5c5.8,0,6.3-1.2,6.3-1.2L356,337.6v-1.9l-37.3,21.7c0,0-.5,1.3-6.3,1.3s-6.3-1.3-6.3-1.3l-37.3-21.7v1.9l37.3,21.7c0,0,.5,1.2,6.3,1.2Z" fill="#8b3fae"/><path d="M269.7,336.3l5.2-3.1c0,0,37.6,5.5,37.5,18.8v4.3c0,0-4.5.3-6.3,1.1Z" fill="#9ba0b4"/><path d="M274.9,333.2l-5.2,3.1l36.4,21.1c1.8-.8,6.3-1.1,6.3-1.1-.1-13-37.5-23.1-37.5-23.1Z" fill="#ced2d8"/><path d="M355.1,336.3l-5.1-3.1c0,0-37.6,5.5-37.6,18.8v4.3c0,0,4.5.3,6.3,1.1Z" fill="#9ba0b4"/><path d="M350,333.2l5.1,3.1-36.4,21.1c-1.8-.8-6.3-1.1-6.3-1.1.2-13,37.6-23.1,37.6-23.1Z" fill="#ced2d8"/><g id="eHIedoahvqw108_tr" transform="translate(312.6,228.8) rotate(0)"><g transform="translate(-312.6,-228.799999)"><path d="M331.6,204.5c0-10.6-8.6-19.2-19.2-19.2s-19.2,8.6-19.2,19.2c0,9.2,6.4,16.8,15,18.8l4.2,5.7l4.2-5.7c8.6-2,15-9.6,15-18.8Z" fill="url(#eHIedoahvqw109-fill)"/><path d="M318.4,201c0-3.6-3.3-6.5-7.1-5.8-2.4.4-4.3,2.4-4.7,4.8-.4,2.1.3,4,1.6,5.2c1,1,1.6,2.3,1.6,3.7v.4c0,.7.5,1.3,1.3,1.3h2.7c.7,0,1.3-.6,1.3-1.3v-.4c0-1.3.5-2.6,1.4-3.5c1.2-1.1,1.9-2.7,1.9-4.4Z" fill="#fff"/><path d="M314.6,211.4h-4.3c-.4,0-.7.3-.7.7c0,.3.3.6.7.6h4.3c.3,0,.6-.3.6-.6c0-.4-.3-.7-.6-.7Z" fill="#fff"/><path d="M314.3,213.5h-3.7c-.4,0-.6.3-.6.6s.2.5.6.5h3.7c.3,0,.6-.2.6-.5s-.3-.6-.6-.6Z" fill="#fff"/></g></g></svg>
