<svg version="1.2" xmlns="http://www.w3.org/2000/svg" viewBox="0 0 408 393" width="408" height="393"><defs><linearGradient id="P" gradientUnits="userSpaceOnUse"/><linearGradient id="g1" x1="59.7" y1="-66.3" x2="205.9" y2="31.7" href="#P"><stop stop-color="#525dea"/><stop offset="1" stop-color="#4b28c4"/></linearGradient><linearGradient id="g2" x1="67.5" y1="309.1" x2="272.7" y2="309.1" href="#P"><stop stop-color="#8b3fae"/><stop offset="1" stop-color="#3f02a8"/></linearGradient><linearGradient id="g3" x1="299.9" y1="422.1" x2="180.6" y2="313.8" href="#P"><stop stop-color="#383838"/><stop offset="1" stop-color="#9ba0b4"/></linearGradient><linearGradient id="g4" x1="112.5" y1="280.2" x2="203.3" y2="387.7" href="#P"><stop stop-color="#ced2d8"/><stop offset="1" stop-color="#9ba0b4"/></linearGradient><linearGradient id="g5" x1="54.9" y1="345" x2="54.9" y2="318.6" href="#P"><stop stop-color="#ced2d8"/><stop offset="1" stop-color="#9ba0b4"/></linearGradient><linearGradient id="g6" x1="205.8" y1="259.3" x2="107.6" y2="403.3" href="#P"><stop stop-color="#ced2d8"/><stop offset="1" stop-color="#9ba0b4"/></linearGradient><linearGradient id="g7" x1="57.4" y1="243.4" x2="253.3" y2="291.4" href="#P"><stop stop-color="#4b28c4"/><stop offset="1" stop-color="#3f02a8"/></linearGradient><linearGradient id="g8" x1="147.7" y1="269" x2="147.7" y2="266.8" href="#P"><stop stop-color="#ced2d8"/><stop offset="1" stop-color="#9ba0b4"/></linearGradient><linearGradient id="g9" x1="259.2" y1="285.6" x2="185.6" y2="218.7" href="#P"><stop stop-color="#ced2d8"/><stop offset="1" stop-color="#9ba0b4"/></linearGradient><linearGradient id="g10" x1="234.2" y1="187.8" x2="107.9" y2="372.9" href="#P"><stop stop-color="#ff57a4"/><stop offset="1" stop-color="#8b3fae"/></linearGradient><linearGradient id="g11" x1="278.9" y1="230" x2="278.9" y2="254.7" href="#P"><stop stop-color="#ced2d8"/><stop offset="1" stop-color="#9ba0b4"/></linearGradient><linearGradient id="g12" x1="211.7" y1="173.7" x2="113.4" y2="317.7" href="#P"><stop stop-color="#ced2d8"/><stop offset="1" stop-color="#9ba0b4"/></linearGradient><linearGradient id="g13" x1="332.7" y1="75.4" x2="383.1" y2="125.9" href="#P"><stop stop-color="#ff57a4"/><stop offset="1" stop-color="#8b3fae"/></linearGradient><linearGradient id="g14" x1="332.7" y1="111.3" x2="383.1" y2="161.8" href="#P"><stop stop-color="#ff57a4"/><stop offset="1" stop-color="#8b3fae"/></linearGradient><linearGradient id="g15" x1="326.1" y1="-11.3" x2="419.8" y2="82.4" href="#P"><stop stop-color="#3f02a8"/><stop offset="1" stop-color="#8b3fae"/></linearGradient><linearGradient id="g16" x1="79.7" y1="127.8" x2="211.8" y2="238.1" href="#P"><stop stop-color="#4b28c4"/><stop offset="1" stop-color="#3f02a8"/></linearGradient><linearGradient id="g17" x1="100.6" y1="128.8" x2="183.4" y2="198" href="#P"><stop stop-color="#4b28c4"/><stop offset="1" stop-color="#3f02a8"/></linearGradient><linearGradient id="g18" x1="63.3" y1="61.5" x2="108.6" y2="119.1" href="#P"><stop stop-color="#3f02a8"/><stop offset="1" stop-color="#8b3fae"/></linearGradient><linearGradient id="g19" x1="247.5" y1="333.9" x2="340.7" y2="333.9" href="#P"><stop stop-color="#525dea"/><stop offset="1" stop-color="#4b28c4"/></linearGradient><linearGradient id="g20" x1="247.5" y1="334" x2="340.7" y2="334" href="#P"><stop stop-color="#525dea"/><stop offset="1" stop-color="#4b28c4"/></linearGradient><linearGradient id="g21" x1="374.2" y1="373.8" x2="263.4" y2="373.8" href="#P"><stop stop-color="#525dea"/><stop offset="1" stop-color="#4b28c4"/></linearGradient><linearGradient id="g22" x1="344.5" y1="163.3" x2="335.8" y2="236.1" href="#P"><stop stop-color="#3f02a8"/><stop offset="1" stop-color="#8b3fae"/></linearGradient></defs><style>.a{mix-blend-mode:multiply;fill:url(#g1)}.b{fill:none;stroke:#fff;stroke-width:2}.c{fill-opacity:.3;mix-blend-mode:multiply}.d{fill:url(#g2)}.e{fill:url(#g3)}.f{fill:url(#g4)}.g{opacity:.4;mix-blend-mode:multiply;fill:#383838}.h{fill:#ff57a4}.i{mix-blend-mode:overlay;fill:url(#g5)}.j{mix-blend-mode:overlay;fill:url(#g6)}.k{fill:url(#g7)}.l{fill:#525dea}.m{fill:#4b28c4}.n{mix-blend-mode:overlay;fill:url(#g8)}.o{fill:url(#g9)}.p{fill:url(#g10)}.q{fill:#8b3fae}.r{mix-blend-mode:overlay;fill:url(#g11)}.s{mix-blend-mode:overlay;fill:url(#g12)}.t{fill:#e6e8ec}.u{fill:#ced2d8}.v{fill:#3f02a8}.w{fill:#fff}.x{fill:url(#g13)}.y{fill:url(#g14)}.z{fill:url(#g15)}.A{fill:#d7dadf}.B{fill:url(#g16)}.C{fill:url(#g17)}.D{fill:#a163bd}.E{fill:#9ba0b4}.F{fill:#aeb2c2}.G{fill:url(#g18)}.H{fill:url(#g19)}.I{fill:url(#g20)}.J{fill:url(#g21)}.K{fill:#6332b9}.L{fill:#383838}.M{fill:url(#g22)}</style><path fill-rule="evenodd" class="a" d="m180.1 130.3h-14.4c-2.5 0-4.7 1.5-5.6 3.8q-0.5 1.3-1.1 2.5c-1 2.2-0.5 4.9 1.3 6.7l10.2 10.2c2.4 2.3 2.4 6.2 0 8.5l-21.6 21.7c-2.4 2.3-6.2 2.3-8.6 0l-10.2-10.2c-1.8-1.8-4.4-2.3-6.7-1.3q-1.2 0.5-2.4 1c-2.4 0.9-3.9 3.2-3.9 5.6v14.5c0 3.3-2.7 6-6 6h-30.7c-3.3 0-6-2.7-6-6v-14.5c0-2.4-1.5-4.7-3.9-5.6q-1.2-0.5-2.4-1c-2.3-1-4.9-0.5-6.7 1.3l-10.2 10.2c-2.4 2.3-6.2 2.3-8.6 0l-21.6-21.7c-2.4-2.3-2.4-6.2 0-8.5l10.2-10.2c1.8-1.8 2.3-4.5 1.3-6.7q-0.6-1.2-1.1-2.5c-0.9-2.3-3.1-3.8-5.6-3.8h-14.4c-3.4 0-6.1-2.7-6.1-6.1v-30.6c0-3.3 2.7-6 6.1-6h14.4c2.5 0 4.7-1.6 5.6-3.9q0.5-1.2 1.1-2.4c1-2.3 0.5-5-1.3-6.7l-10.2-10.2c-2.4-2.4-2.4-6.2 0-8.6l21.6-21.6c2.4-2.4 6.2-2.4 8.6 0l10.2 10.2c1.8 1.7 4.4 2.2 6.7 1.2q1.2-0.5 2.4-1c2.4-0.9 3.9-3.1 3.9-5.6v-14.5c0-3.3 2.7-6 6-6h30.7c3.3 0 6 2.7 6 6v14.5c0 2.5 1.5 4.7 3.9 5.6q1.2 0.5 2.4 1c2.3 1 4.9 0.5 6.7-1.2l10.2-10.2c2.4-2.4 6.2-2.4 8.6 0l21.6 21.6c2.4 2.4 2.4 6.2 0 8.6l-10.2 10.2c-1.8 1.7-2.3 4.4-1.3 6.7q0.6 1.2 1.1 2.4c0.9 2.3 3.1 3.9 5.6 3.9h14.4c3.4 0 6.1 2.7 6.1 6v30.6c0 3.4-2.7 6.1-6.1 6.1zm-84.4-57.3c-19.8 0-35.8 16.1-35.8 35.9 0 19.8 16 35.9 35.8 35.9 19.9 0 35.9-16.1 35.9-35.9 0-19.8-16-35.9-35.9-35.9z"/><path class="b" d="m153.9 108.9c0 31.1-25.1 56.2-56.2 56.2-31 0-56.2-25.1-56.2-56.2 0-31 25.2-56.2 56.2-56.2 31.1 0 56.2 25.2 56.2 56.2z"/><path class="c" d="m403.6 365.4c0 9.6-87.3 17.4-195 17.4-107.7 0-195-7.8-195-17.4 0-9.5 87.3-17.3 195-17.3 107.7 0 195 7.8 195 17.3z"/><path class="d" d="m197.7 352.9v-38.5h72.4c1.4 0 2.6-1.1 2.6-2.6 0-1.5-1.2-2.7-2.6-2.7h-199.4c-1.8 0-3.2 1.5-3.2 3.3v42.6c0 1.8 1.4 3.3 3.2 3.3h199.4c1.4 0 2.6-1.2 2.6-2.7 0-1.5-1.2-2.7-2.6-2.7z"/><path class="e" d="m270.1 352.9h-72.4v-38.5h72.4z"/><path class="f" d="m197.7 352.9h-124.5v-38.5h124.5z"/><path class="g" d="m270.1 317.9h-196.9v-3.5h196.9z"/><path class="g" d="m94.5 347.6l-6.9-6.2-6.8 6.2v-33.2h13.7z"/><path class="h" d="m93.8 346.5l-7.1-6.5-7 6.5v-32.1h14.1z"/><path class="i" d="m91.8 316.6v25.9l-5.1-4.7-7 7v1.7l7-6.5 7.1 6.5v-29.9z"/><path class="g" d="m93.8 316.6h-14.1v-2.2h14.1z"/><path class="j" d="m67.5 311.7h205.2c-0.1-1.4-1.2-2.6-2.7-2.6h-199.3c-1.6 0-2.9 1.1-3.2 2.6z"/><path class="g" d="m272.7 355.7h-205.2c0.4 1.6 1.7 2.6 3.2 2.6h199.3c1.3 0 2.7-1.1 2.7-2.6z"/><path class="k" d="m249.7 309.1h-204v-42.5h204z"/><path class="l" d="m242.7 309.1h-26.5v-42.5h26.5z"/><path class="l" d="m207.4 282.8h-137.7v10.1h137.7z"/><path class="m" d="m235.7 287.9c0 3.4-2.8 6.2-6.2 6.2-3.4 0-6.2-2.8-6.2-6.2 0-3.5 2.8-6.3 6.2-6.3 3.4 0 6.2 2.8 6.2 6.3z"/><path class="n" d="m249.7 269.2h-204v-2.6h204z"/><path class="g" d="m249.7 306.2h-204v2.9h204z"/><path class="o" d="m275.9 261.3h-72.4v-32.5h72.4z"/><path class="p" d="m275.9 228.8c1.4 0 2.6-1.2 2.6-2.7 0-1.4-1.2-2.6-2.6-2.6h-199.4c-1.8 0-3.3 1.4-3.3 3.2v36.6c0 1.8 1.5 3.3 3.3 3.3h199.4c1.4 0 2.6-1.2 2.6-2.7 0-1.4-1.2-2.6-2.6-2.6h-72.4v-32.5z"/><path class="g" d="m275.9 228.8h-72.4v32.5h2.8v-29.8h3.2v23.5l4.3-3.8v-19.7h62.1z"/><path class="q" d="m212.9 250.1l-4.3 3.8v-25.1h4.3z"/><path class="r" d="m212.1 229.7v19.8l-3.5 3v1.4l4.3-3.8v-20.4z"/><path class="g" d="m212.9 229.7h-4.3v-0.9h4.3z"/><path class="h" d="m184.1 266.6h-6.1v-43.1h6.1z"/><path class="h" d="m174.8 266.6h-6.2v-43.1h6.2z"/><path class="s" d="m73.3 226h205.2c-0.1-1.4-1.2-2.5-2.6-2.5h-199.4c-1.6 0-2.9 1.1-3.2 2.5z"/><path class="g" d="m278.5 264h-205.2c0.4 1.7 1.8 2.6 3.2 2.6h199.4c1.2 0 2.6-1 2.6-2.6z"/><path class="t" d="m354.7 208.5h-232.7v-150.5h232.7z"/><path class="u" d="m354.7 67.3h-232.7v-9.3h232.7z"/><path class="l" d="m327.7 178h-178.7v-104.8h178.7z"/><path class="v" d="m252.1 135.6h-27.5v-19.9h27.5z"/><path class="w" d="m244 125.6l-11.3-6.5v13z"/><path class="u" d="m218.6 193.5h-69.6v-5.5h69.6z"/><path class="u" d="m253.4 199.5h-104.4v-3.3h104.4z"/><path class="u" d="m307.6 190.7c0 1.8-1.4 3.2-3.1 3.2-1.7 0-3.2-1.4-3.2-3.2 0-1.7 1.5-3.1 3.2-3.1 1.7 0 3.1 1.4 3.1 3.1z"/><path class="u" d="m316.6 190.7c0 1.8-1.5 3.2-3.2 3.2-1.7 0-3.1-1.4-3.1-3.2 0-1.7 1.4-3.1 3.1-3.1 1.7 0 3.2 1.4 3.2 3.1z"/><path class="u" d="m325.5 190.7c0 1.8-1.4 3.2-3.1 3.2-1.8 0-3.2-1.4-3.2-3.2 0-1.7 1.4-3.1 3.2-3.1 1.7 0 3.1 1.4 3.1 3.1z"/><path class="v" d="m131.4 62.6c0 1.6-1.3 2.9-2.8 2.9-1.6 0-2.9-1.3-2.9-2.9 0-1.5 1.3-2.8 2.9-2.8 1.5 0 2.8 1.3 2.8 2.8z"/><path class="q" d="m138.8 62.6c0 1.6-1.3 2.9-2.8 2.9-1.6 0-2.8-1.3-2.8-2.9 0-1.5 1.2-2.8 2.8-2.8 1.5 0 2.8 1.3 2.8 2.8z"/><path class="h" d="m146.2 62.6c0 1.6-1.2 2.9-2.8 2.9-1.6 0-2.8-1.3-2.8-2.9 0-1.5 1.2-2.8 2.8-2.8 1.6 0 2.8 1.3 2.8 2.8z"/><g style="opacity:.1;mix-blend-mode:multiply"><path  d="m356.7 117.8c0 9-7.3 16.3-16.4 16.3-9 0-16.3-7.3-16.3-16.3 0-9.1 7.3-16.4 16.3-16.4 9.1 0 16.4 7.3 16.4 16.4z"/></g><path class="x" d="m356.7 115.8c0 9-7.3 16.3-16.4 16.3-9 0-16.3-7.3-16.3-16.3 0-9.1 7.3-16.4 16.3-16.4 9.1 0 16.4 7.3 16.4 16.4z"/><path class="w" d="m351.6 113.8l-11.3-2.9-11.3 2.9 11.3 2.9z"/><path class="w" d="m334.9 116.5v4.1c5.4 2.5 10.9 0 10.9 0v-4.1l-5.5 1.4z"/><path class="w" d="m349.5 117.7c0-0.1-0.1-0.3-0.2-0.3v-2.5l-0.3 0.1v2.4c-0.1 0-0.2 0.2-0.2 0.3q0 0.2 0.2 0.3l-0.2 1.5c0.4 0.2 0.7 0 0.7 0l-0.2-1.5q0.2-0.1 0.2-0.3z"/><g style="opacity:.1;mix-blend-mode:multiply"><path  d="m356.7 153.7c0 9-7.3 16.4-16.4 16.4-9 0-16.3-7.4-16.3-16.4 0-9 7.3-16.4 16.3-16.4 9.1 0 16.4 7.4 16.4 16.4z"/></g><path class="y" d="m356.7 151.7c0 9-7.3 16.4-16.4 16.4-9 0-16.3-7.4-16.3-16.4 0-9 7.3-16.4 16.3-16.4 9.1 0 16.4 7.4 16.4 16.4z"/><path fill-rule="evenodd" class="w" d="m347.3 149.5c0 0.8-1.1 1.5-1.5 2.2-0.3 0.8 0 2.1-0.6 2.7-0.6 0.5-1.8 0.2-2.6 0.6-0.7 0.3-1.4 1.4-2.3 1.4-0.8 0-1.5-1.1-2.3-1.4-0.7-0.4-2-0.1-2.6-0.6-0.6-0.6-0.3-1.9-0.6-2.7-0.3-0.7-1.4-1.4-1.4-2.2 0-0.9 1.1-1.6 1.4-2.3 0.3-0.8 0-2.1 0.6-2.6 0.6-0.6 1.9-0.3 2.6-0.7 0.8-0.3 1.5-1.4 2.3-1.4 0.9 0 1.6 1.1 2.3 1.4 0.8 0.4 2 0.1 2.6 0.7 0.6 0.5 0.3 1.8 0.6 2.6 0.4 0.7 1.5 1.4 1.5 2.3zm-3 0c0-2.3-1.8-4.1-4-4.1-2.2 0-4 1.8-4 4.1 0 2.2 1.8 4 4 4 2.2 0 4-1.8 4-4z"/><path class="w" d="m340.3 157.5c-0.8 0-1.4-0.8-2.1-1.3v5.6l2.1-1.7 2.2 1.7v-5.6c-0.7 0.5-1.4 1.3-2.2 1.3z"/><g style="opacity:.1;mix-blend-mode:multiply"><path  d="m370.7 65.7c0 16.8-13.6 30.4-30.4 30.4-16.8 0-30.4-13.6-30.4-30.4 0-16.8 13.6-30.4 30.4-30.4 16.8 0 30.4 13.6 30.4 30.4z"/></g><path class="z" d="m370.7 63.7c0 16.8-13.6 30.4-30.4 30.4-16.8 0-30.4-13.6-30.4-30.4 0-16.8 13.6-30.4 30.4-30.4 16.8 0 30.4 13.6 30.4 30.4z"/><path class="b" d="m350.8 54.9c0 6.6-4.7 11.9-10.5 11.9-5.7 0-10.4-5.3-10.4-11.9 0-6.5 4.7-11.9 10.4-11.9 5.8 0 10.5 5.4 10.5 11.9z"/><path class="b" d="m360.5 78.2c0-4.8-4.2-7-10.4-9.1-2.6 2.7-6 2.3-9.8 2.3-3.8 0-7.2 0.4-9.8-2.3-6.2 2.1-10.4 4.3-10.4 9.1"/><path class="A" d="m101 177.3c0 0 2.6 8.6 0.8 14.4-1.8 5.8-4.1 9.3-4.1 9.3l1.4 0.7c0 0 8.6-5.3 10.6-11.2 2-6 0-14.4 0-14.4z"/><path class="h" d="m101.5 118.5c-5.8 3.1-1.9 7.7-6.6 14.5-1.9 2.9-1.7 6.3 0.8 8.9 4.4 4.5-0.2 5.3 1.2 9.5 1.6 4.5 12.8 3.9 15.1-1.4 2.5-6.1-3.4-35.2-10.5-31.5z"/><path class="B" d="m108.3 202c-18.3 6.5-26.1 18.7-25.1 32 1 13.2 5.3 29.7 4.4 33.9 0 0-6.4 9.9-4.4 11.6 2 1.8 10.4-12.3 11.3-15.5 2-6.9-3-29.5 2-34.8 5-5.2 26.9-20.9 47.2-22.1 0 0-15.1-12.4-35.4-5.1z"/><path class="g" d="m94.6 249.7c-0.5-8.3-1-17.4 1.9-20.5 5-5.2 26.9-20.9 47.2-22.1 0 0-15.1-12.4-35.4-5.1-7.2 2.6-13.1 6.4-17.6 10.8-8.6 9.1 3.1 21.5 3.9 36.9z"/><path class="C" d="m143.7 207.1c0 17.6-9.2 16.4-24.7 16.4-15.5 0-8 29.9 0 37.8 0 0 4.7 5.5-1.8 17-6.5 11.5-2.2-11.7-2.2-11.7 0 0-21.2-21.1-21.4-40.6-0.1-19.5 25.4-25.2 25.4-25.2 0 0 24.7-5.1 24.7 6.3z"/><path class="D" d="m108.8 150.6c-11.9 3.9-11.1 18.9-9.5 26.4 0 0 6.4 2.3 10.9-4 3.6-4.9 1.8-23.4-1.4-22.4z"/><path class="D" d="m108.8 150.6c-5.7 3.3-8.5 15.8-0.5 30.7 6 11.1 0 20.7 0 20.7 0 0 14.7-4.9 35.4 5.1 0-8-0.7-20.1-3.7-31.5-2.3-8.5-5.8-16.6-11.4-22.3-3.3-3.4-7.7-5.4-12.8-4.2z"/><path class="A" d="m106.5 138.9c0 0 2.8 4.7 2.3 11.9 0 0-1.1 1.8 0.5 3.7 0.8 0 1.7-2.1 4.4-2.6 5.3-1.1 0.6-15.3 0.6-15.3z"/><path class="A" d="m97.7 128.4c-0.5 4.5 1.9 13 4.8 15.3 5.5 4.6 11.3-2.8 12.5-8.2 0 0 2.8 1.8 3.9-4.1 0.6-3.3-0.8-4.3-2-4.1-0.9 0.2-1.6 1.2-1.6 1.2 0 0-2-7.9-8.4-5.6-6.4 2.3-7.9-5.3-9.2 5.5z"/><path class="h" d="m103.5 118.8c-0.4 0-9.1 1.3-7.6 11.2 0 0 5.7 3 15.8 0 0 0 0.3-11-8.2-11.2z"/><path class="E" d="m103.6 199.2l33-0.2-22.4 9.6-33 0.1z"/><path class="F" d="m114.2 208.6h-33l-16.1-22.6 1.7-1h32.1z"/><path class="A" d="m112.8 208.6h-31.6l-16.1-22.6h33z"/><path class="F" d="m114.2 211.7h-33v-3.1h33z"/><path class="F" d="m114.2 211.7l22.4-10.3v-2.4l-22.4 9.6z"/><path class="A" d="m124.6 151.3c-5.4 1.1-4.2 9.3 4 16.7 8.1 7.5 10.4 14 4 21.2-3.3 3.8-18.7 9.6-19.3 13.5 0 0-0.8 2.9 5.4 0 6.2-3 4.3-5.1 6.7-5.4 4.1-0.5 16.6-7 18.3-12.3 3.3-10.5-9.2-35.8-19.1-33.7z"/><path class="D" d="m124 150.2c-8.1 2.8-1.6 14.9 7.4 22.8 0 0 5.5 1.1 10.1-6.2 0 0-8.5-19.7-17.5-16.6z"/><path class="h" d="m110.7 126.1c2 1.3 1.7 3.5 1.7 7.1 0 3.7 1.6 3.7 2.3 7.3 0.7 3.7-6.3 7.9-1.6 12.6 4.7 4.7 16.7 0.4 15.4-6.8-0.9-4.8-5.6-4.7-3.6-10 2.3-6.5-1.9-6.2-4.3-8.9-1.3-1.6-3.3-7.6-6.9-9.5-4.2-2.2-10.5-2.1-15.2 3.2z"/><path class="G" d="m83.3 99.7c-7.5-7.5-19.7-7.5-27.2 0-7.5 7.5-7.5 19.7 0 27.2 6.5 6.4 16.5 7.3 23.9 2.6l7 1.1-1.1-7c4.7-7.5 3.9-17.4-2.6-23.9z"/><path class="w" d="m65.3 108.1l-1.1-1.7q0.5-0.4 1.1-0.8 0.6-0.4 1.3-0.6 0.6-0.3 1.4-0.5 0.8-0.1 1.6-0.1 1.3 0 2.3 0.3 1 0.4 1.7 1 0.7 0.6 1.1 1.5 0.4 0.8 0.4 1.9 0 1-0.3 1.8-0.3 0.7-0.7 1.2-0.4 0.6-1 1-0.5 0.4-0.9 0.7-0.5 0.4-0.8 0.7-0.4 0.3-0.4 0.7l-0.4 1.9h-2.8l-0.3-2.1q-0.1-0.7 0.1-1.2 0.2-0.5 0.6-0.8 0.5-0.4 1-0.8 0.5-0.4 1-0.8 0.4-0.4 0.7-0.9 0.3-0.5 0.3-1.2 0-0.8-0.5-1.2-0.5-0.5-1.4-0.5-0.7 0-1.2 0.1-0.5 0.2-0.8 0.4-0.4 0.2-0.6 0.3-0.3 0.1-0.5 0.1-0.6 0-0.9-0.4zm1.4 13.8q0-0.5 0.2-0.9 0.2-0.4 0.5-0.7 0.3-0.3 0.7-0.5 0.4-0.2 0.9-0.2 0.5 0 1 0.2 0.4 0.2 0.7 0.5 0.3 0.3 0.5 0.7 0.2 0.4 0.2 0.9 0 0.5-0.2 0.9-0.2 0.4-0.5 0.7-0.3 0.3-0.7 0.5-0.5 0.2-1 0.2-0.5 0-0.9-0.2-0.4-0.2-0.7-0.5-0.3-0.3-0.5-0.7-0.2-0.4-0.2-0.9z"/><path class="A" d="m280.6 307.3c0 0 3.4 15.4 2.7 18.5-0.8 3.2-7.5 6.6-7.5 6.6 0 0-3.8 0-5.9 2.2-3.5 3.5 6.2 5.4 6.2 5.4 0 0 16.6-7.4 18.1-15.1 1.5-7.7-3.1-18.9-3.1-18.9z"/><path class="l" d="m308.1 274.9c-15.5 2.1-31.1 14.2-27.5 32.4h12.5z"/><path class="A" d="m343.6 307.3c0 0-3.4 15.4-2.6 18.5 0.7 3.2 7.4 6.6 7.4 6.6 0 0 3.8 0 5.9 2.2 3.5 3.5-6.2 5.4-6.2 5.4 0 0-16.6-7.4-18.1-15.1-1.5-7.7 3.1-18.9 3.1-18.9z"/><path class="l" d="m316.1 274.9c15.5 2.1 31.2 14.2 27.5 32.4h-12.5z"/><path class="H" d="m328.2 348.4c2.9 4.2 27.2-17.4 41.5-14.2 0 0 3.3 39.5-57.3 39.5-60.6 0-57.2-39.5-57.2-39.5 14.2-3.2 38.5 18.4 41.5 14.2z"/><path class="g" d="m309.6 362.7c-3.1-0.9-6.6-2.4-10.3-4.8-6.5-4.3-17-14.1-27.6-18.7l36.9 30.2c1.7-0.5 13.2-0.4 18.4-1.9 13.5-4 31.3-31 31.3-31-10.1 3.5-32.8 22.7-48.7 26.2z"/><path class="I" d="m290.8 353.8c3.9 3.7 26.6 21.9 38.8 15.5 12.1-6.4 26.9 4.3 21.3 4.3-5.6 0-22.4 0-22.4 0-85.5 2.7-87.5-36.1-73.3-39.4 0 0 10.1-3.8 35.6 19.6z"/><path class="g" d="m308.7 366.2c-6.2 2.2-14.4 2-19.6 1.2 0 0 2.3 4.9 17.1 4.9 2.7 0 6.1-1.1 9.8-3-2.9-1-4.5-1.8-7.3-3.1z"/><path class="J" d="m334.1 353.8c-4 3.7-26.7 21.9-38.8 15.5-12.2-6.4-27 4.3-21.4 4.3 5.7 0 22.4 0 22.4 0 85.6 2.7 87.6-36.1 73.4-39.4 0 0-10.1-3.8-35.6 19.6z"/><path class="l" d="m312.4 352.8c13 0 15.8-4.4 15.8-4.4 0 0-1.2-10.5 5.3-35.9 6.5-25.4-7.1-38-21.1-38-13.9 0-27.6 12.6-21 38 6.5 25.4 5.3 35.9 5.3 35.9 0 0 2.7 4.4 15.7 4.4z"/><path class="K" d="m328.5 257l-16.1-9.3-15.7 9.5c5.8 2.1-1.2 6.8 3.6 10.7 1.9 1.6 3.5 0.8 5.5 0.8 1.8 0 2.9 2.1 6.6 2.1 3.1 0 4.5-2.6 6.7-2.1 1.8 0.5 3.6 0.8 5.5-0.8 4.7-3.9-2.2-7.8 3.9-10.9z"/><path class="A" d="m317.2 268.3c-1.4 5.7-0.5 10.7-0.5 10.7 0 0-0.5 2.2-4.6 2-4.1 0-4.5-2.2-4.5-2.2 0 0 1.2-5.2 0-10.7z"/><path class="A" d="m305.4 260.4c0.7 2.2 0.1 4.3-1.3 4.7-1.5 0.4-3.2-1.1-3.9-3.4-0.7-2.2-0.1-4.3 1.4-4.7 1.4-0.4 3.2 1.1 3.8 3.4z"/><path class="A" d="m319.4 260.4c-0.7 2.2 0 4.3 1.4 4.7 1.5 0.4 3.2-1.1 3.9-3.4 0.7-2.2 0-4.3-1.4-4.7-1.5-0.4-3.2 1.1-3.9 3.4z"/><path class="A" d="m323.2 257.8c0 7.2-4.8 13-10.8 13-5.9 0-10.7-5.8-10.7-13 0-7.3 4.8-13.1 10.7-13.1 6 0 10.8 5.8 10.8 13.1z"/><path class="K" d="m312.4 234.7c5.3 0 5.1 4.9 10.8 3.9 3.3-0.6 6.7 3.9 4.9 7.6-3.5 7 2.9 4 2.6 8.4-0.2 4.4-6 3.8-6 3.8-0.2-0.9-1.4-1.4-1.4-1.4l-0.8 5.2c0 0-1.7-0.3-1.9-1.6-0.3-1.4 0.7-4 0.9-5 0.3-1.8-1.7-0.8-3.4-1.1-2.8-0.4-4.8-2.8-7.7-1.7-6.1 2.2-6.8 0.8-7 2.8-0.2 1 1.1 3.6 0.9 5-0.3 1.3-1.9 1.6-1.9 1.6l-0.8-5.2c0 0-1.2 0.5-1.4 1.4 0 0-5.8 0.6-6.1-3.8-0.3-4.4 6.3-2.4 2.1-8.9-1.9-3.1 0.1-8.4 5.5-6.2 5.4 2.1 5.5-4.8 10.7-4.8z"/><path class="L" d="m319.1 357.8c0 0.9-3 1.7-6.7 1.7-3.6 0-6.6-0.8-6.6-1.7 0-1 3-1.7 6.6-1.7 3.7 0 6.7 0.7 6.7 1.7z"/><path class="q" d="m312.4 360.5c5.8 0 6.3-1.2 6.3-1.2l37.3-21.7v-1.9l-37.3 21.7c0 0-0.5 1.3-6.3 1.3-5.8 0-6.3-1.3-6.3-1.3l-37.3-21.7v1.9l37.3 21.7c0 0 0.5 1.2 6.3 1.2z"/><path class="E" d="m269.7 336.3l5.2-3.1c0 0 37.6 5.5 37.5 18.8v4.3c0 0-4.5 0.3-6.3 1.1z"/><path class="u" d="m274.9 333.2l-5.2 3.1 36.4 21.1c1.8-0.8 6.3-1.1 6.3-1.1-0.1-13-37.5-23.1-37.5-23.1z"/><path class="E" d="m355.1 336.3l-5.1-3.1c0 0-37.6 5.5-37.6 18.8v4.3c0 0 4.5 0.3 6.3 1.1z"/><path class="u" d="m350 333.2l5.1 3.1-36.4 21.1c-1.8-0.8-6.3-1.1-6.3-1.1 0.2-13 37.6-23.1 37.6-23.1z"/><path class="M" d="m331.6 204.5c0-10.6-8.6-19.2-19.2-19.2-10.6 0-19.2 8.6-19.2 19.2 0 9.2 6.4 16.8 15 18.8l4.2 5.7 4.2-5.7c8.6-2 15-9.6 15-18.8z"/><path class="w" d="m318.4 201c0-3.6-3.3-6.5-7.1-5.8-2.4 0.4-4.3 2.4-4.7 4.8-0.4 2.1 0.3 4 1.6 5.2 1 1 1.6 2.3 1.6 3.7v0.4c0 0.7 0.5 1.3 1.3 1.3h2.7c0.7 0 1.3-0.6 1.3-1.3v-0.4c0-1.3 0.5-2.6 1.4-3.5 1.2-1.1 1.9-2.7 1.9-4.4z"/><path class="w" d="m314.6 211.4h-4.3c-0.4 0-0.7 0.3-0.7 0.7 0 0.3 0.3 0.6 0.7 0.6h4.3c0.3 0 0.6-0.3 0.6-0.6 0-0.4-0.3-0.7-0.6-0.7z"/><path class="w" d="m314.3 213.5h-3.7c-0.4 0-0.6 0.3-0.6 0.6 0 0.3 0.2 0.5 0.6 0.5h3.7c0.3 0 0.6-0.2 0.6-0.5 0-0.3-0.3-0.6-0.6-0.6z"/></svg>