<svg xmlns="http://www.w3.org/2000/svg" xmlns:xlink="http://www.w3.org/1999/xlink" viewBox="0 0 345 302.5"><defs><style>.cls-1,.cls-2{fill:none;}.cls-1{stroke:#191919;stroke-miterlimit:10;}.cls-2{clip-path:url(#clip-path);}.cls-3{clip-path:url(#clip-path-2);}.cls-4{fill:#14f474;}</style><clipPath id="clip-path"><path class="cls-1" d="M64.5,185,17.79,240.77A14.79,14.79,0,0,0,29.1,265.05l227.2.39a14.79,14.79,0,0,0,11.15-24.53L218.88,185.5H219V35.5h24V.5H47v35H65V185Z"/></clipPath><clipPath id="clip-path-2"><path class="cls-2" d="M64.5,185,17.79,240.77A14.79,14.79,0,0,0,29.1,265.05l227.2.39a14.79,14.79,0,0,0,11.15-24.53L218.88,185.5H219V35.5h24V.5H47v35H65V185Z"/></clipPath></defs><title>Recurso 1</title><g id="Capa_2" data-name="Capa 2"><g id="Capa_1-2" data-name="Capa 1"><g class="cls-3"><rect class="cls-4" y="104.5" width="345" height="198"/></g><path class="cls-1" d="M64.5,185,17.79,240.77A14.79,14.79,0,0,0,29.1,265.05l227.2.39a14.79,14.79,0,0,0,11.15-24.53L218.88,185.5H219V35.5h24V.5H47v35H65V185Z"/></g></g></svg>